%TF.GenerationSoftware,KiCad,Pcbnew,10.0.3*%
%TF.CreationDate,2026-08-14T13:10:42-04:00*%
%TF.ProjectId,NeuralCard,4e657572-616c-4436-9172-642e6b696361,v2.3.1*%
%TF.SameCoordinates,Original*%
%TF.FileFunction,Legend,Bot*%
%TF.FilePolarity,Positive*%
%FSLAX46Y46*%
G04 Gerber Fmt 4.6, Leading zero omitted, Abs format (unit mm)*
G04 Created by KiCad (PCBNEW 10.0.3) date 2026-08-14 13:10:42*
%MOMM*%
%LPD*%
G01*
G04 APERTURE LIST*
G04 Aperture macros list*
%AMRoundRect*
0 Rectangle with rounded corners*
0 $1 Rounding radius*
0 $2 $3 $4 $5 $6 $7 $8 $9 X,Y pos of 4 corners*
0 Add a 4 corners polygon primitive as box body*
4,1,4,$2,$3,$4,$5,$6,$7,$8,$9,$2,$3,0*
0 Add four circle primitives for the rounded corners*
1,1,$1+$1,$2,$3*
1,1,$1+$1,$4,$5*
1,1,$1+$1,$6,$7*
1,1,$1+$1,$8,$9*
0 Add four rect primitives between the rounded corners*
20,1,$1+$1,$2,$3,$4,$5,0*
20,1,$1+$1,$4,$5,$6,$7,0*
20,1,$1+$1,$6,$7,$8,$9,0*
20,1,$1+$1,$8,$9,$2,$3,0*%
%AMFreePoly0*
4,1,17,0.000318,0.699935,0.299923,0.699935,0.335278,0.685290,0.349923,0.649935,0.349923,-0.650088,0.335278,-0.685443,0.299923,-0.700088,-0.000076,-0.700088,-0.000445,-0.699935,-0.300050,-0.699935,-0.335405,-0.685290,-0.350050,-0.649935,-0.350050,0.650088,-0.335405,0.685443,-0.300050,0.700088,-0.000051,0.700088,0.000318,0.699935,0.000318,0.699935,$1*%
%AMFreePoly1*
4,1,17,0.000187,0.700037,0.300076,0.700037,0.335431,0.685392,0.350076,0.650037,0.350076,-0.649935,0.335431,-0.685290,0.300076,-0.699935,0.000051,-0.699935,-0.000009,-0.699910,-0.299898,-0.699910,-0.335253,-0.685265,-0.349898,-0.649910,-0.349898,0.650062,-0.335253,0.685417,-0.299898,0.700062,0.000127,0.700062,0.000187,0.700037,0.000187,0.700037,$1*%
%AMFreePoly2*
4,1,13,0.335227,0.685239,0.349872,0.649884,0.349872,-0.650088,0.335227,-0.685443,0.299872,-0.700088,-0.300152,-0.700088,-0.335507,-0.685443,-0.350152,-0.650088,-0.350152,0.649884,-0.335507,0.685239,-0.300152,0.699884,0.299872,0.699884,0.335227,0.685239,0.335227,0.685239,$1*%
G04 Aperture macros list end*
%ADD10C,0.153000*%
%ADD11C,0.160000*%
%ADD12C,0.120000*%
%ADD13C,0.150000*%
%ADD14C,0.300000*%
%ADD15C,0.060000*%
%ADD16C,0.250000*%
%ADD17C,0.000000*%
%ADD18C,0.210000*%
%ADD19RoundRect,0.200000X-0.200000X-0.275000X0.200000X-0.275000X0.200000X0.275000X-0.200000X0.275000X0*%
%ADD20R,1.072000X0.532000*%
%ADD21RoundRect,0.200000X-0.275000X0.200000X-0.275000X-0.200000X0.275000X-0.200000X0.275000X0.200000X0*%
%ADD22RoundRect,0.225000X0.250000X-0.225000X0.250000X0.225000X-0.250000X0.225000X-0.250000X-0.225000X0*%
%ADD23R,1.000000X0.800000*%
%ADD24R,1.500000X0.900000*%
%ADD25R,0.900000X1.500000*%
%ADD26R,0.900000X0.900000*%
%ADD27C,0.850000*%
%ADD28RoundRect,0.150000X-0.500000X0.150000X-0.500000X-0.150000X0.500000X-0.150000X0.500000X0.150000X0*%
%ADD29RoundRect,0.175000X-0.175000X0.350000X-0.175000X-0.350000X0.175000X-0.350000X0.175000X0.350000X0*%
%ADD30RoundRect,0.225000X-0.250000X0.225000X-0.250000X-0.225000X0.250000X-0.225000X0.250000X0.225000X0*%
%ADD31RoundRect,0.250000X-0.250000X-0.475000X0.250000X-0.475000X0.250000X0.475000X-0.250000X0.475000X0*%
%ADD32C,2.000000*%
%ADD33RoundRect,0.225000X-0.225000X-0.250000X0.225000X-0.250000X0.225000X0.250000X-0.225000X0.250000X0*%
%ADD34R,3.000000X4.200000*%
%ADD35R,1.000000X0.750000*%
%ADD36C,0.750000*%
%ADD37O,2.000000X1.200000*%
%ADD38O,1.800000X1.200000*%
%ADD39FreePoly0,270.000000*%
%ADD40FreePoly1,270.000000*%
%ADD41R,1.300000X0.300000*%
%ADD42FreePoly2,270.000000*%
%ADD43RoundRect,0.250000X0.475000X-0.250000X0.475000X0.250000X-0.475000X0.250000X-0.475000X-0.250000X0*%
%ADD44RoundRect,0.150000X-0.150000X-0.550000X0.150000X-0.550000X0.150000X0.550000X-0.150000X0.550000X0*%
%ADD45R,1.500000X2.200000*%
%ADD46R,0.675000X0.280000*%
%ADD47R,0.280000X0.675000*%
%ADD48R,1.157000X0.490000*%
%ADD49R,1.175000X0.490000*%
G04 APERTURE END LIST*
G36*
X32000000Y-45800000D02*
G01*
X45000000Y-45800000D01*
X45000000Y-49000000D01*
X32000000Y-49000000D01*
X32000000Y-45800000D01*
G37*
D10*
X13153570Y-51440033D02*
X13032142Y-51480509D01*
X13032142Y-51480509D02*
X12991665Y-51520985D01*
X12991665Y-51520985D02*
X12951189Y-51601937D01*
X12951189Y-51601937D02*
X12951189Y-51723366D01*
X12951189Y-51723366D02*
X12991665Y-51804318D01*
X12991665Y-51804318D02*
X13032142Y-51844795D01*
X13032142Y-51844795D02*
X13113094Y-51885271D01*
X13113094Y-51885271D02*
X13436904Y-51885271D01*
X13436904Y-51885271D02*
X13436904Y-51035271D01*
X13436904Y-51035271D02*
X13153570Y-51035271D01*
X13153570Y-51035271D02*
X13072618Y-51075747D01*
X13072618Y-51075747D02*
X13032142Y-51116223D01*
X13032142Y-51116223D02*
X12991665Y-51197175D01*
X12991665Y-51197175D02*
X12991665Y-51278128D01*
X12991665Y-51278128D02*
X13032142Y-51359080D01*
X13032142Y-51359080D02*
X13072618Y-51399556D01*
X13072618Y-51399556D02*
X13153570Y-51440033D01*
X13153570Y-51440033D02*
X13436904Y-51440033D01*
X12424999Y-51035271D02*
X12263094Y-51035271D01*
X12263094Y-51035271D02*
X12182142Y-51075747D01*
X12182142Y-51075747D02*
X12101189Y-51156699D01*
X12101189Y-51156699D02*
X12060713Y-51318604D01*
X12060713Y-51318604D02*
X12060713Y-51601937D01*
X12060713Y-51601937D02*
X12101189Y-51763842D01*
X12101189Y-51763842D02*
X12182142Y-51844795D01*
X12182142Y-51844795D02*
X12263094Y-51885271D01*
X12263094Y-51885271D02*
X12424999Y-51885271D01*
X12424999Y-51885271D02*
X12505951Y-51844795D01*
X12505951Y-51844795D02*
X12586904Y-51763842D01*
X12586904Y-51763842D02*
X12627380Y-51601937D01*
X12627380Y-51601937D02*
X12627380Y-51318604D01*
X12627380Y-51318604D02*
X12586904Y-51156699D01*
X12586904Y-51156699D02*
X12505951Y-51075747D01*
X12505951Y-51075747D02*
X12424999Y-51035271D01*
X11534523Y-51035271D02*
X11372618Y-51035271D01*
X11372618Y-51035271D02*
X11291666Y-51075747D01*
X11291666Y-51075747D02*
X11210713Y-51156699D01*
X11210713Y-51156699D02*
X11170237Y-51318604D01*
X11170237Y-51318604D02*
X11170237Y-51601937D01*
X11170237Y-51601937D02*
X11210713Y-51763842D01*
X11210713Y-51763842D02*
X11291666Y-51844795D01*
X11291666Y-51844795D02*
X11372618Y-51885271D01*
X11372618Y-51885271D02*
X11534523Y-51885271D01*
X11534523Y-51885271D02*
X11615475Y-51844795D01*
X11615475Y-51844795D02*
X11696428Y-51763842D01*
X11696428Y-51763842D02*
X11736904Y-51601937D01*
X11736904Y-51601937D02*
X11736904Y-51318604D01*
X11736904Y-51318604D02*
X11696428Y-51156699D01*
X11696428Y-51156699D02*
X11615475Y-51075747D01*
X11615475Y-51075747D02*
X11534523Y-51035271D01*
X10927380Y-51035271D02*
X10441666Y-51035271D01*
X10684523Y-51885271D02*
X10684523Y-51035271D01*
X24465475Y-51635271D02*
X24748809Y-51230509D01*
X24951190Y-51635271D02*
X24951190Y-50785271D01*
X24951190Y-50785271D02*
X24627380Y-50785271D01*
X24627380Y-50785271D02*
X24546428Y-50825747D01*
X24546428Y-50825747D02*
X24505951Y-50866223D01*
X24505951Y-50866223D02*
X24465475Y-50947175D01*
X24465475Y-50947175D02*
X24465475Y-51068604D01*
X24465475Y-51068604D02*
X24505951Y-51149556D01*
X24505951Y-51149556D02*
X24546428Y-51190033D01*
X24546428Y-51190033D02*
X24627380Y-51230509D01*
X24627380Y-51230509D02*
X24951190Y-51230509D01*
X24141666Y-51594795D02*
X24020237Y-51635271D01*
X24020237Y-51635271D02*
X23817856Y-51635271D01*
X23817856Y-51635271D02*
X23736904Y-51594795D01*
X23736904Y-51594795D02*
X23696428Y-51554318D01*
X23696428Y-51554318D02*
X23655951Y-51473366D01*
X23655951Y-51473366D02*
X23655951Y-51392414D01*
X23655951Y-51392414D02*
X23696428Y-51311461D01*
X23696428Y-51311461D02*
X23736904Y-51270985D01*
X23736904Y-51270985D02*
X23817856Y-51230509D01*
X23817856Y-51230509D02*
X23979761Y-51190033D01*
X23979761Y-51190033D02*
X24060713Y-51149556D01*
X24060713Y-51149556D02*
X24101190Y-51109080D01*
X24101190Y-51109080D02*
X24141666Y-51028128D01*
X24141666Y-51028128D02*
X24141666Y-50947175D01*
X24141666Y-50947175D02*
X24101190Y-50866223D01*
X24101190Y-50866223D02*
X24060713Y-50825747D01*
X24060713Y-50825747D02*
X23979761Y-50785271D01*
X23979761Y-50785271D02*
X23777380Y-50785271D01*
X23777380Y-50785271D02*
X23655951Y-50825747D01*
X23413094Y-50785271D02*
X22927380Y-50785271D01*
X23170237Y-51635271D02*
X23170237Y-50785271D01*
D11*
X31133333Y-47744431D02*
X31011904Y-47784907D01*
X31011904Y-47784907D02*
X30809523Y-47784907D01*
X30809523Y-47784907D02*
X30728571Y-47744431D01*
X30728571Y-47744431D02*
X30688095Y-47703954D01*
X30688095Y-47703954D02*
X30647618Y-47623002D01*
X30647618Y-47623002D02*
X30647618Y-47542050D01*
X30647618Y-47542050D02*
X30688095Y-47461097D01*
X30688095Y-47461097D02*
X30728571Y-47420621D01*
X30728571Y-47420621D02*
X30809523Y-47380145D01*
X30809523Y-47380145D02*
X30971428Y-47339669D01*
X30971428Y-47339669D02*
X31052380Y-47299192D01*
X31052380Y-47299192D02*
X31092857Y-47258716D01*
X31092857Y-47258716D02*
X31133333Y-47177764D01*
X31133333Y-47177764D02*
X31133333Y-47096811D01*
X31133333Y-47096811D02*
X31092857Y-47015859D01*
X31092857Y-47015859D02*
X31052380Y-46975383D01*
X31052380Y-46975383D02*
X30971428Y-46934907D01*
X30971428Y-46934907D02*
X30769047Y-46934907D01*
X30769047Y-46934907D02*
X30647618Y-46975383D01*
X29676190Y-46894431D02*
X30404761Y-47987288D01*
X29392857Y-47784907D02*
X29392857Y-46934907D01*
X29392857Y-46934907D02*
X28907142Y-47784907D01*
X28907142Y-47784907D02*
X28907142Y-46934907D01*
X65428571Y-37803954D02*
X65469047Y-37844431D01*
X65469047Y-37844431D02*
X65590476Y-37884907D01*
X65590476Y-37884907D02*
X65671428Y-37884907D01*
X65671428Y-37884907D02*
X65792857Y-37844431D01*
X65792857Y-37844431D02*
X65873809Y-37763478D01*
X65873809Y-37763478D02*
X65914286Y-37682526D01*
X65914286Y-37682526D02*
X65954762Y-37520621D01*
X65954762Y-37520621D02*
X65954762Y-37399192D01*
X65954762Y-37399192D02*
X65914286Y-37237288D01*
X65914286Y-37237288D02*
X65873809Y-37156335D01*
X65873809Y-37156335D02*
X65792857Y-37075383D01*
X65792857Y-37075383D02*
X65671428Y-37034907D01*
X65671428Y-37034907D02*
X65590476Y-37034907D01*
X65590476Y-37034907D02*
X65469047Y-37075383D01*
X65469047Y-37075383D02*
X65428571Y-37115859D01*
X64578571Y-37884907D02*
X64861905Y-37480145D01*
X65064286Y-37884907D02*
X65064286Y-37034907D01*
X65064286Y-37034907D02*
X64740476Y-37034907D01*
X64740476Y-37034907D02*
X64659524Y-37075383D01*
X64659524Y-37075383D02*
X64619047Y-37115859D01*
X64619047Y-37115859D02*
X64578571Y-37196811D01*
X64578571Y-37196811D02*
X64578571Y-37318240D01*
X64578571Y-37318240D02*
X64619047Y-37399192D01*
X64619047Y-37399192D02*
X64659524Y-37439669D01*
X64659524Y-37439669D02*
X64740476Y-37480145D01*
X64740476Y-37480145D02*
X65064286Y-37480145D01*
X64254762Y-37115859D02*
X64214286Y-37075383D01*
X64214286Y-37075383D02*
X64133333Y-37034907D01*
X64133333Y-37034907D02*
X63930952Y-37034907D01*
X63930952Y-37034907D02*
X63850000Y-37075383D01*
X63850000Y-37075383D02*
X63809524Y-37115859D01*
X63809524Y-37115859D02*
X63769047Y-37196811D01*
X63769047Y-37196811D02*
X63769047Y-37277764D01*
X63769047Y-37277764D02*
X63809524Y-37399192D01*
X63809524Y-37399192D02*
X64295238Y-37884907D01*
X64295238Y-37884907D02*
X63769047Y-37884907D01*
X63242857Y-37034907D02*
X63161904Y-37034907D01*
X63161904Y-37034907D02*
X63080952Y-37075383D01*
X63080952Y-37075383D02*
X63040476Y-37115859D01*
X63040476Y-37115859D02*
X63000000Y-37196811D01*
X63000000Y-37196811D02*
X62959523Y-37358716D01*
X62959523Y-37358716D02*
X62959523Y-37561097D01*
X62959523Y-37561097D02*
X63000000Y-37723002D01*
X63000000Y-37723002D02*
X63040476Y-37803954D01*
X63040476Y-37803954D02*
X63080952Y-37844431D01*
X63080952Y-37844431D02*
X63161904Y-37884907D01*
X63161904Y-37884907D02*
X63242857Y-37884907D01*
X63242857Y-37884907D02*
X63323809Y-37844431D01*
X63323809Y-37844431D02*
X63364285Y-37803954D01*
X63364285Y-37803954D02*
X63404762Y-37723002D01*
X63404762Y-37723002D02*
X63445238Y-37561097D01*
X63445238Y-37561097D02*
X63445238Y-37358716D01*
X63445238Y-37358716D02*
X63404762Y-37196811D01*
X63404762Y-37196811D02*
X63364285Y-37115859D01*
X63364285Y-37115859D02*
X63323809Y-37075383D01*
X63323809Y-37075383D02*
X63242857Y-37034907D01*
X62676190Y-37034907D02*
X62149999Y-37034907D01*
X62149999Y-37034907D02*
X62433333Y-37358716D01*
X62433333Y-37358716D02*
X62311904Y-37358716D01*
X62311904Y-37358716D02*
X62230952Y-37399192D01*
X62230952Y-37399192D02*
X62190476Y-37439669D01*
X62190476Y-37439669D02*
X62149999Y-37520621D01*
X62149999Y-37520621D02*
X62149999Y-37723002D01*
X62149999Y-37723002D02*
X62190476Y-37803954D01*
X62190476Y-37803954D02*
X62230952Y-37844431D01*
X62230952Y-37844431D02*
X62311904Y-37884907D01*
X62311904Y-37884907D02*
X62554761Y-37884907D01*
X62554761Y-37884907D02*
X62635714Y-37844431D01*
X62635714Y-37844431D02*
X62676190Y-37803954D01*
X61826190Y-37115859D02*
X61785714Y-37075383D01*
X61785714Y-37075383D02*
X61704761Y-37034907D01*
X61704761Y-37034907D02*
X61502380Y-37034907D01*
X61502380Y-37034907D02*
X61421428Y-37075383D01*
X61421428Y-37075383D02*
X61380952Y-37115859D01*
X61380952Y-37115859D02*
X61340475Y-37196811D01*
X61340475Y-37196811D02*
X61340475Y-37277764D01*
X61340475Y-37277764D02*
X61380952Y-37399192D01*
X61380952Y-37399192D02*
X61866666Y-37884907D01*
X61866666Y-37884907D02*
X61340475Y-37884907D01*
X60207142Y-37520621D02*
X60247618Y-37561097D01*
X60247618Y-37561097D02*
X60207142Y-37601573D01*
X60207142Y-37601573D02*
X60166666Y-37561097D01*
X60166666Y-37561097D02*
X60207142Y-37520621D01*
X60207142Y-37520621D02*
X60207142Y-37601573D01*
D10*
X60796428Y-6135271D02*
X61079762Y-5730509D01*
X61282143Y-6135271D02*
X61282143Y-5285271D01*
X61282143Y-5285271D02*
X60958333Y-5285271D01*
X60958333Y-5285271D02*
X60877381Y-5325747D01*
X60877381Y-5325747D02*
X60836904Y-5366223D01*
X60836904Y-5366223D02*
X60796428Y-5447175D01*
X60796428Y-5447175D02*
X60796428Y-5568604D01*
X60796428Y-5568604D02*
X60836904Y-5649556D01*
X60836904Y-5649556D02*
X60877381Y-5690033D01*
X60877381Y-5690033D02*
X60958333Y-5730509D01*
X60958333Y-5730509D02*
X61282143Y-5730509D01*
X59986904Y-6135271D02*
X60472619Y-6135271D01*
X60229762Y-6135271D02*
X60229762Y-5285271D01*
X60229762Y-5285271D02*
X60310714Y-5406699D01*
X60310714Y-5406699D02*
X60391666Y-5487652D01*
X60391666Y-5487652D02*
X60472619Y-5528128D01*
X59177380Y-6135271D02*
X59663095Y-6135271D01*
X59420238Y-6135271D02*
X59420238Y-5285271D01*
X59420238Y-5285271D02*
X59501190Y-5406699D01*
X59501190Y-5406699D02*
X59582142Y-5487652D01*
X59582142Y-5487652D02*
X59663095Y-5528128D01*
X70285271Y-16352380D02*
X70973366Y-16352380D01*
X70973366Y-16352380D02*
X71054318Y-16392857D01*
X71054318Y-16392857D02*
X71094795Y-16433333D01*
X71094795Y-16433333D02*
X71135271Y-16514285D01*
X71135271Y-16514285D02*
X71135271Y-16676190D01*
X71135271Y-16676190D02*
X71094795Y-16757142D01*
X71094795Y-16757142D02*
X71054318Y-16797619D01*
X71054318Y-16797619D02*
X70973366Y-16838095D01*
X70973366Y-16838095D02*
X70285271Y-16838095D01*
X70285271Y-17647618D02*
X70285271Y-17242856D01*
X70285271Y-17242856D02*
X70690033Y-17202380D01*
X70690033Y-17202380D02*
X70649556Y-17242856D01*
X70649556Y-17242856D02*
X70609080Y-17323809D01*
X70609080Y-17323809D02*
X70609080Y-17526190D01*
X70609080Y-17526190D02*
X70649556Y-17607142D01*
X70649556Y-17607142D02*
X70690033Y-17647618D01*
X70690033Y-17647618D02*
X70770985Y-17688095D01*
X70770985Y-17688095D02*
X70973366Y-17688095D01*
X70973366Y-17688095D02*
X71054318Y-17647618D01*
X71054318Y-17647618D02*
X71094795Y-17607142D01*
X71094795Y-17607142D02*
X71135271Y-17526190D01*
X71135271Y-17526190D02*
X71135271Y-17323809D01*
X71135271Y-17323809D02*
X71094795Y-17242856D01*
X71094795Y-17242856D02*
X71054318Y-17202380D01*
X85385271Y-21453571D02*
X84980509Y-21170237D01*
X85385271Y-20967856D02*
X84535271Y-20967856D01*
X84535271Y-20967856D02*
X84535271Y-21291666D01*
X84535271Y-21291666D02*
X84575747Y-21372618D01*
X84575747Y-21372618D02*
X84616223Y-21413095D01*
X84616223Y-21413095D02*
X84697175Y-21453571D01*
X84697175Y-21453571D02*
X84818604Y-21453571D01*
X84818604Y-21453571D02*
X84899556Y-21413095D01*
X84899556Y-21413095D02*
X84940033Y-21372618D01*
X84940033Y-21372618D02*
X84980509Y-21291666D01*
X84980509Y-21291666D02*
X84980509Y-20967856D01*
X85385271Y-22263095D02*
X85385271Y-21777380D01*
X85385271Y-22020237D02*
X84535271Y-22020237D01*
X84535271Y-22020237D02*
X84656699Y-21939285D01*
X84656699Y-21939285D02*
X84737652Y-21858333D01*
X84737652Y-21858333D02*
X84778128Y-21777380D01*
X84535271Y-22546428D02*
X84535271Y-23072619D01*
X84535271Y-23072619D02*
X84859080Y-22789285D01*
X84859080Y-22789285D02*
X84859080Y-22910714D01*
X84859080Y-22910714D02*
X84899556Y-22991666D01*
X84899556Y-22991666D02*
X84940033Y-23032142D01*
X84940033Y-23032142D02*
X85020985Y-23072619D01*
X85020985Y-23072619D02*
X85223366Y-23072619D01*
X85223366Y-23072619D02*
X85304318Y-23032142D01*
X85304318Y-23032142D02*
X85344795Y-22991666D01*
X85344795Y-22991666D02*
X85385271Y-22910714D01*
X85385271Y-22910714D02*
X85385271Y-22667857D01*
X85385271Y-22667857D02*
X85344795Y-22586904D01*
X85344795Y-22586904D02*
X85304318Y-22546428D01*
X47414666Y-6385271D02*
X47698000Y-5980509D01*
X47900381Y-6385271D02*
X47900381Y-5535271D01*
X47900381Y-5535271D02*
X47576571Y-5535271D01*
X47576571Y-5535271D02*
X47495619Y-5575747D01*
X47495619Y-5575747D02*
X47455142Y-5616223D01*
X47455142Y-5616223D02*
X47414666Y-5697175D01*
X47414666Y-5697175D02*
X47414666Y-5818604D01*
X47414666Y-5818604D02*
X47455142Y-5899556D01*
X47455142Y-5899556D02*
X47495619Y-5940033D01*
X47495619Y-5940033D02*
X47576571Y-5980509D01*
X47576571Y-5980509D02*
X47900381Y-5980509D01*
X47009904Y-6385271D02*
X46848000Y-6385271D01*
X46848000Y-6385271D02*
X46767047Y-6344795D01*
X46767047Y-6344795D02*
X46726571Y-6304318D01*
X46726571Y-6304318D02*
X46645619Y-6182890D01*
X46645619Y-6182890D02*
X46605142Y-6020985D01*
X46605142Y-6020985D02*
X46605142Y-5697175D01*
X46605142Y-5697175D02*
X46645619Y-5616223D01*
X46645619Y-5616223D02*
X46686095Y-5575747D01*
X46686095Y-5575747D02*
X46767047Y-5535271D01*
X46767047Y-5535271D02*
X46928952Y-5535271D01*
X46928952Y-5535271D02*
X47009904Y-5575747D01*
X47009904Y-5575747D02*
X47050381Y-5616223D01*
X47050381Y-5616223D02*
X47090857Y-5697175D01*
X47090857Y-5697175D02*
X47090857Y-5899556D01*
X47090857Y-5899556D02*
X47050381Y-5980509D01*
X47050381Y-5980509D02*
X47009904Y-6020985D01*
X47009904Y-6020985D02*
X46928952Y-6061461D01*
X46928952Y-6061461D02*
X46767047Y-6061461D01*
X46767047Y-6061461D02*
X46686095Y-6020985D01*
X46686095Y-6020985D02*
X46645619Y-5980509D01*
X46645619Y-5980509D02*
X46605142Y-5899556D01*
X45734318Y-21858333D02*
X45774795Y-21817857D01*
X45774795Y-21817857D02*
X45815271Y-21696428D01*
X45815271Y-21696428D02*
X45815271Y-21615476D01*
X45815271Y-21615476D02*
X45774795Y-21494047D01*
X45774795Y-21494047D02*
X45693842Y-21413095D01*
X45693842Y-21413095D02*
X45612890Y-21372618D01*
X45612890Y-21372618D02*
X45450985Y-21332142D01*
X45450985Y-21332142D02*
X45329556Y-21332142D01*
X45329556Y-21332142D02*
X45167652Y-21372618D01*
X45167652Y-21372618D02*
X45086699Y-21413095D01*
X45086699Y-21413095D02*
X45005747Y-21494047D01*
X45005747Y-21494047D02*
X44965271Y-21615476D01*
X44965271Y-21615476D02*
X44965271Y-21696428D01*
X44965271Y-21696428D02*
X45005747Y-21817857D01*
X45005747Y-21817857D02*
X45046223Y-21858333D01*
X45248604Y-22586904D02*
X45815271Y-22586904D01*
X44924795Y-22384523D02*
X45531937Y-22182142D01*
X45531937Y-22182142D02*
X45531937Y-22708333D01*
X8141666Y-3135271D02*
X8425000Y-2730509D01*
X8627381Y-3135271D02*
X8627381Y-2285271D01*
X8627381Y-2285271D02*
X8303571Y-2285271D01*
X8303571Y-2285271D02*
X8222619Y-2325747D01*
X8222619Y-2325747D02*
X8182142Y-2366223D01*
X8182142Y-2366223D02*
X8141666Y-2447175D01*
X8141666Y-2447175D02*
X8141666Y-2568604D01*
X8141666Y-2568604D02*
X8182142Y-2649556D01*
X8182142Y-2649556D02*
X8222619Y-2690033D01*
X8222619Y-2690033D02*
X8303571Y-2730509D01*
X8303571Y-2730509D02*
X8627381Y-2730509D01*
X7332142Y-3135271D02*
X7817857Y-3135271D01*
X7575000Y-3135271D02*
X7575000Y-2285271D01*
X7575000Y-2285271D02*
X7655952Y-2406699D01*
X7655952Y-2406699D02*
X7736904Y-2487652D01*
X7736904Y-2487652D02*
X7817857Y-2528128D01*
X80734318Y-7858333D02*
X80774795Y-7817857D01*
X80774795Y-7817857D02*
X80815271Y-7696428D01*
X80815271Y-7696428D02*
X80815271Y-7615476D01*
X80815271Y-7615476D02*
X80774795Y-7494047D01*
X80774795Y-7494047D02*
X80693842Y-7413095D01*
X80693842Y-7413095D02*
X80612890Y-7372618D01*
X80612890Y-7372618D02*
X80450985Y-7332142D01*
X80450985Y-7332142D02*
X80329556Y-7332142D01*
X80329556Y-7332142D02*
X80167652Y-7372618D01*
X80167652Y-7372618D02*
X80086699Y-7413095D01*
X80086699Y-7413095D02*
X80005747Y-7494047D01*
X80005747Y-7494047D02*
X79965271Y-7615476D01*
X79965271Y-7615476D02*
X79965271Y-7696428D01*
X79965271Y-7696428D02*
X80005747Y-7817857D01*
X80005747Y-7817857D02*
X80046223Y-7858333D01*
X79965271Y-8141666D02*
X79965271Y-8708333D01*
X79965271Y-8708333D02*
X80815271Y-8344047D01*
X45734318Y-16858333D02*
X45774795Y-16817857D01*
X45774795Y-16817857D02*
X45815271Y-16696428D01*
X45815271Y-16696428D02*
X45815271Y-16615476D01*
X45815271Y-16615476D02*
X45774795Y-16494047D01*
X45774795Y-16494047D02*
X45693842Y-16413095D01*
X45693842Y-16413095D02*
X45612890Y-16372618D01*
X45612890Y-16372618D02*
X45450985Y-16332142D01*
X45450985Y-16332142D02*
X45329556Y-16332142D01*
X45329556Y-16332142D02*
X45167652Y-16372618D01*
X45167652Y-16372618D02*
X45086699Y-16413095D01*
X45086699Y-16413095D02*
X45005747Y-16494047D01*
X45005747Y-16494047D02*
X44965271Y-16615476D01*
X44965271Y-16615476D02*
X44965271Y-16696428D01*
X44965271Y-16696428D02*
X45005747Y-16817857D01*
X45005747Y-16817857D02*
X45046223Y-16858333D01*
X44965271Y-17141666D02*
X44965271Y-17667857D01*
X44965271Y-17667857D02*
X45289080Y-17384523D01*
X45289080Y-17384523D02*
X45289080Y-17505952D01*
X45289080Y-17505952D02*
X45329556Y-17586904D01*
X45329556Y-17586904D02*
X45370033Y-17627380D01*
X45370033Y-17627380D02*
X45450985Y-17667857D01*
X45450985Y-17667857D02*
X45653366Y-17667857D01*
X45653366Y-17667857D02*
X45734318Y-17627380D01*
X45734318Y-17627380D02*
X45774795Y-17586904D01*
X45774795Y-17586904D02*
X45815271Y-17505952D01*
X45815271Y-17505952D02*
X45815271Y-17263095D01*
X45815271Y-17263095D02*
X45774795Y-17182142D01*
X45774795Y-17182142D02*
X45734318Y-17141666D01*
X54296428Y-6385271D02*
X54579762Y-5980509D01*
X54782143Y-6385271D02*
X54782143Y-5535271D01*
X54782143Y-5535271D02*
X54458333Y-5535271D01*
X54458333Y-5535271D02*
X54377381Y-5575747D01*
X54377381Y-5575747D02*
X54336904Y-5616223D01*
X54336904Y-5616223D02*
X54296428Y-5697175D01*
X54296428Y-5697175D02*
X54296428Y-5818604D01*
X54296428Y-5818604D02*
X54336904Y-5899556D01*
X54336904Y-5899556D02*
X54377381Y-5940033D01*
X54377381Y-5940033D02*
X54458333Y-5980509D01*
X54458333Y-5980509D02*
X54782143Y-5980509D01*
X53486904Y-6385271D02*
X53972619Y-6385271D01*
X53729762Y-6385271D02*
X53729762Y-5535271D01*
X53729762Y-5535271D02*
X53810714Y-5656699D01*
X53810714Y-5656699D02*
X53891666Y-5737652D01*
X53891666Y-5737652D02*
X53972619Y-5778128D01*
X52960714Y-5535271D02*
X52879761Y-5535271D01*
X52879761Y-5535271D02*
X52798809Y-5575747D01*
X52798809Y-5575747D02*
X52758333Y-5616223D01*
X52758333Y-5616223D02*
X52717857Y-5697175D01*
X52717857Y-5697175D02*
X52677380Y-5859080D01*
X52677380Y-5859080D02*
X52677380Y-6061461D01*
X52677380Y-6061461D02*
X52717857Y-6223366D01*
X52717857Y-6223366D02*
X52758333Y-6304318D01*
X52758333Y-6304318D02*
X52798809Y-6344795D01*
X52798809Y-6344795D02*
X52879761Y-6385271D01*
X52879761Y-6385271D02*
X52960714Y-6385271D01*
X52960714Y-6385271D02*
X53041666Y-6344795D01*
X53041666Y-6344795D02*
X53082142Y-6304318D01*
X53082142Y-6304318D02*
X53122619Y-6223366D01*
X53122619Y-6223366D02*
X53163095Y-6061461D01*
X53163095Y-6061461D02*
X53163095Y-5859080D01*
X53163095Y-5859080D02*
X53122619Y-5697175D01*
X53122619Y-5697175D02*
X53082142Y-5616223D01*
X53082142Y-5616223D02*
X53041666Y-5575747D01*
X53041666Y-5575747D02*
X52960714Y-5535271D01*
X78580952Y-23216223D02*
X78661904Y-23175747D01*
X78661904Y-23175747D02*
X78742857Y-23094795D01*
X78742857Y-23094795D02*
X78864285Y-22973366D01*
X78864285Y-22973366D02*
X78945238Y-22932890D01*
X78945238Y-22932890D02*
X79026190Y-22932890D01*
X78985714Y-23135271D02*
X79066666Y-23094795D01*
X79066666Y-23094795D02*
X79147619Y-23013842D01*
X79147619Y-23013842D02*
X79188095Y-22851937D01*
X79188095Y-22851937D02*
X79188095Y-22568604D01*
X79188095Y-22568604D02*
X79147619Y-22406699D01*
X79147619Y-22406699D02*
X79066666Y-22325747D01*
X79066666Y-22325747D02*
X78985714Y-22285271D01*
X78985714Y-22285271D02*
X78823809Y-22285271D01*
X78823809Y-22285271D02*
X78742857Y-22325747D01*
X78742857Y-22325747D02*
X78661904Y-22406699D01*
X78661904Y-22406699D02*
X78621428Y-22568604D01*
X78621428Y-22568604D02*
X78621428Y-22851937D01*
X78621428Y-22851937D02*
X78661904Y-23013842D01*
X78661904Y-23013842D02*
X78742857Y-23094795D01*
X78742857Y-23094795D02*
X78823809Y-23135271D01*
X78823809Y-23135271D02*
X78985714Y-23135271D01*
X77811904Y-23135271D02*
X78297619Y-23135271D01*
X78054762Y-23135271D02*
X78054762Y-22285271D01*
X78054762Y-22285271D02*
X78135714Y-22406699D01*
X78135714Y-22406699D02*
X78216666Y-22487652D01*
X78216666Y-22487652D02*
X78297619Y-22528128D01*
X34323666Y-6315271D02*
X34607000Y-5910509D01*
X34809381Y-6315271D02*
X34809381Y-5465271D01*
X34809381Y-5465271D02*
X34485571Y-5465271D01*
X34485571Y-5465271D02*
X34404619Y-5505747D01*
X34404619Y-5505747D02*
X34364142Y-5546223D01*
X34364142Y-5546223D02*
X34323666Y-5627175D01*
X34323666Y-5627175D02*
X34323666Y-5748604D01*
X34323666Y-5748604D02*
X34364142Y-5829556D01*
X34364142Y-5829556D02*
X34404619Y-5870033D01*
X34404619Y-5870033D02*
X34485571Y-5910509D01*
X34485571Y-5910509D02*
X34809381Y-5910509D01*
X33554619Y-5465271D02*
X33959381Y-5465271D01*
X33959381Y-5465271D02*
X33999857Y-5870033D01*
X33999857Y-5870033D02*
X33959381Y-5829556D01*
X33959381Y-5829556D02*
X33878428Y-5789080D01*
X33878428Y-5789080D02*
X33676047Y-5789080D01*
X33676047Y-5789080D02*
X33595095Y-5829556D01*
X33595095Y-5829556D02*
X33554619Y-5870033D01*
X33554619Y-5870033D02*
X33514142Y-5950985D01*
X33514142Y-5950985D02*
X33514142Y-6153366D01*
X33514142Y-6153366D02*
X33554619Y-6234318D01*
X33554619Y-6234318D02*
X33595095Y-6274795D01*
X33595095Y-6274795D02*
X33676047Y-6315271D01*
X33676047Y-6315271D02*
X33878428Y-6315271D01*
X33878428Y-6315271D02*
X33959381Y-6274795D01*
X33959381Y-6274795D02*
X33999857Y-6234318D01*
X27777666Y-6315271D02*
X28061000Y-5910509D01*
X28263381Y-6315271D02*
X28263381Y-5465271D01*
X28263381Y-5465271D02*
X27939571Y-5465271D01*
X27939571Y-5465271D02*
X27858619Y-5505747D01*
X27858619Y-5505747D02*
X27818142Y-5546223D01*
X27818142Y-5546223D02*
X27777666Y-5627175D01*
X27777666Y-5627175D02*
X27777666Y-5748604D01*
X27777666Y-5748604D02*
X27818142Y-5829556D01*
X27818142Y-5829556D02*
X27858619Y-5870033D01*
X27858619Y-5870033D02*
X27939571Y-5910509D01*
X27939571Y-5910509D02*
X28263381Y-5910509D01*
X27049095Y-5748604D02*
X27049095Y-6315271D01*
X27251476Y-5424795D02*
X27453857Y-6031937D01*
X27453857Y-6031937D02*
X26927666Y-6031937D01*
X32647619Y-39430271D02*
X32647619Y-40118366D01*
X32647619Y-40118366D02*
X32607142Y-40199318D01*
X32607142Y-40199318D02*
X32566666Y-40239795D01*
X32566666Y-40239795D02*
X32485714Y-40280271D01*
X32485714Y-40280271D02*
X32323809Y-40280271D01*
X32323809Y-40280271D02*
X32242857Y-40239795D01*
X32242857Y-40239795D02*
X32202380Y-40199318D01*
X32202380Y-40199318D02*
X32161904Y-40118366D01*
X32161904Y-40118366D02*
X32161904Y-39430271D01*
X31311904Y-40280271D02*
X31797619Y-40280271D01*
X31554762Y-40280271D02*
X31554762Y-39430271D01*
X31554762Y-39430271D02*
X31635714Y-39551699D01*
X31635714Y-39551699D02*
X31716666Y-39632652D01*
X31716666Y-39632652D02*
X31797619Y-39673128D01*
X81844795Y-33616666D02*
X81885271Y-33738095D01*
X81885271Y-33738095D02*
X81885271Y-33940476D01*
X81885271Y-33940476D02*
X81844795Y-34021428D01*
X81844795Y-34021428D02*
X81804318Y-34061904D01*
X81804318Y-34061904D02*
X81723366Y-34102381D01*
X81723366Y-34102381D02*
X81642414Y-34102381D01*
X81642414Y-34102381D02*
X81561461Y-34061904D01*
X81561461Y-34061904D02*
X81520985Y-34021428D01*
X81520985Y-34021428D02*
X81480509Y-33940476D01*
X81480509Y-33940476D02*
X81440033Y-33778571D01*
X81440033Y-33778571D02*
X81399556Y-33697619D01*
X81399556Y-33697619D02*
X81359080Y-33657142D01*
X81359080Y-33657142D02*
X81278128Y-33616666D01*
X81278128Y-33616666D02*
X81197175Y-33616666D01*
X81197175Y-33616666D02*
X81116223Y-33657142D01*
X81116223Y-33657142D02*
X81075747Y-33697619D01*
X81075747Y-33697619D02*
X81035271Y-33778571D01*
X81035271Y-33778571D02*
X81035271Y-33980952D01*
X81035271Y-33980952D02*
X81075747Y-34102381D01*
X81035271Y-34385714D02*
X81885271Y-34588095D01*
X81885271Y-34588095D02*
X81278128Y-34750000D01*
X81278128Y-34750000D02*
X81885271Y-34911905D01*
X81885271Y-34911905D02*
X81035271Y-35114286D01*
X81035271Y-35357143D02*
X81035271Y-35883334D01*
X81035271Y-35883334D02*
X81359080Y-35600000D01*
X81359080Y-35600000D02*
X81359080Y-35721429D01*
X81359080Y-35721429D02*
X81399556Y-35802381D01*
X81399556Y-35802381D02*
X81440033Y-35842857D01*
X81440033Y-35842857D02*
X81520985Y-35883334D01*
X81520985Y-35883334D02*
X81723366Y-35883334D01*
X81723366Y-35883334D02*
X81804318Y-35842857D01*
X81804318Y-35842857D02*
X81844795Y-35802381D01*
X81844795Y-35802381D02*
X81885271Y-35721429D01*
X81885271Y-35721429D02*
X81885271Y-35478572D01*
X81885271Y-35478572D02*
X81844795Y-35397619D01*
X81844795Y-35397619D02*
X81804318Y-35357143D01*
X19374318Y-35108333D02*
X19414795Y-35067857D01*
X19414795Y-35067857D02*
X19455271Y-34946428D01*
X19455271Y-34946428D02*
X19455271Y-34865476D01*
X19455271Y-34865476D02*
X19414795Y-34744047D01*
X19414795Y-34744047D02*
X19333842Y-34663095D01*
X19333842Y-34663095D02*
X19252890Y-34622618D01*
X19252890Y-34622618D02*
X19090985Y-34582142D01*
X19090985Y-34582142D02*
X18969556Y-34582142D01*
X18969556Y-34582142D02*
X18807652Y-34622618D01*
X18807652Y-34622618D02*
X18726699Y-34663095D01*
X18726699Y-34663095D02*
X18645747Y-34744047D01*
X18645747Y-34744047D02*
X18605271Y-34865476D01*
X18605271Y-34865476D02*
X18605271Y-34946428D01*
X18605271Y-34946428D02*
X18645747Y-35067857D01*
X18645747Y-35067857D02*
X18686223Y-35108333D01*
X18686223Y-35432142D02*
X18645747Y-35472618D01*
X18645747Y-35472618D02*
X18605271Y-35553571D01*
X18605271Y-35553571D02*
X18605271Y-35755952D01*
X18605271Y-35755952D02*
X18645747Y-35836904D01*
X18645747Y-35836904D02*
X18686223Y-35877380D01*
X18686223Y-35877380D02*
X18767175Y-35917857D01*
X18767175Y-35917857D02*
X18848128Y-35917857D01*
X18848128Y-35917857D02*
X18969556Y-35877380D01*
X18969556Y-35877380D02*
X19455271Y-35391666D01*
X19455271Y-35391666D02*
X19455271Y-35917857D01*
X73391666Y-3054318D02*
X73432142Y-3094795D01*
X73432142Y-3094795D02*
X73553571Y-3135271D01*
X73553571Y-3135271D02*
X73634523Y-3135271D01*
X73634523Y-3135271D02*
X73755952Y-3094795D01*
X73755952Y-3094795D02*
X73836904Y-3013842D01*
X73836904Y-3013842D02*
X73877381Y-2932890D01*
X73877381Y-2932890D02*
X73917857Y-2770985D01*
X73917857Y-2770985D02*
X73917857Y-2649556D01*
X73917857Y-2649556D02*
X73877381Y-2487652D01*
X73877381Y-2487652D02*
X73836904Y-2406699D01*
X73836904Y-2406699D02*
X73755952Y-2325747D01*
X73755952Y-2325747D02*
X73634523Y-2285271D01*
X73634523Y-2285271D02*
X73553571Y-2285271D01*
X73553571Y-2285271D02*
X73432142Y-2325747D01*
X73432142Y-2325747D02*
X73391666Y-2366223D01*
X72986904Y-3135271D02*
X72825000Y-3135271D01*
X72825000Y-3135271D02*
X72744047Y-3094795D01*
X72744047Y-3094795D02*
X72703571Y-3054318D01*
X72703571Y-3054318D02*
X72622619Y-2932890D01*
X72622619Y-2932890D02*
X72582142Y-2770985D01*
X72582142Y-2770985D02*
X72582142Y-2447175D01*
X72582142Y-2447175D02*
X72622619Y-2366223D01*
X72622619Y-2366223D02*
X72663095Y-2325747D01*
X72663095Y-2325747D02*
X72744047Y-2285271D01*
X72744047Y-2285271D02*
X72905952Y-2285271D01*
X72905952Y-2285271D02*
X72986904Y-2325747D01*
X72986904Y-2325747D02*
X73027381Y-2366223D01*
X73027381Y-2366223D02*
X73067857Y-2447175D01*
X73067857Y-2447175D02*
X73067857Y-2649556D01*
X73067857Y-2649556D02*
X73027381Y-2730509D01*
X73027381Y-2730509D02*
X72986904Y-2770985D01*
X72986904Y-2770985D02*
X72905952Y-2811461D01*
X72905952Y-2811461D02*
X72744047Y-2811461D01*
X72744047Y-2811461D02*
X72663095Y-2770985D01*
X72663095Y-2770985D02*
X72622619Y-2730509D01*
X72622619Y-2730509D02*
X72582142Y-2649556D01*
X21232666Y-6315271D02*
X21516000Y-5910509D01*
X21718381Y-6315271D02*
X21718381Y-5465271D01*
X21718381Y-5465271D02*
X21394571Y-5465271D01*
X21394571Y-5465271D02*
X21313619Y-5505747D01*
X21313619Y-5505747D02*
X21273142Y-5546223D01*
X21273142Y-5546223D02*
X21232666Y-5627175D01*
X21232666Y-5627175D02*
X21232666Y-5748604D01*
X21232666Y-5748604D02*
X21273142Y-5829556D01*
X21273142Y-5829556D02*
X21313619Y-5870033D01*
X21313619Y-5870033D02*
X21394571Y-5910509D01*
X21394571Y-5910509D02*
X21718381Y-5910509D01*
X20949333Y-5465271D02*
X20423142Y-5465271D01*
X20423142Y-5465271D02*
X20706476Y-5789080D01*
X20706476Y-5789080D02*
X20585047Y-5789080D01*
X20585047Y-5789080D02*
X20504095Y-5829556D01*
X20504095Y-5829556D02*
X20463619Y-5870033D01*
X20463619Y-5870033D02*
X20423142Y-5950985D01*
X20423142Y-5950985D02*
X20423142Y-6153366D01*
X20423142Y-6153366D02*
X20463619Y-6234318D01*
X20463619Y-6234318D02*
X20504095Y-6274795D01*
X20504095Y-6274795D02*
X20585047Y-6315271D01*
X20585047Y-6315271D02*
X20827904Y-6315271D01*
X20827904Y-6315271D02*
X20908857Y-6274795D01*
X20908857Y-6274795D02*
X20949333Y-6234318D01*
X71804318Y-7608333D02*
X71844795Y-7567857D01*
X71844795Y-7567857D02*
X71885271Y-7446428D01*
X71885271Y-7446428D02*
X71885271Y-7365476D01*
X71885271Y-7365476D02*
X71844795Y-7244047D01*
X71844795Y-7244047D02*
X71763842Y-7163095D01*
X71763842Y-7163095D02*
X71682890Y-7122618D01*
X71682890Y-7122618D02*
X71520985Y-7082142D01*
X71520985Y-7082142D02*
X71399556Y-7082142D01*
X71399556Y-7082142D02*
X71237652Y-7122618D01*
X71237652Y-7122618D02*
X71156699Y-7163095D01*
X71156699Y-7163095D02*
X71075747Y-7244047D01*
X71075747Y-7244047D02*
X71035271Y-7365476D01*
X71035271Y-7365476D02*
X71035271Y-7446428D01*
X71035271Y-7446428D02*
X71075747Y-7567857D01*
X71075747Y-7567857D02*
X71116223Y-7608333D01*
X71035271Y-8336904D02*
X71035271Y-8174999D01*
X71035271Y-8174999D02*
X71075747Y-8094047D01*
X71075747Y-8094047D02*
X71116223Y-8053571D01*
X71116223Y-8053571D02*
X71237652Y-7972618D01*
X71237652Y-7972618D02*
X71399556Y-7932142D01*
X71399556Y-7932142D02*
X71723366Y-7932142D01*
X71723366Y-7932142D02*
X71804318Y-7972618D01*
X71804318Y-7972618D02*
X71844795Y-8013095D01*
X71844795Y-8013095D02*
X71885271Y-8094047D01*
X71885271Y-8094047D02*
X71885271Y-8255952D01*
X71885271Y-8255952D02*
X71844795Y-8336904D01*
X71844795Y-8336904D02*
X71804318Y-8377380D01*
X71804318Y-8377380D02*
X71723366Y-8417857D01*
X71723366Y-8417857D02*
X71520985Y-8417857D01*
X71520985Y-8417857D02*
X71440033Y-8377380D01*
X71440033Y-8377380D02*
X71399556Y-8336904D01*
X71399556Y-8336904D02*
X71359080Y-8255952D01*
X71359080Y-8255952D02*
X71359080Y-8094047D01*
X71359080Y-8094047D02*
X71399556Y-8013095D01*
X71399556Y-8013095D02*
X71440033Y-7972618D01*
X71440033Y-7972618D02*
X71520985Y-7932142D01*
X40868666Y-6315271D02*
X41152000Y-5910509D01*
X41354381Y-6315271D02*
X41354381Y-5465271D01*
X41354381Y-5465271D02*
X41030571Y-5465271D01*
X41030571Y-5465271D02*
X40949619Y-5505747D01*
X40949619Y-5505747D02*
X40909142Y-5546223D01*
X40909142Y-5546223D02*
X40868666Y-5627175D01*
X40868666Y-5627175D02*
X40868666Y-5748604D01*
X40868666Y-5748604D02*
X40909142Y-5829556D01*
X40909142Y-5829556D02*
X40949619Y-5870033D01*
X40949619Y-5870033D02*
X41030571Y-5910509D01*
X41030571Y-5910509D02*
X41354381Y-5910509D01*
X40140095Y-5465271D02*
X40302000Y-5465271D01*
X40302000Y-5465271D02*
X40382952Y-5505747D01*
X40382952Y-5505747D02*
X40423428Y-5546223D01*
X40423428Y-5546223D02*
X40504381Y-5667652D01*
X40504381Y-5667652D02*
X40544857Y-5829556D01*
X40544857Y-5829556D02*
X40544857Y-6153366D01*
X40544857Y-6153366D02*
X40504381Y-6234318D01*
X40504381Y-6234318D02*
X40463904Y-6274795D01*
X40463904Y-6274795D02*
X40382952Y-6315271D01*
X40382952Y-6315271D02*
X40221047Y-6315271D01*
X40221047Y-6315271D02*
X40140095Y-6274795D01*
X40140095Y-6274795D02*
X40099619Y-6234318D01*
X40099619Y-6234318D02*
X40059142Y-6153366D01*
X40059142Y-6153366D02*
X40059142Y-5950985D01*
X40059142Y-5950985D02*
X40099619Y-5870033D01*
X40099619Y-5870033D02*
X40140095Y-5829556D01*
X40140095Y-5829556D02*
X40221047Y-5789080D01*
X40221047Y-5789080D02*
X40382952Y-5789080D01*
X40382952Y-5789080D02*
X40463904Y-5829556D01*
X40463904Y-5829556D02*
X40504381Y-5870033D01*
X40504381Y-5870033D02*
X40544857Y-5950985D01*
X21141666Y-18234318D02*
X21182142Y-18274795D01*
X21182142Y-18274795D02*
X21303571Y-18315271D01*
X21303571Y-18315271D02*
X21384523Y-18315271D01*
X21384523Y-18315271D02*
X21505952Y-18274795D01*
X21505952Y-18274795D02*
X21586904Y-18193842D01*
X21586904Y-18193842D02*
X21627381Y-18112890D01*
X21627381Y-18112890D02*
X21667857Y-17950985D01*
X21667857Y-17950985D02*
X21667857Y-17829556D01*
X21667857Y-17829556D02*
X21627381Y-17667652D01*
X21627381Y-17667652D02*
X21586904Y-17586699D01*
X21586904Y-17586699D02*
X21505952Y-17505747D01*
X21505952Y-17505747D02*
X21384523Y-17465271D01*
X21384523Y-17465271D02*
X21303571Y-17465271D01*
X21303571Y-17465271D02*
X21182142Y-17505747D01*
X21182142Y-17505747D02*
X21141666Y-17546223D01*
X20332142Y-18315271D02*
X20817857Y-18315271D01*
X20575000Y-18315271D02*
X20575000Y-17465271D01*
X20575000Y-17465271D02*
X20655952Y-17586699D01*
X20655952Y-17586699D02*
X20736904Y-17667652D01*
X20736904Y-17667652D02*
X20817857Y-17708128D01*
X11446428Y-14634318D02*
X11486904Y-14674795D01*
X11486904Y-14674795D02*
X11608333Y-14715271D01*
X11608333Y-14715271D02*
X11689285Y-14715271D01*
X11689285Y-14715271D02*
X11810714Y-14674795D01*
X11810714Y-14674795D02*
X11891666Y-14593842D01*
X11891666Y-14593842D02*
X11932143Y-14512890D01*
X11932143Y-14512890D02*
X11972619Y-14350985D01*
X11972619Y-14350985D02*
X11972619Y-14229556D01*
X11972619Y-14229556D02*
X11932143Y-14067652D01*
X11932143Y-14067652D02*
X11891666Y-13986699D01*
X11891666Y-13986699D02*
X11810714Y-13905747D01*
X11810714Y-13905747D02*
X11689285Y-13865271D01*
X11689285Y-13865271D02*
X11608333Y-13865271D01*
X11608333Y-13865271D02*
X11486904Y-13905747D01*
X11486904Y-13905747D02*
X11446428Y-13946223D01*
X10636904Y-14715271D02*
X11122619Y-14715271D01*
X10879762Y-14715271D02*
X10879762Y-13865271D01*
X10879762Y-13865271D02*
X10960714Y-13986699D01*
X10960714Y-13986699D02*
X11041666Y-14067652D01*
X11041666Y-14067652D02*
X11122619Y-14108128D01*
X10313095Y-13946223D02*
X10272619Y-13905747D01*
X10272619Y-13905747D02*
X10191666Y-13865271D01*
X10191666Y-13865271D02*
X9989285Y-13865271D01*
X9989285Y-13865271D02*
X9908333Y-13905747D01*
X9908333Y-13905747D02*
X9867857Y-13946223D01*
X9867857Y-13946223D02*
X9827380Y-14027175D01*
X9827380Y-14027175D02*
X9827380Y-14108128D01*
X9827380Y-14108128D02*
X9867857Y-14229556D01*
X9867857Y-14229556D02*
X10353571Y-14715271D01*
X10353571Y-14715271D02*
X9827380Y-14715271D01*
X12534318Y-7453571D02*
X12574795Y-7413095D01*
X12574795Y-7413095D02*
X12615271Y-7291666D01*
X12615271Y-7291666D02*
X12615271Y-7210714D01*
X12615271Y-7210714D02*
X12574795Y-7089285D01*
X12574795Y-7089285D02*
X12493842Y-7008333D01*
X12493842Y-7008333D02*
X12412890Y-6967856D01*
X12412890Y-6967856D02*
X12250985Y-6927380D01*
X12250985Y-6927380D02*
X12129556Y-6927380D01*
X12129556Y-6927380D02*
X11967652Y-6967856D01*
X11967652Y-6967856D02*
X11886699Y-7008333D01*
X11886699Y-7008333D02*
X11805747Y-7089285D01*
X11805747Y-7089285D02*
X11765271Y-7210714D01*
X11765271Y-7210714D02*
X11765271Y-7291666D01*
X11765271Y-7291666D02*
X11805747Y-7413095D01*
X11805747Y-7413095D02*
X11846223Y-7453571D01*
X12615271Y-8263095D02*
X12615271Y-7777380D01*
X12615271Y-8020237D02*
X11765271Y-8020237D01*
X11765271Y-8020237D02*
X11886699Y-7939285D01*
X11886699Y-7939285D02*
X11967652Y-7858333D01*
X11967652Y-7858333D02*
X12008128Y-7777380D01*
X12615271Y-9072619D02*
X12615271Y-8586904D01*
X12615271Y-8829761D02*
X11765271Y-8829761D01*
X11765271Y-8829761D02*
X11886699Y-8748809D01*
X11886699Y-8748809D02*
X11967652Y-8667857D01*
X11967652Y-8667857D02*
X12008128Y-8586904D01*
X62667856Y-31940033D02*
X62546428Y-31980509D01*
X62546428Y-31980509D02*
X62505951Y-32020985D01*
X62505951Y-32020985D02*
X62465475Y-32101937D01*
X62465475Y-32101937D02*
X62465475Y-32223366D01*
X62465475Y-32223366D02*
X62505951Y-32304318D01*
X62505951Y-32304318D02*
X62546428Y-32344795D01*
X62546428Y-32344795D02*
X62627380Y-32385271D01*
X62627380Y-32385271D02*
X62951190Y-32385271D01*
X62951190Y-32385271D02*
X62951190Y-31535271D01*
X62951190Y-31535271D02*
X62667856Y-31535271D01*
X62667856Y-31535271D02*
X62586904Y-31575747D01*
X62586904Y-31575747D02*
X62546428Y-31616223D01*
X62546428Y-31616223D02*
X62505951Y-31697175D01*
X62505951Y-31697175D02*
X62505951Y-31778128D01*
X62505951Y-31778128D02*
X62546428Y-31859080D01*
X62546428Y-31859080D02*
X62586904Y-31899556D01*
X62586904Y-31899556D02*
X62667856Y-31940033D01*
X62667856Y-31940033D02*
X62951190Y-31940033D01*
X62222618Y-31535271D02*
X61736904Y-31535271D01*
X61979761Y-32385271D02*
X61979761Y-31535271D01*
X61008332Y-32385271D02*
X61494047Y-32385271D01*
X61251190Y-32385271D02*
X61251190Y-31535271D01*
X61251190Y-31535271D02*
X61332142Y-31656699D01*
X61332142Y-31656699D02*
X61413094Y-31737652D01*
X61413094Y-31737652D02*
X61494047Y-31778128D01*
X25641666Y-11234318D02*
X25682142Y-11274795D01*
X25682142Y-11274795D02*
X25803571Y-11315271D01*
X25803571Y-11315271D02*
X25884523Y-11315271D01*
X25884523Y-11315271D02*
X26005952Y-11274795D01*
X26005952Y-11274795D02*
X26086904Y-11193842D01*
X26086904Y-11193842D02*
X26127381Y-11112890D01*
X26127381Y-11112890D02*
X26167857Y-10950985D01*
X26167857Y-10950985D02*
X26167857Y-10829556D01*
X26167857Y-10829556D02*
X26127381Y-10667652D01*
X26127381Y-10667652D02*
X26086904Y-10586699D01*
X26086904Y-10586699D02*
X26005952Y-10505747D01*
X26005952Y-10505747D02*
X25884523Y-10465271D01*
X25884523Y-10465271D02*
X25803571Y-10465271D01*
X25803571Y-10465271D02*
X25682142Y-10505747D01*
X25682142Y-10505747D02*
X25641666Y-10546223D01*
X24872619Y-10465271D02*
X25277381Y-10465271D01*
X25277381Y-10465271D02*
X25317857Y-10870033D01*
X25317857Y-10870033D02*
X25277381Y-10829556D01*
X25277381Y-10829556D02*
X25196428Y-10789080D01*
X25196428Y-10789080D02*
X24994047Y-10789080D01*
X24994047Y-10789080D02*
X24913095Y-10829556D01*
X24913095Y-10829556D02*
X24872619Y-10870033D01*
X24872619Y-10870033D02*
X24832142Y-10950985D01*
X24832142Y-10950985D02*
X24832142Y-11153366D01*
X24832142Y-11153366D02*
X24872619Y-11234318D01*
X24872619Y-11234318D02*
X24913095Y-11274795D01*
X24913095Y-11274795D02*
X24994047Y-11315271D01*
X24994047Y-11315271D02*
X25196428Y-11315271D01*
X25196428Y-11315271D02*
X25277381Y-11274795D01*
X25277381Y-11274795D02*
X25317857Y-11234318D01*
X13133333Y-53344795D02*
X13011904Y-53385271D01*
X13011904Y-53385271D02*
X12809523Y-53385271D01*
X12809523Y-53385271D02*
X12728571Y-53344795D01*
X12728571Y-53344795D02*
X12688095Y-53304318D01*
X12688095Y-53304318D02*
X12647618Y-53223366D01*
X12647618Y-53223366D02*
X12647618Y-53142414D01*
X12647618Y-53142414D02*
X12688095Y-53061461D01*
X12688095Y-53061461D02*
X12728571Y-53020985D01*
X12728571Y-53020985D02*
X12809523Y-52980509D01*
X12809523Y-52980509D02*
X12971428Y-52940033D01*
X12971428Y-52940033D02*
X13052380Y-52899556D01*
X13052380Y-52899556D02*
X13092857Y-52859080D01*
X13092857Y-52859080D02*
X13133333Y-52778128D01*
X13133333Y-52778128D02*
X13133333Y-52697175D01*
X13133333Y-52697175D02*
X13092857Y-52616223D01*
X13092857Y-52616223D02*
X13052380Y-52575747D01*
X13052380Y-52575747D02*
X12971428Y-52535271D01*
X12971428Y-52535271D02*
X12769047Y-52535271D01*
X12769047Y-52535271D02*
X12647618Y-52575747D01*
X12364285Y-52535271D02*
X12161904Y-53385271D01*
X12161904Y-53385271D02*
X11999999Y-52778128D01*
X11999999Y-52778128D02*
X11838094Y-53385271D01*
X11838094Y-53385271D02*
X11635714Y-52535271D01*
X10866665Y-53385271D02*
X11352380Y-53385271D01*
X11109523Y-53385271D02*
X11109523Y-52535271D01*
X11109523Y-52535271D02*
X11190475Y-52656699D01*
X11190475Y-52656699D02*
X11271427Y-52737652D01*
X11271427Y-52737652D02*
X11352380Y-52778128D01*
X67546428Y-3135271D02*
X67829762Y-2730509D01*
X68032143Y-3135271D02*
X68032143Y-2285271D01*
X68032143Y-2285271D02*
X67708333Y-2285271D01*
X67708333Y-2285271D02*
X67627381Y-2325747D01*
X67627381Y-2325747D02*
X67586904Y-2366223D01*
X67586904Y-2366223D02*
X67546428Y-2447175D01*
X67546428Y-2447175D02*
X67546428Y-2568604D01*
X67546428Y-2568604D02*
X67586904Y-2649556D01*
X67586904Y-2649556D02*
X67627381Y-2690033D01*
X67627381Y-2690033D02*
X67708333Y-2730509D01*
X67708333Y-2730509D02*
X68032143Y-2730509D01*
X66736904Y-3135271D02*
X67222619Y-3135271D01*
X66979762Y-3135271D02*
X66979762Y-2285271D01*
X66979762Y-2285271D02*
X67060714Y-2406699D01*
X67060714Y-2406699D02*
X67141666Y-2487652D01*
X67141666Y-2487652D02*
X67222619Y-2528128D01*
X66413095Y-2366223D02*
X66372619Y-2325747D01*
X66372619Y-2325747D02*
X66291666Y-2285271D01*
X66291666Y-2285271D02*
X66089285Y-2285271D01*
X66089285Y-2285271D02*
X66008333Y-2325747D01*
X66008333Y-2325747D02*
X65967857Y-2366223D01*
X65967857Y-2366223D02*
X65927380Y-2447175D01*
X65927380Y-2447175D02*
X65927380Y-2528128D01*
X65927380Y-2528128D02*
X65967857Y-2649556D01*
X65967857Y-2649556D02*
X66453571Y-3135271D01*
X66453571Y-3135271D02*
X65927380Y-3135271D01*
X77135271Y-19608333D02*
X76730509Y-19324999D01*
X77135271Y-19122618D02*
X76285271Y-19122618D01*
X76285271Y-19122618D02*
X76285271Y-19446428D01*
X76285271Y-19446428D02*
X76325747Y-19527380D01*
X76325747Y-19527380D02*
X76366223Y-19567857D01*
X76366223Y-19567857D02*
X76447175Y-19608333D01*
X76447175Y-19608333D02*
X76568604Y-19608333D01*
X76568604Y-19608333D02*
X76649556Y-19567857D01*
X76649556Y-19567857D02*
X76690033Y-19527380D01*
X76690033Y-19527380D02*
X76730509Y-19446428D01*
X76730509Y-19446428D02*
X76730509Y-19122618D01*
X76649556Y-20094047D02*
X76609080Y-20013095D01*
X76609080Y-20013095D02*
X76568604Y-19972618D01*
X76568604Y-19972618D02*
X76487652Y-19932142D01*
X76487652Y-19932142D02*
X76447175Y-19932142D01*
X76447175Y-19932142D02*
X76366223Y-19972618D01*
X76366223Y-19972618D02*
X76325747Y-20013095D01*
X76325747Y-20013095D02*
X76285271Y-20094047D01*
X76285271Y-20094047D02*
X76285271Y-20255952D01*
X76285271Y-20255952D02*
X76325747Y-20336904D01*
X76325747Y-20336904D02*
X76366223Y-20377380D01*
X76366223Y-20377380D02*
X76447175Y-20417857D01*
X76447175Y-20417857D02*
X76487652Y-20417857D01*
X76487652Y-20417857D02*
X76568604Y-20377380D01*
X76568604Y-20377380D02*
X76609080Y-20336904D01*
X76609080Y-20336904D02*
X76649556Y-20255952D01*
X76649556Y-20255952D02*
X76649556Y-20094047D01*
X76649556Y-20094047D02*
X76690033Y-20013095D01*
X76690033Y-20013095D02*
X76730509Y-19972618D01*
X76730509Y-19972618D02*
X76811461Y-19932142D01*
X76811461Y-19932142D02*
X76973366Y-19932142D01*
X76973366Y-19932142D02*
X77054318Y-19972618D01*
X77054318Y-19972618D02*
X77094795Y-20013095D01*
X77094795Y-20013095D02*
X77135271Y-20094047D01*
X77135271Y-20094047D02*
X77135271Y-20255952D01*
X77135271Y-20255952D02*
X77094795Y-20336904D01*
X77094795Y-20336904D02*
X77054318Y-20377380D01*
X77054318Y-20377380D02*
X76973366Y-20417857D01*
X76973366Y-20417857D02*
X76811461Y-20417857D01*
X76811461Y-20417857D02*
X76730509Y-20377380D01*
X76730509Y-20377380D02*
X76690033Y-20336904D01*
X76690033Y-20336904D02*
X76649556Y-20255952D01*
X76941666Y-14015271D02*
X77225000Y-13610509D01*
X77427381Y-14015271D02*
X77427381Y-13165271D01*
X77427381Y-13165271D02*
X77103571Y-13165271D01*
X77103571Y-13165271D02*
X77022619Y-13205747D01*
X77022619Y-13205747D02*
X76982142Y-13246223D01*
X76982142Y-13246223D02*
X76941666Y-13327175D01*
X76941666Y-13327175D02*
X76941666Y-13448604D01*
X76941666Y-13448604D02*
X76982142Y-13529556D01*
X76982142Y-13529556D02*
X77022619Y-13570033D01*
X77022619Y-13570033D02*
X77103571Y-13610509D01*
X77103571Y-13610509D02*
X77427381Y-13610509D01*
X76658333Y-13165271D02*
X76091666Y-13165271D01*
X76091666Y-13165271D02*
X76455952Y-14015271D01*
X25133333Y-53094795D02*
X25011904Y-53135271D01*
X25011904Y-53135271D02*
X24809523Y-53135271D01*
X24809523Y-53135271D02*
X24728571Y-53094795D01*
X24728571Y-53094795D02*
X24688095Y-53054318D01*
X24688095Y-53054318D02*
X24647618Y-52973366D01*
X24647618Y-52973366D02*
X24647618Y-52892414D01*
X24647618Y-52892414D02*
X24688095Y-52811461D01*
X24688095Y-52811461D02*
X24728571Y-52770985D01*
X24728571Y-52770985D02*
X24809523Y-52730509D01*
X24809523Y-52730509D02*
X24971428Y-52690033D01*
X24971428Y-52690033D02*
X25052380Y-52649556D01*
X25052380Y-52649556D02*
X25092857Y-52609080D01*
X25092857Y-52609080D02*
X25133333Y-52528128D01*
X25133333Y-52528128D02*
X25133333Y-52447175D01*
X25133333Y-52447175D02*
X25092857Y-52366223D01*
X25092857Y-52366223D02*
X25052380Y-52325747D01*
X25052380Y-52325747D02*
X24971428Y-52285271D01*
X24971428Y-52285271D02*
X24769047Y-52285271D01*
X24769047Y-52285271D02*
X24647618Y-52325747D01*
X24364285Y-52285271D02*
X24161904Y-53135271D01*
X24161904Y-53135271D02*
X23999999Y-52528128D01*
X23999999Y-52528128D02*
X23838094Y-53135271D01*
X23838094Y-53135271D02*
X23635714Y-52285271D01*
X23352380Y-52366223D02*
X23311904Y-52325747D01*
X23311904Y-52325747D02*
X23230951Y-52285271D01*
X23230951Y-52285271D02*
X23028570Y-52285271D01*
X23028570Y-52285271D02*
X22947618Y-52325747D01*
X22947618Y-52325747D02*
X22907142Y-52366223D01*
X22907142Y-52366223D02*
X22866665Y-52447175D01*
X22866665Y-52447175D02*
X22866665Y-52528128D01*
X22866665Y-52528128D02*
X22907142Y-52649556D01*
X22907142Y-52649556D02*
X23392856Y-53135271D01*
X23392856Y-53135271D02*
X22866665Y-53135271D01*
X59546428Y-52385271D02*
X59829762Y-51980509D01*
X60032143Y-52385271D02*
X60032143Y-51535271D01*
X60032143Y-51535271D02*
X59708333Y-51535271D01*
X59708333Y-51535271D02*
X59627381Y-51575747D01*
X59627381Y-51575747D02*
X59586904Y-51616223D01*
X59586904Y-51616223D02*
X59546428Y-51697175D01*
X59546428Y-51697175D02*
X59546428Y-51818604D01*
X59546428Y-51818604D02*
X59586904Y-51899556D01*
X59586904Y-51899556D02*
X59627381Y-51940033D01*
X59627381Y-51940033D02*
X59708333Y-51980509D01*
X59708333Y-51980509D02*
X60032143Y-51980509D01*
X58736904Y-52385271D02*
X59222619Y-52385271D01*
X58979762Y-52385271D02*
X58979762Y-51535271D01*
X58979762Y-51535271D02*
X59060714Y-51656699D01*
X59060714Y-51656699D02*
X59141666Y-51737652D01*
X59141666Y-51737652D02*
X59222619Y-51778128D01*
X58008333Y-51818604D02*
X58008333Y-52385271D01*
X58210714Y-51494795D02*
X58413095Y-52101937D01*
X58413095Y-52101937D02*
X57886904Y-52101937D01*
X83285271Y-14466667D02*
X83892414Y-14466667D01*
X83892414Y-14466667D02*
X84013842Y-14426190D01*
X84013842Y-14426190D02*
X84094795Y-14345238D01*
X84094795Y-14345238D02*
X84135271Y-14223809D01*
X84135271Y-14223809D02*
X84135271Y-14142857D01*
X83366223Y-14830952D02*
X83325747Y-14871428D01*
X83325747Y-14871428D02*
X83285271Y-14952381D01*
X83285271Y-14952381D02*
X83285271Y-15154762D01*
X83285271Y-15154762D02*
X83325747Y-15235714D01*
X83325747Y-15235714D02*
X83366223Y-15276190D01*
X83366223Y-15276190D02*
X83447175Y-15316667D01*
X83447175Y-15316667D02*
X83528128Y-15316667D01*
X83528128Y-15316667D02*
X83649556Y-15276190D01*
X83649556Y-15276190D02*
X84135271Y-14790476D01*
X84135271Y-14790476D02*
X84135271Y-15316667D01*
X80546428Y-3054318D02*
X80586904Y-3094795D01*
X80586904Y-3094795D02*
X80708333Y-3135271D01*
X80708333Y-3135271D02*
X80789285Y-3135271D01*
X80789285Y-3135271D02*
X80910714Y-3094795D01*
X80910714Y-3094795D02*
X80991666Y-3013842D01*
X80991666Y-3013842D02*
X81032143Y-2932890D01*
X81032143Y-2932890D02*
X81072619Y-2770985D01*
X81072619Y-2770985D02*
X81072619Y-2649556D01*
X81072619Y-2649556D02*
X81032143Y-2487652D01*
X81032143Y-2487652D02*
X80991666Y-2406699D01*
X80991666Y-2406699D02*
X80910714Y-2325747D01*
X80910714Y-2325747D02*
X80789285Y-2285271D01*
X80789285Y-2285271D02*
X80708333Y-2285271D01*
X80708333Y-2285271D02*
X80586904Y-2325747D01*
X80586904Y-2325747D02*
X80546428Y-2366223D01*
X79736904Y-3135271D02*
X80222619Y-3135271D01*
X79979762Y-3135271D02*
X79979762Y-2285271D01*
X79979762Y-2285271D02*
X80060714Y-2406699D01*
X80060714Y-2406699D02*
X80141666Y-2487652D01*
X80141666Y-2487652D02*
X80222619Y-2528128D01*
X79210714Y-2285271D02*
X79129761Y-2285271D01*
X79129761Y-2285271D02*
X79048809Y-2325747D01*
X79048809Y-2325747D02*
X79008333Y-2366223D01*
X79008333Y-2366223D02*
X78967857Y-2447175D01*
X78967857Y-2447175D02*
X78927380Y-2609080D01*
X78927380Y-2609080D02*
X78927380Y-2811461D01*
X78927380Y-2811461D02*
X78967857Y-2973366D01*
X78967857Y-2973366D02*
X79008333Y-3054318D01*
X79008333Y-3054318D02*
X79048809Y-3094795D01*
X79048809Y-3094795D02*
X79129761Y-3135271D01*
X79129761Y-3135271D02*
X79210714Y-3135271D01*
X79210714Y-3135271D02*
X79291666Y-3094795D01*
X79291666Y-3094795D02*
X79332142Y-3054318D01*
X79332142Y-3054318D02*
X79372619Y-2973366D01*
X79372619Y-2973366D02*
X79413095Y-2811461D01*
X79413095Y-2811461D02*
X79413095Y-2609080D01*
X79413095Y-2609080D02*
X79372619Y-2447175D01*
X79372619Y-2447175D02*
X79332142Y-2366223D01*
X79332142Y-2366223D02*
X79291666Y-2325747D01*
X79291666Y-2325747D02*
X79210714Y-2285271D01*
X14686666Y-6315271D02*
X14970000Y-5910509D01*
X15172381Y-6315271D02*
X15172381Y-5465271D01*
X15172381Y-5465271D02*
X14848571Y-5465271D01*
X14848571Y-5465271D02*
X14767619Y-5505747D01*
X14767619Y-5505747D02*
X14727142Y-5546223D01*
X14727142Y-5546223D02*
X14686666Y-5627175D01*
X14686666Y-5627175D02*
X14686666Y-5748604D01*
X14686666Y-5748604D02*
X14727142Y-5829556D01*
X14727142Y-5829556D02*
X14767619Y-5870033D01*
X14767619Y-5870033D02*
X14848571Y-5910509D01*
X14848571Y-5910509D02*
X15172381Y-5910509D01*
X14362857Y-5546223D02*
X14322381Y-5505747D01*
X14322381Y-5505747D02*
X14241428Y-5465271D01*
X14241428Y-5465271D02*
X14039047Y-5465271D01*
X14039047Y-5465271D02*
X13958095Y-5505747D01*
X13958095Y-5505747D02*
X13917619Y-5546223D01*
X13917619Y-5546223D02*
X13877142Y-5627175D01*
X13877142Y-5627175D02*
X13877142Y-5708128D01*
X13877142Y-5708128D02*
X13917619Y-5829556D01*
X13917619Y-5829556D02*
X14403333Y-6315271D01*
X14403333Y-6315271D02*
X13877142Y-6315271D01*
X45304318Y-29358333D02*
X45344795Y-29317857D01*
X45344795Y-29317857D02*
X45385271Y-29196428D01*
X45385271Y-29196428D02*
X45385271Y-29115476D01*
X45385271Y-29115476D02*
X45344795Y-28994047D01*
X45344795Y-28994047D02*
X45263842Y-28913095D01*
X45263842Y-28913095D02*
X45182890Y-28872618D01*
X45182890Y-28872618D02*
X45020985Y-28832142D01*
X45020985Y-28832142D02*
X44899556Y-28832142D01*
X44899556Y-28832142D02*
X44737652Y-28872618D01*
X44737652Y-28872618D02*
X44656699Y-28913095D01*
X44656699Y-28913095D02*
X44575747Y-28994047D01*
X44575747Y-28994047D02*
X44535271Y-29115476D01*
X44535271Y-29115476D02*
X44535271Y-29196428D01*
X44535271Y-29196428D02*
X44575747Y-29317857D01*
X44575747Y-29317857D02*
X44616223Y-29358333D01*
X44899556Y-29844047D02*
X44859080Y-29763095D01*
X44859080Y-29763095D02*
X44818604Y-29722618D01*
X44818604Y-29722618D02*
X44737652Y-29682142D01*
X44737652Y-29682142D02*
X44697175Y-29682142D01*
X44697175Y-29682142D02*
X44616223Y-29722618D01*
X44616223Y-29722618D02*
X44575747Y-29763095D01*
X44575747Y-29763095D02*
X44535271Y-29844047D01*
X44535271Y-29844047D02*
X44535271Y-30005952D01*
X44535271Y-30005952D02*
X44575747Y-30086904D01*
X44575747Y-30086904D02*
X44616223Y-30127380D01*
X44616223Y-30127380D02*
X44697175Y-30167857D01*
X44697175Y-30167857D02*
X44737652Y-30167857D01*
X44737652Y-30167857D02*
X44818604Y-30127380D01*
X44818604Y-30127380D02*
X44859080Y-30086904D01*
X44859080Y-30086904D02*
X44899556Y-30005952D01*
X44899556Y-30005952D02*
X44899556Y-29844047D01*
X44899556Y-29844047D02*
X44940033Y-29763095D01*
X44940033Y-29763095D02*
X44980509Y-29722618D01*
X44980509Y-29722618D02*
X45061461Y-29682142D01*
X45061461Y-29682142D02*
X45223366Y-29682142D01*
X45223366Y-29682142D02*
X45304318Y-29722618D01*
X45304318Y-29722618D02*
X45344795Y-29763095D01*
X45344795Y-29763095D02*
X45385271Y-29844047D01*
X45385271Y-29844047D02*
X45385271Y-30005952D01*
X45385271Y-30005952D02*
X45344795Y-30086904D01*
X45344795Y-30086904D02*
X45304318Y-30127380D01*
X45304318Y-30127380D02*
X45223366Y-30167857D01*
X45223366Y-30167857D02*
X45061461Y-30167857D01*
X45061461Y-30167857D02*
X44980509Y-30127380D01*
X44980509Y-30127380D02*
X44940033Y-30086904D01*
X44940033Y-30086904D02*
X44899556Y-30005952D01*
X6847619Y-13435271D02*
X6847619Y-14123366D01*
X6847619Y-14123366D02*
X6807142Y-14204318D01*
X6807142Y-14204318D02*
X6766666Y-14244795D01*
X6766666Y-14244795D02*
X6685714Y-14285271D01*
X6685714Y-14285271D02*
X6523809Y-14285271D01*
X6523809Y-14285271D02*
X6442857Y-14244795D01*
X6442857Y-14244795D02*
X6402380Y-14204318D01*
X6402380Y-14204318D02*
X6361904Y-14123366D01*
X6361904Y-14123366D02*
X6361904Y-13435271D01*
X5592857Y-13718604D02*
X5592857Y-14285271D01*
X5795238Y-13394795D02*
X5997619Y-14001937D01*
X5997619Y-14001937D02*
X5471428Y-14001937D01*
X72633332Y-52135271D02*
X72633332Y-52742414D01*
X72633332Y-52742414D02*
X72673809Y-52863842D01*
X72673809Y-52863842D02*
X72754761Y-52944795D01*
X72754761Y-52944795D02*
X72876190Y-52985271D01*
X72876190Y-52985271D02*
X72957142Y-52985271D01*
X71783332Y-52985271D02*
X72269047Y-52985271D01*
X72026190Y-52985271D02*
X72026190Y-52135271D01*
X72026190Y-52135271D02*
X72107142Y-52256699D01*
X72107142Y-52256699D02*
X72188094Y-52337652D01*
X72188094Y-52337652D02*
X72269047Y-52378128D01*
X67015237Y-47651392D02*
X66507618Y-47651392D01*
X66507618Y-47651392D02*
X66780951Y-47963773D01*
X66780951Y-47963773D02*
X66663808Y-47963773D01*
X66663808Y-47963773D02*
X66585713Y-48002821D01*
X66585713Y-48002821D02*
X66546665Y-48041868D01*
X66546665Y-48041868D02*
X66507618Y-48119964D01*
X66507618Y-48119964D02*
X66507618Y-48315202D01*
X66507618Y-48315202D02*
X66546665Y-48393297D01*
X66546665Y-48393297D02*
X66585713Y-48432345D01*
X66585713Y-48432345D02*
X66663808Y-48471392D01*
X66663808Y-48471392D02*
X66898094Y-48471392D01*
X66898094Y-48471392D02*
X66976189Y-48432345D01*
X66976189Y-48432345D02*
X67015237Y-48393297D01*
X66273332Y-47651392D02*
X65999999Y-48471392D01*
X65999999Y-48471392D02*
X65726666Y-47651392D01*
X65531428Y-47651392D02*
X65023809Y-47651392D01*
X65023809Y-47651392D02*
X65297142Y-47963773D01*
X65297142Y-47963773D02*
X65179999Y-47963773D01*
X65179999Y-47963773D02*
X65101904Y-48002821D01*
X65101904Y-48002821D02*
X65062856Y-48041868D01*
X65062856Y-48041868D02*
X65023809Y-48119964D01*
X65023809Y-48119964D02*
X65023809Y-48315202D01*
X65023809Y-48315202D02*
X65062856Y-48393297D01*
X65062856Y-48393297D02*
X65101904Y-48432345D01*
X65101904Y-48432345D02*
X65179999Y-48471392D01*
X65179999Y-48471392D02*
X65414285Y-48471392D01*
X65414285Y-48471392D02*
X65492380Y-48432345D01*
X65492380Y-48432345D02*
X65531428Y-48393297D01*
X69164762Y-47690440D02*
X69242857Y-47651392D01*
X69242857Y-47651392D02*
X69360000Y-47651392D01*
X69360000Y-47651392D02*
X69477143Y-47690440D01*
X69477143Y-47690440D02*
X69555238Y-47768535D01*
X69555238Y-47768535D02*
X69594285Y-47846630D01*
X69594285Y-47846630D02*
X69633333Y-48002821D01*
X69633333Y-48002821D02*
X69633333Y-48119964D01*
X69633333Y-48119964D02*
X69594285Y-48276154D01*
X69594285Y-48276154D02*
X69555238Y-48354249D01*
X69555238Y-48354249D02*
X69477143Y-48432345D01*
X69477143Y-48432345D02*
X69360000Y-48471392D01*
X69360000Y-48471392D02*
X69281904Y-48471392D01*
X69281904Y-48471392D02*
X69164762Y-48432345D01*
X69164762Y-48432345D02*
X69125714Y-48393297D01*
X69125714Y-48393297D02*
X69125714Y-48119964D01*
X69125714Y-48119964D02*
X69281904Y-48119964D01*
X68774285Y-48471392D02*
X68774285Y-47651392D01*
X68774285Y-47651392D02*
X68305714Y-48471392D01*
X68305714Y-48471392D02*
X68305714Y-47651392D01*
X67915237Y-48471392D02*
X67915237Y-47651392D01*
X67915237Y-47651392D02*
X67719999Y-47651392D01*
X67719999Y-47651392D02*
X67602856Y-47690440D01*
X67602856Y-47690440D02*
X67524761Y-47768535D01*
X67524761Y-47768535D02*
X67485714Y-47846630D01*
X67485714Y-47846630D02*
X67446666Y-48002821D01*
X67446666Y-48002821D02*
X67446666Y-48119964D01*
X67446666Y-48119964D02*
X67485714Y-48276154D01*
X67485714Y-48276154D02*
X67524761Y-48354249D01*
X67524761Y-48354249D02*
X67602856Y-48432345D01*
X67602856Y-48432345D02*
X67719999Y-48471392D01*
X67719999Y-48471392D02*
X67915237Y-48471392D01*
X71704761Y-47651392D02*
X71236190Y-47651392D01*
X71470476Y-48471392D02*
X71470476Y-47651392D01*
X71040952Y-47651392D02*
X70494285Y-48471392D01*
X70494285Y-47651392D02*
X71040952Y-48471392D01*
X73756666Y-48471392D02*
X74029999Y-48080916D01*
X74225237Y-48471392D02*
X74225237Y-47651392D01*
X74225237Y-47651392D02*
X73912856Y-47651392D01*
X73912856Y-47651392D02*
X73834761Y-47690440D01*
X73834761Y-47690440D02*
X73795714Y-47729487D01*
X73795714Y-47729487D02*
X73756666Y-47807583D01*
X73756666Y-47807583D02*
X73756666Y-47924725D01*
X73756666Y-47924725D02*
X73795714Y-48002821D01*
X73795714Y-48002821D02*
X73834761Y-48041868D01*
X73834761Y-48041868D02*
X73912856Y-48080916D01*
X73912856Y-48080916D02*
X74225237Y-48080916D01*
X73483333Y-47651392D02*
X72936666Y-48471392D01*
X72936666Y-47651392D02*
X73483333Y-48471392D01*
X76765237Y-48041868D02*
X76491904Y-48041868D01*
X76374761Y-48471392D02*
X76765237Y-48471392D01*
X76765237Y-48471392D02*
X76765237Y-47651392D01*
X76765237Y-47651392D02*
X76374761Y-47651392D01*
X76023332Y-48471392D02*
X76023332Y-47651392D01*
X76023332Y-47651392D02*
X75554761Y-48471392D01*
X75554761Y-48471392D02*
X75554761Y-47651392D01*
X79519999Y-48471392D02*
X79519999Y-47651392D01*
X78973333Y-47651392D02*
X78817142Y-47651392D01*
X78817142Y-47651392D02*
X78739047Y-47690440D01*
X78739047Y-47690440D02*
X78660952Y-47768535D01*
X78660952Y-47768535D02*
X78621904Y-47924725D01*
X78621904Y-47924725D02*
X78621904Y-48198059D01*
X78621904Y-48198059D02*
X78660952Y-48354249D01*
X78660952Y-48354249D02*
X78739047Y-48432345D01*
X78739047Y-48432345D02*
X78817142Y-48471392D01*
X78817142Y-48471392D02*
X78973333Y-48471392D01*
X78973333Y-48471392D02*
X79051428Y-48432345D01*
X79051428Y-48432345D02*
X79129523Y-48354249D01*
X79129523Y-48354249D02*
X79168571Y-48198059D01*
X79168571Y-48198059D02*
X79168571Y-47924725D01*
X79168571Y-47924725D02*
X79129523Y-47768535D01*
X79129523Y-47768535D02*
X79051428Y-47690440D01*
X79051428Y-47690440D02*
X78973333Y-47651392D01*
X78114285Y-47651392D02*
X78036190Y-47651392D01*
X78036190Y-47651392D02*
X77958094Y-47690440D01*
X77958094Y-47690440D02*
X77919047Y-47729487D01*
X77919047Y-47729487D02*
X77879999Y-47807583D01*
X77879999Y-47807583D02*
X77840952Y-47963773D01*
X77840952Y-47963773D02*
X77840952Y-48159011D01*
X77840952Y-48159011D02*
X77879999Y-48315202D01*
X77879999Y-48315202D02*
X77919047Y-48393297D01*
X77919047Y-48393297D02*
X77958094Y-48432345D01*
X77958094Y-48432345D02*
X78036190Y-48471392D01*
X78036190Y-48471392D02*
X78114285Y-48471392D01*
X78114285Y-48471392D02*
X78192380Y-48432345D01*
X78192380Y-48432345D02*
X78231428Y-48393297D01*
X78231428Y-48393297D02*
X78270475Y-48315202D01*
X78270475Y-48315202D02*
X78309523Y-48159011D01*
X78309523Y-48159011D02*
X78309523Y-47963773D01*
X78309523Y-47963773D02*
X78270475Y-47807583D01*
X78270475Y-47807583D02*
X78231428Y-47729487D01*
X78231428Y-47729487D02*
X78192380Y-47690440D01*
X78192380Y-47690440D02*
X78114285Y-47651392D01*
X22147619Y-11535271D02*
X22147619Y-12223366D01*
X22147619Y-12223366D02*
X22107142Y-12304318D01*
X22107142Y-12304318D02*
X22066666Y-12344795D01*
X22066666Y-12344795D02*
X21985714Y-12385271D01*
X21985714Y-12385271D02*
X21823809Y-12385271D01*
X21823809Y-12385271D02*
X21742857Y-12344795D01*
X21742857Y-12344795D02*
X21702380Y-12304318D01*
X21702380Y-12304318D02*
X21661904Y-12223366D01*
X21661904Y-12223366D02*
X21661904Y-11535271D01*
X21297619Y-11616223D02*
X21257143Y-11575747D01*
X21257143Y-11575747D02*
X21176190Y-11535271D01*
X21176190Y-11535271D02*
X20973809Y-11535271D01*
X20973809Y-11535271D02*
X20892857Y-11575747D01*
X20892857Y-11575747D02*
X20852381Y-11616223D01*
X20852381Y-11616223D02*
X20811904Y-11697175D01*
X20811904Y-11697175D02*
X20811904Y-11778128D01*
X20811904Y-11778128D02*
X20852381Y-11899556D01*
X20852381Y-11899556D02*
X21338095Y-12385271D01*
X21338095Y-12385271D02*
X20811904Y-12385271D01*
X75785271Y-4352380D02*
X76473366Y-4352380D01*
X76473366Y-4352380D02*
X76554318Y-4392857D01*
X76554318Y-4392857D02*
X76594795Y-4433333D01*
X76594795Y-4433333D02*
X76635271Y-4514285D01*
X76635271Y-4514285D02*
X76635271Y-4676190D01*
X76635271Y-4676190D02*
X76594795Y-4757142D01*
X76594795Y-4757142D02*
X76554318Y-4797619D01*
X76554318Y-4797619D02*
X76473366Y-4838095D01*
X76473366Y-4838095D02*
X75785271Y-4838095D01*
X75785271Y-5161904D02*
X75785271Y-5688095D01*
X75785271Y-5688095D02*
X76109080Y-5404761D01*
X76109080Y-5404761D02*
X76109080Y-5526190D01*
X76109080Y-5526190D02*
X76149556Y-5607142D01*
X76149556Y-5607142D02*
X76190033Y-5647618D01*
X76190033Y-5647618D02*
X76270985Y-5688095D01*
X76270985Y-5688095D02*
X76473366Y-5688095D01*
X76473366Y-5688095D02*
X76554318Y-5647618D01*
X76554318Y-5647618D02*
X76594795Y-5607142D01*
X76594795Y-5607142D02*
X76635271Y-5526190D01*
X76635271Y-5526190D02*
X76635271Y-5283333D01*
X76635271Y-5283333D02*
X76594795Y-5202380D01*
X76594795Y-5202380D02*
X76554318Y-5161904D01*
%TO.C,R11*%
D12*
X60126742Y-3977500D02*
X60601258Y-3977500D01*
X60126742Y-5022500D02*
X60601258Y-5022500D01*
%TO.C,U5*%
D13*
X74390000Y-15460000D02*
X72610000Y-15460000D01*
X74390000Y-18540000D02*
X72610000Y-18540000D01*
D14*
X74950000Y-15330000D02*
G75*
G02*
X74650000Y-15330000I-150000J0D01*
G01*
X74650000Y-15330000D02*
G75*
G02*
X74950000Y-15330000I150000J0D01*
G01*
D15*
X74930000Y-15540000D02*
G75*
G02*
X74870000Y-15540000I-30000J0D01*
G01*
X74870000Y-15540000D02*
G75*
G02*
X74930000Y-15540000I30000J0D01*
G01*
%TO.C,R13*%
D12*
X83077500Y-21662742D02*
X83077500Y-22137258D01*
X84122500Y-21662742D02*
X84122500Y-22137258D01*
%TO.C,R9*%
X47035742Y-3977500D02*
X47510258Y-3977500D01*
X47035742Y-5022500D02*
X47510258Y-5022500D01*
%TO.C,C4*%
X43490000Y-22140580D02*
X43490000Y-21859420D01*
X44510000Y-22140580D02*
X44510000Y-21859420D01*
%TO.C,R1*%
X7762742Y-3977500D02*
X8237258Y-3977500D01*
X7762742Y-5022500D02*
X8237258Y-5022500D01*
%TO.C,C7*%
X78490000Y-8140580D02*
X78490000Y-7859420D01*
X79510000Y-8140580D02*
X79510000Y-7859420D01*
%TO.C,C3*%
X43490000Y-17140580D02*
X43490000Y-16859420D01*
X44510000Y-17140580D02*
X44510000Y-16859420D01*
%TO.C,R10*%
X53580742Y-3977500D02*
X54055258Y-3977500D01*
X53580742Y-5022500D02*
X54055258Y-5022500D01*
%TO.C,Q1*%
D16*
X79900000Y-20000000D02*
X79900000Y-20860000D01*
X79900000Y-20000000D02*
X80900000Y-20000000D01*
X79900000Y-22140000D02*
X79900000Y-23000000D01*
X79900000Y-23000000D02*
X80900000Y-23000000D01*
X81300000Y-21190000D02*
X81300000Y-21810000D01*
D15*
X81830000Y-20050000D02*
G75*
G02*
X81770000Y-20050000I-30000J0D01*
G01*
X81770000Y-20050000D02*
G75*
G02*
X81830000Y-20050000I30000J0D01*
G01*
%TO.C,R5*%
D12*
X33944742Y-3977500D02*
X34419258Y-3977500D01*
X33944742Y-5022500D02*
X34419258Y-5022500D01*
%TO.C,R4*%
X27398742Y-3977500D02*
X27873258Y-3977500D01*
X27398742Y-5022500D02*
X27873258Y-5022500D01*
%TO.C,U1*%
D16*
X23000000Y-17860000D02*
X24330000Y-17860000D01*
X23000000Y-18700000D02*
X23000000Y-17860000D01*
X23000000Y-37360000D02*
X41020000Y-37360000D01*
X23000000Y-43390000D02*
X23000000Y-36580000D01*
X24760000Y-42240000D02*
X24760000Y-38560000D01*
X27050000Y-40080000D02*
X27050000Y-42240000D01*
X27050000Y-42240000D02*
X24760000Y-42240000D01*
X29330000Y-40080000D02*
X27050000Y-40080000D01*
X29330000Y-42240000D02*
X29330000Y-40080000D01*
X31870000Y-40080000D02*
X31870000Y-42240000D01*
X31870000Y-42240000D02*
X29330000Y-42240000D01*
X34410000Y-40080000D02*
X31870000Y-40080000D01*
X34410000Y-42240000D02*
X34410000Y-40080000D01*
X37270000Y-37360000D02*
X37270000Y-42240000D01*
X37270000Y-42240000D02*
X34410000Y-42240000D01*
X39300000Y-37360000D02*
X39300000Y-42240000D01*
X39300000Y-42240000D02*
X37060000Y-42240000D01*
X39670000Y-17860000D02*
X41020000Y-17860000D01*
X41000000Y-43390000D02*
X23000000Y-43390000D01*
X41020000Y-17860000D02*
X41020000Y-18700000D01*
X41020000Y-36580000D02*
X41020000Y-43380000D01*
X22200000Y-35890000D02*
G75*
G02*
X21700000Y-35890000I-250000J0D01*
G01*
X21700000Y-35890000D02*
G75*
G02*
X22200000Y-35890000I250000J0D01*
G01*
%TO.C,SW3*%
D12*
X79955000Y-26400000D02*
X79955000Y-28100000D01*
X79955000Y-29400000D02*
X79955000Y-29600000D01*
X81055000Y-24550000D02*
X81855000Y-24550000D01*
X81055000Y-31450000D02*
X81855000Y-31450000D01*
%TO.C,C2*%
X19990000Y-35109420D02*
X19990000Y-35390580D01*
X21010000Y-35109420D02*
X21010000Y-35390580D01*
%TO.C,C9*%
X73193748Y-3765000D02*
X73716252Y-3765000D01*
X73193748Y-5235000D02*
X73716252Y-5235000D01*
%TO.C,R3*%
X20853742Y-3977500D02*
X21328258Y-3977500D01*
X20853742Y-5022500D02*
X21328258Y-5022500D01*
%TO.C,C6*%
X72490000Y-8140580D02*
X72490000Y-7859420D01*
X73510000Y-8140580D02*
X73510000Y-7859420D01*
%TO.C,R6*%
X40489742Y-3977500D02*
X40964258Y-3977500D01*
X40489742Y-5022500D02*
X40964258Y-5022500D01*
%TO.C,C1*%
X20859420Y-15990000D02*
X21140580Y-15990000D01*
X20859420Y-17010000D02*
X21140580Y-17010000D01*
%TO.C,C12*%
X10759420Y-12390000D02*
X11040580Y-12390000D01*
X10759420Y-13410000D02*
X11040580Y-13410000D01*
%TO.C,C11*%
X10290000Y-8140580D02*
X10290000Y-7859420D01*
X11310000Y-8140580D02*
X11310000Y-7859420D01*
%TO.C,BT1*%
D13*
X47750000Y-24500000D02*
X47750000Y-25650000D01*
X47750000Y-24500000D02*
X50870000Y-24500000D01*
X47750000Y-31500000D02*
X47750000Y-30350000D01*
X47750000Y-31500000D02*
X50870000Y-31500000D01*
X50200000Y-36050000D02*
X50200000Y-19950000D01*
X50200000Y-36070000D02*
X50350000Y-36070000D01*
X50350000Y-19920000D02*
X50200000Y-19920000D01*
X50350000Y-36070000D02*
X50350000Y-19920000D01*
X50870000Y-19920000D02*
X73130000Y-19920000D01*
X50870000Y-36080000D02*
X73130000Y-36080000D01*
X52800000Y-34650000D02*
X51700000Y-34650000D01*
X71200000Y-21350000D02*
X72300000Y-21350000D01*
X71640000Y-36080000D02*
X71660000Y-36080000D01*
X71660000Y-36080000D02*
X73130000Y-34610000D01*
X71750000Y-20800000D02*
X71750000Y-21900000D01*
X73130000Y-19920000D02*
X73130000Y-26020000D01*
X73130000Y-29980000D02*
X73130000Y-25940000D01*
X73130000Y-36080000D02*
X73130000Y-29980000D01*
X76250000Y-24500000D02*
X73130000Y-24500000D01*
X76250000Y-24500000D02*
X76250000Y-25650000D01*
X76250000Y-31500000D02*
X73130000Y-31500000D01*
X76250000Y-31500000D02*
X76250000Y-30350000D01*
X56106036Y-36081719D02*
G75*
G02*
X56090000Y-19930000I5893964J8081719D01*
G01*
X67893964Y-19918281D02*
G75*
G02*
X67910000Y-36070000I-5893965J-8081719D01*
G01*
X53170000Y-34650000D02*
G75*
G02*
X51330000Y-34650000I-920000J0D01*
G01*
X51330000Y-34650000D02*
G75*
G02*
X53170000Y-34650000I920000J0D01*
G01*
X72670000Y-21350000D02*
G75*
G02*
X70830000Y-21350000I-920000J0D01*
G01*
X70830000Y-21350000D02*
G75*
G02*
X72670000Y-21350000I920000J0D01*
G01*
D17*
G36*
X73126191Y-36076209D02*
G01*
X71652000Y-36076209D01*
X73126191Y-34604000D01*
X73126191Y-36076209D01*
G37*
G36*
X50950009Y-26067593D02*
G01*
X50645209Y-26067593D01*
X50645209Y-19847591D01*
X50950009Y-19847591D01*
X50950009Y-26067593D01*
G37*
G36*
X50950035Y-26049991D02*
G01*
X50950009Y-36152409D01*
X50645209Y-36152409D01*
X50645209Y-29932407D01*
X50650035Y-26000004D01*
X50950035Y-26049991D01*
G37*
%TO.C,C5*%
D12*
X25359420Y-8990000D02*
X25640580Y-8990000D01*
X25359420Y-10010000D02*
X25640580Y-10010000D01*
%TO.C,SW1*%
D16*
X9450000Y-48470000D02*
X9450000Y-46130000D01*
X9830000Y-45640000D02*
X10720000Y-44750000D01*
X10200000Y-46300000D02*
X10200000Y-48300000D01*
X10200000Y-48300000D02*
X11000000Y-49100000D01*
X10720000Y-44750000D02*
X13280000Y-44750000D01*
X10720000Y-49850000D02*
X9830000Y-48960000D01*
X10720000Y-49850000D02*
X13280000Y-49850000D01*
X11000000Y-49100000D02*
X12900000Y-49100000D01*
X11100000Y-45400000D02*
X10200000Y-46300000D01*
X12800000Y-45400000D02*
X11100000Y-45400000D01*
X12900000Y-49100000D02*
X13800000Y-48200000D01*
X13280000Y-49850000D02*
X14170000Y-48960000D01*
X13800000Y-46400000D02*
X12800000Y-45400000D01*
X13800000Y-48200000D02*
X13800000Y-46400000D01*
X14170000Y-45640000D02*
X13280000Y-44750000D01*
X14550000Y-48470000D02*
X14550000Y-46130000D01*
X13280000Y-47300000D02*
G75*
G02*
X10720000Y-47300000I-1280000J0D01*
G01*
X10720000Y-47300000D02*
G75*
G02*
X13280000Y-47300000I1280000J0D01*
G01*
%TO.C,R12*%
D12*
X66671742Y-3977500D02*
X67146258Y-3977500D01*
X66671742Y-5022500D02*
X67146258Y-5022500D01*
%TO.C,R8*%
X76277500Y-16562742D02*
X76277500Y-17037258D01*
X77322500Y-16562742D02*
X77322500Y-17037258D01*
%TO.C,R7*%
X76562742Y-11677500D02*
X77037258Y-11677500D01*
X76562742Y-12722500D02*
X77037258Y-12722500D01*
%TO.C,SW2*%
D16*
X21450000Y-48470000D02*
X21450000Y-46130000D01*
X21830000Y-45640000D02*
X22720000Y-44750000D01*
X22200000Y-46300000D02*
X22200000Y-48300000D01*
X22200000Y-48300000D02*
X23000000Y-49100000D01*
X22720000Y-44750000D02*
X25280000Y-44750000D01*
X22720000Y-49850000D02*
X21830000Y-48960000D01*
X22720000Y-49850000D02*
X25280000Y-49850000D01*
X23000000Y-49100000D02*
X24900000Y-49100000D01*
X23100000Y-45400000D02*
X22200000Y-46300000D01*
X24800000Y-45400000D02*
X23100000Y-45400000D01*
X24900000Y-49100000D02*
X25800000Y-48200000D01*
X25280000Y-49850000D02*
X26170000Y-48960000D01*
X25800000Y-46400000D02*
X24800000Y-45400000D01*
X25800000Y-48200000D02*
X25800000Y-46400000D01*
X26170000Y-45640000D02*
X25280000Y-44750000D01*
X26550000Y-48470000D02*
X26550000Y-46130000D01*
X25280000Y-47300000D02*
G75*
G02*
X22720000Y-47300000I-1280000J0D01*
G01*
X22720000Y-47300000D02*
G75*
G02*
X25280000Y-47300000I1280000J0D01*
G01*
%TO.C,R14*%
D12*
X61762742Y-51377500D02*
X62237258Y-51377500D01*
X61762742Y-52422500D02*
X62237258Y-52422500D01*
%TO.C,J2*%
D16*
X83080000Y-10030000D02*
X81210000Y-10030000D01*
X83080000Y-18970000D02*
X81210000Y-18970000D01*
D15*
X78970000Y-18980000D02*
G75*
G02*
X78910000Y-18980000I-30000J0D01*
G01*
X78910000Y-18980000D02*
G75*
G02*
X78970000Y-18980000I30000J0D01*
G01*
%TO.C,C10*%
D12*
X79738748Y-3765000D02*
X80261252Y-3765000D01*
X79738748Y-5235000D02*
X80261252Y-5235000D01*
%TO.C,R2*%
X14307742Y-3977500D02*
X14782258Y-3977500D01*
X14307742Y-5022500D02*
X14782258Y-5022500D01*
%TO.C,C8*%
X43265000Y-27261252D02*
X43265000Y-26738748D01*
X44735000Y-27261252D02*
X44735000Y-26738748D01*
%TO.C,U4*%
X3750000Y-11550000D02*
X3750000Y-7650000D01*
X8650000Y-11550000D02*
X8650000Y-7650000D01*
D18*
X3555000Y-6950000D02*
G75*
G02*
X3345000Y-6950000I-105000J0D01*
G01*
X3345000Y-6950000D02*
G75*
G02*
X3555000Y-6950000I105000J0D01*
G01*
%TO.C,U2*%
D13*
X19920000Y-8170000D02*
X19920000Y-8420000D01*
X19920000Y-10830000D02*
X19920000Y-10580000D01*
X20670000Y-8170000D02*
X19920000Y-8170000D01*
X20670000Y-10830000D02*
X19920000Y-10830000D01*
X22330000Y-8170000D02*
X23080000Y-8170000D01*
X22330000Y-10830000D02*
X23080000Y-10830000D01*
X23080000Y-8170000D02*
X23080000Y-8420000D01*
X23080000Y-10830000D02*
X23080000Y-10580000D01*
X19670000Y-10260000D02*
G75*
G02*
X19510000Y-10260000I-80000J0D01*
G01*
X19510000Y-10260000D02*
G75*
G02*
X19670000Y-10260000I80000J0D01*
G01*
%TO.C,U3*%
X75150000Y-8480000D02*
X75150000Y-7520000D01*
X76850000Y-6470000D02*
X75150000Y-6470000D01*
X76850000Y-9530000D02*
X75150000Y-9530000D01*
D14*
X77290000Y-6350000D02*
G75*
G02*
X76990000Y-6350000I-150000J0D01*
G01*
X76990000Y-6350000D02*
G75*
G02*
X77290000Y-6350000I150000J0D01*
G01*
D15*
X77400000Y-6580000D02*
G75*
G02*
X77340000Y-6580000I-30000J0D01*
G01*
X77340000Y-6580000D02*
G75*
G02*
X77400000Y-6580000I30000J0D01*
G01*
%TD*%
%LPC*%
D19*
%TO.C,R11*%
X59539000Y-4500000D03*
X61189000Y-4500000D03*
%TD*%
D20*
%TO.C,U5*%
X74650000Y-16050000D03*
X74650000Y-17000000D03*
X74650000Y-17950000D03*
X72350000Y-17950000D03*
X72350000Y-17000000D03*
X72350000Y-16050000D03*
%TD*%
D21*
%TO.C,R13*%
X83600000Y-21075000D03*
X83600000Y-22725000D03*
%TD*%
D19*
%TO.C,R9*%
X46448000Y-4500000D03*
X48098000Y-4500000D03*
%TD*%
D22*
%TO.C,C4*%
X44000000Y-22775000D03*
X44000000Y-21225000D03*
%TD*%
D19*
%TO.C,R1*%
X7175000Y-4500000D03*
X8825000Y-4500000D03*
%TD*%
D22*
%TO.C,C7*%
X79000000Y-8775000D03*
X79000000Y-7225000D03*
%TD*%
%TO.C,C3*%
X44000000Y-17775000D03*
X44000000Y-16225000D03*
%TD*%
D19*
%TO.C,R10*%
X52993000Y-4500000D03*
X54643000Y-4500000D03*
%TD*%
D23*
%TO.C,Q1*%
X81750000Y-20550000D03*
X81750000Y-22450000D03*
X79450000Y-21500000D03*
%TD*%
D19*
%TO.C,R5*%
X33357000Y-4500000D03*
X35007000Y-4500000D03*
%TD*%
%TO.C,R4*%
X26811000Y-4500000D03*
X28461000Y-4500000D03*
%TD*%
D24*
%TO.C,U1*%
X23250000Y-35890000D03*
X23250000Y-34620000D03*
X23250000Y-33350000D03*
X23250000Y-32080000D03*
X23250000Y-30810000D03*
X23250000Y-29540000D03*
X23250000Y-28270000D03*
X23250000Y-27000000D03*
X23250000Y-25730000D03*
X23250000Y-24460000D03*
X23250000Y-23190000D03*
X23250000Y-21920000D03*
X23250000Y-20650000D03*
X23250000Y-19380000D03*
D25*
X25010000Y-18110000D03*
X26280000Y-18110000D03*
X27550000Y-18110000D03*
X28830000Y-18110000D03*
X30100000Y-18110000D03*
X31370000Y-18110000D03*
X32640000Y-18110000D03*
X33910000Y-18110000D03*
X35180000Y-18110000D03*
X36450000Y-18110000D03*
X37720000Y-18110000D03*
X38990000Y-18140000D03*
D24*
X40750000Y-19380000D03*
X40750000Y-20650000D03*
X40750000Y-21920000D03*
X40750000Y-23190000D03*
X40750000Y-24460000D03*
X40750000Y-25730000D03*
X40750000Y-27000000D03*
X40750000Y-28270000D03*
X40750000Y-29540000D03*
X40750000Y-30810000D03*
X40750000Y-32080000D03*
X40750000Y-33350000D03*
X40750000Y-34620000D03*
X40750000Y-35890000D03*
D26*
X29100000Y-26770000D03*
X29100000Y-28170000D03*
X29100000Y-29570000D03*
X30500000Y-26770000D03*
X30500000Y-28170000D03*
X30500000Y-29570000D03*
X31900000Y-26770000D03*
X31900000Y-28170000D03*
X31900000Y-29570000D03*
%TD*%
D27*
%TO.C,SW3*%
X81455000Y-26500000D03*
X81455000Y-29500000D03*
D28*
X79505000Y-25750000D03*
X79505000Y-28750000D03*
X79505000Y-30250000D03*
D29*
X82555000Y-24325000D03*
X80355000Y-24325000D03*
X82555000Y-31675000D03*
X80355000Y-31675000D03*
%TD*%
D30*
%TO.C,C2*%
X20500000Y-34475000D03*
X20500000Y-36025000D03*
%TD*%
D31*
%TO.C,C9*%
X72505000Y-4500000D03*
X74405000Y-4500000D03*
%TD*%
D19*
%TO.C,R3*%
X20266000Y-4500000D03*
X21916000Y-4500000D03*
%TD*%
D22*
%TO.C,C6*%
X73000000Y-8775000D03*
X73000000Y-7225000D03*
%TD*%
D19*
%TO.C,R6*%
X39902000Y-4500000D03*
X41552000Y-4500000D03*
%TD*%
D32*
%TO.C,FID3*%
X81000000Y-50500000D03*
%TD*%
D33*
%TO.C,C1*%
X20225000Y-16500000D03*
X21775000Y-16500000D03*
%TD*%
%TO.C,C12*%
X10125000Y-12900000D03*
X11675000Y-12900000D03*
%TD*%
D22*
%TO.C,C11*%
X10800000Y-8775000D03*
X10800000Y-7225000D03*
%TD*%
D34*
%TO.C,BT1*%
X76500000Y-28000000D03*
X47500000Y-28000000D03*
%TD*%
D33*
%TO.C,C5*%
X24725000Y-9500000D03*
X26275000Y-9500000D03*
%TD*%
D35*
%TO.C,SW1*%
X9000000Y-49150000D03*
X15000000Y-49150000D03*
X9000000Y-45450000D03*
X15000000Y-45450000D03*
%TD*%
D19*
%TO.C,R12*%
X66084000Y-4500000D03*
X67734000Y-4500000D03*
%TD*%
D32*
%TO.C,FID1*%
X3500000Y-3000000D03*
%TD*%
D21*
%TO.C,R8*%
X76800000Y-15975000D03*
X76800000Y-17625000D03*
%TD*%
D19*
%TO.C,R7*%
X75975000Y-12200000D03*
X77625000Y-12200000D03*
%TD*%
D35*
%TO.C,SW2*%
X21000000Y-49150000D03*
X27000000Y-49150000D03*
X21000000Y-45450000D03*
X27000000Y-45450000D03*
%TD*%
D19*
%TO.C,R14*%
X61175000Y-51900000D03*
X62825000Y-51900000D03*
%TD*%
D36*
%TO.C,J2*%
X80490000Y-11600000D03*
X80490000Y-17400000D03*
D37*
X79990000Y-18830000D03*
D38*
X84170000Y-18830000D03*
X84170000Y-10170000D03*
D37*
X79990000Y-10170000D03*
D39*
X79230000Y-11300000D03*
D40*
X79230000Y-12100000D03*
D41*
X79230000Y-13250000D03*
X79230000Y-14250000D03*
X79230000Y-14750000D03*
X79230000Y-15750000D03*
D42*
X79230000Y-17700000D03*
X79230000Y-16900000D03*
D41*
X79230000Y-16250000D03*
X79230000Y-15250000D03*
X79230000Y-13750000D03*
X79230000Y-12750000D03*
%TD*%
D32*
%TO.C,FID2*%
X3500000Y-50500000D03*
%TD*%
D31*
%TO.C,C10*%
X79050000Y-4500000D03*
X80950000Y-4500000D03*
%TD*%
D19*
%TO.C,R2*%
X13720000Y-4500000D03*
X15370000Y-4500000D03*
%TD*%
D43*
%TO.C,C8*%
X44000000Y-27950000D03*
X44000000Y-26050000D03*
%TD*%
D44*
%TO.C,U4*%
X4295000Y-6950000D03*
X5565000Y-6950000D03*
X6835000Y-6950000D03*
X8105000Y-6950000D03*
X8105000Y-12250000D03*
X6835000Y-12250000D03*
X5565000Y-12250000D03*
X4295000Y-12250000D03*
%TD*%
D45*
%TO.C,J1*%
X66000000Y-50000000D03*
X68540000Y-50000000D03*
X71080000Y-50000000D03*
X73620000Y-50000000D03*
X76160000Y-50000000D03*
X78700000Y-50000000D03*
%TD*%
D46*
%TO.C,U2*%
X20240000Y-10250000D03*
X20240000Y-9750000D03*
X20240000Y-9250000D03*
X20240000Y-8750000D03*
D47*
X21000000Y-8490000D03*
X21500000Y-8490000D03*
X22000000Y-8490000D03*
D46*
X22760000Y-8750000D03*
X22760000Y-9250000D03*
X22760000Y-9750000D03*
X22760000Y-10250000D03*
D47*
X22000000Y-10510000D03*
X21500000Y-10510000D03*
X21000000Y-10510000D03*
%TD*%
D48*
%TO.C,U3*%
X77150000Y-7050000D03*
X77150000Y-8000000D03*
X77150000Y-8950000D03*
D49*
X74850000Y-8950000D03*
X74850000Y-7050000D03*
%TD*%
%LPD*%
M02*
