%TF.GenerationSoftware,KiCad,Pcbnew,10.0.3*%
%TF.CreationDate,2026-08-10T11:08:37-04:00*%
%TF.ProjectId,NeuralCard,4e657572-616c-4436-9172-642e6b696361,v2.3.1*%
%TF.SameCoordinates,Original*%
%TF.FileFunction,Legend,Bot*%
%TF.FilePolarity,Positive*%
%FSLAX46Y46*%
G04 Gerber Fmt 4.6, Leading zero omitted, Abs format (unit mm)*
G04 Created by KiCad (PCBNEW 10.0.3) date 2026-08-10 11:08:37*
%MOMM*%
%LPD*%
G01*
G04 APERTURE LIST*
G04 Aperture macros list*
%AMRoundRect*
0 Rectangle with rounded corners*
0 $1 Rounding radius*
0 $2 $3 $4 $5 $6 $7 $8 $9 X,Y pos of 4 corners*
0 Add a 4 corners polygon primitive as box body*
4,1,4,$2,$3,$4,$5,$6,$7,$8,$9,$2,$3,0*
0 Add four circle primitives for the rounded corners*
1,1,$1+$1,$2,$3*
1,1,$1+$1,$4,$5*
1,1,$1+$1,$6,$7*
1,1,$1+$1,$8,$9*
0 Add four rect primitives between the rounded corners*
20,1,$1+$1,$2,$3,$4,$5,0*
20,1,$1+$1,$4,$5,$6,$7,0*
20,1,$1+$1,$6,$7,$8,$9,0*
20,1,$1+$1,$8,$9,$2,$3,0*%
%AMFreePoly0*
4,1,17,0.000318,0.699935,0.299923,0.699935,0.335278,0.685290,0.349923,0.649935,0.349923,-0.650088,0.335278,-0.685443,0.299923,-0.700088,-0.000076,-0.700088,-0.000445,-0.699935,-0.300050,-0.699935,-0.335405,-0.685290,-0.350050,-0.649935,-0.350050,0.650088,-0.335405,0.685443,-0.300050,0.700088,-0.000051,0.700088,0.000318,0.699935,0.000318,0.699935,$1*%
%AMFreePoly1*
4,1,17,0.000187,0.700037,0.300076,0.700037,0.335431,0.685392,0.350076,0.650037,0.350076,-0.649935,0.335431,-0.685290,0.300076,-0.699935,0.000051,-0.699935,-0.000009,-0.699910,-0.299898,-0.699910,-0.335253,-0.685265,-0.349898,-0.649910,-0.349898,0.650062,-0.335253,0.685417,-0.299898,0.700062,0.000127,0.700062,0.000187,0.700037,0.000187,0.700037,$1*%
%AMFreePoly2*
4,1,13,0.335227,0.685239,0.349872,0.649884,0.349872,-0.650088,0.335227,-0.685443,0.299872,-0.700088,-0.300152,-0.700088,-0.335507,-0.685443,-0.350152,-0.650088,-0.350152,0.649884,-0.335507,0.685239,-0.300152,0.699884,0.299872,0.699884,0.335227,0.685239,0.335227,0.685239,$1*%
G04 Aperture macros list end*
%ADD10C,0.160000*%
%ADD11C,0.153000*%
%ADD12C,0.120000*%
%ADD13C,0.150000*%
%ADD14C,0.300000*%
%ADD15C,0.060000*%
%ADD16C,0.250000*%
%ADD17C,0.000000*%
%ADD18C,0.210000*%
%ADD19RoundRect,0.200000X-0.200000X-0.275000X0.200000X-0.275000X0.200000X0.275000X-0.200000X0.275000X0*%
%ADD20R,1.072000X0.532000*%
%ADD21RoundRect,0.200000X-0.275000X0.200000X-0.275000X-0.200000X0.275000X-0.200000X0.275000X0.200000X0*%
%ADD22RoundRect,0.225000X0.250000X-0.225000X0.250000X0.225000X-0.250000X0.225000X-0.250000X-0.225000X0*%
%ADD23R,1.000000X0.800000*%
%ADD24R,1.500000X0.900000*%
%ADD25R,0.900000X1.500000*%
%ADD26R,0.900000X0.900000*%
%ADD27C,0.850000*%
%ADD28RoundRect,0.150000X-0.500000X0.150000X-0.500000X-0.150000X0.500000X-0.150000X0.500000X0.150000X0*%
%ADD29RoundRect,0.175000X-0.175000X0.350000X-0.175000X-0.350000X0.175000X-0.350000X0.175000X0.350000X0*%
%ADD30RoundRect,0.225000X-0.250000X0.225000X-0.250000X-0.225000X0.250000X-0.225000X0.250000X0.225000X0*%
%ADD31RoundRect,0.250000X-0.250000X-0.475000X0.250000X-0.475000X0.250000X0.475000X-0.250000X0.475000X0*%
%ADD32C,2.000000*%
%ADD33RoundRect,0.225000X-0.225000X-0.250000X0.225000X-0.250000X0.225000X0.250000X-0.225000X0.250000X0*%
%ADD34R,3.000000X4.200000*%
%ADD35R,1.000000X0.750000*%
%ADD36C,0.750000*%
%ADD37O,2.000000X1.200000*%
%ADD38O,1.800000X1.200000*%
%ADD39FreePoly0,270.000000*%
%ADD40FreePoly1,270.000000*%
%ADD41R,1.300000X0.300000*%
%ADD42FreePoly2,270.000000*%
%ADD43RoundRect,0.250000X0.475000X-0.250000X0.475000X0.250000X-0.475000X0.250000X-0.475000X-0.250000X0*%
%ADD44RoundRect,0.150000X-0.150000X-0.550000X0.150000X-0.550000X0.150000X0.550000X-0.150000X0.550000X0*%
%ADD45R,1.500000X2.200000*%
%ADD46R,0.675000X0.280000*%
%ADD47R,0.280000X0.675000*%
%ADD48R,1.157000X0.490000*%
%ADD49R,1.175000X0.490000*%
G04 APERTURE END LIST*
G36*
X32000000Y-45800000D02*
G01*
X45000000Y-45800000D01*
X45000000Y-49000000D01*
X32000000Y-49000000D01*
X32000000Y-45800000D01*
G37*
D10*
X31133333Y-47744431D02*
X31011904Y-47784907D01*
X31011904Y-47784907D02*
X30809523Y-47784907D01*
X30809523Y-47784907D02*
X30728571Y-47744431D01*
X30728571Y-47744431D02*
X30688095Y-47703954D01*
X30688095Y-47703954D02*
X30647618Y-47623002D01*
X30647618Y-47623002D02*
X30647618Y-47542050D01*
X30647618Y-47542050D02*
X30688095Y-47461097D01*
X30688095Y-47461097D02*
X30728571Y-47420621D01*
X30728571Y-47420621D02*
X30809523Y-47380145D01*
X30809523Y-47380145D02*
X30971428Y-47339669D01*
X30971428Y-47339669D02*
X31052380Y-47299192D01*
X31052380Y-47299192D02*
X31092857Y-47258716D01*
X31092857Y-47258716D02*
X31133333Y-47177764D01*
X31133333Y-47177764D02*
X31133333Y-47096811D01*
X31133333Y-47096811D02*
X31092857Y-47015859D01*
X31092857Y-47015859D02*
X31052380Y-46975383D01*
X31052380Y-46975383D02*
X30971428Y-46934907D01*
X30971428Y-46934907D02*
X30769047Y-46934907D01*
X30769047Y-46934907D02*
X30647618Y-46975383D01*
X29676190Y-46894431D02*
X30404761Y-47987288D01*
X29392857Y-47784907D02*
X29392857Y-46934907D01*
X29392857Y-46934907D02*
X28907142Y-47784907D01*
X28907142Y-47784907D02*
X28907142Y-46934907D01*
X69233333Y-39603954D02*
X69273809Y-39644431D01*
X69273809Y-39644431D02*
X69395238Y-39684907D01*
X69395238Y-39684907D02*
X69476190Y-39684907D01*
X69476190Y-39684907D02*
X69597619Y-39644431D01*
X69597619Y-39644431D02*
X69678571Y-39563478D01*
X69678571Y-39563478D02*
X69719048Y-39482526D01*
X69719048Y-39482526D02*
X69759524Y-39320621D01*
X69759524Y-39320621D02*
X69759524Y-39199192D01*
X69759524Y-39199192D02*
X69719048Y-39037288D01*
X69719048Y-39037288D02*
X69678571Y-38956335D01*
X69678571Y-38956335D02*
X69597619Y-38875383D01*
X69597619Y-38875383D02*
X69476190Y-38834907D01*
X69476190Y-38834907D02*
X69395238Y-38834907D01*
X69395238Y-38834907D02*
X69273809Y-38875383D01*
X69273809Y-38875383D02*
X69233333Y-38915859D01*
X68383333Y-39684907D02*
X68666667Y-39280145D01*
X68869048Y-39684907D02*
X68869048Y-38834907D01*
X68869048Y-38834907D02*
X68545238Y-38834907D01*
X68545238Y-38834907D02*
X68464286Y-38875383D01*
X68464286Y-38875383D02*
X68423809Y-38915859D01*
X68423809Y-38915859D02*
X68383333Y-38996811D01*
X68383333Y-38996811D02*
X68383333Y-39118240D01*
X68383333Y-39118240D02*
X68423809Y-39199192D01*
X68423809Y-39199192D02*
X68464286Y-39239669D01*
X68464286Y-39239669D02*
X68545238Y-39280145D01*
X68545238Y-39280145D02*
X68869048Y-39280145D01*
X68059524Y-38915859D02*
X68019048Y-38875383D01*
X68019048Y-38875383D02*
X67938095Y-38834907D01*
X67938095Y-38834907D02*
X67735714Y-38834907D01*
X67735714Y-38834907D02*
X67654762Y-38875383D01*
X67654762Y-38875383D02*
X67614286Y-38915859D01*
X67614286Y-38915859D02*
X67573809Y-38996811D01*
X67573809Y-38996811D02*
X67573809Y-39077764D01*
X67573809Y-39077764D02*
X67614286Y-39199192D01*
X67614286Y-39199192D02*
X68100000Y-39684907D01*
X68100000Y-39684907D02*
X67573809Y-39684907D01*
X67047619Y-38834907D02*
X66966666Y-38834907D01*
X66966666Y-38834907D02*
X66885714Y-38875383D01*
X66885714Y-38875383D02*
X66845238Y-38915859D01*
X66845238Y-38915859D02*
X66804762Y-38996811D01*
X66804762Y-38996811D02*
X66764285Y-39158716D01*
X66764285Y-39158716D02*
X66764285Y-39361097D01*
X66764285Y-39361097D02*
X66804762Y-39523002D01*
X66804762Y-39523002D02*
X66845238Y-39603954D01*
X66845238Y-39603954D02*
X66885714Y-39644431D01*
X66885714Y-39644431D02*
X66966666Y-39684907D01*
X66966666Y-39684907D02*
X67047619Y-39684907D01*
X67047619Y-39684907D02*
X67128571Y-39644431D01*
X67128571Y-39644431D02*
X67169047Y-39603954D01*
X67169047Y-39603954D02*
X67209524Y-39523002D01*
X67209524Y-39523002D02*
X67250000Y-39361097D01*
X67250000Y-39361097D02*
X67250000Y-39158716D01*
X67250000Y-39158716D02*
X67209524Y-38996811D01*
X67209524Y-38996811D02*
X67169047Y-38915859D01*
X67169047Y-38915859D02*
X67128571Y-38875383D01*
X67128571Y-38875383D02*
X67047619Y-38834907D01*
X66480952Y-38834907D02*
X65954761Y-38834907D01*
X65954761Y-38834907D02*
X66238095Y-39158716D01*
X66238095Y-39158716D02*
X66116666Y-39158716D01*
X66116666Y-39158716D02*
X66035714Y-39199192D01*
X66035714Y-39199192D02*
X65995238Y-39239669D01*
X65995238Y-39239669D02*
X65954761Y-39320621D01*
X65954761Y-39320621D02*
X65954761Y-39523002D01*
X65954761Y-39523002D02*
X65995238Y-39603954D01*
X65995238Y-39603954D02*
X66035714Y-39644431D01*
X66035714Y-39644431D02*
X66116666Y-39684907D01*
X66116666Y-39684907D02*
X66359523Y-39684907D01*
X66359523Y-39684907D02*
X66440476Y-39644431D01*
X66440476Y-39644431D02*
X66480952Y-39603954D01*
X65630952Y-38915859D02*
X65590476Y-38875383D01*
X65590476Y-38875383D02*
X65509523Y-38834907D01*
X65509523Y-38834907D02*
X65307142Y-38834907D01*
X65307142Y-38834907D02*
X65226190Y-38875383D01*
X65226190Y-38875383D02*
X65185714Y-38915859D01*
X65185714Y-38915859D02*
X65145237Y-38996811D01*
X65145237Y-38996811D02*
X65145237Y-39077764D01*
X65145237Y-39077764D02*
X65185714Y-39199192D01*
X65185714Y-39199192D02*
X65671428Y-39684907D01*
X65671428Y-39684907D02*
X65145237Y-39684907D01*
X64011904Y-39320621D02*
X64052380Y-39361097D01*
X64052380Y-39361097D02*
X64011904Y-39401573D01*
X64011904Y-39401573D02*
X63971428Y-39361097D01*
X63971428Y-39361097D02*
X64011904Y-39320621D01*
X64011904Y-39320621D02*
X64011904Y-39401573D01*
X62838095Y-39361097D02*
X62190476Y-39361097D01*
X62514285Y-39684907D02*
X62514285Y-39037288D01*
X61178571Y-39644431D02*
X61097618Y-39684907D01*
X61097618Y-39684907D02*
X60935714Y-39684907D01*
X60935714Y-39684907D02*
X60854761Y-39644431D01*
X60854761Y-39644431D02*
X60814285Y-39563478D01*
X60814285Y-39563478D02*
X60814285Y-39523002D01*
X60814285Y-39523002D02*
X60854761Y-39442050D01*
X60854761Y-39442050D02*
X60935714Y-39401573D01*
X60935714Y-39401573D02*
X61057142Y-39401573D01*
X61057142Y-39401573D02*
X61138095Y-39361097D01*
X61138095Y-39361097D02*
X61178571Y-39280145D01*
X61178571Y-39280145D02*
X61178571Y-39239669D01*
X61178571Y-39239669D02*
X61138095Y-39158716D01*
X61138095Y-39158716D02*
X61057142Y-39118240D01*
X61057142Y-39118240D02*
X60935714Y-39118240D01*
X60935714Y-39118240D02*
X60854761Y-39158716D01*
X60450000Y-39684907D02*
X60450000Y-39118240D01*
X60450000Y-38834907D02*
X60490476Y-38875383D01*
X60490476Y-38875383D02*
X60450000Y-38915859D01*
X60450000Y-38915859D02*
X60409523Y-38875383D01*
X60409523Y-38875383D02*
X60450000Y-38834907D01*
X60450000Y-38834907D02*
X60450000Y-38915859D01*
X59680952Y-39684907D02*
X59680952Y-38834907D01*
X59680952Y-39644431D02*
X59761904Y-39684907D01*
X59761904Y-39684907D02*
X59923809Y-39684907D01*
X59923809Y-39684907D02*
X60004761Y-39644431D01*
X60004761Y-39644431D02*
X60045238Y-39603954D01*
X60045238Y-39603954D02*
X60085714Y-39523002D01*
X60085714Y-39523002D02*
X60085714Y-39280145D01*
X60085714Y-39280145D02*
X60045238Y-39199192D01*
X60045238Y-39199192D02*
X60004761Y-39158716D01*
X60004761Y-39158716D02*
X59923809Y-39118240D01*
X59923809Y-39118240D02*
X59761904Y-39118240D01*
X59761904Y-39118240D02*
X59680952Y-39158716D01*
X58952380Y-39644431D02*
X59033332Y-39684907D01*
X59033332Y-39684907D02*
X59195237Y-39684907D01*
X59195237Y-39684907D02*
X59276190Y-39644431D01*
X59276190Y-39644431D02*
X59316666Y-39563478D01*
X59316666Y-39563478D02*
X59316666Y-39239669D01*
X59316666Y-39239669D02*
X59276190Y-39158716D01*
X59276190Y-39158716D02*
X59195237Y-39118240D01*
X59195237Y-39118240D02*
X59033332Y-39118240D01*
X59033332Y-39118240D02*
X58952380Y-39158716D01*
X58952380Y-39158716D02*
X58911904Y-39239669D01*
X58911904Y-39239669D02*
X58911904Y-39320621D01*
X58911904Y-39320621D02*
X59316666Y-39401573D01*
X57778571Y-39684907D02*
X57859523Y-39644431D01*
X57859523Y-39644431D02*
X57900000Y-39603954D01*
X57900000Y-39603954D02*
X57940476Y-39523002D01*
X57940476Y-39523002D02*
X57940476Y-39280145D01*
X57940476Y-39280145D02*
X57900000Y-39199192D01*
X57900000Y-39199192D02*
X57859523Y-39158716D01*
X57859523Y-39158716D02*
X57778571Y-39118240D01*
X57778571Y-39118240D02*
X57657142Y-39118240D01*
X57657142Y-39118240D02*
X57576190Y-39158716D01*
X57576190Y-39158716D02*
X57535714Y-39199192D01*
X57535714Y-39199192D02*
X57495238Y-39280145D01*
X57495238Y-39280145D02*
X57495238Y-39523002D01*
X57495238Y-39523002D02*
X57535714Y-39603954D01*
X57535714Y-39603954D02*
X57576190Y-39644431D01*
X57576190Y-39644431D02*
X57657142Y-39684907D01*
X57657142Y-39684907D02*
X57778571Y-39684907D01*
X56766666Y-39118240D02*
X56766666Y-39684907D01*
X57130952Y-39118240D02*
X57130952Y-39563478D01*
X57130952Y-39563478D02*
X57090475Y-39644431D01*
X57090475Y-39644431D02*
X57009523Y-39684907D01*
X57009523Y-39684907D02*
X56888094Y-39684907D01*
X56888094Y-39684907D02*
X56807142Y-39644431D01*
X56807142Y-39644431D02*
X56766666Y-39603954D01*
X56483332Y-39118240D02*
X56159523Y-39118240D01*
X56361904Y-38834907D02*
X56361904Y-39563478D01*
X56361904Y-39563478D02*
X56321427Y-39644431D01*
X56321427Y-39644431D02*
X56240475Y-39684907D01*
X56240475Y-39684907D02*
X56159523Y-39684907D01*
X77004760Y-44339669D02*
X77288094Y-44339669D01*
X77288094Y-44784907D02*
X77288094Y-43934907D01*
X77288094Y-43934907D02*
X76883332Y-43934907D01*
X76154761Y-44784907D02*
X76559523Y-44784907D01*
X76559523Y-44784907D02*
X76559523Y-43934907D01*
X75911904Y-44542050D02*
X75507142Y-44542050D01*
X75992856Y-44784907D02*
X75709523Y-43934907D01*
X75709523Y-43934907D02*
X75426189Y-44784907D01*
X75183333Y-44744431D02*
X75061904Y-44784907D01*
X75061904Y-44784907D02*
X74859523Y-44784907D01*
X74859523Y-44784907D02*
X74778571Y-44744431D01*
X74778571Y-44744431D02*
X74738095Y-44703954D01*
X74738095Y-44703954D02*
X74697618Y-44623002D01*
X74697618Y-44623002D02*
X74697618Y-44542050D01*
X74697618Y-44542050D02*
X74738095Y-44461097D01*
X74738095Y-44461097D02*
X74778571Y-44420621D01*
X74778571Y-44420621D02*
X74859523Y-44380145D01*
X74859523Y-44380145D02*
X75021428Y-44339669D01*
X75021428Y-44339669D02*
X75102380Y-44299192D01*
X75102380Y-44299192D02*
X75142857Y-44258716D01*
X75142857Y-44258716D02*
X75183333Y-44177764D01*
X75183333Y-44177764D02*
X75183333Y-44096811D01*
X75183333Y-44096811D02*
X75142857Y-44015859D01*
X75142857Y-44015859D02*
X75102380Y-43975383D01*
X75102380Y-43975383D02*
X75021428Y-43934907D01*
X75021428Y-43934907D02*
X74819047Y-43934907D01*
X74819047Y-43934907D02*
X74697618Y-43975383D01*
X74333333Y-44784907D02*
X74333333Y-43934907D01*
X74333333Y-44339669D02*
X73847618Y-44339669D01*
X73847618Y-44784907D02*
X73847618Y-43934907D01*
X73442857Y-44703954D02*
X73402380Y-44744431D01*
X73402380Y-44744431D02*
X73442857Y-44784907D01*
X73442857Y-44784907D02*
X73483333Y-44744431D01*
X73483333Y-44744431D02*
X73442857Y-44703954D01*
X73442857Y-44703954D02*
X73442857Y-44784907D01*
X73442857Y-44258716D02*
X73402380Y-44299192D01*
X73402380Y-44299192D02*
X73442857Y-44339669D01*
X73442857Y-44339669D02*
X73483333Y-44299192D01*
X73483333Y-44299192D02*
X73442857Y-44258716D01*
X73442857Y-44258716D02*
X73442857Y-44339669D01*
X72390476Y-44784907D02*
X72390476Y-43934907D01*
X72026190Y-44784907D02*
X72026190Y-44339669D01*
X72026190Y-44339669D02*
X72066666Y-44258716D01*
X72066666Y-44258716D02*
X72147618Y-44218240D01*
X72147618Y-44218240D02*
X72269047Y-44218240D01*
X72269047Y-44218240D02*
X72349999Y-44258716D01*
X72349999Y-44258716D02*
X72390476Y-44299192D01*
X71499999Y-44784907D02*
X71580951Y-44744431D01*
X71580951Y-44744431D02*
X71621428Y-44703954D01*
X71621428Y-44703954D02*
X71661904Y-44623002D01*
X71661904Y-44623002D02*
X71661904Y-44380145D01*
X71661904Y-44380145D02*
X71621428Y-44299192D01*
X71621428Y-44299192D02*
X71580951Y-44258716D01*
X71580951Y-44258716D02*
X71499999Y-44218240D01*
X71499999Y-44218240D02*
X71378570Y-44218240D01*
X71378570Y-44218240D02*
X71297618Y-44258716D01*
X71297618Y-44258716D02*
X71257142Y-44299192D01*
X71257142Y-44299192D02*
X71216666Y-44380145D01*
X71216666Y-44380145D02*
X71216666Y-44623002D01*
X71216666Y-44623002D02*
X71257142Y-44703954D01*
X71257142Y-44703954D02*
X71297618Y-44744431D01*
X71297618Y-44744431D02*
X71378570Y-44784907D01*
X71378570Y-44784907D02*
X71499999Y-44784907D01*
X70730951Y-44784907D02*
X70811903Y-44744431D01*
X70811903Y-44744431D02*
X70852380Y-44663478D01*
X70852380Y-44663478D02*
X70852380Y-43934907D01*
X70042856Y-44784907D02*
X70042856Y-43934907D01*
X70042856Y-44744431D02*
X70123808Y-44784907D01*
X70123808Y-44784907D02*
X70285713Y-44784907D01*
X70285713Y-44784907D02*
X70366665Y-44744431D01*
X70366665Y-44744431D02*
X70407142Y-44703954D01*
X70407142Y-44703954D02*
X70447618Y-44623002D01*
X70447618Y-44623002D02*
X70447618Y-44380145D01*
X70447618Y-44380145D02*
X70407142Y-44299192D01*
X70407142Y-44299192D02*
X70366665Y-44258716D01*
X70366665Y-44258716D02*
X70285713Y-44218240D01*
X70285713Y-44218240D02*
X70123808Y-44218240D01*
X70123808Y-44218240D02*
X70042856Y-44258716D01*
X68707141Y-44339669D02*
X68585713Y-44380145D01*
X68585713Y-44380145D02*
X68545236Y-44420621D01*
X68545236Y-44420621D02*
X68504760Y-44501573D01*
X68504760Y-44501573D02*
X68504760Y-44623002D01*
X68504760Y-44623002D02*
X68545236Y-44703954D01*
X68545236Y-44703954D02*
X68585713Y-44744431D01*
X68585713Y-44744431D02*
X68666665Y-44784907D01*
X68666665Y-44784907D02*
X68990475Y-44784907D01*
X68990475Y-44784907D02*
X68990475Y-43934907D01*
X68990475Y-43934907D02*
X68707141Y-43934907D01*
X68707141Y-43934907D02*
X68626189Y-43975383D01*
X68626189Y-43975383D02*
X68585713Y-44015859D01*
X68585713Y-44015859D02*
X68545236Y-44096811D01*
X68545236Y-44096811D02*
X68545236Y-44177764D01*
X68545236Y-44177764D02*
X68585713Y-44258716D01*
X68585713Y-44258716D02*
X68626189Y-44299192D01*
X68626189Y-44299192D02*
X68707141Y-44339669D01*
X68707141Y-44339669D02*
X68990475Y-44339669D01*
X67978570Y-43934907D02*
X67816665Y-43934907D01*
X67816665Y-43934907D02*
X67735713Y-43975383D01*
X67735713Y-43975383D02*
X67654760Y-44056335D01*
X67654760Y-44056335D02*
X67614284Y-44218240D01*
X67614284Y-44218240D02*
X67614284Y-44501573D01*
X67614284Y-44501573D02*
X67654760Y-44663478D01*
X67654760Y-44663478D02*
X67735713Y-44744431D01*
X67735713Y-44744431D02*
X67816665Y-44784907D01*
X67816665Y-44784907D02*
X67978570Y-44784907D01*
X67978570Y-44784907D02*
X68059522Y-44744431D01*
X68059522Y-44744431D02*
X68140475Y-44663478D01*
X68140475Y-44663478D02*
X68180951Y-44501573D01*
X68180951Y-44501573D02*
X68180951Y-44218240D01*
X68180951Y-44218240D02*
X68140475Y-44056335D01*
X68140475Y-44056335D02*
X68059522Y-43975383D01*
X68059522Y-43975383D02*
X67978570Y-43934907D01*
X67088094Y-43934907D02*
X66926189Y-43934907D01*
X66926189Y-43934907D02*
X66845237Y-43975383D01*
X66845237Y-43975383D02*
X66764284Y-44056335D01*
X66764284Y-44056335D02*
X66723808Y-44218240D01*
X66723808Y-44218240D02*
X66723808Y-44501573D01*
X66723808Y-44501573D02*
X66764284Y-44663478D01*
X66764284Y-44663478D02*
X66845237Y-44744431D01*
X66845237Y-44744431D02*
X66926189Y-44784907D01*
X66926189Y-44784907D02*
X67088094Y-44784907D01*
X67088094Y-44784907D02*
X67169046Y-44744431D01*
X67169046Y-44744431D02*
X67249999Y-44663478D01*
X67249999Y-44663478D02*
X67290475Y-44501573D01*
X67290475Y-44501573D02*
X67290475Y-44218240D01*
X67290475Y-44218240D02*
X67249999Y-44056335D01*
X67249999Y-44056335D02*
X67169046Y-43975383D01*
X67169046Y-43975383D02*
X67088094Y-43934907D01*
X66480951Y-43934907D02*
X65995237Y-43934907D01*
X66238094Y-44784907D02*
X66238094Y-43934907D01*
X64942856Y-44420621D02*
X64983332Y-44461097D01*
X64983332Y-44461097D02*
X64942856Y-44501573D01*
X64942856Y-44501573D02*
X64902380Y-44461097D01*
X64902380Y-44461097D02*
X64942856Y-44420621D01*
X64942856Y-44420621D02*
X64942856Y-44501573D01*
X63890475Y-44218240D02*
X63566666Y-44218240D01*
X63769047Y-43934907D02*
X63769047Y-44663478D01*
X63769047Y-44663478D02*
X63728570Y-44744431D01*
X63728570Y-44744431D02*
X63647618Y-44784907D01*
X63647618Y-44784907D02*
X63566666Y-44784907D01*
X62919047Y-44784907D02*
X62919047Y-44339669D01*
X62919047Y-44339669D02*
X62959523Y-44258716D01*
X62959523Y-44258716D02*
X63040475Y-44218240D01*
X63040475Y-44218240D02*
X63202380Y-44218240D01*
X63202380Y-44218240D02*
X63283333Y-44258716D01*
X62919047Y-44744431D02*
X62999999Y-44784907D01*
X62999999Y-44784907D02*
X63202380Y-44784907D01*
X63202380Y-44784907D02*
X63283333Y-44744431D01*
X63283333Y-44744431D02*
X63323809Y-44663478D01*
X63323809Y-44663478D02*
X63323809Y-44582526D01*
X63323809Y-44582526D02*
X63283333Y-44501573D01*
X63283333Y-44501573D02*
X63202380Y-44461097D01*
X63202380Y-44461097D02*
X62999999Y-44461097D01*
X62999999Y-44461097D02*
X62919047Y-44420621D01*
X62514285Y-44218240D02*
X62514285Y-45068240D01*
X62514285Y-44258716D02*
X62433332Y-44218240D01*
X62433332Y-44218240D02*
X62271427Y-44218240D01*
X62271427Y-44218240D02*
X62190475Y-44258716D01*
X62190475Y-44258716D02*
X62149999Y-44299192D01*
X62149999Y-44299192D02*
X62109523Y-44380145D01*
X62109523Y-44380145D02*
X62109523Y-44623002D01*
X62109523Y-44623002D02*
X62149999Y-44703954D01*
X62149999Y-44703954D02*
X62190475Y-44744431D01*
X62190475Y-44744431D02*
X62271427Y-44784907D01*
X62271427Y-44784907D02*
X62433332Y-44784907D01*
X62433332Y-44784907D02*
X62514285Y-44744431D01*
X60611903Y-44784907D02*
X60895237Y-44380145D01*
X61097618Y-44784907D02*
X61097618Y-43934907D01*
X61097618Y-43934907D02*
X60773808Y-43934907D01*
X60773808Y-43934907D02*
X60692856Y-43975383D01*
X60692856Y-43975383D02*
X60652379Y-44015859D01*
X60652379Y-44015859D02*
X60611903Y-44096811D01*
X60611903Y-44096811D02*
X60611903Y-44218240D01*
X60611903Y-44218240D02*
X60652379Y-44299192D01*
X60652379Y-44299192D02*
X60692856Y-44339669D01*
X60692856Y-44339669D02*
X60773808Y-44380145D01*
X60773808Y-44380145D02*
X61097618Y-44380145D01*
X60288094Y-44744431D02*
X60166665Y-44784907D01*
X60166665Y-44784907D02*
X59964284Y-44784907D01*
X59964284Y-44784907D02*
X59883332Y-44744431D01*
X59883332Y-44744431D02*
X59842856Y-44703954D01*
X59842856Y-44703954D02*
X59802379Y-44623002D01*
X59802379Y-44623002D02*
X59802379Y-44542050D01*
X59802379Y-44542050D02*
X59842856Y-44461097D01*
X59842856Y-44461097D02*
X59883332Y-44420621D01*
X59883332Y-44420621D02*
X59964284Y-44380145D01*
X59964284Y-44380145D02*
X60126189Y-44339669D01*
X60126189Y-44339669D02*
X60207141Y-44299192D01*
X60207141Y-44299192D02*
X60247618Y-44258716D01*
X60247618Y-44258716D02*
X60288094Y-44177764D01*
X60288094Y-44177764D02*
X60288094Y-44096811D01*
X60288094Y-44096811D02*
X60247618Y-44015859D01*
X60247618Y-44015859D02*
X60207141Y-43975383D01*
X60207141Y-43975383D02*
X60126189Y-43934907D01*
X60126189Y-43934907D02*
X59923808Y-43934907D01*
X59923808Y-43934907D02*
X59802379Y-43975383D01*
X59559522Y-43934907D02*
X59073808Y-43934907D01*
X59316665Y-44784907D02*
X59316665Y-43934907D01*
X58021427Y-44420621D02*
X58061903Y-44461097D01*
X58061903Y-44461097D02*
X58021427Y-44501573D01*
X58021427Y-44501573D02*
X57980951Y-44461097D01*
X57980951Y-44461097D02*
X58021427Y-44420621D01*
X58021427Y-44420621D02*
X58021427Y-44501573D01*
X56847618Y-44784907D02*
X56847618Y-44218240D01*
X56847618Y-44380145D02*
X56807141Y-44299192D01*
X56807141Y-44299192D02*
X56766665Y-44258716D01*
X56766665Y-44258716D02*
X56685713Y-44218240D01*
X56685713Y-44218240D02*
X56604760Y-44218240D01*
X55997618Y-44744431D02*
X56078570Y-44784907D01*
X56078570Y-44784907D02*
X56240475Y-44784907D01*
X56240475Y-44784907D02*
X56321428Y-44744431D01*
X56321428Y-44744431D02*
X56361904Y-44663478D01*
X56361904Y-44663478D02*
X56361904Y-44339669D01*
X56361904Y-44339669D02*
X56321428Y-44258716D01*
X56321428Y-44258716D02*
X56240475Y-44218240D01*
X56240475Y-44218240D02*
X56078570Y-44218240D01*
X56078570Y-44218240D02*
X55997618Y-44258716D01*
X55997618Y-44258716D02*
X55957142Y-44339669D01*
X55957142Y-44339669D02*
X55957142Y-44420621D01*
X55957142Y-44420621D02*
X56361904Y-44501573D01*
X55471428Y-44784907D02*
X55552380Y-44744431D01*
X55552380Y-44744431D02*
X55592857Y-44663478D01*
X55592857Y-44663478D02*
X55592857Y-43934907D01*
X54823809Y-44744431D02*
X54904761Y-44784907D01*
X54904761Y-44784907D02*
X55066666Y-44784907D01*
X55066666Y-44784907D02*
X55147619Y-44744431D01*
X55147619Y-44744431D02*
X55188095Y-44663478D01*
X55188095Y-44663478D02*
X55188095Y-44339669D01*
X55188095Y-44339669D02*
X55147619Y-44258716D01*
X55147619Y-44258716D02*
X55066666Y-44218240D01*
X55066666Y-44218240D02*
X54904761Y-44218240D01*
X54904761Y-44218240D02*
X54823809Y-44258716D01*
X54823809Y-44258716D02*
X54783333Y-44339669D01*
X54783333Y-44339669D02*
X54783333Y-44420621D01*
X54783333Y-44420621D02*
X55188095Y-44501573D01*
X54054762Y-44784907D02*
X54054762Y-44339669D01*
X54054762Y-44339669D02*
X54095238Y-44258716D01*
X54095238Y-44258716D02*
X54176190Y-44218240D01*
X54176190Y-44218240D02*
X54338095Y-44218240D01*
X54338095Y-44218240D02*
X54419048Y-44258716D01*
X54054762Y-44744431D02*
X54135714Y-44784907D01*
X54135714Y-44784907D02*
X54338095Y-44784907D01*
X54338095Y-44784907D02*
X54419048Y-44744431D01*
X54419048Y-44744431D02*
X54459524Y-44663478D01*
X54459524Y-44663478D02*
X54459524Y-44582526D01*
X54459524Y-44582526D02*
X54419048Y-44501573D01*
X54419048Y-44501573D02*
X54338095Y-44461097D01*
X54338095Y-44461097D02*
X54135714Y-44461097D01*
X54135714Y-44461097D02*
X54054762Y-44420621D01*
X53690476Y-44744431D02*
X53609523Y-44784907D01*
X53609523Y-44784907D02*
X53447619Y-44784907D01*
X53447619Y-44784907D02*
X53366666Y-44744431D01*
X53366666Y-44744431D02*
X53326190Y-44663478D01*
X53326190Y-44663478D02*
X53326190Y-44623002D01*
X53326190Y-44623002D02*
X53366666Y-44542050D01*
X53366666Y-44542050D02*
X53447619Y-44501573D01*
X53447619Y-44501573D02*
X53569047Y-44501573D01*
X53569047Y-44501573D02*
X53650000Y-44461097D01*
X53650000Y-44461097D02*
X53690476Y-44380145D01*
X53690476Y-44380145D02*
X53690476Y-44339669D01*
X53690476Y-44339669D02*
X53650000Y-44258716D01*
X53650000Y-44258716D02*
X53569047Y-44218240D01*
X53569047Y-44218240D02*
X53447619Y-44218240D01*
X53447619Y-44218240D02*
X53366666Y-44258716D01*
X52638095Y-44744431D02*
X52719047Y-44784907D01*
X52719047Y-44784907D02*
X52880952Y-44784907D01*
X52880952Y-44784907D02*
X52961905Y-44744431D01*
X52961905Y-44744431D02*
X53002381Y-44663478D01*
X53002381Y-44663478D02*
X53002381Y-44339669D01*
X53002381Y-44339669D02*
X52961905Y-44258716D01*
X52961905Y-44258716D02*
X52880952Y-44218240D01*
X52880952Y-44218240D02*
X52719047Y-44218240D01*
X52719047Y-44218240D02*
X52638095Y-44258716D01*
X52638095Y-44258716D02*
X52597619Y-44339669D01*
X52597619Y-44339669D02*
X52597619Y-44420621D01*
X52597619Y-44420621D02*
X53002381Y-44501573D01*
X51302381Y-44339669D02*
X51180953Y-44380145D01*
X51180953Y-44380145D02*
X51140476Y-44420621D01*
X51140476Y-44420621D02*
X51100000Y-44501573D01*
X51100000Y-44501573D02*
X51100000Y-44623002D01*
X51100000Y-44623002D02*
X51140476Y-44703954D01*
X51140476Y-44703954D02*
X51180953Y-44744431D01*
X51180953Y-44744431D02*
X51261905Y-44784907D01*
X51261905Y-44784907D02*
X51585715Y-44784907D01*
X51585715Y-44784907D02*
X51585715Y-43934907D01*
X51585715Y-43934907D02*
X51302381Y-43934907D01*
X51302381Y-43934907D02*
X51221429Y-43975383D01*
X51221429Y-43975383D02*
X51180953Y-44015859D01*
X51180953Y-44015859D02*
X51140476Y-44096811D01*
X51140476Y-44096811D02*
X51140476Y-44177764D01*
X51140476Y-44177764D02*
X51180953Y-44258716D01*
X51180953Y-44258716D02*
X51221429Y-44299192D01*
X51221429Y-44299192D02*
X51302381Y-44339669D01*
X51302381Y-44339669D02*
X51585715Y-44339669D01*
X50573810Y-43934907D02*
X50411905Y-43934907D01*
X50411905Y-43934907D02*
X50330953Y-43975383D01*
X50330953Y-43975383D02*
X50250000Y-44056335D01*
X50250000Y-44056335D02*
X50209524Y-44218240D01*
X50209524Y-44218240D02*
X50209524Y-44501573D01*
X50209524Y-44501573D02*
X50250000Y-44663478D01*
X50250000Y-44663478D02*
X50330953Y-44744431D01*
X50330953Y-44744431D02*
X50411905Y-44784907D01*
X50411905Y-44784907D02*
X50573810Y-44784907D01*
X50573810Y-44784907D02*
X50654762Y-44744431D01*
X50654762Y-44744431D02*
X50735715Y-44663478D01*
X50735715Y-44663478D02*
X50776191Y-44501573D01*
X50776191Y-44501573D02*
X50776191Y-44218240D01*
X50776191Y-44218240D02*
X50735715Y-44056335D01*
X50735715Y-44056335D02*
X50654762Y-43975383D01*
X50654762Y-43975383D02*
X50573810Y-43934907D01*
X49683334Y-43934907D02*
X49521429Y-43934907D01*
X49521429Y-43934907D02*
X49440477Y-43975383D01*
X49440477Y-43975383D02*
X49359524Y-44056335D01*
X49359524Y-44056335D02*
X49319048Y-44218240D01*
X49319048Y-44218240D02*
X49319048Y-44501573D01*
X49319048Y-44501573D02*
X49359524Y-44663478D01*
X49359524Y-44663478D02*
X49440477Y-44744431D01*
X49440477Y-44744431D02*
X49521429Y-44784907D01*
X49521429Y-44784907D02*
X49683334Y-44784907D01*
X49683334Y-44784907D02*
X49764286Y-44744431D01*
X49764286Y-44744431D02*
X49845239Y-44663478D01*
X49845239Y-44663478D02*
X49885715Y-44501573D01*
X49885715Y-44501573D02*
X49885715Y-44218240D01*
X49885715Y-44218240D02*
X49845239Y-44056335D01*
X49845239Y-44056335D02*
X49764286Y-43975383D01*
X49764286Y-43975383D02*
X49683334Y-43934907D01*
X49076191Y-43934907D02*
X48590477Y-43934907D01*
X48833334Y-44784907D02*
X48833334Y-43934907D01*
X79690476Y-45454299D02*
X79500000Y-45454299D01*
X79500000Y-45454299D02*
X79404762Y-45501918D01*
X79404762Y-45501918D02*
X79309524Y-45597156D01*
X79309524Y-45597156D02*
X79261905Y-45787632D01*
X79261905Y-45787632D02*
X79261905Y-46120965D01*
X79261905Y-46120965D02*
X79309524Y-46311441D01*
X79309524Y-46311441D02*
X79404762Y-46406680D01*
X79404762Y-46406680D02*
X79500000Y-46454299D01*
X79500000Y-46454299D02*
X79690476Y-46454299D01*
X79690476Y-46454299D02*
X79785714Y-46406680D01*
X79785714Y-46406680D02*
X79880952Y-46311441D01*
X79880952Y-46311441D02*
X79928571Y-46120965D01*
X79928571Y-46120965D02*
X79928571Y-45787632D01*
X79928571Y-45787632D02*
X79880952Y-45597156D01*
X79880952Y-45597156D02*
X79785714Y-45501918D01*
X79785714Y-45501918D02*
X79690476Y-45454299D01*
X78880952Y-46406680D02*
X78738095Y-46454299D01*
X78738095Y-46454299D02*
X78500000Y-46454299D01*
X78500000Y-46454299D02*
X78404762Y-46406680D01*
X78404762Y-46406680D02*
X78357143Y-46359060D01*
X78357143Y-46359060D02*
X78309524Y-46263822D01*
X78309524Y-46263822D02*
X78309524Y-46168584D01*
X78309524Y-46168584D02*
X78357143Y-46073346D01*
X78357143Y-46073346D02*
X78404762Y-46025727D01*
X78404762Y-46025727D02*
X78500000Y-45978108D01*
X78500000Y-45978108D02*
X78690476Y-45930489D01*
X78690476Y-45930489D02*
X78785714Y-45882870D01*
X78785714Y-45882870D02*
X78833333Y-45835251D01*
X78833333Y-45835251D02*
X78880952Y-45740013D01*
X78880952Y-45740013D02*
X78880952Y-45644775D01*
X78880952Y-45644775D02*
X78833333Y-45549537D01*
X78833333Y-45549537D02*
X78785714Y-45501918D01*
X78785714Y-45501918D02*
X78690476Y-45454299D01*
X78690476Y-45454299D02*
X78452381Y-45454299D01*
X78452381Y-45454299D02*
X78309524Y-45501918D01*
X77880952Y-46454299D02*
X77880952Y-45454299D01*
X77880952Y-45930489D02*
X77309524Y-45930489D01*
X77309524Y-46454299D02*
X77309524Y-45454299D01*
X76928571Y-45454299D02*
X76690476Y-46454299D01*
X76690476Y-46454299D02*
X76500000Y-45740013D01*
X76500000Y-45740013D02*
X76309524Y-46454299D01*
X76309524Y-46454299D02*
X76071429Y-45454299D01*
X74785714Y-46025727D02*
X74833333Y-46073346D01*
X74833333Y-46073346D02*
X74785714Y-46120965D01*
X74785714Y-46120965D02*
X74738095Y-46073346D01*
X74738095Y-46073346D02*
X74785714Y-46025727D01*
X74785714Y-46025727D02*
X74785714Y-46120965D01*
X72976190Y-45787632D02*
X72976190Y-46597156D01*
X72976190Y-46597156D02*
X73023809Y-46692394D01*
X73023809Y-46692394D02*
X73071428Y-46740013D01*
X73071428Y-46740013D02*
X73166666Y-46787632D01*
X73166666Y-46787632D02*
X73309523Y-46787632D01*
X73309523Y-46787632D02*
X73404761Y-46740013D01*
X72976190Y-46406680D02*
X73071428Y-46454299D01*
X73071428Y-46454299D02*
X73261904Y-46454299D01*
X73261904Y-46454299D02*
X73357142Y-46406680D01*
X73357142Y-46406680D02*
X73404761Y-46359060D01*
X73404761Y-46359060D02*
X73452380Y-46263822D01*
X73452380Y-46263822D02*
X73452380Y-45978108D01*
X73452380Y-45978108D02*
X73404761Y-45882870D01*
X73404761Y-45882870D02*
X73357142Y-45835251D01*
X73357142Y-45835251D02*
X73261904Y-45787632D01*
X73261904Y-45787632D02*
X73071428Y-45787632D01*
X73071428Y-45787632D02*
X72976190Y-45835251D01*
X72499999Y-46454299D02*
X72499999Y-45787632D01*
X72499999Y-45454299D02*
X72547618Y-45501918D01*
X72547618Y-45501918D02*
X72499999Y-45549537D01*
X72499999Y-45549537D02*
X72452380Y-45501918D01*
X72452380Y-45501918D02*
X72499999Y-45454299D01*
X72499999Y-45454299D02*
X72499999Y-45549537D01*
X72166666Y-45787632D02*
X71785714Y-45787632D01*
X72023809Y-45454299D02*
X72023809Y-46311441D01*
X72023809Y-46311441D02*
X71976190Y-46406680D01*
X71976190Y-46406680D02*
X71880952Y-46454299D01*
X71880952Y-46454299D02*
X71785714Y-46454299D01*
X71452380Y-46454299D02*
X71452380Y-45454299D01*
X71023809Y-46454299D02*
X71023809Y-45930489D01*
X71023809Y-45930489D02*
X71071428Y-45835251D01*
X71071428Y-45835251D02*
X71166666Y-45787632D01*
X71166666Y-45787632D02*
X71309523Y-45787632D01*
X71309523Y-45787632D02*
X71404761Y-45835251D01*
X71404761Y-45835251D02*
X71452380Y-45882870D01*
X70119047Y-45787632D02*
X70119047Y-46454299D01*
X70547618Y-45787632D02*
X70547618Y-46311441D01*
X70547618Y-46311441D02*
X70499999Y-46406680D01*
X70499999Y-46406680D02*
X70404761Y-46454299D01*
X70404761Y-46454299D02*
X70261904Y-46454299D01*
X70261904Y-46454299D02*
X70166666Y-46406680D01*
X70166666Y-46406680D02*
X70119047Y-46359060D01*
X69642856Y-46454299D02*
X69642856Y-45454299D01*
X69642856Y-45835251D02*
X69547618Y-45787632D01*
X69547618Y-45787632D02*
X69357142Y-45787632D01*
X69357142Y-45787632D02*
X69261904Y-45835251D01*
X69261904Y-45835251D02*
X69214285Y-45882870D01*
X69214285Y-45882870D02*
X69166666Y-45978108D01*
X69166666Y-45978108D02*
X69166666Y-46263822D01*
X69166666Y-46263822D02*
X69214285Y-46359060D01*
X69214285Y-46359060D02*
X69261904Y-46406680D01*
X69261904Y-46406680D02*
X69357142Y-46454299D01*
X69357142Y-46454299D02*
X69547618Y-46454299D01*
X69547618Y-46454299D02*
X69642856Y-46406680D01*
X68738094Y-46359060D02*
X68690475Y-46406680D01*
X68690475Y-46406680D02*
X68738094Y-46454299D01*
X68738094Y-46454299D02*
X68785713Y-46406680D01*
X68785713Y-46406680D02*
X68738094Y-46359060D01*
X68738094Y-46359060D02*
X68738094Y-46454299D01*
X67833333Y-46406680D02*
X67928571Y-46454299D01*
X67928571Y-46454299D02*
X68119047Y-46454299D01*
X68119047Y-46454299D02*
X68214285Y-46406680D01*
X68214285Y-46406680D02*
X68261904Y-46359060D01*
X68261904Y-46359060D02*
X68309523Y-46263822D01*
X68309523Y-46263822D02*
X68309523Y-45978108D01*
X68309523Y-45978108D02*
X68261904Y-45882870D01*
X68261904Y-45882870D02*
X68214285Y-45835251D01*
X68214285Y-45835251D02*
X68119047Y-45787632D01*
X68119047Y-45787632D02*
X67928571Y-45787632D01*
X67928571Y-45787632D02*
X67833333Y-45835251D01*
X67261904Y-46454299D02*
X67357142Y-46406680D01*
X67357142Y-46406680D02*
X67404761Y-46359060D01*
X67404761Y-46359060D02*
X67452380Y-46263822D01*
X67452380Y-46263822D02*
X67452380Y-45978108D01*
X67452380Y-45978108D02*
X67404761Y-45882870D01*
X67404761Y-45882870D02*
X67357142Y-45835251D01*
X67357142Y-45835251D02*
X67261904Y-45787632D01*
X67261904Y-45787632D02*
X67119047Y-45787632D01*
X67119047Y-45787632D02*
X67023809Y-45835251D01*
X67023809Y-45835251D02*
X66976190Y-45882870D01*
X66976190Y-45882870D02*
X66928571Y-45978108D01*
X66928571Y-45978108D02*
X66928571Y-46263822D01*
X66928571Y-46263822D02*
X66976190Y-46359060D01*
X66976190Y-46359060D02*
X67023809Y-46406680D01*
X67023809Y-46406680D02*
X67119047Y-46454299D01*
X67119047Y-46454299D02*
X67261904Y-46454299D01*
X66499999Y-46454299D02*
X66499999Y-45787632D01*
X66499999Y-45882870D02*
X66452380Y-45835251D01*
X66452380Y-45835251D02*
X66357142Y-45787632D01*
X66357142Y-45787632D02*
X66214285Y-45787632D01*
X66214285Y-45787632D02*
X66119047Y-45835251D01*
X66119047Y-45835251D02*
X66071428Y-45930489D01*
X66071428Y-45930489D02*
X66071428Y-46454299D01*
X66071428Y-45930489D02*
X66023809Y-45835251D01*
X66023809Y-45835251D02*
X65928571Y-45787632D01*
X65928571Y-45787632D02*
X65785714Y-45787632D01*
X65785714Y-45787632D02*
X65690475Y-45835251D01*
X65690475Y-45835251D02*
X65642856Y-45930489D01*
X65642856Y-45930489D02*
X65642856Y-46454299D01*
X64452381Y-45406680D02*
X65309523Y-46692394D01*
X63785714Y-45930489D02*
X63642857Y-45978108D01*
X63642857Y-45978108D02*
X63595238Y-46025727D01*
X63595238Y-46025727D02*
X63547619Y-46120965D01*
X63547619Y-46120965D02*
X63547619Y-46263822D01*
X63547619Y-46263822D02*
X63595238Y-46359060D01*
X63595238Y-46359060D02*
X63642857Y-46406680D01*
X63642857Y-46406680D02*
X63738095Y-46454299D01*
X63738095Y-46454299D02*
X64119047Y-46454299D01*
X64119047Y-46454299D02*
X64119047Y-45454299D01*
X64119047Y-45454299D02*
X63785714Y-45454299D01*
X63785714Y-45454299D02*
X63690476Y-45501918D01*
X63690476Y-45501918D02*
X63642857Y-45549537D01*
X63642857Y-45549537D02*
X63595238Y-45644775D01*
X63595238Y-45644775D02*
X63595238Y-45740013D01*
X63595238Y-45740013D02*
X63642857Y-45835251D01*
X63642857Y-45835251D02*
X63690476Y-45882870D01*
X63690476Y-45882870D02*
X63785714Y-45930489D01*
X63785714Y-45930489D02*
X64119047Y-45930489D01*
X63119047Y-46454299D02*
X63119047Y-45787632D01*
X63119047Y-45978108D02*
X63071428Y-45882870D01*
X63071428Y-45882870D02*
X63023809Y-45835251D01*
X63023809Y-45835251D02*
X62928571Y-45787632D01*
X62928571Y-45787632D02*
X62833333Y-45787632D01*
X62499999Y-46454299D02*
X62499999Y-45787632D01*
X62499999Y-45454299D02*
X62547618Y-45501918D01*
X62547618Y-45501918D02*
X62499999Y-45549537D01*
X62499999Y-45549537D02*
X62452380Y-45501918D01*
X62452380Y-45501918D02*
X62499999Y-45454299D01*
X62499999Y-45454299D02*
X62499999Y-45549537D01*
X61880952Y-46454299D02*
X61976190Y-46406680D01*
X61976190Y-46406680D02*
X62023809Y-46311441D01*
X62023809Y-46311441D02*
X62023809Y-45454299D01*
X61357142Y-46454299D02*
X61452380Y-46406680D01*
X61452380Y-46406680D02*
X61499999Y-46311441D01*
X61499999Y-46311441D02*
X61499999Y-45454299D01*
X60547618Y-46454299D02*
X60547618Y-45930489D01*
X60547618Y-45930489D02*
X60595237Y-45835251D01*
X60595237Y-45835251D02*
X60690475Y-45787632D01*
X60690475Y-45787632D02*
X60880951Y-45787632D01*
X60880951Y-45787632D02*
X60976189Y-45835251D01*
X60547618Y-46406680D02*
X60642856Y-46454299D01*
X60642856Y-46454299D02*
X60880951Y-46454299D01*
X60880951Y-46454299D02*
X60976189Y-46406680D01*
X60976189Y-46406680D02*
X61023808Y-46311441D01*
X61023808Y-46311441D02*
X61023808Y-46216203D01*
X61023808Y-46216203D02*
X60976189Y-46120965D01*
X60976189Y-46120965D02*
X60880951Y-46073346D01*
X60880951Y-46073346D02*
X60642856Y-46073346D01*
X60642856Y-46073346D02*
X60547618Y-46025727D01*
X60071427Y-46454299D02*
X60071427Y-45787632D01*
X60071427Y-45978108D02*
X60023808Y-45882870D01*
X60023808Y-45882870D02*
X59976189Y-45835251D01*
X59976189Y-45835251D02*
X59880951Y-45787632D01*
X59880951Y-45787632D02*
X59785713Y-45787632D01*
X59261903Y-45454299D02*
X59166665Y-45454299D01*
X59166665Y-45454299D02*
X59071427Y-45501918D01*
X59071427Y-45501918D02*
X59023808Y-45549537D01*
X59023808Y-45549537D02*
X58976189Y-45644775D01*
X58976189Y-45644775D02*
X58928570Y-45835251D01*
X58928570Y-45835251D02*
X58928570Y-46073346D01*
X58928570Y-46073346D02*
X58976189Y-46263822D01*
X58976189Y-46263822D02*
X59023808Y-46359060D01*
X59023808Y-46359060D02*
X59071427Y-46406680D01*
X59071427Y-46406680D02*
X59166665Y-46454299D01*
X59166665Y-46454299D02*
X59261903Y-46454299D01*
X59261903Y-46454299D02*
X59357141Y-46406680D01*
X59357141Y-46406680D02*
X59404760Y-46359060D01*
X59404760Y-46359060D02*
X59452379Y-46263822D01*
X59452379Y-46263822D02*
X59499998Y-46073346D01*
X59499998Y-46073346D02*
X59499998Y-45835251D01*
X59499998Y-45835251D02*
X59452379Y-45644775D01*
X59452379Y-45644775D02*
X59404760Y-45549537D01*
X59404760Y-45549537D02*
X59357141Y-45501918D01*
X59357141Y-45501918D02*
X59261903Y-45454299D01*
X57976189Y-46454299D02*
X58547617Y-46454299D01*
X58261903Y-46454299D02*
X58261903Y-45454299D01*
X58261903Y-45454299D02*
X58357141Y-45597156D01*
X58357141Y-45597156D02*
X58452379Y-45692394D01*
X58452379Y-45692394D02*
X58547617Y-45740013D01*
X57357141Y-45454299D02*
X57261903Y-45454299D01*
X57261903Y-45454299D02*
X57166665Y-45501918D01*
X57166665Y-45501918D02*
X57119046Y-45549537D01*
X57119046Y-45549537D02*
X57071427Y-45644775D01*
X57071427Y-45644775D02*
X57023808Y-45835251D01*
X57023808Y-45835251D02*
X57023808Y-46073346D01*
X57023808Y-46073346D02*
X57071427Y-46263822D01*
X57071427Y-46263822D02*
X57119046Y-46359060D01*
X57119046Y-46359060D02*
X57166665Y-46406680D01*
X57166665Y-46406680D02*
X57261903Y-46454299D01*
X57261903Y-46454299D02*
X57357141Y-46454299D01*
X57357141Y-46454299D02*
X57452379Y-46406680D01*
X57452379Y-46406680D02*
X57499998Y-46359060D01*
X57499998Y-46359060D02*
X57547617Y-46263822D01*
X57547617Y-46263822D02*
X57595236Y-46073346D01*
X57595236Y-46073346D02*
X57595236Y-45835251D01*
X57595236Y-45835251D02*
X57547617Y-45644775D01*
X57547617Y-45644775D02*
X57499998Y-45549537D01*
X57499998Y-45549537D02*
X57452379Y-45501918D01*
X57452379Y-45501918D02*
X57357141Y-45454299D01*
X56071427Y-46454299D02*
X56642855Y-46454299D01*
X56357141Y-46454299D02*
X56357141Y-45454299D01*
X56357141Y-45454299D02*
X56452379Y-45597156D01*
X56452379Y-45597156D02*
X56547617Y-45692394D01*
X56547617Y-45692394D02*
X56642855Y-45740013D01*
X80428570Y-43000560D02*
X80428570Y-41900560D01*
X80428570Y-41900560D02*
X79799998Y-43000560D01*
X79799998Y-43000560D02*
X79799998Y-41900560D01*
X78857141Y-42948180D02*
X78961903Y-43000560D01*
X78961903Y-43000560D02*
X79171427Y-43000560D01*
X79171427Y-43000560D02*
X79276189Y-42948180D01*
X79276189Y-42948180D02*
X79328570Y-42843418D01*
X79328570Y-42843418D02*
X79328570Y-42424370D01*
X79328570Y-42424370D02*
X79276189Y-42319608D01*
X79276189Y-42319608D02*
X79171427Y-42267227D01*
X79171427Y-42267227D02*
X78961903Y-42267227D01*
X78961903Y-42267227D02*
X78857141Y-42319608D01*
X78857141Y-42319608D02*
X78804760Y-42424370D01*
X78804760Y-42424370D02*
X78804760Y-42529132D01*
X78804760Y-42529132D02*
X79328570Y-42633894D01*
X77861903Y-42267227D02*
X77861903Y-43000560D01*
X78333332Y-42267227D02*
X78333332Y-42843418D01*
X78333332Y-42843418D02*
X78280951Y-42948180D01*
X78280951Y-42948180D02*
X78176189Y-43000560D01*
X78176189Y-43000560D02*
X78019046Y-43000560D01*
X78019046Y-43000560D02*
X77914284Y-42948180D01*
X77914284Y-42948180D02*
X77861903Y-42895799D01*
X77338094Y-43000560D02*
X77338094Y-42267227D01*
X77338094Y-42476751D02*
X77285713Y-42371989D01*
X77285713Y-42371989D02*
X77233332Y-42319608D01*
X77233332Y-42319608D02*
X77128570Y-42267227D01*
X77128570Y-42267227D02*
X77023808Y-42267227D01*
X76185713Y-43000560D02*
X76185713Y-42424370D01*
X76185713Y-42424370D02*
X76238094Y-42319608D01*
X76238094Y-42319608D02*
X76342856Y-42267227D01*
X76342856Y-42267227D02*
X76552380Y-42267227D01*
X76552380Y-42267227D02*
X76657142Y-42319608D01*
X76185713Y-42948180D02*
X76290475Y-43000560D01*
X76290475Y-43000560D02*
X76552380Y-43000560D01*
X76552380Y-43000560D02*
X76657142Y-42948180D01*
X76657142Y-42948180D02*
X76709523Y-42843418D01*
X76709523Y-42843418D02*
X76709523Y-42738656D01*
X76709523Y-42738656D02*
X76657142Y-42633894D01*
X76657142Y-42633894D02*
X76552380Y-42581513D01*
X76552380Y-42581513D02*
X76290475Y-42581513D01*
X76290475Y-42581513D02*
X76185713Y-42529132D01*
X75504761Y-43000560D02*
X75609523Y-42948180D01*
X75609523Y-42948180D02*
X75661904Y-42843418D01*
X75661904Y-42843418D02*
X75661904Y-41900560D01*
X74457142Y-42895799D02*
X74509523Y-42948180D01*
X74509523Y-42948180D02*
X74666666Y-43000560D01*
X74666666Y-43000560D02*
X74771428Y-43000560D01*
X74771428Y-43000560D02*
X74928571Y-42948180D01*
X74928571Y-42948180D02*
X75033333Y-42843418D01*
X75033333Y-42843418D02*
X75085714Y-42738656D01*
X75085714Y-42738656D02*
X75138095Y-42529132D01*
X75138095Y-42529132D02*
X75138095Y-42371989D01*
X75138095Y-42371989D02*
X75085714Y-42162465D01*
X75085714Y-42162465D02*
X75033333Y-42057703D01*
X75033333Y-42057703D02*
X74928571Y-41952941D01*
X74928571Y-41952941D02*
X74771428Y-41900560D01*
X74771428Y-41900560D02*
X74666666Y-41900560D01*
X74666666Y-41900560D02*
X74509523Y-41952941D01*
X74509523Y-41952941D02*
X74457142Y-42005322D01*
X73514285Y-43000560D02*
X73514285Y-42424370D01*
X73514285Y-42424370D02*
X73566666Y-42319608D01*
X73566666Y-42319608D02*
X73671428Y-42267227D01*
X73671428Y-42267227D02*
X73880952Y-42267227D01*
X73880952Y-42267227D02*
X73985714Y-42319608D01*
X73514285Y-42948180D02*
X73619047Y-43000560D01*
X73619047Y-43000560D02*
X73880952Y-43000560D01*
X73880952Y-43000560D02*
X73985714Y-42948180D01*
X73985714Y-42948180D02*
X74038095Y-42843418D01*
X74038095Y-42843418D02*
X74038095Y-42738656D01*
X74038095Y-42738656D02*
X73985714Y-42633894D01*
X73985714Y-42633894D02*
X73880952Y-42581513D01*
X73880952Y-42581513D02*
X73619047Y-42581513D01*
X73619047Y-42581513D02*
X73514285Y-42529132D01*
X72990476Y-43000560D02*
X72990476Y-42267227D01*
X72990476Y-42476751D02*
X72938095Y-42371989D01*
X72938095Y-42371989D02*
X72885714Y-42319608D01*
X72885714Y-42319608D02*
X72780952Y-42267227D01*
X72780952Y-42267227D02*
X72676190Y-42267227D01*
X71838095Y-43000560D02*
X71838095Y-41900560D01*
X71838095Y-42948180D02*
X71942857Y-43000560D01*
X71942857Y-43000560D02*
X72152381Y-43000560D01*
X72152381Y-43000560D02*
X72257143Y-42948180D01*
X72257143Y-42948180D02*
X72309524Y-42895799D01*
X72309524Y-42895799D02*
X72361905Y-42791037D01*
X72361905Y-42791037D02*
X72361905Y-42476751D01*
X72361905Y-42476751D02*
X72309524Y-42371989D01*
X72309524Y-42371989D02*
X72257143Y-42319608D01*
X72257143Y-42319608D02*
X72152381Y-42267227D01*
X72152381Y-42267227D02*
X71942857Y-42267227D01*
X71942857Y-42267227D02*
X71838095Y-42319608D01*
X70580953Y-42267227D02*
X70319048Y-43000560D01*
X70319048Y-43000560D02*
X70057143Y-42267227D01*
X69690477Y-42005322D02*
X69638096Y-41952941D01*
X69638096Y-41952941D02*
X69533334Y-41900560D01*
X69533334Y-41900560D02*
X69271429Y-41900560D01*
X69271429Y-41900560D02*
X69166667Y-41952941D01*
X69166667Y-41952941D02*
X69114286Y-42005322D01*
X69114286Y-42005322D02*
X69061905Y-42110084D01*
X69061905Y-42110084D02*
X69061905Y-42214846D01*
X69061905Y-42214846D02*
X69114286Y-42371989D01*
X69114286Y-42371989D02*
X69742858Y-43000560D01*
X69742858Y-43000560D02*
X69061905Y-43000560D01*
X68590477Y-42895799D02*
X68538096Y-42948180D01*
X68538096Y-42948180D02*
X68590477Y-43000560D01*
X68590477Y-43000560D02*
X68642858Y-42948180D01*
X68642858Y-42948180D02*
X68590477Y-42895799D01*
X68590477Y-42895799D02*
X68590477Y-43000560D01*
X68171429Y-41900560D02*
X67490476Y-41900560D01*
X67490476Y-41900560D02*
X67857143Y-42319608D01*
X67857143Y-42319608D02*
X67700000Y-42319608D01*
X67700000Y-42319608D02*
X67595238Y-42371989D01*
X67595238Y-42371989D02*
X67542857Y-42424370D01*
X67542857Y-42424370D02*
X67490476Y-42529132D01*
X67490476Y-42529132D02*
X67490476Y-42791037D01*
X67490476Y-42791037D02*
X67542857Y-42895799D01*
X67542857Y-42895799D02*
X67595238Y-42948180D01*
X67595238Y-42948180D02*
X67700000Y-43000560D01*
X67700000Y-43000560D02*
X68014286Y-43000560D01*
X68014286Y-43000560D02*
X68119048Y-42948180D01*
X68119048Y-42948180D02*
X68171429Y-42895799D01*
X67019048Y-42895799D02*
X66966667Y-42948180D01*
X66966667Y-42948180D02*
X67019048Y-43000560D01*
X67019048Y-43000560D02*
X67071429Y-42948180D01*
X67071429Y-42948180D02*
X67019048Y-42895799D01*
X67019048Y-42895799D02*
X67019048Y-43000560D01*
X65919047Y-43000560D02*
X66547619Y-43000560D01*
X66233333Y-43000560D02*
X66233333Y-41900560D01*
X66233333Y-41900560D02*
X66338095Y-42057703D01*
X66338095Y-42057703D02*
X66442857Y-42162465D01*
X66442857Y-42162465D02*
X66547619Y-42214846D01*
X64452381Y-42529132D02*
X64504762Y-42581513D01*
X64504762Y-42581513D02*
X64452381Y-42633894D01*
X64452381Y-42633894D02*
X64400000Y-42581513D01*
X64400000Y-42581513D02*
X64452381Y-42529132D01*
X64452381Y-42529132D02*
X64452381Y-42633894D01*
X62933334Y-42267227D02*
X62933334Y-43367227D01*
X62933334Y-42319608D02*
X62828572Y-42267227D01*
X62828572Y-42267227D02*
X62619048Y-42267227D01*
X62619048Y-42267227D02*
X62514286Y-42319608D01*
X62514286Y-42319608D02*
X62461905Y-42371989D01*
X62461905Y-42371989D02*
X62409524Y-42476751D01*
X62409524Y-42476751D02*
X62409524Y-42791037D01*
X62409524Y-42791037D02*
X62461905Y-42895799D01*
X62461905Y-42895799D02*
X62514286Y-42948180D01*
X62514286Y-42948180D02*
X62619048Y-43000560D01*
X62619048Y-43000560D02*
X62828572Y-43000560D01*
X62828572Y-43000560D02*
X62933334Y-42948180D01*
X61938096Y-43000560D02*
X61938096Y-42267227D01*
X61938096Y-42476751D02*
X61885715Y-42371989D01*
X61885715Y-42371989D02*
X61833334Y-42319608D01*
X61833334Y-42319608D02*
X61728572Y-42267227D01*
X61728572Y-42267227D02*
X61623810Y-42267227D01*
X61257144Y-43000560D02*
X61257144Y-42267227D01*
X61257144Y-41900560D02*
X61309525Y-41952941D01*
X61309525Y-41952941D02*
X61257144Y-42005322D01*
X61257144Y-42005322D02*
X61204763Y-41952941D01*
X61204763Y-41952941D02*
X61257144Y-41900560D01*
X61257144Y-41900560D02*
X61257144Y-42005322D01*
X60733334Y-42267227D02*
X60733334Y-43000560D01*
X60733334Y-42371989D02*
X60680953Y-42319608D01*
X60680953Y-42319608D02*
X60576191Y-42267227D01*
X60576191Y-42267227D02*
X60419048Y-42267227D01*
X60419048Y-42267227D02*
X60314286Y-42319608D01*
X60314286Y-42319608D02*
X60261905Y-42424370D01*
X60261905Y-42424370D02*
X60261905Y-43000560D01*
X59266667Y-42948180D02*
X59371429Y-43000560D01*
X59371429Y-43000560D02*
X59580953Y-43000560D01*
X59580953Y-43000560D02*
X59685715Y-42948180D01*
X59685715Y-42948180D02*
X59738096Y-42895799D01*
X59738096Y-42895799D02*
X59790477Y-42791037D01*
X59790477Y-42791037D02*
X59790477Y-42476751D01*
X59790477Y-42476751D02*
X59738096Y-42371989D01*
X59738096Y-42371989D02*
X59685715Y-42319608D01*
X59685715Y-42319608D02*
X59580953Y-42267227D01*
X59580953Y-42267227D02*
X59371429Y-42267227D01*
X59371429Y-42267227D02*
X59266667Y-42319608D01*
X58376191Y-42948180D02*
X58480953Y-43000560D01*
X58480953Y-43000560D02*
X58690477Y-43000560D01*
X58690477Y-43000560D02*
X58795239Y-42948180D01*
X58795239Y-42948180D02*
X58847620Y-42843418D01*
X58847620Y-42843418D02*
X58847620Y-42424370D01*
X58847620Y-42424370D02*
X58795239Y-42319608D01*
X58795239Y-42319608D02*
X58690477Y-42267227D01*
X58690477Y-42267227D02*
X58480953Y-42267227D01*
X58480953Y-42267227D02*
X58376191Y-42319608D01*
X58376191Y-42319608D02*
X58323810Y-42424370D01*
X58323810Y-42424370D02*
X58323810Y-42529132D01*
X58323810Y-42529132D02*
X58847620Y-42633894D01*
X58009525Y-42267227D02*
X57590477Y-42267227D01*
X57852382Y-41900560D02*
X57852382Y-42843418D01*
X57852382Y-42843418D02*
X57800001Y-42948180D01*
X57800001Y-42948180D02*
X57695239Y-43000560D01*
X57695239Y-43000560D02*
X57590477Y-43000560D01*
X56804763Y-42948180D02*
X56909525Y-43000560D01*
X56909525Y-43000560D02*
X57119049Y-43000560D01*
X57119049Y-43000560D02*
X57223811Y-42948180D01*
X57223811Y-42948180D02*
X57276192Y-42843418D01*
X57276192Y-42843418D02*
X57276192Y-42424370D01*
X57276192Y-42424370D02*
X57223811Y-42319608D01*
X57223811Y-42319608D02*
X57119049Y-42267227D01*
X57119049Y-42267227D02*
X56909525Y-42267227D01*
X56909525Y-42267227D02*
X56804763Y-42319608D01*
X56804763Y-42319608D02*
X56752382Y-42424370D01*
X56752382Y-42424370D02*
X56752382Y-42529132D01*
X56752382Y-42529132D02*
X57276192Y-42633894D01*
X56280954Y-43000560D02*
X56280954Y-41900560D01*
X56176192Y-42581513D02*
X55861906Y-43000560D01*
X55861906Y-42267227D02*
X56280954Y-42686275D01*
X55390478Y-43000560D02*
X55390478Y-41900560D01*
X55285716Y-42581513D02*
X54971430Y-43000560D01*
X54971430Y-42267227D02*
X55390478Y-42686275D01*
X54500002Y-43000560D02*
X54500002Y-42267227D01*
X54500002Y-41900560D02*
X54552383Y-41952941D01*
X54552383Y-41952941D02*
X54500002Y-42005322D01*
X54500002Y-42005322D02*
X54447621Y-41952941D01*
X54447621Y-41952941D02*
X54500002Y-41900560D01*
X54500002Y-41900560D02*
X54500002Y-42005322D01*
X53976192Y-42895799D02*
X53923811Y-42948180D01*
X53923811Y-42948180D02*
X53976192Y-43000560D01*
X53976192Y-43000560D02*
X54028573Y-42948180D01*
X54028573Y-42948180D02*
X53976192Y-42895799D01*
X53976192Y-42895799D02*
X53976192Y-43000560D01*
X52980953Y-42948180D02*
X53085715Y-43000560D01*
X53085715Y-43000560D02*
X53295239Y-43000560D01*
X53295239Y-43000560D02*
X53400001Y-42948180D01*
X53400001Y-42948180D02*
X53452382Y-42895799D01*
X53452382Y-42895799D02*
X53504763Y-42791037D01*
X53504763Y-42791037D02*
X53504763Y-42476751D01*
X53504763Y-42476751D02*
X53452382Y-42371989D01*
X53452382Y-42371989D02*
X53400001Y-42319608D01*
X53400001Y-42319608D02*
X53295239Y-42267227D01*
X53295239Y-42267227D02*
X53085715Y-42267227D01*
X53085715Y-42267227D02*
X52980953Y-42319608D01*
X52352382Y-43000560D02*
X52457144Y-42948180D01*
X52457144Y-42948180D02*
X52509525Y-42895799D01*
X52509525Y-42895799D02*
X52561906Y-42791037D01*
X52561906Y-42791037D02*
X52561906Y-42476751D01*
X52561906Y-42476751D02*
X52509525Y-42371989D01*
X52509525Y-42371989D02*
X52457144Y-42319608D01*
X52457144Y-42319608D02*
X52352382Y-42267227D01*
X52352382Y-42267227D02*
X52195239Y-42267227D01*
X52195239Y-42267227D02*
X52090477Y-42319608D01*
X52090477Y-42319608D02*
X52038096Y-42371989D01*
X52038096Y-42371989D02*
X51985715Y-42476751D01*
X51985715Y-42476751D02*
X51985715Y-42791037D01*
X51985715Y-42791037D02*
X52038096Y-42895799D01*
X52038096Y-42895799D02*
X52090477Y-42948180D01*
X52090477Y-42948180D02*
X52195239Y-43000560D01*
X52195239Y-43000560D02*
X52352382Y-43000560D01*
X51514287Y-43000560D02*
X51514287Y-42267227D01*
X51514287Y-42371989D02*
X51461906Y-42319608D01*
X51461906Y-42319608D02*
X51357144Y-42267227D01*
X51357144Y-42267227D02*
X51200001Y-42267227D01*
X51200001Y-42267227D02*
X51095239Y-42319608D01*
X51095239Y-42319608D02*
X51042858Y-42424370D01*
X51042858Y-42424370D02*
X51042858Y-43000560D01*
X51042858Y-42424370D02*
X50990477Y-42319608D01*
X50990477Y-42319608D02*
X50885715Y-42267227D01*
X50885715Y-42267227D02*
X50728572Y-42267227D01*
X50728572Y-42267227D02*
X50623811Y-42319608D01*
X50623811Y-42319608D02*
X50571430Y-42424370D01*
X50571430Y-42424370D02*
X50571430Y-43000560D01*
D11*
G36*
X14366529Y-51622500D02*
G01*
X13810480Y-51622500D01*
X13713672Y-51616294D01*
X13628188Y-51598519D01*
X13552376Y-51570018D01*
X13482406Y-51529767D01*
X13424445Y-51481286D01*
X13377163Y-51424205D01*
X13341760Y-51359406D01*
X13320431Y-51288913D01*
X13313140Y-51211164D01*
X13316977Y-51175535D01*
X13671903Y-51175535D01*
X13677695Y-51223734D01*
X13694166Y-51263309D01*
X13721270Y-51296252D01*
X13756588Y-51320593D01*
X13800245Y-51335849D01*
X13854535Y-51341315D01*
X14013995Y-51341315D01*
X14013995Y-51009755D01*
X13854535Y-51009755D01*
X13800168Y-51015115D01*
X13756512Y-51030052D01*
X13721270Y-51053811D01*
X13694312Y-51086135D01*
X13677775Y-51125958D01*
X13671903Y-51175535D01*
X13316977Y-51175535D01*
X13321013Y-51138054D01*
X13344262Y-51071100D01*
X13383482Y-51008656D01*
X13434710Y-50954714D01*
X13496793Y-50909655D01*
X13571244Y-50873285D01*
X13508995Y-50835475D01*
X13456891Y-50791170D01*
X13413891Y-50740111D01*
X13381178Y-50682488D01*
X13361691Y-50621009D01*
X13358618Y-50589993D01*
X13711836Y-50589993D01*
X13717303Y-50634065D01*
X13732996Y-50670928D01*
X13759097Y-50702284D01*
X13792846Y-50725651D01*
X13833804Y-50740170D01*
X13883936Y-50745332D01*
X14013995Y-50745332D01*
X14013995Y-50434747D01*
X13883936Y-50434747D01*
X13832314Y-50439863D01*
X13791085Y-50454093D01*
X13757998Y-50476695D01*
X13732699Y-50507348D01*
X13717277Y-50544468D01*
X13711836Y-50589993D01*
X13358618Y-50589993D01*
X13355089Y-50554364D01*
X13362283Y-50478017D01*
X13383268Y-50409309D01*
X13418012Y-50346636D01*
X13464484Y-50291472D01*
X13521724Y-50244339D01*
X13591119Y-50204945D01*
X13666187Y-50176969D01*
X13749989Y-50159600D01*
X13844002Y-50153562D01*
X14366529Y-50153562D01*
X14366529Y-51622500D01*
G37*
G36*
X12737111Y-50140433D02*
G01*
X12836511Y-50169724D01*
X12929374Y-50218592D01*
X13011017Y-50284631D01*
X13081932Y-50369397D01*
X13142415Y-50475688D01*
X13184574Y-50590919D01*
X13211497Y-50727097D01*
X13221091Y-50888031D01*
X13211497Y-51048965D01*
X13184574Y-51185143D01*
X13142415Y-51300374D01*
X13081941Y-51406610D01*
X13011026Y-51491381D01*
X12929374Y-51557470D01*
X12836511Y-51606337D01*
X12737111Y-51635629D01*
X12629230Y-51645580D01*
X12521351Y-51635627D01*
X12421982Y-51606334D01*
X12329178Y-51557470D01*
X12247532Y-51491378D01*
X12176648Y-51406607D01*
X12116228Y-51300374D01*
X12074019Y-51185137D01*
X12047064Y-51048960D01*
X12037460Y-50888031D01*
X12400527Y-50888031D01*
X12409458Y-51039182D01*
X12432583Y-51146120D01*
X12465648Y-51219590D01*
X12515326Y-51280199D01*
X12569053Y-51313517D01*
X12629230Y-51324462D01*
X12688156Y-51313624D01*
X12741602Y-51280401D01*
X12791896Y-51219590D01*
X12825498Y-51146042D01*
X12848966Y-51039100D01*
X12858024Y-50888031D01*
X12848963Y-50736896D01*
X12825492Y-50629964D01*
X12791896Y-50556471D01*
X12741596Y-50495602D01*
X12688150Y-50462353D01*
X12629230Y-50451508D01*
X12569059Y-50462460D01*
X12515332Y-50495804D01*
X12465648Y-50556471D01*
X12432589Y-50629886D01*
X12409461Y-50736814D01*
X12400527Y-50888031D01*
X12037460Y-50888031D01*
X12047064Y-50727102D01*
X12074019Y-50590924D01*
X12116228Y-50475688D01*
X12176657Y-50369400D01*
X12247541Y-50284634D01*
X12329178Y-50218592D01*
X12421982Y-50169727D01*
X12521351Y-50140434D01*
X12629230Y-50130481D01*
X12737111Y-50140433D01*
G37*
G36*
X11478283Y-50140433D02*
G01*
X11577683Y-50169724D01*
X11670546Y-50218592D01*
X11752189Y-50284631D01*
X11823104Y-50369397D01*
X11883587Y-50475688D01*
X11925746Y-50590919D01*
X11952670Y-50727097D01*
X11962264Y-50888031D01*
X11952670Y-51048965D01*
X11925746Y-51185143D01*
X11883587Y-51300374D01*
X11823113Y-51406610D01*
X11752199Y-51491381D01*
X11670546Y-51557470D01*
X11577683Y-51606337D01*
X11478283Y-51635629D01*
X11370402Y-51645580D01*
X11262523Y-51635627D01*
X11163154Y-51606334D01*
X11070350Y-51557470D01*
X10988704Y-51491378D01*
X10917821Y-51406607D01*
X10857401Y-51300374D01*
X10815191Y-51185137D01*
X10788237Y-51048960D01*
X10778632Y-50888031D01*
X11141699Y-50888031D01*
X11150631Y-51039182D01*
X11173756Y-51146120D01*
X11206821Y-51219590D01*
X11256498Y-51280199D01*
X11310225Y-51313517D01*
X11370402Y-51324462D01*
X11429328Y-51313624D01*
X11482775Y-51280401D01*
X11533068Y-51219590D01*
X11566670Y-51146042D01*
X11590138Y-51039100D01*
X11599197Y-50888031D01*
X11590135Y-50736896D01*
X11566665Y-50629964D01*
X11533068Y-50556471D01*
X11482768Y-50495602D01*
X11429322Y-50462353D01*
X11370402Y-50451508D01*
X11310232Y-50462460D01*
X11256505Y-50495804D01*
X11206821Y-50556471D01*
X11173761Y-50629886D01*
X11150634Y-50736814D01*
X11141699Y-50888031D01*
X10778632Y-50888031D01*
X10788237Y-50727102D01*
X10815191Y-50590924D01*
X10857401Y-50475688D01*
X10917830Y-50369400D01*
X10988714Y-50284634D01*
X11070350Y-50218592D01*
X11163154Y-50169727D01*
X11262523Y-50140434D01*
X11370402Y-50130481D01*
X11478283Y-50140433D01*
G37*
G36*
X10292101Y-51622500D02*
G01*
X10292101Y-50455721D01*
X10711771Y-50455721D01*
X10711771Y-50153562D01*
X9511470Y-50153562D01*
X9511470Y-50455721D01*
X9931140Y-50455721D01*
X9931140Y-51622500D01*
X10292101Y-51622500D01*
G37*
G36*
X25768623Y-51622500D02*
G01*
X25407662Y-51622500D01*
X25407662Y-51085318D01*
X25283831Y-51085318D01*
X25019408Y-51622500D01*
X24639579Y-51622500D01*
X24950165Y-51028623D01*
X24876671Y-50984979D01*
X24814804Y-50930991D01*
X24763411Y-50865957D01*
X24725386Y-50792589D01*
X24702180Y-50711039D01*
X24694721Y-50625714D01*
X25059341Y-50625714D01*
X25065316Y-50675266D01*
X25082418Y-50716612D01*
X25110724Y-50751652D01*
X25147570Y-50777880D01*
X25191995Y-50794088D01*
X25246096Y-50799829D01*
X25407662Y-50799829D01*
X25407662Y-50451508D01*
X25246096Y-50451508D01*
X25191929Y-50457154D01*
X25147503Y-50473074D01*
X25110724Y-50498769D01*
X25082565Y-50533187D01*
X25065396Y-50574787D01*
X25059341Y-50625714D01*
X24694721Y-50625714D01*
X24694168Y-50619394D01*
X24701831Y-50529001D01*
X24724015Y-50448490D01*
X24760297Y-50376037D01*
X24809718Y-50311602D01*
X24870494Y-50257242D01*
X24943937Y-50212363D01*
X25024198Y-50180249D01*
X25113186Y-50160427D01*
X25212482Y-50153562D01*
X25768623Y-50153562D01*
X25768623Y-51622500D01*
G37*
G36*
X23999816Y-51645580D02*
G01*
X24110875Y-51639842D01*
X24215919Y-51622955D01*
X24315713Y-51595205D01*
X24460585Y-51534169D01*
X24606332Y-51448293D01*
X24430019Y-51177642D01*
X24292597Y-51260860D01*
X24188768Y-51310907D01*
X24087627Y-51341841D01*
X23991481Y-51351756D01*
X23922544Y-51346429D01*
X23869066Y-51331948D01*
X23827808Y-51309808D01*
X23794429Y-51278368D01*
X23775409Y-51243234D01*
X23769006Y-51202829D01*
X23774210Y-51162999D01*
X23788878Y-51131489D01*
X23813062Y-51106292D01*
X23861778Y-51077125D01*
X23928466Y-51052803D01*
X24085911Y-51017083D01*
X24258011Y-50977240D01*
X24340955Y-50947829D01*
X24415365Y-50909005D01*
X24479669Y-50857575D01*
X24530769Y-50790486D01*
X24554194Y-50738922D01*
X24569340Y-50675116D01*
X24574825Y-50596313D01*
X24564833Y-50490827D01*
X24536301Y-50400695D01*
X24489997Y-50322873D01*
X24424798Y-50255320D01*
X24347211Y-50203195D01*
X24254063Y-50164279D01*
X24142318Y-50139388D01*
X24008242Y-50130481D01*
X23901304Y-50135896D01*
X23797629Y-50152001D01*
X23696649Y-50178750D01*
X23599179Y-50216104D01*
X23513915Y-50260941D01*
X23439553Y-50313022D01*
X23622094Y-50575339D01*
X23722916Y-50508149D01*
X23820481Y-50462041D01*
X23921918Y-50433679D01*
X24027110Y-50424214D01*
X24091858Y-50429291D01*
X24141894Y-50443077D01*
X24180342Y-50464147D01*
X24211325Y-50493891D01*
X24228989Y-50526961D01*
X24234930Y-50564806D01*
X24229845Y-50600295D01*
X24215325Y-50628750D01*
X24190875Y-50651909D01*
X24142074Y-50678320D01*
X24073272Y-50701277D01*
X23912804Y-50735898D01*
X23738598Y-50777847D01*
X23654389Y-50809012D01*
X23578039Y-50849196D01*
X23512186Y-50902215D01*
X23460528Y-50972020D01*
X23436997Y-51025508D01*
X23421899Y-51090429D01*
X23416472Y-51169215D01*
X23424668Y-51260778D01*
X23448518Y-51343055D01*
X23487822Y-51417885D01*
X23541128Y-51483658D01*
X23608008Y-51539489D01*
X23690330Y-51585771D01*
X23779676Y-51618084D01*
X23882100Y-51638425D01*
X23999816Y-51645580D01*
G37*
G36*
X22921514Y-51622500D02*
G01*
X22921514Y-50455721D01*
X23341184Y-50455721D01*
X23341184Y-50153562D01*
X22140884Y-50153562D01*
X22140884Y-50455721D01*
X22560554Y-50455721D01*
X22560554Y-51622500D01*
X22921514Y-51622500D01*
G37*
X60910428Y-6315271D02*
X61193762Y-5910509D01*
X61396143Y-6315271D02*
X61396143Y-5465271D01*
X61396143Y-5465271D02*
X61072333Y-5465271D01*
X61072333Y-5465271D02*
X60991381Y-5505747D01*
X60991381Y-5505747D02*
X60950904Y-5546223D01*
X60950904Y-5546223D02*
X60910428Y-5627175D01*
X60910428Y-5627175D02*
X60910428Y-5748604D01*
X60910428Y-5748604D02*
X60950904Y-5829556D01*
X60950904Y-5829556D02*
X60991381Y-5870033D01*
X60991381Y-5870033D02*
X61072333Y-5910509D01*
X61072333Y-5910509D02*
X61396143Y-5910509D01*
X60100904Y-6315271D02*
X60586619Y-6315271D01*
X60343762Y-6315271D02*
X60343762Y-5465271D01*
X60343762Y-5465271D02*
X60424714Y-5586699D01*
X60424714Y-5586699D02*
X60505666Y-5667652D01*
X60505666Y-5667652D02*
X60586619Y-5708128D01*
X59291380Y-6315271D02*
X59777095Y-6315271D01*
X59534238Y-6315271D02*
X59534238Y-5465271D01*
X59534238Y-5465271D02*
X59615190Y-5586699D01*
X59615190Y-5586699D02*
X59696142Y-5667652D01*
X59696142Y-5667652D02*
X59777095Y-5708128D01*
X67886271Y-16352380D02*
X68574366Y-16352380D01*
X68574366Y-16352380D02*
X68655318Y-16392857D01*
X68655318Y-16392857D02*
X68695795Y-16433333D01*
X68695795Y-16433333D02*
X68736271Y-16514285D01*
X68736271Y-16514285D02*
X68736271Y-16676190D01*
X68736271Y-16676190D02*
X68695795Y-16757142D01*
X68695795Y-16757142D02*
X68655318Y-16797619D01*
X68655318Y-16797619D02*
X68574366Y-16838095D01*
X68574366Y-16838095D02*
X67886271Y-16838095D01*
X67886271Y-17647618D02*
X67886271Y-17242856D01*
X67886271Y-17242856D02*
X68291033Y-17202380D01*
X68291033Y-17202380D02*
X68250556Y-17242856D01*
X68250556Y-17242856D02*
X68210080Y-17323809D01*
X68210080Y-17323809D02*
X68210080Y-17526190D01*
X68210080Y-17526190D02*
X68250556Y-17607142D01*
X68250556Y-17607142D02*
X68291033Y-17647618D01*
X68291033Y-17647618D02*
X68371985Y-17688095D01*
X68371985Y-17688095D02*
X68574366Y-17688095D01*
X68574366Y-17688095D02*
X68655318Y-17647618D01*
X68655318Y-17647618D02*
X68695795Y-17607142D01*
X68695795Y-17607142D02*
X68736271Y-17526190D01*
X68736271Y-17526190D02*
X68736271Y-17323809D01*
X68736271Y-17323809D02*
X68695795Y-17242856D01*
X68695795Y-17242856D02*
X68655318Y-17202380D01*
X82555271Y-21353571D02*
X82150509Y-21070237D01*
X82555271Y-20867856D02*
X81705271Y-20867856D01*
X81705271Y-20867856D02*
X81705271Y-21191666D01*
X81705271Y-21191666D02*
X81745747Y-21272618D01*
X81745747Y-21272618D02*
X81786223Y-21313095D01*
X81786223Y-21313095D02*
X81867175Y-21353571D01*
X81867175Y-21353571D02*
X81988604Y-21353571D01*
X81988604Y-21353571D02*
X82069556Y-21313095D01*
X82069556Y-21313095D02*
X82110033Y-21272618D01*
X82110033Y-21272618D02*
X82150509Y-21191666D01*
X82150509Y-21191666D02*
X82150509Y-20867856D01*
X82555271Y-22163095D02*
X82555271Y-21677380D01*
X82555271Y-21920237D02*
X81705271Y-21920237D01*
X81705271Y-21920237D02*
X81826699Y-21839285D01*
X81826699Y-21839285D02*
X81907652Y-21758333D01*
X81907652Y-21758333D02*
X81948128Y-21677380D01*
X81705271Y-22446428D02*
X81705271Y-22972619D01*
X81705271Y-22972619D02*
X82029080Y-22689285D01*
X82029080Y-22689285D02*
X82029080Y-22810714D01*
X82029080Y-22810714D02*
X82069556Y-22891666D01*
X82069556Y-22891666D02*
X82110033Y-22932142D01*
X82110033Y-22932142D02*
X82190985Y-22972619D01*
X82190985Y-22972619D02*
X82393366Y-22972619D01*
X82393366Y-22972619D02*
X82474318Y-22932142D01*
X82474318Y-22932142D02*
X82514795Y-22891666D01*
X82514795Y-22891666D02*
X82555271Y-22810714D01*
X82555271Y-22810714D02*
X82555271Y-22567857D01*
X82555271Y-22567857D02*
X82514795Y-22486904D01*
X82514795Y-22486904D02*
X82474318Y-22446428D01*
X47414666Y-6315271D02*
X47698000Y-5910509D01*
X47900381Y-6315271D02*
X47900381Y-5465271D01*
X47900381Y-5465271D02*
X47576571Y-5465271D01*
X47576571Y-5465271D02*
X47495619Y-5505747D01*
X47495619Y-5505747D02*
X47455142Y-5546223D01*
X47455142Y-5546223D02*
X47414666Y-5627175D01*
X47414666Y-5627175D02*
X47414666Y-5748604D01*
X47414666Y-5748604D02*
X47455142Y-5829556D01*
X47455142Y-5829556D02*
X47495619Y-5870033D01*
X47495619Y-5870033D02*
X47576571Y-5910509D01*
X47576571Y-5910509D02*
X47900381Y-5910509D01*
X47009904Y-6315271D02*
X46848000Y-6315271D01*
X46848000Y-6315271D02*
X46767047Y-6274795D01*
X46767047Y-6274795D02*
X46726571Y-6234318D01*
X46726571Y-6234318D02*
X46645619Y-6112890D01*
X46645619Y-6112890D02*
X46605142Y-5950985D01*
X46605142Y-5950985D02*
X46605142Y-5627175D01*
X46605142Y-5627175D02*
X46645619Y-5546223D01*
X46645619Y-5546223D02*
X46686095Y-5505747D01*
X46686095Y-5505747D02*
X46767047Y-5465271D01*
X46767047Y-5465271D02*
X46928952Y-5465271D01*
X46928952Y-5465271D02*
X47009904Y-5505747D01*
X47009904Y-5505747D02*
X47050381Y-5546223D01*
X47050381Y-5546223D02*
X47090857Y-5627175D01*
X47090857Y-5627175D02*
X47090857Y-5829556D01*
X47090857Y-5829556D02*
X47050381Y-5910509D01*
X47050381Y-5910509D02*
X47009904Y-5950985D01*
X47009904Y-5950985D02*
X46928952Y-5991461D01*
X46928952Y-5991461D02*
X46767047Y-5991461D01*
X46767047Y-5991461D02*
X46686095Y-5950985D01*
X46686095Y-5950985D02*
X46645619Y-5910509D01*
X46645619Y-5910509D02*
X46605142Y-5829556D01*
X45734318Y-21858333D02*
X45774795Y-21817857D01*
X45774795Y-21817857D02*
X45815271Y-21696428D01*
X45815271Y-21696428D02*
X45815271Y-21615476D01*
X45815271Y-21615476D02*
X45774795Y-21494047D01*
X45774795Y-21494047D02*
X45693842Y-21413095D01*
X45693842Y-21413095D02*
X45612890Y-21372618D01*
X45612890Y-21372618D02*
X45450985Y-21332142D01*
X45450985Y-21332142D02*
X45329556Y-21332142D01*
X45329556Y-21332142D02*
X45167652Y-21372618D01*
X45167652Y-21372618D02*
X45086699Y-21413095D01*
X45086699Y-21413095D02*
X45005747Y-21494047D01*
X45005747Y-21494047D02*
X44965271Y-21615476D01*
X44965271Y-21615476D02*
X44965271Y-21696428D01*
X44965271Y-21696428D02*
X45005747Y-21817857D01*
X45005747Y-21817857D02*
X45046223Y-21858333D01*
X45248604Y-22586904D02*
X45815271Y-22586904D01*
X44924795Y-22384523D02*
X45531937Y-22182142D01*
X45531937Y-22182142D02*
X45531937Y-22708333D01*
X8141666Y-6315271D02*
X8425000Y-5910509D01*
X8627381Y-6315271D02*
X8627381Y-5465271D01*
X8627381Y-5465271D02*
X8303571Y-5465271D01*
X8303571Y-5465271D02*
X8222619Y-5505747D01*
X8222619Y-5505747D02*
X8182142Y-5546223D01*
X8182142Y-5546223D02*
X8141666Y-5627175D01*
X8141666Y-5627175D02*
X8141666Y-5748604D01*
X8141666Y-5748604D02*
X8182142Y-5829556D01*
X8182142Y-5829556D02*
X8222619Y-5870033D01*
X8222619Y-5870033D02*
X8303571Y-5910509D01*
X8303571Y-5910509D02*
X8627381Y-5910509D01*
X7332142Y-6315271D02*
X7817857Y-6315271D01*
X7575000Y-6315271D02*
X7575000Y-5465271D01*
X7575000Y-5465271D02*
X7655952Y-5586699D01*
X7655952Y-5586699D02*
X7736904Y-5667652D01*
X7736904Y-5667652D02*
X7817857Y-5708128D01*
X80734318Y-7858333D02*
X80774795Y-7817857D01*
X80774795Y-7817857D02*
X80815271Y-7696428D01*
X80815271Y-7696428D02*
X80815271Y-7615476D01*
X80815271Y-7615476D02*
X80774795Y-7494047D01*
X80774795Y-7494047D02*
X80693842Y-7413095D01*
X80693842Y-7413095D02*
X80612890Y-7372618D01*
X80612890Y-7372618D02*
X80450985Y-7332142D01*
X80450985Y-7332142D02*
X80329556Y-7332142D01*
X80329556Y-7332142D02*
X80167652Y-7372618D01*
X80167652Y-7372618D02*
X80086699Y-7413095D01*
X80086699Y-7413095D02*
X80005747Y-7494047D01*
X80005747Y-7494047D02*
X79965271Y-7615476D01*
X79965271Y-7615476D02*
X79965271Y-7696428D01*
X79965271Y-7696428D02*
X80005747Y-7817857D01*
X80005747Y-7817857D02*
X80046223Y-7858333D01*
X79965271Y-8141666D02*
X79965271Y-8708333D01*
X79965271Y-8708333D02*
X80815271Y-8344047D01*
X45734318Y-16858333D02*
X45774795Y-16817857D01*
X45774795Y-16817857D02*
X45815271Y-16696428D01*
X45815271Y-16696428D02*
X45815271Y-16615476D01*
X45815271Y-16615476D02*
X45774795Y-16494047D01*
X45774795Y-16494047D02*
X45693842Y-16413095D01*
X45693842Y-16413095D02*
X45612890Y-16372618D01*
X45612890Y-16372618D02*
X45450985Y-16332142D01*
X45450985Y-16332142D02*
X45329556Y-16332142D01*
X45329556Y-16332142D02*
X45167652Y-16372618D01*
X45167652Y-16372618D02*
X45086699Y-16413095D01*
X45086699Y-16413095D02*
X45005747Y-16494047D01*
X45005747Y-16494047D02*
X44965271Y-16615476D01*
X44965271Y-16615476D02*
X44965271Y-16696428D01*
X44965271Y-16696428D02*
X45005747Y-16817857D01*
X45005747Y-16817857D02*
X45046223Y-16858333D01*
X44965271Y-17141666D02*
X44965271Y-17667857D01*
X44965271Y-17667857D02*
X45289080Y-17384523D01*
X45289080Y-17384523D02*
X45289080Y-17505952D01*
X45289080Y-17505952D02*
X45329556Y-17586904D01*
X45329556Y-17586904D02*
X45370033Y-17627380D01*
X45370033Y-17627380D02*
X45450985Y-17667857D01*
X45450985Y-17667857D02*
X45653366Y-17667857D01*
X45653366Y-17667857D02*
X45734318Y-17627380D01*
X45734318Y-17627380D02*
X45774795Y-17586904D01*
X45774795Y-17586904D02*
X45815271Y-17505952D01*
X45815271Y-17505952D02*
X45815271Y-17263095D01*
X45815271Y-17263095D02*
X45774795Y-17182142D01*
X45774795Y-17182142D02*
X45734318Y-17141666D01*
X54364428Y-6315271D02*
X54647762Y-5910509D01*
X54850143Y-6315271D02*
X54850143Y-5465271D01*
X54850143Y-5465271D02*
X54526333Y-5465271D01*
X54526333Y-5465271D02*
X54445381Y-5505747D01*
X54445381Y-5505747D02*
X54404904Y-5546223D01*
X54404904Y-5546223D02*
X54364428Y-5627175D01*
X54364428Y-5627175D02*
X54364428Y-5748604D01*
X54364428Y-5748604D02*
X54404904Y-5829556D01*
X54404904Y-5829556D02*
X54445381Y-5870033D01*
X54445381Y-5870033D02*
X54526333Y-5910509D01*
X54526333Y-5910509D02*
X54850143Y-5910509D01*
X53554904Y-6315271D02*
X54040619Y-6315271D01*
X53797762Y-6315271D02*
X53797762Y-5465271D01*
X53797762Y-5465271D02*
X53878714Y-5586699D01*
X53878714Y-5586699D02*
X53959666Y-5667652D01*
X53959666Y-5667652D02*
X54040619Y-5708128D01*
X53028714Y-5465271D02*
X52947761Y-5465271D01*
X52947761Y-5465271D02*
X52866809Y-5505747D01*
X52866809Y-5505747D02*
X52826333Y-5546223D01*
X52826333Y-5546223D02*
X52785857Y-5627175D01*
X52785857Y-5627175D02*
X52745380Y-5789080D01*
X52745380Y-5789080D02*
X52745380Y-5991461D01*
X52745380Y-5991461D02*
X52785857Y-6153366D01*
X52785857Y-6153366D02*
X52826333Y-6234318D01*
X52826333Y-6234318D02*
X52866809Y-6274795D01*
X52866809Y-6274795D02*
X52947761Y-6315271D01*
X52947761Y-6315271D02*
X53028714Y-6315271D01*
X53028714Y-6315271D02*
X53109666Y-6274795D01*
X53109666Y-6274795D02*
X53150142Y-6234318D01*
X53150142Y-6234318D02*
X53190619Y-6153366D01*
X53190619Y-6153366D02*
X53231095Y-5991461D01*
X53231095Y-5991461D02*
X53231095Y-5789080D01*
X53231095Y-5789080D02*
X53190619Y-5627175D01*
X53190619Y-5627175D02*
X53150142Y-5546223D01*
X53150142Y-5546223D02*
X53109666Y-5505747D01*
X53109666Y-5505747D02*
X53028714Y-5465271D01*
X80680952Y-26916223D02*
X80761904Y-26875747D01*
X80761904Y-26875747D02*
X80842857Y-26794795D01*
X80842857Y-26794795D02*
X80964285Y-26673366D01*
X80964285Y-26673366D02*
X81045238Y-26632890D01*
X81045238Y-26632890D02*
X81126190Y-26632890D01*
X81085714Y-26835271D02*
X81166666Y-26794795D01*
X81166666Y-26794795D02*
X81247619Y-26713842D01*
X81247619Y-26713842D02*
X81288095Y-26551937D01*
X81288095Y-26551937D02*
X81288095Y-26268604D01*
X81288095Y-26268604D02*
X81247619Y-26106699D01*
X81247619Y-26106699D02*
X81166666Y-26025747D01*
X81166666Y-26025747D02*
X81085714Y-25985271D01*
X81085714Y-25985271D02*
X80923809Y-25985271D01*
X80923809Y-25985271D02*
X80842857Y-26025747D01*
X80842857Y-26025747D02*
X80761904Y-26106699D01*
X80761904Y-26106699D02*
X80721428Y-26268604D01*
X80721428Y-26268604D02*
X80721428Y-26551937D01*
X80721428Y-26551937D02*
X80761904Y-26713842D01*
X80761904Y-26713842D02*
X80842857Y-26794795D01*
X80842857Y-26794795D02*
X80923809Y-26835271D01*
X80923809Y-26835271D02*
X81085714Y-26835271D01*
X79911904Y-26835271D02*
X80397619Y-26835271D01*
X80154762Y-26835271D02*
X80154762Y-25985271D01*
X80154762Y-25985271D02*
X80235714Y-26106699D01*
X80235714Y-26106699D02*
X80316666Y-26187652D01*
X80316666Y-26187652D02*
X80397619Y-26228128D01*
X34323666Y-6315271D02*
X34607000Y-5910509D01*
X34809381Y-6315271D02*
X34809381Y-5465271D01*
X34809381Y-5465271D02*
X34485571Y-5465271D01*
X34485571Y-5465271D02*
X34404619Y-5505747D01*
X34404619Y-5505747D02*
X34364142Y-5546223D01*
X34364142Y-5546223D02*
X34323666Y-5627175D01*
X34323666Y-5627175D02*
X34323666Y-5748604D01*
X34323666Y-5748604D02*
X34364142Y-5829556D01*
X34364142Y-5829556D02*
X34404619Y-5870033D01*
X34404619Y-5870033D02*
X34485571Y-5910509D01*
X34485571Y-5910509D02*
X34809381Y-5910509D01*
X33554619Y-5465271D02*
X33959381Y-5465271D01*
X33959381Y-5465271D02*
X33999857Y-5870033D01*
X33999857Y-5870033D02*
X33959381Y-5829556D01*
X33959381Y-5829556D02*
X33878428Y-5789080D01*
X33878428Y-5789080D02*
X33676047Y-5789080D01*
X33676047Y-5789080D02*
X33595095Y-5829556D01*
X33595095Y-5829556D02*
X33554619Y-5870033D01*
X33554619Y-5870033D02*
X33514142Y-5950985D01*
X33514142Y-5950985D02*
X33514142Y-6153366D01*
X33514142Y-6153366D02*
X33554619Y-6234318D01*
X33554619Y-6234318D02*
X33595095Y-6274795D01*
X33595095Y-6274795D02*
X33676047Y-6315271D01*
X33676047Y-6315271D02*
X33878428Y-6315271D01*
X33878428Y-6315271D02*
X33959381Y-6274795D01*
X33959381Y-6274795D02*
X33999857Y-6234318D01*
X27777666Y-6315271D02*
X28061000Y-5910509D01*
X28263381Y-6315271D02*
X28263381Y-5465271D01*
X28263381Y-5465271D02*
X27939571Y-5465271D01*
X27939571Y-5465271D02*
X27858619Y-5505747D01*
X27858619Y-5505747D02*
X27818142Y-5546223D01*
X27818142Y-5546223D02*
X27777666Y-5627175D01*
X27777666Y-5627175D02*
X27777666Y-5748604D01*
X27777666Y-5748604D02*
X27818142Y-5829556D01*
X27818142Y-5829556D02*
X27858619Y-5870033D01*
X27858619Y-5870033D02*
X27939571Y-5910509D01*
X27939571Y-5910509D02*
X28263381Y-5910509D01*
X27049095Y-5748604D02*
X27049095Y-6315271D01*
X27251476Y-5424795D02*
X27453857Y-6031937D01*
X27453857Y-6031937D02*
X26927666Y-6031937D01*
X32647619Y-39430271D02*
X32647619Y-40118366D01*
X32647619Y-40118366D02*
X32607142Y-40199318D01*
X32607142Y-40199318D02*
X32566666Y-40239795D01*
X32566666Y-40239795D02*
X32485714Y-40280271D01*
X32485714Y-40280271D02*
X32323809Y-40280271D01*
X32323809Y-40280271D02*
X32242857Y-40239795D01*
X32242857Y-40239795D02*
X32202380Y-40199318D01*
X32202380Y-40199318D02*
X32161904Y-40118366D01*
X32161904Y-40118366D02*
X32161904Y-39430271D01*
X31311904Y-40280271D02*
X31797619Y-40280271D01*
X31554762Y-40280271D02*
X31554762Y-39430271D01*
X31554762Y-39430271D02*
X31635714Y-39551699D01*
X31635714Y-39551699D02*
X31716666Y-39632652D01*
X31716666Y-39632652D02*
X31797619Y-39673128D01*
X78099795Y-26866666D02*
X78140271Y-26988095D01*
X78140271Y-26988095D02*
X78140271Y-27190476D01*
X78140271Y-27190476D02*
X78099795Y-27271428D01*
X78099795Y-27271428D02*
X78059318Y-27311904D01*
X78059318Y-27311904D02*
X77978366Y-27352381D01*
X77978366Y-27352381D02*
X77897414Y-27352381D01*
X77897414Y-27352381D02*
X77816461Y-27311904D01*
X77816461Y-27311904D02*
X77775985Y-27271428D01*
X77775985Y-27271428D02*
X77735509Y-27190476D01*
X77735509Y-27190476D02*
X77695033Y-27028571D01*
X77695033Y-27028571D02*
X77654556Y-26947619D01*
X77654556Y-26947619D02*
X77614080Y-26907142D01*
X77614080Y-26907142D02*
X77533128Y-26866666D01*
X77533128Y-26866666D02*
X77452175Y-26866666D01*
X77452175Y-26866666D02*
X77371223Y-26907142D01*
X77371223Y-26907142D02*
X77330747Y-26947619D01*
X77330747Y-26947619D02*
X77290271Y-27028571D01*
X77290271Y-27028571D02*
X77290271Y-27230952D01*
X77290271Y-27230952D02*
X77330747Y-27352381D01*
X77290271Y-27635714D02*
X78140271Y-27838095D01*
X78140271Y-27838095D02*
X77533128Y-28000000D01*
X77533128Y-28000000D02*
X78140271Y-28161905D01*
X78140271Y-28161905D02*
X77290271Y-28364286D01*
X77290271Y-28607143D02*
X77290271Y-29133334D01*
X77290271Y-29133334D02*
X77614080Y-28850000D01*
X77614080Y-28850000D02*
X77614080Y-28971429D01*
X77614080Y-28971429D02*
X77654556Y-29052381D01*
X77654556Y-29052381D02*
X77695033Y-29092857D01*
X77695033Y-29092857D02*
X77775985Y-29133334D01*
X77775985Y-29133334D02*
X77978366Y-29133334D01*
X77978366Y-29133334D02*
X78059318Y-29092857D01*
X78059318Y-29092857D02*
X78099795Y-29052381D01*
X78099795Y-29052381D02*
X78140271Y-28971429D01*
X78140271Y-28971429D02*
X78140271Y-28728572D01*
X78140271Y-28728572D02*
X78099795Y-28647619D01*
X78099795Y-28647619D02*
X78059318Y-28607143D01*
X19374318Y-35108333D02*
X19414795Y-35067857D01*
X19414795Y-35067857D02*
X19455271Y-34946428D01*
X19455271Y-34946428D02*
X19455271Y-34865476D01*
X19455271Y-34865476D02*
X19414795Y-34744047D01*
X19414795Y-34744047D02*
X19333842Y-34663095D01*
X19333842Y-34663095D02*
X19252890Y-34622618D01*
X19252890Y-34622618D02*
X19090985Y-34582142D01*
X19090985Y-34582142D02*
X18969556Y-34582142D01*
X18969556Y-34582142D02*
X18807652Y-34622618D01*
X18807652Y-34622618D02*
X18726699Y-34663095D01*
X18726699Y-34663095D02*
X18645747Y-34744047D01*
X18645747Y-34744047D02*
X18605271Y-34865476D01*
X18605271Y-34865476D02*
X18605271Y-34946428D01*
X18605271Y-34946428D02*
X18645747Y-35067857D01*
X18645747Y-35067857D02*
X18686223Y-35108333D01*
X18686223Y-35432142D02*
X18645747Y-35472618D01*
X18645747Y-35472618D02*
X18605271Y-35553571D01*
X18605271Y-35553571D02*
X18605271Y-35755952D01*
X18605271Y-35755952D02*
X18645747Y-35836904D01*
X18645747Y-35836904D02*
X18686223Y-35877380D01*
X18686223Y-35877380D02*
X18767175Y-35917857D01*
X18767175Y-35917857D02*
X18848128Y-35917857D01*
X18848128Y-35917857D02*
X18969556Y-35877380D01*
X18969556Y-35877380D02*
X19455271Y-35391666D01*
X19455271Y-35391666D02*
X19455271Y-35917857D01*
X73596666Y-6484318D02*
X73637142Y-6524795D01*
X73637142Y-6524795D02*
X73758571Y-6565271D01*
X73758571Y-6565271D02*
X73839523Y-6565271D01*
X73839523Y-6565271D02*
X73960952Y-6524795D01*
X73960952Y-6524795D02*
X74041904Y-6443842D01*
X74041904Y-6443842D02*
X74082381Y-6362890D01*
X74082381Y-6362890D02*
X74122857Y-6200985D01*
X74122857Y-6200985D02*
X74122857Y-6079556D01*
X74122857Y-6079556D02*
X74082381Y-5917652D01*
X74082381Y-5917652D02*
X74041904Y-5836699D01*
X74041904Y-5836699D02*
X73960952Y-5755747D01*
X73960952Y-5755747D02*
X73839523Y-5715271D01*
X73839523Y-5715271D02*
X73758571Y-5715271D01*
X73758571Y-5715271D02*
X73637142Y-5755747D01*
X73637142Y-5755747D02*
X73596666Y-5796223D01*
X73191904Y-6565271D02*
X73030000Y-6565271D01*
X73030000Y-6565271D02*
X72949047Y-6524795D01*
X72949047Y-6524795D02*
X72908571Y-6484318D01*
X72908571Y-6484318D02*
X72827619Y-6362890D01*
X72827619Y-6362890D02*
X72787142Y-6200985D01*
X72787142Y-6200985D02*
X72787142Y-5877175D01*
X72787142Y-5877175D02*
X72827619Y-5796223D01*
X72827619Y-5796223D02*
X72868095Y-5755747D01*
X72868095Y-5755747D02*
X72949047Y-5715271D01*
X72949047Y-5715271D02*
X73110952Y-5715271D01*
X73110952Y-5715271D02*
X73191904Y-5755747D01*
X73191904Y-5755747D02*
X73232381Y-5796223D01*
X73232381Y-5796223D02*
X73272857Y-5877175D01*
X73272857Y-5877175D02*
X73272857Y-6079556D01*
X73272857Y-6079556D02*
X73232381Y-6160509D01*
X73232381Y-6160509D02*
X73191904Y-6200985D01*
X73191904Y-6200985D02*
X73110952Y-6241461D01*
X73110952Y-6241461D02*
X72949047Y-6241461D01*
X72949047Y-6241461D02*
X72868095Y-6200985D01*
X72868095Y-6200985D02*
X72827619Y-6160509D01*
X72827619Y-6160509D02*
X72787142Y-6079556D01*
X21232666Y-6315271D02*
X21516000Y-5910509D01*
X21718381Y-6315271D02*
X21718381Y-5465271D01*
X21718381Y-5465271D02*
X21394571Y-5465271D01*
X21394571Y-5465271D02*
X21313619Y-5505747D01*
X21313619Y-5505747D02*
X21273142Y-5546223D01*
X21273142Y-5546223D02*
X21232666Y-5627175D01*
X21232666Y-5627175D02*
X21232666Y-5748604D01*
X21232666Y-5748604D02*
X21273142Y-5829556D01*
X21273142Y-5829556D02*
X21313619Y-5870033D01*
X21313619Y-5870033D02*
X21394571Y-5910509D01*
X21394571Y-5910509D02*
X21718381Y-5910509D01*
X20949333Y-5465271D02*
X20423142Y-5465271D01*
X20423142Y-5465271D02*
X20706476Y-5789080D01*
X20706476Y-5789080D02*
X20585047Y-5789080D01*
X20585047Y-5789080D02*
X20504095Y-5829556D01*
X20504095Y-5829556D02*
X20463619Y-5870033D01*
X20463619Y-5870033D02*
X20423142Y-5950985D01*
X20423142Y-5950985D02*
X20423142Y-6153366D01*
X20423142Y-6153366D02*
X20463619Y-6234318D01*
X20463619Y-6234318D02*
X20504095Y-6274795D01*
X20504095Y-6274795D02*
X20585047Y-6315271D01*
X20585047Y-6315271D02*
X20827904Y-6315271D01*
X20827904Y-6315271D02*
X20908857Y-6274795D01*
X20908857Y-6274795D02*
X20949333Y-6234318D01*
X74734318Y-7858333D02*
X74774795Y-7817857D01*
X74774795Y-7817857D02*
X74815271Y-7696428D01*
X74815271Y-7696428D02*
X74815271Y-7615476D01*
X74815271Y-7615476D02*
X74774795Y-7494047D01*
X74774795Y-7494047D02*
X74693842Y-7413095D01*
X74693842Y-7413095D02*
X74612890Y-7372618D01*
X74612890Y-7372618D02*
X74450985Y-7332142D01*
X74450985Y-7332142D02*
X74329556Y-7332142D01*
X74329556Y-7332142D02*
X74167652Y-7372618D01*
X74167652Y-7372618D02*
X74086699Y-7413095D01*
X74086699Y-7413095D02*
X74005747Y-7494047D01*
X74005747Y-7494047D02*
X73965271Y-7615476D01*
X73965271Y-7615476D02*
X73965271Y-7696428D01*
X73965271Y-7696428D02*
X74005747Y-7817857D01*
X74005747Y-7817857D02*
X74046223Y-7858333D01*
X73965271Y-8586904D02*
X73965271Y-8424999D01*
X73965271Y-8424999D02*
X74005747Y-8344047D01*
X74005747Y-8344047D02*
X74046223Y-8303571D01*
X74046223Y-8303571D02*
X74167652Y-8222618D01*
X74167652Y-8222618D02*
X74329556Y-8182142D01*
X74329556Y-8182142D02*
X74653366Y-8182142D01*
X74653366Y-8182142D02*
X74734318Y-8222618D01*
X74734318Y-8222618D02*
X74774795Y-8263095D01*
X74774795Y-8263095D02*
X74815271Y-8344047D01*
X74815271Y-8344047D02*
X74815271Y-8505952D01*
X74815271Y-8505952D02*
X74774795Y-8586904D01*
X74774795Y-8586904D02*
X74734318Y-8627380D01*
X74734318Y-8627380D02*
X74653366Y-8667857D01*
X74653366Y-8667857D02*
X74450985Y-8667857D01*
X74450985Y-8667857D02*
X74370033Y-8627380D01*
X74370033Y-8627380D02*
X74329556Y-8586904D01*
X74329556Y-8586904D02*
X74289080Y-8505952D01*
X74289080Y-8505952D02*
X74289080Y-8344047D01*
X74289080Y-8344047D02*
X74329556Y-8263095D01*
X74329556Y-8263095D02*
X74370033Y-8222618D01*
X74370033Y-8222618D02*
X74450985Y-8182142D01*
X40868666Y-6315271D02*
X41152000Y-5910509D01*
X41354381Y-6315271D02*
X41354381Y-5465271D01*
X41354381Y-5465271D02*
X41030571Y-5465271D01*
X41030571Y-5465271D02*
X40949619Y-5505747D01*
X40949619Y-5505747D02*
X40909142Y-5546223D01*
X40909142Y-5546223D02*
X40868666Y-5627175D01*
X40868666Y-5627175D02*
X40868666Y-5748604D01*
X40868666Y-5748604D02*
X40909142Y-5829556D01*
X40909142Y-5829556D02*
X40949619Y-5870033D01*
X40949619Y-5870033D02*
X41030571Y-5910509D01*
X41030571Y-5910509D02*
X41354381Y-5910509D01*
X40140095Y-5465271D02*
X40302000Y-5465271D01*
X40302000Y-5465271D02*
X40382952Y-5505747D01*
X40382952Y-5505747D02*
X40423428Y-5546223D01*
X40423428Y-5546223D02*
X40504381Y-5667652D01*
X40504381Y-5667652D02*
X40544857Y-5829556D01*
X40544857Y-5829556D02*
X40544857Y-6153366D01*
X40544857Y-6153366D02*
X40504381Y-6234318D01*
X40504381Y-6234318D02*
X40463904Y-6274795D01*
X40463904Y-6274795D02*
X40382952Y-6315271D01*
X40382952Y-6315271D02*
X40221047Y-6315271D01*
X40221047Y-6315271D02*
X40140095Y-6274795D01*
X40140095Y-6274795D02*
X40099619Y-6234318D01*
X40099619Y-6234318D02*
X40059142Y-6153366D01*
X40059142Y-6153366D02*
X40059142Y-5950985D01*
X40059142Y-5950985D02*
X40099619Y-5870033D01*
X40099619Y-5870033D02*
X40140095Y-5829556D01*
X40140095Y-5829556D02*
X40221047Y-5789080D01*
X40221047Y-5789080D02*
X40382952Y-5789080D01*
X40382952Y-5789080D02*
X40463904Y-5829556D01*
X40463904Y-5829556D02*
X40504381Y-5870033D01*
X40504381Y-5870033D02*
X40544857Y-5950985D01*
X21141666Y-18234318D02*
X21182142Y-18274795D01*
X21182142Y-18274795D02*
X21303571Y-18315271D01*
X21303571Y-18315271D02*
X21384523Y-18315271D01*
X21384523Y-18315271D02*
X21505952Y-18274795D01*
X21505952Y-18274795D02*
X21586904Y-18193842D01*
X21586904Y-18193842D02*
X21627381Y-18112890D01*
X21627381Y-18112890D02*
X21667857Y-17950985D01*
X21667857Y-17950985D02*
X21667857Y-17829556D01*
X21667857Y-17829556D02*
X21627381Y-17667652D01*
X21627381Y-17667652D02*
X21586904Y-17586699D01*
X21586904Y-17586699D02*
X21505952Y-17505747D01*
X21505952Y-17505747D02*
X21384523Y-17465271D01*
X21384523Y-17465271D02*
X21303571Y-17465271D01*
X21303571Y-17465271D02*
X21182142Y-17505747D01*
X21182142Y-17505747D02*
X21141666Y-17546223D01*
X20332142Y-18315271D02*
X20817857Y-18315271D01*
X20575000Y-18315271D02*
X20575000Y-17465271D01*
X20575000Y-17465271D02*
X20655952Y-17586699D01*
X20655952Y-17586699D02*
X20736904Y-17667652D01*
X20736904Y-17667652D02*
X20817857Y-17708128D01*
X11446428Y-14634318D02*
X11486904Y-14674795D01*
X11486904Y-14674795D02*
X11608333Y-14715271D01*
X11608333Y-14715271D02*
X11689285Y-14715271D01*
X11689285Y-14715271D02*
X11810714Y-14674795D01*
X11810714Y-14674795D02*
X11891666Y-14593842D01*
X11891666Y-14593842D02*
X11932143Y-14512890D01*
X11932143Y-14512890D02*
X11972619Y-14350985D01*
X11972619Y-14350985D02*
X11972619Y-14229556D01*
X11972619Y-14229556D02*
X11932143Y-14067652D01*
X11932143Y-14067652D02*
X11891666Y-13986699D01*
X11891666Y-13986699D02*
X11810714Y-13905747D01*
X11810714Y-13905747D02*
X11689285Y-13865271D01*
X11689285Y-13865271D02*
X11608333Y-13865271D01*
X11608333Y-13865271D02*
X11486904Y-13905747D01*
X11486904Y-13905747D02*
X11446428Y-13946223D01*
X10636904Y-14715271D02*
X11122619Y-14715271D01*
X10879762Y-14715271D02*
X10879762Y-13865271D01*
X10879762Y-13865271D02*
X10960714Y-13986699D01*
X10960714Y-13986699D02*
X11041666Y-14067652D01*
X11041666Y-14067652D02*
X11122619Y-14108128D01*
X10313095Y-13946223D02*
X10272619Y-13905747D01*
X10272619Y-13905747D02*
X10191666Y-13865271D01*
X10191666Y-13865271D02*
X9989285Y-13865271D01*
X9989285Y-13865271D02*
X9908333Y-13905747D01*
X9908333Y-13905747D02*
X9867857Y-13946223D01*
X9867857Y-13946223D02*
X9827380Y-14027175D01*
X9827380Y-14027175D02*
X9827380Y-14108128D01*
X9827380Y-14108128D02*
X9867857Y-14229556D01*
X9867857Y-14229556D02*
X10353571Y-14715271D01*
X10353571Y-14715271D02*
X9827380Y-14715271D01*
X12534318Y-7453571D02*
X12574795Y-7413095D01*
X12574795Y-7413095D02*
X12615271Y-7291666D01*
X12615271Y-7291666D02*
X12615271Y-7210714D01*
X12615271Y-7210714D02*
X12574795Y-7089285D01*
X12574795Y-7089285D02*
X12493842Y-7008333D01*
X12493842Y-7008333D02*
X12412890Y-6967856D01*
X12412890Y-6967856D02*
X12250985Y-6927380D01*
X12250985Y-6927380D02*
X12129556Y-6927380D01*
X12129556Y-6927380D02*
X11967652Y-6967856D01*
X11967652Y-6967856D02*
X11886699Y-7008333D01*
X11886699Y-7008333D02*
X11805747Y-7089285D01*
X11805747Y-7089285D02*
X11765271Y-7210714D01*
X11765271Y-7210714D02*
X11765271Y-7291666D01*
X11765271Y-7291666D02*
X11805747Y-7413095D01*
X11805747Y-7413095D02*
X11846223Y-7453571D01*
X12615271Y-8263095D02*
X12615271Y-7777380D01*
X12615271Y-8020237D02*
X11765271Y-8020237D01*
X11765271Y-8020237D02*
X11886699Y-7939285D01*
X11886699Y-7939285D02*
X11967652Y-7858333D01*
X11967652Y-7858333D02*
X12008128Y-7777380D01*
X12615271Y-9072619D02*
X12615271Y-8586904D01*
X12615271Y-8829761D02*
X11765271Y-8829761D01*
X11765271Y-8829761D02*
X11886699Y-8748809D01*
X11886699Y-8748809D02*
X11967652Y-8667857D01*
X11967652Y-8667857D02*
X12008128Y-8586904D01*
X62667856Y-31940033D02*
X62546428Y-31980509D01*
X62546428Y-31980509D02*
X62505951Y-32020985D01*
X62505951Y-32020985D02*
X62465475Y-32101937D01*
X62465475Y-32101937D02*
X62465475Y-32223366D01*
X62465475Y-32223366D02*
X62505951Y-32304318D01*
X62505951Y-32304318D02*
X62546428Y-32344795D01*
X62546428Y-32344795D02*
X62627380Y-32385271D01*
X62627380Y-32385271D02*
X62951190Y-32385271D01*
X62951190Y-32385271D02*
X62951190Y-31535271D01*
X62951190Y-31535271D02*
X62667856Y-31535271D01*
X62667856Y-31535271D02*
X62586904Y-31575747D01*
X62586904Y-31575747D02*
X62546428Y-31616223D01*
X62546428Y-31616223D02*
X62505951Y-31697175D01*
X62505951Y-31697175D02*
X62505951Y-31778128D01*
X62505951Y-31778128D02*
X62546428Y-31859080D01*
X62546428Y-31859080D02*
X62586904Y-31899556D01*
X62586904Y-31899556D02*
X62667856Y-31940033D01*
X62667856Y-31940033D02*
X62951190Y-31940033D01*
X62222618Y-31535271D02*
X61736904Y-31535271D01*
X61979761Y-32385271D02*
X61979761Y-31535271D01*
X61008332Y-32385271D02*
X61494047Y-32385271D01*
X61251190Y-32385271D02*
X61251190Y-31535271D01*
X61251190Y-31535271D02*
X61332142Y-31656699D01*
X61332142Y-31656699D02*
X61413094Y-31737652D01*
X61413094Y-31737652D02*
X61494047Y-31778128D01*
X25641666Y-11234318D02*
X25682142Y-11274795D01*
X25682142Y-11274795D02*
X25803571Y-11315271D01*
X25803571Y-11315271D02*
X25884523Y-11315271D01*
X25884523Y-11315271D02*
X26005952Y-11274795D01*
X26005952Y-11274795D02*
X26086904Y-11193842D01*
X26086904Y-11193842D02*
X26127381Y-11112890D01*
X26127381Y-11112890D02*
X26167857Y-10950985D01*
X26167857Y-10950985D02*
X26167857Y-10829556D01*
X26167857Y-10829556D02*
X26127381Y-10667652D01*
X26127381Y-10667652D02*
X26086904Y-10586699D01*
X26086904Y-10586699D02*
X26005952Y-10505747D01*
X26005952Y-10505747D02*
X25884523Y-10465271D01*
X25884523Y-10465271D02*
X25803571Y-10465271D01*
X25803571Y-10465271D02*
X25682142Y-10505747D01*
X25682142Y-10505747D02*
X25641666Y-10546223D01*
X24872619Y-10465271D02*
X25277381Y-10465271D01*
X25277381Y-10465271D02*
X25317857Y-10870033D01*
X25317857Y-10870033D02*
X25277381Y-10829556D01*
X25277381Y-10829556D02*
X25196428Y-10789080D01*
X25196428Y-10789080D02*
X24994047Y-10789080D01*
X24994047Y-10789080D02*
X24913095Y-10829556D01*
X24913095Y-10829556D02*
X24872619Y-10870033D01*
X24872619Y-10870033D02*
X24832142Y-10950985D01*
X24832142Y-10950985D02*
X24832142Y-11153366D01*
X24832142Y-11153366D02*
X24872619Y-11234318D01*
X24872619Y-11234318D02*
X24913095Y-11274795D01*
X24913095Y-11274795D02*
X24994047Y-11315271D01*
X24994047Y-11315271D02*
X25196428Y-11315271D01*
X25196428Y-11315271D02*
X25277381Y-11274795D01*
X25277381Y-11274795D02*
X25317857Y-11234318D01*
X13133333Y-53344795D02*
X13011904Y-53385271D01*
X13011904Y-53385271D02*
X12809523Y-53385271D01*
X12809523Y-53385271D02*
X12728571Y-53344795D01*
X12728571Y-53344795D02*
X12688095Y-53304318D01*
X12688095Y-53304318D02*
X12647618Y-53223366D01*
X12647618Y-53223366D02*
X12647618Y-53142414D01*
X12647618Y-53142414D02*
X12688095Y-53061461D01*
X12688095Y-53061461D02*
X12728571Y-53020985D01*
X12728571Y-53020985D02*
X12809523Y-52980509D01*
X12809523Y-52980509D02*
X12971428Y-52940033D01*
X12971428Y-52940033D02*
X13052380Y-52899556D01*
X13052380Y-52899556D02*
X13092857Y-52859080D01*
X13092857Y-52859080D02*
X13133333Y-52778128D01*
X13133333Y-52778128D02*
X13133333Y-52697175D01*
X13133333Y-52697175D02*
X13092857Y-52616223D01*
X13092857Y-52616223D02*
X13052380Y-52575747D01*
X13052380Y-52575747D02*
X12971428Y-52535271D01*
X12971428Y-52535271D02*
X12769047Y-52535271D01*
X12769047Y-52535271D02*
X12647618Y-52575747D01*
X12364285Y-52535271D02*
X12161904Y-53385271D01*
X12161904Y-53385271D02*
X11999999Y-52778128D01*
X11999999Y-52778128D02*
X11838094Y-53385271D01*
X11838094Y-53385271D02*
X11635714Y-52535271D01*
X10866665Y-53385271D02*
X11352380Y-53385271D01*
X11109523Y-53385271D02*
X11109523Y-52535271D01*
X11109523Y-52535271D02*
X11190475Y-52656699D01*
X11190475Y-52656699D02*
X11271427Y-52737652D01*
X11271427Y-52737652D02*
X11352380Y-52778128D01*
X67455428Y-6315271D02*
X67738762Y-5910509D01*
X67941143Y-6315271D02*
X67941143Y-5465271D01*
X67941143Y-5465271D02*
X67617333Y-5465271D01*
X67617333Y-5465271D02*
X67536381Y-5505747D01*
X67536381Y-5505747D02*
X67495904Y-5546223D01*
X67495904Y-5546223D02*
X67455428Y-5627175D01*
X67455428Y-5627175D02*
X67455428Y-5748604D01*
X67455428Y-5748604D02*
X67495904Y-5829556D01*
X67495904Y-5829556D02*
X67536381Y-5870033D01*
X67536381Y-5870033D02*
X67617333Y-5910509D01*
X67617333Y-5910509D02*
X67941143Y-5910509D01*
X66645904Y-6315271D02*
X67131619Y-6315271D01*
X66888762Y-6315271D02*
X66888762Y-5465271D01*
X66888762Y-5465271D02*
X66969714Y-5586699D01*
X66969714Y-5586699D02*
X67050666Y-5667652D01*
X67050666Y-5667652D02*
X67131619Y-5708128D01*
X66322095Y-5546223D02*
X66281619Y-5505747D01*
X66281619Y-5505747D02*
X66200666Y-5465271D01*
X66200666Y-5465271D02*
X65998285Y-5465271D01*
X65998285Y-5465271D02*
X65917333Y-5505747D01*
X65917333Y-5505747D02*
X65876857Y-5546223D01*
X65876857Y-5546223D02*
X65836380Y-5627175D01*
X65836380Y-5627175D02*
X65836380Y-5708128D01*
X65836380Y-5708128D02*
X65876857Y-5829556D01*
X65876857Y-5829556D02*
X66362571Y-6315271D01*
X66362571Y-6315271D02*
X65836380Y-6315271D01*
X75755271Y-16658333D02*
X75350509Y-16374999D01*
X75755271Y-16172618D02*
X74905271Y-16172618D01*
X74905271Y-16172618D02*
X74905271Y-16496428D01*
X74905271Y-16496428D02*
X74945747Y-16577380D01*
X74945747Y-16577380D02*
X74986223Y-16617857D01*
X74986223Y-16617857D02*
X75067175Y-16658333D01*
X75067175Y-16658333D02*
X75188604Y-16658333D01*
X75188604Y-16658333D02*
X75269556Y-16617857D01*
X75269556Y-16617857D02*
X75310033Y-16577380D01*
X75310033Y-16577380D02*
X75350509Y-16496428D01*
X75350509Y-16496428D02*
X75350509Y-16172618D01*
X75269556Y-17144047D02*
X75229080Y-17063095D01*
X75229080Y-17063095D02*
X75188604Y-17022618D01*
X75188604Y-17022618D02*
X75107652Y-16982142D01*
X75107652Y-16982142D02*
X75067175Y-16982142D01*
X75067175Y-16982142D02*
X74986223Y-17022618D01*
X74986223Y-17022618D02*
X74945747Y-17063095D01*
X74945747Y-17063095D02*
X74905271Y-17144047D01*
X74905271Y-17144047D02*
X74905271Y-17305952D01*
X74905271Y-17305952D02*
X74945747Y-17386904D01*
X74945747Y-17386904D02*
X74986223Y-17427380D01*
X74986223Y-17427380D02*
X75067175Y-17467857D01*
X75067175Y-17467857D02*
X75107652Y-17467857D01*
X75107652Y-17467857D02*
X75188604Y-17427380D01*
X75188604Y-17427380D02*
X75229080Y-17386904D01*
X75229080Y-17386904D02*
X75269556Y-17305952D01*
X75269556Y-17305952D02*
X75269556Y-17144047D01*
X75269556Y-17144047D02*
X75310033Y-17063095D01*
X75310033Y-17063095D02*
X75350509Y-17022618D01*
X75350509Y-17022618D02*
X75431461Y-16982142D01*
X75431461Y-16982142D02*
X75593366Y-16982142D01*
X75593366Y-16982142D02*
X75674318Y-17022618D01*
X75674318Y-17022618D02*
X75714795Y-17063095D01*
X75714795Y-17063095D02*
X75755271Y-17144047D01*
X75755271Y-17144047D02*
X75755271Y-17305952D01*
X75755271Y-17305952D02*
X75714795Y-17386904D01*
X75714795Y-17386904D02*
X75674318Y-17427380D01*
X75674318Y-17427380D02*
X75593366Y-17467857D01*
X75593366Y-17467857D02*
X75431461Y-17467857D01*
X75431461Y-17467857D02*
X75350509Y-17427380D01*
X75350509Y-17427380D02*
X75310033Y-17386904D01*
X75310033Y-17386904D02*
X75269556Y-17305952D01*
X76941666Y-14015271D02*
X77225000Y-13610509D01*
X77427381Y-14015271D02*
X77427381Y-13165271D01*
X77427381Y-13165271D02*
X77103571Y-13165271D01*
X77103571Y-13165271D02*
X77022619Y-13205747D01*
X77022619Y-13205747D02*
X76982142Y-13246223D01*
X76982142Y-13246223D02*
X76941666Y-13327175D01*
X76941666Y-13327175D02*
X76941666Y-13448604D01*
X76941666Y-13448604D02*
X76982142Y-13529556D01*
X76982142Y-13529556D02*
X77022619Y-13570033D01*
X77022619Y-13570033D02*
X77103571Y-13610509D01*
X77103571Y-13610509D02*
X77427381Y-13610509D01*
X76658333Y-13165271D02*
X76091666Y-13165271D01*
X76091666Y-13165271D02*
X76455952Y-14015271D01*
X25133333Y-53344795D02*
X25011904Y-53385271D01*
X25011904Y-53385271D02*
X24809523Y-53385271D01*
X24809523Y-53385271D02*
X24728571Y-53344795D01*
X24728571Y-53344795D02*
X24688095Y-53304318D01*
X24688095Y-53304318D02*
X24647618Y-53223366D01*
X24647618Y-53223366D02*
X24647618Y-53142414D01*
X24647618Y-53142414D02*
X24688095Y-53061461D01*
X24688095Y-53061461D02*
X24728571Y-53020985D01*
X24728571Y-53020985D02*
X24809523Y-52980509D01*
X24809523Y-52980509D02*
X24971428Y-52940033D01*
X24971428Y-52940033D02*
X25052380Y-52899556D01*
X25052380Y-52899556D02*
X25092857Y-52859080D01*
X25092857Y-52859080D02*
X25133333Y-52778128D01*
X25133333Y-52778128D02*
X25133333Y-52697175D01*
X25133333Y-52697175D02*
X25092857Y-52616223D01*
X25092857Y-52616223D02*
X25052380Y-52575747D01*
X25052380Y-52575747D02*
X24971428Y-52535271D01*
X24971428Y-52535271D02*
X24769047Y-52535271D01*
X24769047Y-52535271D02*
X24647618Y-52575747D01*
X24364285Y-52535271D02*
X24161904Y-53385271D01*
X24161904Y-53385271D02*
X23999999Y-52778128D01*
X23999999Y-52778128D02*
X23838094Y-53385271D01*
X23838094Y-53385271D02*
X23635714Y-52535271D01*
X23352380Y-52616223D02*
X23311904Y-52575747D01*
X23311904Y-52575747D02*
X23230951Y-52535271D01*
X23230951Y-52535271D02*
X23028570Y-52535271D01*
X23028570Y-52535271D02*
X22947618Y-52575747D01*
X22947618Y-52575747D02*
X22907142Y-52616223D01*
X22907142Y-52616223D02*
X22866665Y-52697175D01*
X22866665Y-52697175D02*
X22866665Y-52778128D01*
X22866665Y-52778128D02*
X22907142Y-52899556D01*
X22907142Y-52899556D02*
X23392856Y-53385271D01*
X23392856Y-53385271D02*
X22866665Y-53385271D01*
X62546428Y-53715271D02*
X62829762Y-53310509D01*
X63032143Y-53715271D02*
X63032143Y-52865271D01*
X63032143Y-52865271D02*
X62708333Y-52865271D01*
X62708333Y-52865271D02*
X62627381Y-52905747D01*
X62627381Y-52905747D02*
X62586904Y-52946223D01*
X62586904Y-52946223D02*
X62546428Y-53027175D01*
X62546428Y-53027175D02*
X62546428Y-53148604D01*
X62546428Y-53148604D02*
X62586904Y-53229556D01*
X62586904Y-53229556D02*
X62627381Y-53270033D01*
X62627381Y-53270033D02*
X62708333Y-53310509D01*
X62708333Y-53310509D02*
X63032143Y-53310509D01*
X61736904Y-53715271D02*
X62222619Y-53715271D01*
X61979762Y-53715271D02*
X61979762Y-52865271D01*
X61979762Y-52865271D02*
X62060714Y-52986699D01*
X62060714Y-52986699D02*
X62141666Y-53067652D01*
X62141666Y-53067652D02*
X62222619Y-53108128D01*
X61008333Y-53148604D02*
X61008333Y-53715271D01*
X61210714Y-52824795D02*
X61413095Y-53431937D01*
X61413095Y-53431937D02*
X60886904Y-53431937D01*
X74761271Y-14216667D02*
X75368414Y-14216667D01*
X75368414Y-14216667D02*
X75489842Y-14176190D01*
X75489842Y-14176190D02*
X75570795Y-14095238D01*
X75570795Y-14095238D02*
X75611271Y-13973809D01*
X75611271Y-13973809D02*
X75611271Y-13892857D01*
X74842223Y-14580952D02*
X74801747Y-14621428D01*
X74801747Y-14621428D02*
X74761271Y-14702381D01*
X74761271Y-14702381D02*
X74761271Y-14904762D01*
X74761271Y-14904762D02*
X74801747Y-14985714D01*
X74801747Y-14985714D02*
X74842223Y-15026190D01*
X74842223Y-15026190D02*
X74923175Y-15066667D01*
X74923175Y-15066667D02*
X75004128Y-15066667D01*
X75004128Y-15066667D02*
X75125556Y-15026190D01*
X75125556Y-15026190D02*
X75611271Y-14540476D01*
X75611271Y-14540476D02*
X75611271Y-15066667D01*
X80546428Y-6484318D02*
X80586904Y-6524795D01*
X80586904Y-6524795D02*
X80708333Y-6565271D01*
X80708333Y-6565271D02*
X80789285Y-6565271D01*
X80789285Y-6565271D02*
X80910714Y-6524795D01*
X80910714Y-6524795D02*
X80991666Y-6443842D01*
X80991666Y-6443842D02*
X81032143Y-6362890D01*
X81032143Y-6362890D02*
X81072619Y-6200985D01*
X81072619Y-6200985D02*
X81072619Y-6079556D01*
X81072619Y-6079556D02*
X81032143Y-5917652D01*
X81032143Y-5917652D02*
X80991666Y-5836699D01*
X80991666Y-5836699D02*
X80910714Y-5755747D01*
X80910714Y-5755747D02*
X80789285Y-5715271D01*
X80789285Y-5715271D02*
X80708333Y-5715271D01*
X80708333Y-5715271D02*
X80586904Y-5755747D01*
X80586904Y-5755747D02*
X80546428Y-5796223D01*
X79736904Y-6565271D02*
X80222619Y-6565271D01*
X79979762Y-6565271D02*
X79979762Y-5715271D01*
X79979762Y-5715271D02*
X80060714Y-5836699D01*
X80060714Y-5836699D02*
X80141666Y-5917652D01*
X80141666Y-5917652D02*
X80222619Y-5958128D01*
X79210714Y-5715271D02*
X79129761Y-5715271D01*
X79129761Y-5715271D02*
X79048809Y-5755747D01*
X79048809Y-5755747D02*
X79008333Y-5796223D01*
X79008333Y-5796223D02*
X78967857Y-5877175D01*
X78967857Y-5877175D02*
X78927380Y-6039080D01*
X78927380Y-6039080D02*
X78927380Y-6241461D01*
X78927380Y-6241461D02*
X78967857Y-6403366D01*
X78967857Y-6403366D02*
X79008333Y-6484318D01*
X79008333Y-6484318D02*
X79048809Y-6524795D01*
X79048809Y-6524795D02*
X79129761Y-6565271D01*
X79129761Y-6565271D02*
X79210714Y-6565271D01*
X79210714Y-6565271D02*
X79291666Y-6524795D01*
X79291666Y-6524795D02*
X79332142Y-6484318D01*
X79332142Y-6484318D02*
X79372619Y-6403366D01*
X79372619Y-6403366D02*
X79413095Y-6241461D01*
X79413095Y-6241461D02*
X79413095Y-6039080D01*
X79413095Y-6039080D02*
X79372619Y-5877175D01*
X79372619Y-5877175D02*
X79332142Y-5796223D01*
X79332142Y-5796223D02*
X79291666Y-5755747D01*
X79291666Y-5755747D02*
X79210714Y-5715271D01*
X14686666Y-6315271D02*
X14970000Y-5910509D01*
X15172381Y-6315271D02*
X15172381Y-5465271D01*
X15172381Y-5465271D02*
X14848571Y-5465271D01*
X14848571Y-5465271D02*
X14767619Y-5505747D01*
X14767619Y-5505747D02*
X14727142Y-5546223D01*
X14727142Y-5546223D02*
X14686666Y-5627175D01*
X14686666Y-5627175D02*
X14686666Y-5748604D01*
X14686666Y-5748604D02*
X14727142Y-5829556D01*
X14727142Y-5829556D02*
X14767619Y-5870033D01*
X14767619Y-5870033D02*
X14848571Y-5910509D01*
X14848571Y-5910509D02*
X15172381Y-5910509D01*
X14362857Y-5546223D02*
X14322381Y-5505747D01*
X14322381Y-5505747D02*
X14241428Y-5465271D01*
X14241428Y-5465271D02*
X14039047Y-5465271D01*
X14039047Y-5465271D02*
X13958095Y-5505747D01*
X13958095Y-5505747D02*
X13917619Y-5546223D01*
X13917619Y-5546223D02*
X13877142Y-5627175D01*
X13877142Y-5627175D02*
X13877142Y-5708128D01*
X13877142Y-5708128D02*
X13917619Y-5829556D01*
X13917619Y-5829556D02*
X14403333Y-6315271D01*
X14403333Y-6315271D02*
X13877142Y-6315271D01*
X45984318Y-26858333D02*
X46024795Y-26817857D01*
X46024795Y-26817857D02*
X46065271Y-26696428D01*
X46065271Y-26696428D02*
X46065271Y-26615476D01*
X46065271Y-26615476D02*
X46024795Y-26494047D01*
X46024795Y-26494047D02*
X45943842Y-26413095D01*
X45943842Y-26413095D02*
X45862890Y-26372618D01*
X45862890Y-26372618D02*
X45700985Y-26332142D01*
X45700985Y-26332142D02*
X45579556Y-26332142D01*
X45579556Y-26332142D02*
X45417652Y-26372618D01*
X45417652Y-26372618D02*
X45336699Y-26413095D01*
X45336699Y-26413095D02*
X45255747Y-26494047D01*
X45255747Y-26494047D02*
X45215271Y-26615476D01*
X45215271Y-26615476D02*
X45215271Y-26696428D01*
X45215271Y-26696428D02*
X45255747Y-26817857D01*
X45255747Y-26817857D02*
X45296223Y-26858333D01*
X45579556Y-27344047D02*
X45539080Y-27263095D01*
X45539080Y-27263095D02*
X45498604Y-27222618D01*
X45498604Y-27222618D02*
X45417652Y-27182142D01*
X45417652Y-27182142D02*
X45377175Y-27182142D01*
X45377175Y-27182142D02*
X45296223Y-27222618D01*
X45296223Y-27222618D02*
X45255747Y-27263095D01*
X45255747Y-27263095D02*
X45215271Y-27344047D01*
X45215271Y-27344047D02*
X45215271Y-27505952D01*
X45215271Y-27505952D02*
X45255747Y-27586904D01*
X45255747Y-27586904D02*
X45296223Y-27627380D01*
X45296223Y-27627380D02*
X45377175Y-27667857D01*
X45377175Y-27667857D02*
X45417652Y-27667857D01*
X45417652Y-27667857D02*
X45498604Y-27627380D01*
X45498604Y-27627380D02*
X45539080Y-27586904D01*
X45539080Y-27586904D02*
X45579556Y-27505952D01*
X45579556Y-27505952D02*
X45579556Y-27344047D01*
X45579556Y-27344047D02*
X45620033Y-27263095D01*
X45620033Y-27263095D02*
X45660509Y-27222618D01*
X45660509Y-27222618D02*
X45741461Y-27182142D01*
X45741461Y-27182142D02*
X45903366Y-27182142D01*
X45903366Y-27182142D02*
X45984318Y-27222618D01*
X45984318Y-27222618D02*
X46024795Y-27263095D01*
X46024795Y-27263095D02*
X46065271Y-27344047D01*
X46065271Y-27344047D02*
X46065271Y-27505952D01*
X46065271Y-27505952D02*
X46024795Y-27586904D01*
X46024795Y-27586904D02*
X45984318Y-27627380D01*
X45984318Y-27627380D02*
X45903366Y-27667857D01*
X45903366Y-27667857D02*
X45741461Y-27667857D01*
X45741461Y-27667857D02*
X45660509Y-27627380D01*
X45660509Y-27627380D02*
X45620033Y-27586904D01*
X45620033Y-27586904D02*
X45579556Y-27505952D01*
X6847619Y-13435271D02*
X6847619Y-14123366D01*
X6847619Y-14123366D02*
X6807142Y-14204318D01*
X6807142Y-14204318D02*
X6766666Y-14244795D01*
X6766666Y-14244795D02*
X6685714Y-14285271D01*
X6685714Y-14285271D02*
X6523809Y-14285271D01*
X6523809Y-14285271D02*
X6442857Y-14244795D01*
X6442857Y-14244795D02*
X6402380Y-14204318D01*
X6402380Y-14204318D02*
X6361904Y-14123366D01*
X6361904Y-14123366D02*
X6361904Y-13435271D01*
X5592857Y-13718604D02*
X5592857Y-14285271D01*
X5795238Y-13394795D02*
X5997619Y-14001937D01*
X5997619Y-14001937D02*
X5471428Y-14001937D01*
X72633332Y-52135271D02*
X72633332Y-52742414D01*
X72633332Y-52742414D02*
X72673809Y-52863842D01*
X72673809Y-52863842D02*
X72754761Y-52944795D01*
X72754761Y-52944795D02*
X72876190Y-52985271D01*
X72876190Y-52985271D02*
X72957142Y-52985271D01*
X71783332Y-52985271D02*
X72269047Y-52985271D01*
X72026190Y-52985271D02*
X72026190Y-52135271D01*
X72026190Y-52135271D02*
X72107142Y-52256699D01*
X72107142Y-52256699D02*
X72188094Y-52337652D01*
X72188094Y-52337652D02*
X72269047Y-52378128D01*
X67015237Y-47651392D02*
X66507618Y-47651392D01*
X66507618Y-47651392D02*
X66780951Y-47963773D01*
X66780951Y-47963773D02*
X66663808Y-47963773D01*
X66663808Y-47963773D02*
X66585713Y-48002821D01*
X66585713Y-48002821D02*
X66546665Y-48041868D01*
X66546665Y-48041868D02*
X66507618Y-48119964D01*
X66507618Y-48119964D02*
X66507618Y-48315202D01*
X66507618Y-48315202D02*
X66546665Y-48393297D01*
X66546665Y-48393297D02*
X66585713Y-48432345D01*
X66585713Y-48432345D02*
X66663808Y-48471392D01*
X66663808Y-48471392D02*
X66898094Y-48471392D01*
X66898094Y-48471392D02*
X66976189Y-48432345D01*
X66976189Y-48432345D02*
X67015237Y-48393297D01*
X66273332Y-47651392D02*
X65999999Y-48471392D01*
X65999999Y-48471392D02*
X65726666Y-47651392D01*
X65531428Y-47651392D02*
X65023809Y-47651392D01*
X65023809Y-47651392D02*
X65297142Y-47963773D01*
X65297142Y-47963773D02*
X65179999Y-47963773D01*
X65179999Y-47963773D02*
X65101904Y-48002821D01*
X65101904Y-48002821D02*
X65062856Y-48041868D01*
X65062856Y-48041868D02*
X65023809Y-48119964D01*
X65023809Y-48119964D02*
X65023809Y-48315202D01*
X65023809Y-48315202D02*
X65062856Y-48393297D01*
X65062856Y-48393297D02*
X65101904Y-48432345D01*
X65101904Y-48432345D02*
X65179999Y-48471392D01*
X65179999Y-48471392D02*
X65414285Y-48471392D01*
X65414285Y-48471392D02*
X65492380Y-48432345D01*
X65492380Y-48432345D02*
X65531428Y-48393297D01*
X69164762Y-47690440D02*
X69242857Y-47651392D01*
X69242857Y-47651392D02*
X69360000Y-47651392D01*
X69360000Y-47651392D02*
X69477143Y-47690440D01*
X69477143Y-47690440D02*
X69555238Y-47768535D01*
X69555238Y-47768535D02*
X69594285Y-47846630D01*
X69594285Y-47846630D02*
X69633333Y-48002821D01*
X69633333Y-48002821D02*
X69633333Y-48119964D01*
X69633333Y-48119964D02*
X69594285Y-48276154D01*
X69594285Y-48276154D02*
X69555238Y-48354249D01*
X69555238Y-48354249D02*
X69477143Y-48432345D01*
X69477143Y-48432345D02*
X69360000Y-48471392D01*
X69360000Y-48471392D02*
X69281904Y-48471392D01*
X69281904Y-48471392D02*
X69164762Y-48432345D01*
X69164762Y-48432345D02*
X69125714Y-48393297D01*
X69125714Y-48393297D02*
X69125714Y-48119964D01*
X69125714Y-48119964D02*
X69281904Y-48119964D01*
X68774285Y-48471392D02*
X68774285Y-47651392D01*
X68774285Y-47651392D02*
X68305714Y-48471392D01*
X68305714Y-48471392D02*
X68305714Y-47651392D01*
X67915237Y-48471392D02*
X67915237Y-47651392D01*
X67915237Y-47651392D02*
X67719999Y-47651392D01*
X67719999Y-47651392D02*
X67602856Y-47690440D01*
X67602856Y-47690440D02*
X67524761Y-47768535D01*
X67524761Y-47768535D02*
X67485714Y-47846630D01*
X67485714Y-47846630D02*
X67446666Y-48002821D01*
X67446666Y-48002821D02*
X67446666Y-48119964D01*
X67446666Y-48119964D02*
X67485714Y-48276154D01*
X67485714Y-48276154D02*
X67524761Y-48354249D01*
X67524761Y-48354249D02*
X67602856Y-48432345D01*
X67602856Y-48432345D02*
X67719999Y-48471392D01*
X67719999Y-48471392D02*
X67915237Y-48471392D01*
X71704761Y-47651392D02*
X71236190Y-47651392D01*
X71470476Y-48471392D02*
X71470476Y-47651392D01*
X71040952Y-47651392D02*
X70494285Y-48471392D01*
X70494285Y-47651392D02*
X71040952Y-48471392D01*
X73756666Y-48471392D02*
X74029999Y-48080916D01*
X74225237Y-48471392D02*
X74225237Y-47651392D01*
X74225237Y-47651392D02*
X73912856Y-47651392D01*
X73912856Y-47651392D02*
X73834761Y-47690440D01*
X73834761Y-47690440D02*
X73795714Y-47729487D01*
X73795714Y-47729487D02*
X73756666Y-47807583D01*
X73756666Y-47807583D02*
X73756666Y-47924725D01*
X73756666Y-47924725D02*
X73795714Y-48002821D01*
X73795714Y-48002821D02*
X73834761Y-48041868D01*
X73834761Y-48041868D02*
X73912856Y-48080916D01*
X73912856Y-48080916D02*
X74225237Y-48080916D01*
X73483333Y-47651392D02*
X72936666Y-48471392D01*
X72936666Y-47651392D02*
X73483333Y-48471392D01*
X76765237Y-48041868D02*
X76491904Y-48041868D01*
X76374761Y-48471392D02*
X76765237Y-48471392D01*
X76765237Y-48471392D02*
X76765237Y-47651392D01*
X76765237Y-47651392D02*
X76374761Y-47651392D01*
X76023332Y-48471392D02*
X76023332Y-47651392D01*
X76023332Y-47651392D02*
X75554761Y-48471392D01*
X75554761Y-48471392D02*
X75554761Y-47651392D01*
X79519999Y-48471392D02*
X79519999Y-47651392D01*
X78973333Y-47651392D02*
X78817142Y-47651392D01*
X78817142Y-47651392D02*
X78739047Y-47690440D01*
X78739047Y-47690440D02*
X78660952Y-47768535D01*
X78660952Y-47768535D02*
X78621904Y-47924725D01*
X78621904Y-47924725D02*
X78621904Y-48198059D01*
X78621904Y-48198059D02*
X78660952Y-48354249D01*
X78660952Y-48354249D02*
X78739047Y-48432345D01*
X78739047Y-48432345D02*
X78817142Y-48471392D01*
X78817142Y-48471392D02*
X78973333Y-48471392D01*
X78973333Y-48471392D02*
X79051428Y-48432345D01*
X79051428Y-48432345D02*
X79129523Y-48354249D01*
X79129523Y-48354249D02*
X79168571Y-48198059D01*
X79168571Y-48198059D02*
X79168571Y-47924725D01*
X79168571Y-47924725D02*
X79129523Y-47768535D01*
X79129523Y-47768535D02*
X79051428Y-47690440D01*
X79051428Y-47690440D02*
X78973333Y-47651392D01*
X78114285Y-47651392D02*
X78036190Y-47651392D01*
X78036190Y-47651392D02*
X77958094Y-47690440D01*
X77958094Y-47690440D02*
X77919047Y-47729487D01*
X77919047Y-47729487D02*
X77879999Y-47807583D01*
X77879999Y-47807583D02*
X77840952Y-47963773D01*
X77840952Y-47963773D02*
X77840952Y-48159011D01*
X77840952Y-48159011D02*
X77879999Y-48315202D01*
X77879999Y-48315202D02*
X77919047Y-48393297D01*
X77919047Y-48393297D02*
X77958094Y-48432345D01*
X77958094Y-48432345D02*
X78036190Y-48471392D01*
X78036190Y-48471392D02*
X78114285Y-48471392D01*
X78114285Y-48471392D02*
X78192380Y-48432345D01*
X78192380Y-48432345D02*
X78231428Y-48393297D01*
X78231428Y-48393297D02*
X78270475Y-48315202D01*
X78270475Y-48315202D02*
X78309523Y-48159011D01*
X78309523Y-48159011D02*
X78309523Y-47963773D01*
X78309523Y-47963773D02*
X78270475Y-47807583D01*
X78270475Y-47807583D02*
X78231428Y-47729487D01*
X78231428Y-47729487D02*
X78192380Y-47690440D01*
X78192380Y-47690440D02*
X78114285Y-47651392D01*
X22147619Y-14047271D02*
X22147619Y-14735366D01*
X22147619Y-14735366D02*
X22107142Y-14816318D01*
X22107142Y-14816318D02*
X22066666Y-14856795D01*
X22066666Y-14856795D02*
X21985714Y-14897271D01*
X21985714Y-14897271D02*
X21823809Y-14897271D01*
X21823809Y-14897271D02*
X21742857Y-14856795D01*
X21742857Y-14856795D02*
X21702380Y-14816318D01*
X21702380Y-14816318D02*
X21661904Y-14735366D01*
X21661904Y-14735366D02*
X21661904Y-14047271D01*
X21297619Y-14128223D02*
X21257143Y-14087747D01*
X21257143Y-14087747D02*
X21176190Y-14047271D01*
X21176190Y-14047271D02*
X20973809Y-14047271D01*
X20973809Y-14047271D02*
X20892857Y-14087747D01*
X20892857Y-14087747D02*
X20852381Y-14128223D01*
X20852381Y-14128223D02*
X20811904Y-14209175D01*
X20811904Y-14209175D02*
X20811904Y-14290128D01*
X20811904Y-14290128D02*
X20852381Y-14411556D01*
X20852381Y-14411556D02*
X21338095Y-14897271D01*
X21338095Y-14897271D02*
X20811904Y-14897271D01*
X70381271Y-7352380D02*
X71069366Y-7352380D01*
X71069366Y-7352380D02*
X71150318Y-7392857D01*
X71150318Y-7392857D02*
X71190795Y-7433333D01*
X71190795Y-7433333D02*
X71231271Y-7514285D01*
X71231271Y-7514285D02*
X71231271Y-7676190D01*
X71231271Y-7676190D02*
X71190795Y-7757142D01*
X71190795Y-7757142D02*
X71150318Y-7797619D01*
X71150318Y-7797619D02*
X71069366Y-7838095D01*
X71069366Y-7838095D02*
X70381271Y-7838095D01*
X70381271Y-8161904D02*
X70381271Y-8688095D01*
X70381271Y-8688095D02*
X70705080Y-8404761D01*
X70705080Y-8404761D02*
X70705080Y-8526190D01*
X70705080Y-8526190D02*
X70745556Y-8607142D01*
X70745556Y-8607142D02*
X70786033Y-8647618D01*
X70786033Y-8647618D02*
X70866985Y-8688095D01*
X70866985Y-8688095D02*
X71069366Y-8688095D01*
X71069366Y-8688095D02*
X71150318Y-8647618D01*
X71150318Y-8647618D02*
X71190795Y-8607142D01*
X71190795Y-8607142D02*
X71231271Y-8526190D01*
X71231271Y-8526190D02*
X71231271Y-8283333D01*
X71231271Y-8283333D02*
X71190795Y-8202380D01*
X71190795Y-8202380D02*
X71150318Y-8161904D01*
%TO.C,R11*%
D12*
X60126742Y-3977500D02*
X60601258Y-3977500D01*
X60126742Y-5022500D02*
X60601258Y-5022500D01*
%TO.C,U5*%
D13*
X74390000Y-15460000D02*
X72610000Y-15460000D01*
X74390000Y-18540000D02*
X72610000Y-18540000D01*
D14*
X74950000Y-15330000D02*
G75*
G02*
X74650000Y-15330000I-150000J0D01*
G01*
X74650000Y-15330000D02*
G75*
G02*
X74950000Y-15330000I150000J0D01*
G01*
D15*
X74930000Y-15540000D02*
G75*
G02*
X74870000Y-15540000I-30000J0D01*
G01*
X74870000Y-15540000D02*
G75*
G02*
X74930000Y-15540000I30000J0D01*
G01*
%TO.C,R13*%
D12*
X83077500Y-21662742D02*
X83077500Y-22137258D01*
X84122500Y-21662742D02*
X84122500Y-22137258D01*
%TO.C,R9*%
X47035742Y-3977500D02*
X47510258Y-3977500D01*
X47035742Y-5022500D02*
X47510258Y-5022500D01*
%TO.C,C4*%
X43490000Y-22140580D02*
X43490000Y-21859420D01*
X44510000Y-22140580D02*
X44510000Y-21859420D01*
%TO.C,R1*%
X7762742Y-3977500D02*
X8237258Y-3977500D01*
X7762742Y-5022500D02*
X8237258Y-5022500D01*
%TO.C,C7*%
X78490000Y-8140580D02*
X78490000Y-7859420D01*
X79510000Y-8140580D02*
X79510000Y-7859420D01*
%TO.C,C3*%
X43490000Y-17140580D02*
X43490000Y-16859420D01*
X44510000Y-17140580D02*
X44510000Y-16859420D01*
%TO.C,R10*%
X53580742Y-3977500D02*
X54055258Y-3977500D01*
X53580742Y-5022500D02*
X54055258Y-5022500D01*
%TO.C,Q1*%
D16*
X79900000Y-20000000D02*
X79900000Y-20860000D01*
X79900000Y-20000000D02*
X80900000Y-20000000D01*
X79900000Y-22140000D02*
X79900000Y-23000000D01*
X79900000Y-23000000D02*
X80900000Y-23000000D01*
X81300000Y-21190000D02*
X81300000Y-21810000D01*
D15*
X81830000Y-20050000D02*
G75*
G02*
X81770000Y-20050000I-30000J0D01*
G01*
X81770000Y-20050000D02*
G75*
G02*
X81830000Y-20050000I30000J0D01*
G01*
%TO.C,R5*%
D12*
X33944742Y-3977500D02*
X34419258Y-3977500D01*
X33944742Y-5022500D02*
X34419258Y-5022500D01*
%TO.C,R4*%
X27398742Y-3977500D02*
X27873258Y-3977500D01*
X27398742Y-5022500D02*
X27873258Y-5022500D01*
%TO.C,U1*%
D16*
X23000000Y-17860000D02*
X24330000Y-17860000D01*
X23000000Y-18700000D02*
X23000000Y-17860000D01*
X23000000Y-37360000D02*
X41020000Y-37360000D01*
X23000000Y-43390000D02*
X23000000Y-36580000D01*
X24760000Y-42240000D02*
X24760000Y-38560000D01*
X27050000Y-40080000D02*
X27050000Y-42240000D01*
X27050000Y-42240000D02*
X24760000Y-42240000D01*
X29330000Y-40080000D02*
X27050000Y-40080000D01*
X29330000Y-42240000D02*
X29330000Y-40080000D01*
X31870000Y-40080000D02*
X31870000Y-42240000D01*
X31870000Y-42240000D02*
X29330000Y-42240000D01*
X34410000Y-40080000D02*
X31870000Y-40080000D01*
X34410000Y-42240000D02*
X34410000Y-40080000D01*
X37270000Y-37360000D02*
X37270000Y-42240000D01*
X37270000Y-42240000D02*
X34410000Y-42240000D01*
X39300000Y-37360000D02*
X39300000Y-42240000D01*
X39300000Y-42240000D02*
X37060000Y-42240000D01*
X39670000Y-17860000D02*
X41020000Y-17860000D01*
X41000000Y-43390000D02*
X23000000Y-43390000D01*
X41020000Y-17860000D02*
X41020000Y-18700000D01*
X41020000Y-36580000D02*
X41020000Y-43380000D01*
X22200000Y-35890000D02*
G75*
G02*
X21700000Y-35890000I-250000J0D01*
G01*
X21700000Y-35890000D02*
G75*
G02*
X22200000Y-35890000I250000J0D01*
G01*
%TO.C,SW3*%
D12*
X79955000Y-26400000D02*
X79955000Y-28100000D01*
X79955000Y-29400000D02*
X79955000Y-29600000D01*
X81055000Y-24550000D02*
X81855000Y-24550000D01*
X81055000Y-31450000D02*
X81855000Y-31450000D01*
%TO.C,C2*%
X19990000Y-35109420D02*
X19990000Y-35390580D01*
X21010000Y-35109420D02*
X21010000Y-35390580D01*
%TO.C,C9*%
X73193748Y-3765000D02*
X73716252Y-3765000D01*
X73193748Y-5235000D02*
X73716252Y-5235000D01*
%TO.C,R3*%
X20853742Y-3977500D02*
X21328258Y-3977500D01*
X20853742Y-5022500D02*
X21328258Y-5022500D01*
%TO.C,C6*%
X72490000Y-8140580D02*
X72490000Y-7859420D01*
X73510000Y-8140580D02*
X73510000Y-7859420D01*
%TO.C,R6*%
X40489742Y-3977500D02*
X40964258Y-3977500D01*
X40489742Y-5022500D02*
X40964258Y-5022500D01*
%TO.C,C1*%
X20859420Y-15990000D02*
X21140580Y-15990000D01*
X20859420Y-17010000D02*
X21140580Y-17010000D01*
%TO.C,C12*%
X10759420Y-12390000D02*
X11040580Y-12390000D01*
X10759420Y-13410000D02*
X11040580Y-13410000D01*
%TO.C,C11*%
X10290000Y-8140580D02*
X10290000Y-7859420D01*
X11310000Y-8140580D02*
X11310000Y-7859420D01*
%TO.C,BT1*%
D13*
X47750000Y-24500000D02*
X47750000Y-25650000D01*
X47750000Y-24500000D02*
X50870000Y-24500000D01*
X47750000Y-31500000D02*
X47750000Y-30350000D01*
X47750000Y-31500000D02*
X50870000Y-31500000D01*
X50200000Y-36050000D02*
X50200000Y-19950000D01*
X50200000Y-36070000D02*
X50350000Y-36070000D01*
X50350000Y-19920000D02*
X50200000Y-19920000D01*
X50350000Y-36070000D02*
X50350000Y-19920000D01*
X50870000Y-19920000D02*
X73130000Y-19920000D01*
X50870000Y-36080000D02*
X73130000Y-36080000D01*
X52800000Y-34650000D02*
X51700000Y-34650000D01*
X71200000Y-21350000D02*
X72300000Y-21350000D01*
X71640000Y-36080000D02*
X71660000Y-36080000D01*
X71660000Y-36080000D02*
X73130000Y-34610000D01*
X71750000Y-20800000D02*
X71750000Y-21900000D01*
X73130000Y-19920000D02*
X73130000Y-26020000D01*
X73130000Y-29980000D02*
X73130000Y-25940000D01*
X73130000Y-36080000D02*
X73130000Y-29980000D01*
X76250000Y-24500000D02*
X73130000Y-24500000D01*
X76250000Y-24500000D02*
X76250000Y-25650000D01*
X76250000Y-31500000D02*
X73130000Y-31500000D01*
X76250000Y-31500000D02*
X76250000Y-30350000D01*
X56106036Y-36081719D02*
G75*
G02*
X56090000Y-19930000I5893964J8081719D01*
G01*
X67893964Y-19918281D02*
G75*
G02*
X67910000Y-36070000I-5893965J-8081719D01*
G01*
X53170000Y-34650000D02*
G75*
G02*
X51330000Y-34650000I-920000J0D01*
G01*
X51330000Y-34650000D02*
G75*
G02*
X53170000Y-34650000I920000J0D01*
G01*
X72670000Y-21350000D02*
G75*
G02*
X70830000Y-21350000I-920000J0D01*
G01*
X70830000Y-21350000D02*
G75*
G02*
X72670000Y-21350000I920000J0D01*
G01*
D17*
G36*
X73126191Y-36076209D02*
G01*
X71652000Y-36076209D01*
X73126191Y-34604000D01*
X73126191Y-36076209D01*
G37*
G36*
X50950009Y-26067593D02*
G01*
X50645209Y-26067593D01*
X50645209Y-19847591D01*
X50950009Y-19847591D01*
X50950009Y-26067593D01*
G37*
G36*
X50950035Y-26049991D02*
G01*
X50950009Y-36152409D01*
X50645209Y-36152409D01*
X50645209Y-29932407D01*
X50650035Y-26000004D01*
X50950035Y-26049991D01*
G37*
%TO.C,C5*%
D12*
X25359420Y-8990000D02*
X25640580Y-8990000D01*
X25359420Y-10010000D02*
X25640580Y-10010000D01*
%TO.C,SW1*%
D16*
X9450000Y-48470000D02*
X9450000Y-46130000D01*
X9830000Y-45640000D02*
X10720000Y-44750000D01*
X10200000Y-46300000D02*
X10200000Y-48300000D01*
X10200000Y-48300000D02*
X11000000Y-49100000D01*
X10720000Y-44750000D02*
X13280000Y-44750000D01*
X10720000Y-49850000D02*
X9830000Y-48960000D01*
X10720000Y-49850000D02*
X13280000Y-49850000D01*
X11000000Y-49100000D02*
X12900000Y-49100000D01*
X11100000Y-45400000D02*
X10200000Y-46300000D01*
X12800000Y-45400000D02*
X11100000Y-45400000D01*
X12900000Y-49100000D02*
X13800000Y-48200000D01*
X13280000Y-49850000D02*
X14170000Y-48960000D01*
X13800000Y-46400000D02*
X12800000Y-45400000D01*
X13800000Y-48200000D02*
X13800000Y-46400000D01*
X14170000Y-45640000D02*
X13280000Y-44750000D01*
X14550000Y-48470000D02*
X14550000Y-46130000D01*
X13280000Y-47300000D02*
G75*
G02*
X10720000Y-47300000I-1280000J0D01*
G01*
X10720000Y-47300000D02*
G75*
G02*
X13280000Y-47300000I1280000J0D01*
G01*
%TO.C,R12*%
D12*
X66671742Y-3977500D02*
X67146258Y-3977500D01*
X66671742Y-5022500D02*
X67146258Y-5022500D01*
%TO.C,R8*%
X76277500Y-16562742D02*
X76277500Y-17037258D01*
X77322500Y-16562742D02*
X77322500Y-17037258D01*
%TO.C,R7*%
X76562742Y-11677500D02*
X77037258Y-11677500D01*
X76562742Y-12722500D02*
X77037258Y-12722500D01*
%TO.C,SW2*%
D16*
X21450000Y-48470000D02*
X21450000Y-46130000D01*
X21830000Y-45640000D02*
X22720000Y-44750000D01*
X22200000Y-46300000D02*
X22200000Y-48300000D01*
X22200000Y-48300000D02*
X23000000Y-49100000D01*
X22720000Y-44750000D02*
X25280000Y-44750000D01*
X22720000Y-49850000D02*
X21830000Y-48960000D01*
X22720000Y-49850000D02*
X25280000Y-49850000D01*
X23000000Y-49100000D02*
X24900000Y-49100000D01*
X23100000Y-45400000D02*
X22200000Y-46300000D01*
X24800000Y-45400000D02*
X23100000Y-45400000D01*
X24900000Y-49100000D02*
X25800000Y-48200000D01*
X25280000Y-49850000D02*
X26170000Y-48960000D01*
X25800000Y-46400000D02*
X24800000Y-45400000D01*
X25800000Y-48200000D02*
X25800000Y-46400000D01*
X26170000Y-45640000D02*
X25280000Y-44750000D01*
X26550000Y-48470000D02*
X26550000Y-46130000D01*
X25280000Y-47300000D02*
G75*
G02*
X22720000Y-47300000I-1280000J0D01*
G01*
X22720000Y-47300000D02*
G75*
G02*
X25280000Y-47300000I1280000J0D01*
G01*
%TO.C,R14*%
D12*
X61762742Y-51377500D02*
X62237258Y-51377500D01*
X61762742Y-52422500D02*
X62237258Y-52422500D01*
%TO.C,J2*%
D16*
X83080000Y-10030000D02*
X81210000Y-10030000D01*
X83080000Y-18970000D02*
X81210000Y-18970000D01*
D15*
X78970000Y-18980000D02*
G75*
G02*
X78910000Y-18980000I-30000J0D01*
G01*
X78910000Y-18980000D02*
G75*
G02*
X78970000Y-18980000I30000J0D01*
G01*
%TO.C,C10*%
D12*
X79738748Y-3765000D02*
X80261252Y-3765000D01*
X79738748Y-5235000D02*
X80261252Y-5235000D01*
%TO.C,R2*%
X14307742Y-3977500D02*
X14782258Y-3977500D01*
X14307742Y-5022500D02*
X14782258Y-5022500D01*
%TO.C,C8*%
X43265000Y-27261252D02*
X43265000Y-26738748D01*
X44735000Y-27261252D02*
X44735000Y-26738748D01*
%TO.C,U4*%
X3750000Y-11550000D02*
X3750000Y-7650000D01*
X8650000Y-11550000D02*
X8650000Y-7650000D01*
D18*
X3555000Y-6950000D02*
G75*
G02*
X3345000Y-6950000I-105000J0D01*
G01*
X3345000Y-6950000D02*
G75*
G02*
X3555000Y-6950000I105000J0D01*
G01*
%TO.C,U2*%
D13*
X19920000Y-8170000D02*
X19920000Y-8420000D01*
X19920000Y-10830000D02*
X19920000Y-10580000D01*
X20670000Y-8170000D02*
X19920000Y-8170000D01*
X20670000Y-10830000D02*
X19920000Y-10830000D01*
X22330000Y-8170000D02*
X23080000Y-8170000D01*
X22330000Y-10830000D02*
X23080000Y-10830000D01*
X23080000Y-8170000D02*
X23080000Y-8420000D01*
X23080000Y-10830000D02*
X23080000Y-10580000D01*
X19670000Y-10260000D02*
G75*
G02*
X19510000Y-10260000I-80000J0D01*
G01*
X19510000Y-10260000D02*
G75*
G02*
X19670000Y-10260000I80000J0D01*
G01*
%TO.C,U3*%
X75150000Y-8480000D02*
X75150000Y-7520000D01*
X76850000Y-6470000D02*
X75150000Y-6470000D01*
X76850000Y-9530000D02*
X75150000Y-9530000D01*
D14*
X77290000Y-6350000D02*
G75*
G02*
X76990000Y-6350000I-150000J0D01*
G01*
X76990000Y-6350000D02*
G75*
G02*
X77290000Y-6350000I150000J0D01*
G01*
D15*
X77400000Y-6580000D02*
G75*
G02*
X77340000Y-6580000I-30000J0D01*
G01*
X77340000Y-6580000D02*
G75*
G02*
X77400000Y-6580000I30000J0D01*
G01*
%TD*%
%LPC*%
D19*
%TO.C,R11*%
X59539000Y-4500000D03*
X61189000Y-4500000D03*
%TD*%
D20*
%TO.C,U5*%
X74650000Y-16050000D03*
X74650000Y-17000000D03*
X74650000Y-17950000D03*
X72350000Y-17950000D03*
X72350000Y-17000000D03*
X72350000Y-16050000D03*
%TD*%
D21*
%TO.C,R13*%
X83600000Y-21075000D03*
X83600000Y-22725000D03*
%TD*%
D19*
%TO.C,R9*%
X46448000Y-4500000D03*
X48098000Y-4500000D03*
%TD*%
D22*
%TO.C,C4*%
X44000000Y-22775000D03*
X44000000Y-21225000D03*
%TD*%
D19*
%TO.C,R1*%
X7175000Y-4500000D03*
X8825000Y-4500000D03*
%TD*%
D22*
%TO.C,C7*%
X79000000Y-8775000D03*
X79000000Y-7225000D03*
%TD*%
%TO.C,C3*%
X44000000Y-17775000D03*
X44000000Y-16225000D03*
%TD*%
D19*
%TO.C,R10*%
X52993000Y-4500000D03*
X54643000Y-4500000D03*
%TD*%
D23*
%TO.C,Q1*%
X81750000Y-20550000D03*
X81750000Y-22450000D03*
X79450000Y-21500000D03*
%TD*%
D19*
%TO.C,R5*%
X33357000Y-4500000D03*
X35007000Y-4500000D03*
%TD*%
%TO.C,R4*%
X26811000Y-4500000D03*
X28461000Y-4500000D03*
%TD*%
D24*
%TO.C,U1*%
X23250000Y-35890000D03*
X23250000Y-34620000D03*
X23250000Y-33350000D03*
X23250000Y-32080000D03*
X23250000Y-30810000D03*
X23250000Y-29540000D03*
X23250000Y-28270000D03*
X23250000Y-27000000D03*
X23250000Y-25730000D03*
X23250000Y-24460000D03*
X23250000Y-23190000D03*
X23250000Y-21920000D03*
X23250000Y-20650000D03*
X23250000Y-19380000D03*
D25*
X25010000Y-18110000D03*
X26280000Y-18110000D03*
X27550000Y-18110000D03*
X28830000Y-18110000D03*
X30100000Y-18110000D03*
X31370000Y-18110000D03*
X32640000Y-18110000D03*
X33910000Y-18110000D03*
X35180000Y-18110000D03*
X36450000Y-18110000D03*
X37720000Y-18110000D03*
X38990000Y-18140000D03*
D24*
X40750000Y-19380000D03*
X40750000Y-20650000D03*
X40750000Y-21920000D03*
X40750000Y-23190000D03*
X40750000Y-24460000D03*
X40750000Y-25730000D03*
X40750000Y-27000000D03*
X40750000Y-28270000D03*
X40750000Y-29540000D03*
X40750000Y-30810000D03*
X40750000Y-32080000D03*
X40750000Y-33350000D03*
X40750000Y-34620000D03*
X40750000Y-35890000D03*
D26*
X29100000Y-26770000D03*
X29100000Y-28170000D03*
X29100000Y-29570000D03*
X30500000Y-26770000D03*
X30500000Y-28170000D03*
X30500000Y-29570000D03*
X31900000Y-26770000D03*
X31900000Y-28170000D03*
X31900000Y-29570000D03*
%TD*%
D27*
%TO.C,SW3*%
X81455000Y-26500000D03*
X81455000Y-29500000D03*
D28*
X79505000Y-25750000D03*
X79505000Y-28750000D03*
X79505000Y-30250000D03*
D29*
X82555000Y-24325000D03*
X80355000Y-24325000D03*
X82555000Y-31675000D03*
X80355000Y-31675000D03*
%TD*%
D30*
%TO.C,C2*%
X20500000Y-34475000D03*
X20500000Y-36025000D03*
%TD*%
D31*
%TO.C,C9*%
X72505000Y-4500000D03*
X74405000Y-4500000D03*
%TD*%
D19*
%TO.C,R3*%
X20266000Y-4500000D03*
X21916000Y-4500000D03*
%TD*%
D22*
%TO.C,C6*%
X73000000Y-8775000D03*
X73000000Y-7225000D03*
%TD*%
D19*
%TO.C,R6*%
X39902000Y-4500000D03*
X41552000Y-4500000D03*
%TD*%
D32*
%TO.C,FID3*%
X81000000Y-50500000D03*
%TD*%
D33*
%TO.C,C1*%
X20225000Y-16500000D03*
X21775000Y-16500000D03*
%TD*%
%TO.C,C12*%
X10125000Y-12900000D03*
X11675000Y-12900000D03*
%TD*%
D22*
%TO.C,C11*%
X10800000Y-8775000D03*
X10800000Y-7225000D03*
%TD*%
D34*
%TO.C,BT1*%
X76500000Y-28000000D03*
X47500000Y-28000000D03*
%TD*%
D33*
%TO.C,C5*%
X24725000Y-9500000D03*
X26275000Y-9500000D03*
%TD*%
D35*
%TO.C,SW1*%
X9000000Y-49150000D03*
X15000000Y-49150000D03*
X9000000Y-45450000D03*
X15000000Y-45450000D03*
%TD*%
D19*
%TO.C,R12*%
X66084000Y-4500000D03*
X67734000Y-4500000D03*
%TD*%
D32*
%TO.C,FID1*%
X3500000Y-3000000D03*
%TD*%
D21*
%TO.C,R8*%
X76800000Y-15975000D03*
X76800000Y-17625000D03*
%TD*%
D19*
%TO.C,R7*%
X75975000Y-12200000D03*
X77625000Y-12200000D03*
%TD*%
D35*
%TO.C,SW2*%
X21000000Y-49150000D03*
X27000000Y-49150000D03*
X21000000Y-45450000D03*
X27000000Y-45450000D03*
%TD*%
D19*
%TO.C,R14*%
X61175000Y-51900000D03*
X62825000Y-51900000D03*
%TD*%
D36*
%TO.C,J2*%
X80490000Y-11600000D03*
X80490000Y-17400000D03*
D37*
X79990000Y-18830000D03*
D38*
X84170000Y-18830000D03*
X84170000Y-10170000D03*
D37*
X79990000Y-10170000D03*
D39*
X79230000Y-11300000D03*
D40*
X79230000Y-12100000D03*
D41*
X79230000Y-13250000D03*
X79230000Y-14250000D03*
X79230000Y-14750000D03*
X79230000Y-15750000D03*
D42*
X79230000Y-17700000D03*
X79230000Y-16900000D03*
D41*
X79230000Y-16250000D03*
X79230000Y-15250000D03*
X79230000Y-13750000D03*
X79230000Y-12750000D03*
%TD*%
D32*
%TO.C,FID2*%
X3500000Y-50500000D03*
%TD*%
D31*
%TO.C,C10*%
X79050000Y-4500000D03*
X80950000Y-4500000D03*
%TD*%
D19*
%TO.C,R2*%
X13720000Y-4500000D03*
X15370000Y-4500000D03*
%TD*%
D43*
%TO.C,C8*%
X44000000Y-27950000D03*
X44000000Y-26050000D03*
%TD*%
D44*
%TO.C,U4*%
X4295000Y-6950000D03*
X5565000Y-6950000D03*
X6835000Y-6950000D03*
X8105000Y-6950000D03*
X8105000Y-12250000D03*
X6835000Y-12250000D03*
X5565000Y-12250000D03*
X4295000Y-12250000D03*
%TD*%
D45*
%TO.C,J1*%
X66000000Y-50000000D03*
X68540000Y-50000000D03*
X71080000Y-50000000D03*
X73620000Y-50000000D03*
X76160000Y-50000000D03*
X78700000Y-50000000D03*
%TD*%
D46*
%TO.C,U2*%
X20240000Y-10250000D03*
X20240000Y-9750000D03*
X20240000Y-9250000D03*
X20240000Y-8750000D03*
D47*
X21000000Y-8490000D03*
X21500000Y-8490000D03*
X22000000Y-8490000D03*
D46*
X22760000Y-8750000D03*
X22760000Y-9250000D03*
X22760000Y-9750000D03*
X22760000Y-10250000D03*
D47*
X22000000Y-10510000D03*
X21500000Y-10510000D03*
X21000000Y-10510000D03*
%TD*%
D48*
%TO.C,U3*%
X77150000Y-7050000D03*
X77150000Y-8000000D03*
X77150000Y-8950000D03*
D49*
X74850000Y-8950000D03*
X74850000Y-7050000D03*
%TD*%
%LPD*%
M02*
