M48
; DRILL file KiCad 10.0.3 date 2026-08-10T11:08:37
; FORMAT={-:-/ absolute / metric / decimal}
; #@! TF.CreationDate,2026-08-10T11:08:37-04:00
; #@! TF.GenerationSoftware,Kicad,Pcbnew,10.0.3
; #@! TF.FileFunction,MixedPlating,1,2
FMAT,2
METRIC
; #@! TA.AperFunction,Plated,PTH,ViaDrill
T1C0.300
; #@! TA.AperFunction,Plated,PTH,ComponentDrill
T2C0.300
; #@! TA.AperFunction,Plated,PTH,ComponentDrill
T3C0.800
; #@! TA.AperFunction,NonPlated,NPTH,ComponentDrill
T4C0.750
; #@! TA.AperFunction,NonPlated,NPTH,ComponentDrill
T5C0.850
%
G90
G05
T1
X2.6Y-12.0
X4.145Y-9.285
X4.95Y-14.685
X6.555Y-10.699
X7.147Y-9.149
X7.68Y-10.616
X7.758Y-6.026
X9.206Y-10.344
X10.177Y-10.347
X10.617Y-45.3
X10.806Y-5.734
X10.9Y-7.2
X12.3Y-6.2
X12.988Y-14.272
X14.8Y-2.6
X15.5Y-12.0
X15.5Y-25.8
X15.6Y-8.2
X17.002Y-9.529
X17.7Y-28.0
X17.771Y-24.758
X17.835Y-7.82
X18.696Y-13.299
X19.098Y-15.583
X19.515Y-37.701
X20.2Y-7.5
X20.3Y-14.0
X21.295Y-19.392
X21.5Y-26.2
X21.5Y-28.0
X21.555Y-35.309
X21.595Y-20.444
X21.727Y-23.365
X21.8Y-8.5
X21.988Y-12.63
X22.7Y-11.8
X23.0Y-5.3
X23.2Y-19.5
X23.2Y-20.7
X24.0Y-8.0
X24.097Y-6.651
X24.671Y-24.776
X24.973Y-20.378
X25.173Y-21.197
X25.264Y-29.658
X25.465Y-41.248
X26.2Y-5.9
X26.3Y-8.4
X26.3Y-9.5
X26.45Y-20.062
X27.636Y-3.832
X29.584Y-4.409
X30.3Y-8.0
X31.077Y-26.343
X31.385Y-20.288
X32.2Y-4.6
X32.604Y-14.329
X33.763Y-29.841
X33.925Y-12.732
X35.3Y-1.9
X36.3Y-16.5
X36.356Y-26.606
X37.0Y-35.1
X37.2Y-4.6
X37.9Y-16.85
X39.025Y-37.369
X39.468Y-35.776
X39.6Y-13.1
X41.057Y-17.968
X41.1Y-8.4
X41.1Y-10.3
X41.1Y-35.7
X42.171Y-26.476
X42.494Y-19.345
X42.8Y-8.3
X42.977Y-17.519
X43.0Y-2.4
X43.0Y-51.6
X43.365Y-11.81
X43.365Y-46.063
X43.525Y-33.365
X43.602Y-25.046
X44.842Y-4.382
X45.076Y-10.589
X46.971Y-16.897
X47.298Y-10.005
X48.0Y-27.0
X48.719Y-21.268
X49.2Y-19.195
X49.348Y-4.51
X49.875Y-10.754
X52.0Y-40.0
X52.7Y-32.8
X53.155Y-3.388
X54.501Y-41.189
X55.992Y-10.298
X56.0Y-31.7
X56.2Y-6.3
X56.395Y-5.303
X56.748Y-13.642
X59.181Y-46.035
X62.469Y-49.356
X63.359Y-38.549
X66.27Y-7.34
X66.834Y-35.349
X67.037Y-40.535
X67.554Y-43.184
X68.366Y-31.023
X68.518Y-6.882
X68.526Y-21.39
X68.599Y-12.732
X69.35Y-10.797
X69.4Y-8.9
X69.647Y-32.694
X69.851Y-18.138
X69.852Y-26.728
X71.6Y-10.3
X71.8Y-9.5
X71.959Y-38.53
X72.35Y-17.0
X72.4Y-16.0
X73.19Y-13.75
X73.7Y-4.2
X74.0Y-18.8
X74.238Y-5.729
X75.0Y-4.2
X75.7Y-15.25
X76.9Y-5.1
X77.0Y-25.2
X77.0Y-30.8
X77.9Y-14.35
X78.0Y-9.3
X79.0Y-7.2
X79.23Y-12.1
X79.23Y-16.9
X81.75Y-20.35
X83.0Y-12.0
X83.0Y-27.0
X83.0Y-51.0
T2
X8.0Y-14.2
X8.5Y-22.8
T4
X80.49Y-11.6
X80.49Y-17.4
T5
X81.455Y-26.5
X81.455Y-29.5
T3
X80.39Y-10.17G85X79.59Y-10.17
G05
X80.39Y-18.83G85X79.59Y-18.83
G05
X84.47Y-10.17G85X83.87Y-10.17
G05
X84.47Y-18.83G85X83.87Y-18.83
G05
M30
