%TF.GenerationSoftware,KiCad,Pcbnew,10.0.3*%
%TF.CreationDate,2026-08-10T11:08:37-04:00*%
%TF.ProjectId,NeuralCard,4e657572-616c-4436-9172-642e6b696361,v2.3.1*%
%TF.SameCoordinates,Original*%
%TF.FileFunction,Drillmap*%
%TF.FilePolarity,Positive*%
%FSLAX45Y45*%
G04 Gerber Fmt 4.5, Leading zero omitted, Abs format (unit mm)*
G04 Created by KiCad (PCBNEW 10.0.3) date 2026-08-10 11:08:37*
%MOMM*%
%LPD*%
G01*
G04 APERTURE LIST*
%ADD10C,0.100000*%
%ADD11C,0.200000*%
G04 APERTURE END LIST*
D10*
X0Y-318000D02*
G75*
G02*
X318000Y0I318000J0D01*
G01*
X0Y-5080000D02*
X0Y-318000D01*
X318000Y0D02*
X8242000Y0D01*
X318000Y-5398000D02*
G75*
G02*
X0Y-5080000I0J318000D01*
G01*
X8242000Y0D02*
G75*
G02*
X8560000Y-318000I0J-318000D01*
G01*
X8242000Y-5398000D02*
X318000Y-5398000D01*
X8560000Y-318000D02*
X8560000Y-5080000D01*
X8560000Y-5080000D02*
G75*
G02*
X8242000Y-5398000I-318000J0D01*
G01*
D11*
D10*
X245000Y-1185000D02*
X275000Y-1215000D01*
X275000Y-1185000D02*
X245000Y-1215000D01*
X399480Y-913530D02*
X429480Y-943530D01*
X429480Y-913530D02*
X399480Y-943530D01*
X480000Y-1453485D02*
X510000Y-1483485D01*
X510000Y-1453485D02*
X480000Y-1483485D01*
X640550Y-1054900D02*
X670550Y-1084900D01*
X670550Y-1054900D02*
X640550Y-1084900D01*
X699690Y-899920D02*
X729690Y-929920D01*
X729690Y-899920D02*
X699690Y-929920D01*
X752980Y-1046610D02*
X782980Y-1076610D01*
X782980Y-1046610D02*
X752980Y-1076610D01*
X760800Y-587600D02*
X790800Y-617600D01*
X790800Y-587600D02*
X760800Y-617600D01*
X905570Y-1019360D02*
X935570Y-1049360D01*
X935570Y-1019360D02*
X905570Y-1049360D01*
X1002730Y-1019730D02*
X1032730Y-1049730D01*
X1032730Y-1019730D02*
X1002730Y-1049730D01*
X1046740Y-4515010D02*
X1076740Y-4545010D01*
X1076740Y-4515010D02*
X1046740Y-4545010D01*
X1065600Y-558400D02*
X1095600Y-588400D01*
X1095600Y-558400D02*
X1065600Y-588400D01*
X1075000Y-705000D02*
X1105000Y-735000D01*
X1105000Y-705000D02*
X1075000Y-735000D01*
X1215000Y-605000D02*
X1245000Y-635000D01*
X1245000Y-605000D02*
X1215000Y-635000D01*
X1283758Y-1412195D02*
X1313758Y-1442195D01*
X1313758Y-1412195D02*
X1283758Y-1442195D01*
X1465000Y-245000D02*
X1495000Y-275000D01*
X1495000Y-245000D02*
X1465000Y-275000D01*
X1535000Y-1185000D02*
X1565000Y-1215000D01*
X1565000Y-1185000D02*
X1535000Y-1215000D01*
X1535000Y-2565000D02*
X1565000Y-2595000D01*
X1565000Y-2565000D02*
X1535000Y-2595000D01*
X1545000Y-805000D02*
X1575000Y-835000D01*
X1575000Y-805000D02*
X1545000Y-835000D01*
X1685200Y-937880D02*
X1715200Y-967880D01*
X1715200Y-937880D02*
X1685200Y-967880D01*
X1755000Y-2785000D02*
X1785000Y-2815000D01*
X1785000Y-2785000D02*
X1755000Y-2815000D01*
X1762150Y-2460850D02*
X1792150Y-2490850D01*
X1792150Y-2460850D02*
X1762150Y-2490850D01*
X1768530Y-766970D02*
X1798530Y-796970D01*
X1798530Y-766970D02*
X1768530Y-796970D01*
X1854620Y-1314920D02*
X1884620Y-1344920D01*
X1884620Y-1314920D02*
X1854620Y-1344920D01*
X1894790Y-1543340D02*
X1924790Y-1573340D01*
X1924790Y-1543340D02*
X1894790Y-1573340D01*
X1936528Y-3755085D02*
X1966528Y-3785085D01*
X1966528Y-3755085D02*
X1936528Y-3785085D01*
X2005000Y-735000D02*
X2035000Y-765000D01*
X2035000Y-735000D02*
X2005000Y-765000D01*
X2015000Y-1385000D02*
X2045000Y-1415000D01*
X2045000Y-1385000D02*
X2015000Y-1415000D01*
X2114480Y-1924190D02*
X2144480Y-1954190D01*
X2144480Y-1924190D02*
X2114480Y-1954190D01*
X2135000Y-2605000D02*
X2165000Y-2635000D01*
X2165000Y-2605000D02*
X2135000Y-2635000D01*
X2135000Y-2785000D02*
X2165000Y-2815000D01*
X2165000Y-2785000D02*
X2135000Y-2815000D01*
X2140550Y-3515940D02*
X2170550Y-3545940D01*
X2170550Y-3515940D02*
X2140550Y-3545940D01*
X2144520Y-2029400D02*
X2174520Y-2059400D01*
X2174520Y-2029400D02*
X2144520Y-2059400D01*
X2157680Y-2321490D02*
X2187680Y-2351490D01*
X2187680Y-2321490D02*
X2157680Y-2351490D01*
X2165000Y-835000D02*
X2195000Y-865000D01*
X2195000Y-835000D02*
X2165000Y-865000D01*
X2183790Y-1247950D02*
X2213790Y-1277950D01*
X2213790Y-1247950D02*
X2183790Y-1277950D01*
X2255000Y-1165000D02*
X2285000Y-1195000D01*
X2285000Y-1165000D02*
X2255000Y-1195000D01*
X2285000Y-515000D02*
X2315000Y-545000D01*
X2315000Y-515000D02*
X2285000Y-545000D01*
X2305000Y-1935000D02*
X2335000Y-1965000D01*
X2335000Y-1935000D02*
X2305000Y-1965000D01*
X2305000Y-2055000D02*
X2335000Y-2085000D01*
X2335000Y-2055000D02*
X2305000Y-2085000D01*
X2385000Y-785000D02*
X2415000Y-815000D01*
X2415000Y-785000D02*
X2385000Y-815000D01*
X2394730Y-650140D02*
X2424730Y-680140D01*
X2424730Y-650140D02*
X2394730Y-680140D01*
X2452060Y-2462620D02*
X2482060Y-2492620D01*
X2482060Y-2462620D02*
X2452060Y-2492620D01*
X2482290Y-2022800D02*
X2512290Y-2052800D01*
X2512290Y-2022800D02*
X2482290Y-2052800D01*
X2502290Y-2104690D02*
X2532290Y-2134690D01*
X2532290Y-2104690D02*
X2502290Y-2134690D01*
X2511420Y-2950780D02*
X2541420Y-2980780D01*
X2541420Y-2950780D02*
X2511420Y-2980780D01*
X2531500Y-4109780D02*
X2561500Y-4139780D01*
X2561500Y-4109780D02*
X2531500Y-4139780D01*
X2605000Y-575000D02*
X2635000Y-605000D01*
X2635000Y-575000D02*
X2605000Y-605000D01*
X2615000Y-825000D02*
X2645000Y-855000D01*
X2645000Y-825000D02*
X2615000Y-855000D01*
X2615000Y-935000D02*
X2645000Y-965000D01*
X2645000Y-935000D02*
X2615000Y-965000D01*
X2630040Y-1991210D02*
X2660040Y-2021210D01*
X2660040Y-1991210D02*
X2630040Y-2021210D01*
X2748600Y-368210D02*
X2778600Y-398210D01*
X2778600Y-368210D02*
X2748600Y-398210D01*
X2943430Y-425910D02*
X2973430Y-455910D01*
X2973430Y-425910D02*
X2943430Y-455910D01*
X3015000Y-785000D02*
X3045000Y-815000D01*
X3045000Y-785000D02*
X3015000Y-815000D01*
X3092697Y-2619258D02*
X3122697Y-2649258D01*
X3122697Y-2619258D02*
X3092697Y-2649258D01*
X3123517Y-2013775D02*
X3153517Y-2043775D01*
X3153517Y-2013775D02*
X3123517Y-2043775D01*
X3205000Y-445000D02*
X3235000Y-475000D01*
X3235000Y-445000D02*
X3205000Y-475000D01*
X3245440Y-1417880D02*
X3275440Y-1447880D01*
X3275440Y-1417880D02*
X3245440Y-1447880D01*
X3361290Y-2969140D02*
X3391290Y-2999140D01*
X3391290Y-2969140D02*
X3361290Y-2999140D01*
X3377510Y-1258180D02*
X3407510Y-1288180D01*
X3407510Y-1258180D02*
X3377510Y-1288180D01*
X3515000Y-175000D02*
X3545000Y-205000D01*
X3545000Y-175000D02*
X3515000Y-205000D01*
X3615000Y-1635000D02*
X3645000Y-1665000D01*
X3645000Y-1635000D02*
X3615000Y-1665000D01*
X3620561Y-2645553D02*
X3650561Y-2675553D01*
X3650561Y-2645553D02*
X3620561Y-2675553D01*
X3685000Y-3495000D02*
X3715000Y-3525000D01*
X3715000Y-3495000D02*
X3685000Y-3525000D01*
X3705000Y-445000D02*
X3735000Y-475000D01*
X3735000Y-445000D02*
X3705000Y-475000D01*
X3775000Y-1670000D02*
X3805000Y-1700000D01*
X3805000Y-1670000D02*
X3775000Y-1700000D01*
X3887500Y-3721900D02*
X3917500Y-3751900D01*
X3917500Y-3721900D02*
X3887500Y-3751900D01*
X3931770Y-3562630D02*
X3961770Y-3592630D01*
X3961770Y-3562630D02*
X3931770Y-3592630D01*
X3945000Y-1295000D02*
X3975000Y-1325000D01*
X3975000Y-1295000D02*
X3945000Y-1325000D01*
X4090660Y-1781800D02*
X4120660Y-1811800D01*
X4120660Y-1781800D02*
X4090660Y-1811800D01*
X4095000Y-825000D02*
X4125000Y-855000D01*
X4125000Y-825000D02*
X4095000Y-855000D01*
X4095000Y-1015000D02*
X4125000Y-1045000D01*
X4125000Y-1015000D02*
X4095000Y-1045000D01*
X4095000Y-3555000D02*
X4125000Y-3585000D01*
X4125000Y-3555000D02*
X4095000Y-3585000D01*
X4202100Y-2632600D02*
X4232100Y-2662600D01*
X4232100Y-2632600D02*
X4202100Y-2662600D01*
X4234440Y-1919490D02*
X4264440Y-1949490D01*
X4264440Y-1919490D02*
X4234440Y-1949490D01*
X4265000Y-815000D02*
X4295000Y-845000D01*
X4295000Y-815000D02*
X4265000Y-845000D01*
X4282700Y-1736910D02*
X4312700Y-1766910D01*
X4312700Y-1736910D02*
X4282700Y-1766910D01*
X4285000Y-225000D02*
X4315000Y-255000D01*
X4315000Y-225000D02*
X4285000Y-255000D01*
X4285000Y-5145000D02*
X4315000Y-5175000D01*
X4315000Y-5145000D02*
X4285000Y-5175000D01*
X4321530Y-1166000D02*
X4351530Y-1196000D01*
X4351530Y-1166000D02*
X4321530Y-1196000D01*
X4321530Y-4591260D02*
X4351530Y-4621260D01*
X4351530Y-4591260D02*
X4321530Y-4621260D01*
X4337539Y-3321464D02*
X4367539Y-3351464D01*
X4367539Y-3321464D02*
X4337539Y-3351464D01*
X4345190Y-2489600D02*
X4375190Y-2519600D01*
X4375190Y-2489600D02*
X4345190Y-2519600D01*
X4469240Y-423190D02*
X4499240Y-453190D01*
X4499240Y-423190D02*
X4469240Y-453190D01*
X4492617Y-1043854D02*
X4522617Y-1073854D01*
X4522617Y-1043854D02*
X4492617Y-1073854D01*
X4682112Y-1674720D02*
X4712112Y-1704720D01*
X4712112Y-1674720D02*
X4682112Y-1704720D01*
X4714800Y-985500D02*
X4744800Y-1015500D01*
X4744800Y-985500D02*
X4714800Y-1015500D01*
X4785000Y-2685000D02*
X4815000Y-2715000D01*
X4815000Y-2685000D02*
X4785000Y-2715000D01*
X4856860Y-2111790D02*
X4886860Y-2141790D01*
X4886860Y-2111790D02*
X4856860Y-2141790D01*
X4904960Y-1904490D02*
X4934960Y-1934490D01*
X4934960Y-1904490D02*
X4904960Y-1934490D01*
X4919840Y-436010D02*
X4949840Y-466010D01*
X4949840Y-436010D02*
X4919840Y-466010D01*
X4972453Y-1060425D02*
X5002453Y-1090425D01*
X5002453Y-1060425D02*
X4972453Y-1090425D01*
X5185000Y-3985000D02*
X5215000Y-4015000D01*
X5215000Y-3985000D02*
X5185000Y-4015000D01*
X5255000Y-3265000D02*
X5285000Y-3295000D01*
X5285000Y-3265000D02*
X5255000Y-3295000D01*
X5300500Y-323770D02*
X5330500Y-353770D01*
X5330500Y-323770D02*
X5300500Y-353770D01*
X5435130Y-4103881D02*
X5465130Y-4133881D01*
X5465130Y-4103881D02*
X5435130Y-4133881D01*
X5584163Y-1014849D02*
X5614162Y-1044849D01*
X5614162Y-1014849D02*
X5584163Y-1044849D01*
X5585000Y-3155000D02*
X5615000Y-3185000D01*
X5615000Y-3155000D02*
X5585000Y-3185000D01*
X5605000Y-615000D02*
X5635000Y-645000D01*
X5635000Y-615000D02*
X5605000Y-645000D01*
X5624480Y-515280D02*
X5654480Y-545280D01*
X5654480Y-515280D02*
X5624480Y-545280D01*
X5659792Y-1349219D02*
X5689792Y-1379219D01*
X5689792Y-1349219D02*
X5659792Y-1379219D01*
X5903141Y-4588516D02*
X5933141Y-4618516D01*
X5933141Y-4588516D02*
X5903141Y-4618516D01*
X6231936Y-4920608D02*
X6261936Y-4950608D01*
X6261936Y-4920608D02*
X6231936Y-4950608D01*
X6320900Y-3839920D02*
X6350900Y-3869920D01*
X6350900Y-3839920D02*
X6320900Y-3869920D01*
X6612000Y-719000D02*
X6642000Y-749000D01*
X6642000Y-719000D02*
X6612000Y-749000D01*
X6668410Y-3519890D02*
X6698410Y-3549890D01*
X6698410Y-3519890D02*
X6668410Y-3549890D01*
X6688660Y-4038540D02*
X6718660Y-4068540D01*
X6718660Y-4038540D02*
X6688660Y-4068540D01*
X6740430Y-4303380D02*
X6770430Y-4333380D01*
X6770430Y-4303380D02*
X6740430Y-4333380D01*
X6821620Y-3087330D02*
X6851620Y-3117330D01*
X6851620Y-3087330D02*
X6821620Y-3117330D01*
X6836784Y-673187D02*
X6866784Y-703187D01*
X6866784Y-673187D02*
X6836784Y-703187D01*
X6837600Y-2123970D02*
X6867600Y-2153970D01*
X6867600Y-2123970D02*
X6837600Y-2153970D01*
X6844850Y-1258180D02*
X6874850Y-1288180D01*
X6874850Y-1258180D02*
X6844850Y-1288180D01*
X6920000Y-1064750D02*
X6950000Y-1094750D01*
X6950000Y-1064750D02*
X6920000Y-1094750D01*
X6925000Y-875000D02*
X6955000Y-905000D01*
X6955000Y-875000D02*
X6925000Y-905000D01*
X6949670Y-3254360D02*
X6979670Y-3284360D01*
X6979670Y-3254360D02*
X6949670Y-3284360D01*
X6970090Y-1798810D02*
X7000090Y-1828810D01*
X7000090Y-1798810D02*
X6970090Y-1828810D01*
X6970180Y-2657810D02*
X7000180Y-2687810D01*
X7000180Y-2657810D02*
X6970180Y-2687810D01*
X7145000Y-1015000D02*
X7175000Y-1045000D01*
X7175000Y-1015000D02*
X7145000Y-1045000D01*
X7165000Y-935000D02*
X7195000Y-965000D01*
X7195000Y-935000D02*
X7165000Y-965000D01*
X7180939Y-3837971D02*
X7210939Y-3867971D01*
X7210939Y-3837971D02*
X7180939Y-3867971D01*
X7220000Y-1685000D02*
X7250000Y-1715000D01*
X7250000Y-1685000D02*
X7220000Y-1715000D01*
X7225000Y-1585000D02*
X7255000Y-1615000D01*
X7255000Y-1585000D02*
X7225000Y-1615000D01*
X7304000Y-1360000D02*
X7334000Y-1390000D01*
X7334000Y-1360000D02*
X7304000Y-1390000D01*
X7355000Y-405000D02*
X7385000Y-435000D01*
X7385000Y-405000D02*
X7355000Y-435000D01*
X7385000Y-1865000D02*
X7415000Y-1895000D01*
X7415000Y-1865000D02*
X7385000Y-1895000D01*
X7408847Y-557942D02*
X7438847Y-587942D01*
X7438847Y-557942D02*
X7408847Y-587942D01*
X7485000Y-405000D02*
X7515000Y-435000D01*
X7515000Y-405000D02*
X7485000Y-435000D01*
X7555000Y-1510000D02*
X7585000Y-1540000D01*
X7585000Y-1510000D02*
X7555000Y-1540000D01*
X7675000Y-495000D02*
X7705000Y-525000D01*
X7705000Y-495000D02*
X7675000Y-525000D01*
X7685000Y-2505000D02*
X7715000Y-2535000D01*
X7715000Y-2505000D02*
X7685000Y-2535000D01*
X7685000Y-3065000D02*
X7715000Y-3095000D01*
X7715000Y-3065000D02*
X7685000Y-3095000D01*
X7775000Y-1420000D02*
X7805000Y-1450000D01*
X7805000Y-1420000D02*
X7775000Y-1450000D01*
X7785000Y-915000D02*
X7815000Y-945000D01*
X7815000Y-915000D02*
X7785000Y-945000D01*
X7885000Y-705000D02*
X7915000Y-735000D01*
X7915000Y-705000D02*
X7885000Y-735000D01*
X7908000Y-1195000D02*
X7938000Y-1225000D01*
X7938000Y-1195000D02*
X7908000Y-1225000D01*
X7908000Y-1675000D02*
X7938000Y-1705000D01*
X7938000Y-1675000D02*
X7908000Y-1705000D01*
X8160000Y-2020000D02*
X8190000Y-2050000D01*
X8190000Y-2020000D02*
X8160000Y-2050000D01*
X8285000Y-1185000D02*
X8315000Y-1215000D01*
X8315000Y-1185000D02*
X8285000Y-1215000D01*
X8285000Y-2685000D02*
X8315000Y-2715000D01*
X8315000Y-2685000D02*
X8285000Y-2715000D01*
X8285000Y-5085000D02*
X8315000Y-5115000D01*
X8315000Y-5085000D02*
X8285000Y-5115000D01*
X815000Y-1420000D02*
G75*
G02*
X785000Y-1420000I-15000J0D01*
G01*
X785000Y-1420000D02*
G75*
G02*
X815000Y-1420000I15000J0D01*
G01*
X865000Y-2280000D02*
G75*
G02*
X835000Y-2280000I-15000J0D01*
G01*
X835000Y-2280000D02*
G75*
G02*
X865000Y-2280000I15000J0D01*
G01*
X7999000Y-977000D02*
X7999000Y-1057000D01*
X7959000Y-1017000D02*
X8039000Y-1017000D01*
X8039001Y-977000D02*
X7958999Y-977000D01*
X7958999Y-1057000D02*
G75*
G02*
X7958999Y-977000I0J40000D01*
G01*
X7958999Y-1057000D02*
X8039001Y-1057000D01*
X8039001Y-1057000D02*
G75*
G03*
X8039001Y-977000I0J40000D01*
G01*
X7999000Y-1843000D02*
X7999000Y-1923000D01*
X7959000Y-1883000D02*
X8039000Y-1883000D01*
X8038999Y-1843000D02*
X7959001Y-1843000D01*
X7959001Y-1923000D02*
G75*
G02*
X7959001Y-1843000I0J40000D01*
G01*
X7959001Y-1923000D02*
X8038999Y-1923000D01*
X8038999Y-1923000D02*
G75*
G03*
X8038999Y-1843000I0J40000D01*
G01*
X8417000Y-977000D02*
X8417000Y-1057000D01*
X8377000Y-1017000D02*
X8457000Y-1017000D01*
X8447000Y-977000D02*
X8387000Y-977000D01*
X8387000Y-1057000D02*
G75*
G02*
X8387000Y-977000I0J40000D01*
G01*
X8387000Y-1057000D02*
X8447000Y-1057000D01*
X8447000Y-1057000D02*
G75*
G03*
X8447000Y-977000I0J40000D01*
G01*
X8417000Y-1843000D02*
X8417000Y-1923000D01*
X8377000Y-1883000D02*
X8457000Y-1883000D01*
X8447000Y-1843000D02*
X8387000Y-1843000D01*
X8387000Y-1923000D02*
G75*
G02*
X8387000Y-1843000I0J40000D01*
G01*
X8387000Y-1923000D02*
X8447000Y-1923000D01*
X8447000Y-1923000D02*
G75*
G03*
X8447000Y-1843000I0J40000D01*
G01*
X8075517Y-1186517D02*
X8075517Y-1133483D01*
X8022483Y-1133483D01*
X8022483Y-1186517D01*
X8075517Y-1186517D01*
X8075517Y-1766517D02*
X8075517Y-1713483D01*
X8022483Y-1713483D01*
X8022483Y-1766517D01*
X8075517Y-1766517D01*
X8145500Y-2692500D02*
X8188000Y-2650000D01*
X8145500Y-2607500D01*
X8103000Y-2650000D01*
X8145500Y-2692500D01*
X8145500Y-2992500D02*
X8188000Y-2950000D01*
X8145500Y-2907500D01*
X8103000Y-2950000D01*
X8145500Y-2992500D01*
D11*
X255777Y-5714484D02*
X255777Y-5514484D01*
X255777Y-5514484D02*
X303396Y-5514484D01*
X303396Y-5514484D02*
X331967Y-5524008D01*
X331967Y-5524008D02*
X351015Y-5543055D01*
X351015Y-5543055D02*
X360539Y-5562103D01*
X360539Y-5562103D02*
X370062Y-5600198D01*
X370062Y-5600198D02*
X370062Y-5628769D01*
X370062Y-5628769D02*
X360539Y-5666865D01*
X360539Y-5666865D02*
X351015Y-5685912D01*
X351015Y-5685912D02*
X331967Y-5704960D01*
X331967Y-5704960D02*
X303396Y-5714484D01*
X303396Y-5714484D02*
X255777Y-5714484D01*
X455777Y-5714484D02*
X455777Y-5581150D01*
X455777Y-5619246D02*
X465301Y-5600198D01*
X465301Y-5600198D02*
X474824Y-5590674D01*
X474824Y-5590674D02*
X493872Y-5581150D01*
X493872Y-5581150D02*
X512920Y-5581150D01*
X579586Y-5714484D02*
X579586Y-5581150D01*
X579586Y-5514484D02*
X570063Y-5524008D01*
X570063Y-5524008D02*
X579586Y-5533531D01*
X579586Y-5533531D02*
X589110Y-5524008D01*
X589110Y-5524008D02*
X579586Y-5514484D01*
X579586Y-5514484D02*
X579586Y-5533531D01*
X703396Y-5714484D02*
X684348Y-5704960D01*
X684348Y-5704960D02*
X674824Y-5685912D01*
X674824Y-5685912D02*
X674824Y-5514484D01*
X808158Y-5714484D02*
X789110Y-5704960D01*
X789110Y-5704960D02*
X779586Y-5685912D01*
X779586Y-5685912D02*
X779586Y-5514484D01*
X1036729Y-5714484D02*
X1036729Y-5514484D01*
X1036729Y-5514484D02*
X1103396Y-5657341D01*
X1103396Y-5657341D02*
X1170063Y-5514484D01*
X1170063Y-5514484D02*
X1170063Y-5714484D01*
X1351015Y-5714484D02*
X1351015Y-5609722D01*
X1351015Y-5609722D02*
X1341491Y-5590674D01*
X1341491Y-5590674D02*
X1322444Y-5581150D01*
X1322444Y-5581150D02*
X1284348Y-5581150D01*
X1284348Y-5581150D02*
X1265301Y-5590674D01*
X1351015Y-5704960D02*
X1331967Y-5714484D01*
X1331967Y-5714484D02*
X1284348Y-5714484D01*
X1284348Y-5714484D02*
X1265301Y-5704960D01*
X1265301Y-5704960D02*
X1255777Y-5685912D01*
X1255777Y-5685912D02*
X1255777Y-5666865D01*
X1255777Y-5666865D02*
X1265301Y-5647817D01*
X1265301Y-5647817D02*
X1284348Y-5638293D01*
X1284348Y-5638293D02*
X1331967Y-5638293D01*
X1331967Y-5638293D02*
X1351015Y-5628769D01*
X1446253Y-5581150D02*
X1446253Y-5781150D01*
X1446253Y-5590674D02*
X1465301Y-5581150D01*
X1465301Y-5581150D02*
X1503396Y-5581150D01*
X1503396Y-5581150D02*
X1522443Y-5590674D01*
X1522443Y-5590674D02*
X1531967Y-5600198D01*
X1531967Y-5600198D02*
X1541491Y-5619246D01*
X1541491Y-5619246D02*
X1541491Y-5676388D01*
X1541491Y-5676388D02*
X1531967Y-5695436D01*
X1531967Y-5695436D02*
X1522443Y-5704960D01*
X1522443Y-5704960D02*
X1503396Y-5714484D01*
X1503396Y-5714484D02*
X1465301Y-5714484D01*
X1465301Y-5714484D02*
X1446253Y-5704960D01*
X1627205Y-5695436D02*
X1636729Y-5704960D01*
X1636729Y-5704960D02*
X1627205Y-5714484D01*
X1627205Y-5714484D02*
X1617682Y-5704960D01*
X1617682Y-5704960D02*
X1627205Y-5695436D01*
X1627205Y-5695436D02*
X1627205Y-5714484D01*
X1627205Y-5590674D02*
X1636729Y-5600198D01*
X1636729Y-5600198D02*
X1627205Y-5609722D01*
X1627205Y-5609722D02*
X1617682Y-5600198D01*
X1617682Y-5600198D02*
X1627205Y-5590674D01*
X1627205Y-5590674D02*
X1627205Y-5609722D01*
D10*
X-35000Y-6028000D02*
X-5000Y-6058000D01*
X-5000Y-6028000D02*
X-35000Y-6058000D01*
D11*
X293872Y-5934484D02*
X312920Y-5934484D01*
X312920Y-5934484D02*
X331967Y-5944008D01*
X331967Y-5944008D02*
X341491Y-5953531D01*
X341491Y-5953531D02*
X351015Y-5972579D01*
X351015Y-5972579D02*
X360539Y-6010674D01*
X360539Y-6010674D02*
X360539Y-6058293D01*
X360539Y-6058293D02*
X351015Y-6096388D01*
X351015Y-6096388D02*
X341491Y-6115436D01*
X341491Y-6115436D02*
X331967Y-6124960D01*
X331967Y-6124960D02*
X312920Y-6134484D01*
X312920Y-6134484D02*
X293872Y-6134484D01*
X293872Y-6134484D02*
X274824Y-6124960D01*
X274824Y-6124960D02*
X265301Y-6115436D01*
X265301Y-6115436D02*
X255777Y-6096388D01*
X255777Y-6096388D02*
X246253Y-6058293D01*
X246253Y-6058293D02*
X246253Y-6010674D01*
X246253Y-6010674D02*
X255777Y-5972579D01*
X255777Y-5972579D02*
X265301Y-5953531D01*
X265301Y-5953531D02*
X274824Y-5944008D01*
X274824Y-5944008D02*
X293872Y-5934484D01*
X446253Y-6115436D02*
X455777Y-6124960D01*
X455777Y-6124960D02*
X446253Y-6134484D01*
X446253Y-6134484D02*
X436729Y-6124960D01*
X436729Y-6124960D02*
X446253Y-6115436D01*
X446253Y-6115436D02*
X446253Y-6134484D01*
X522443Y-5934484D02*
X646253Y-5934484D01*
X646253Y-5934484D02*
X579586Y-6010674D01*
X579586Y-6010674D02*
X608158Y-6010674D01*
X608158Y-6010674D02*
X627205Y-6020198D01*
X627205Y-6020198D02*
X636729Y-6029722D01*
X636729Y-6029722D02*
X646253Y-6048769D01*
X646253Y-6048769D02*
X646253Y-6096388D01*
X646253Y-6096388D02*
X636729Y-6115436D01*
X636729Y-6115436D02*
X627205Y-6124960D01*
X627205Y-6124960D02*
X608158Y-6134484D01*
X608158Y-6134484D02*
X551015Y-6134484D01*
X551015Y-6134484D02*
X531967Y-6124960D01*
X531967Y-6124960D02*
X522443Y-6115436D01*
X770062Y-5934484D02*
X789110Y-5934484D01*
X789110Y-5934484D02*
X808158Y-5944008D01*
X808158Y-5944008D02*
X817682Y-5953531D01*
X817682Y-5953531D02*
X827205Y-5972579D01*
X827205Y-5972579D02*
X836729Y-6010674D01*
X836729Y-6010674D02*
X836729Y-6058293D01*
X836729Y-6058293D02*
X827205Y-6096388D01*
X827205Y-6096388D02*
X817682Y-6115436D01*
X817682Y-6115436D02*
X808158Y-6124960D01*
X808158Y-6124960D02*
X789110Y-6134484D01*
X789110Y-6134484D02*
X770062Y-6134484D01*
X770062Y-6134484D02*
X751015Y-6124960D01*
X751015Y-6124960D02*
X741491Y-6115436D01*
X741491Y-6115436D02*
X731967Y-6096388D01*
X731967Y-6096388D02*
X722443Y-6058293D01*
X722443Y-6058293D02*
X722443Y-6010674D01*
X722443Y-6010674D02*
X731967Y-5972579D01*
X731967Y-5972579D02*
X741491Y-5953531D01*
X741491Y-5953531D02*
X751015Y-5944008D01*
X751015Y-5944008D02*
X770062Y-5934484D01*
X960539Y-5934484D02*
X979586Y-5934484D01*
X979586Y-5934484D02*
X998634Y-5944008D01*
X998634Y-5944008D02*
X1008158Y-5953531D01*
X1008158Y-5953531D02*
X1017682Y-5972579D01*
X1017682Y-5972579D02*
X1027205Y-6010674D01*
X1027205Y-6010674D02*
X1027205Y-6058293D01*
X1027205Y-6058293D02*
X1017682Y-6096388D01*
X1017682Y-6096388D02*
X1008158Y-6115436D01*
X1008158Y-6115436D02*
X998634Y-6124960D01*
X998634Y-6124960D02*
X979586Y-6134484D01*
X979586Y-6134484D02*
X960539Y-6134484D01*
X960539Y-6134484D02*
X941491Y-6124960D01*
X941491Y-6124960D02*
X931967Y-6115436D01*
X931967Y-6115436D02*
X922443Y-6096388D01*
X922443Y-6096388D02*
X912920Y-6058293D01*
X912920Y-6058293D02*
X912920Y-6010674D01*
X912920Y-6010674D02*
X922443Y-5972579D01*
X922443Y-5972579D02*
X931967Y-5953531D01*
X931967Y-5953531D02*
X941491Y-5944008D01*
X941491Y-5944008D02*
X960539Y-5934484D01*
X1112920Y-6134484D02*
X1112920Y-6001150D01*
X1112920Y-6020198D02*
X1122444Y-6010674D01*
X1122444Y-6010674D02*
X1141491Y-6001150D01*
X1141491Y-6001150D02*
X1170063Y-6001150D01*
X1170063Y-6001150D02*
X1189110Y-6010674D01*
X1189110Y-6010674D02*
X1198634Y-6029722D01*
X1198634Y-6029722D02*
X1198634Y-6134484D01*
X1198634Y-6029722D02*
X1208158Y-6010674D01*
X1208158Y-6010674D02*
X1227205Y-6001150D01*
X1227205Y-6001150D02*
X1255777Y-6001150D01*
X1255777Y-6001150D02*
X1274825Y-6010674D01*
X1274825Y-6010674D02*
X1284348Y-6029722D01*
X1284348Y-6029722D02*
X1284348Y-6134484D01*
X1379586Y-6134484D02*
X1379586Y-6001150D01*
X1379586Y-6020198D02*
X1389110Y-6010674D01*
X1389110Y-6010674D02*
X1408158Y-6001150D01*
X1408158Y-6001150D02*
X1436729Y-6001150D01*
X1436729Y-6001150D02*
X1455777Y-6010674D01*
X1455777Y-6010674D02*
X1465301Y-6029722D01*
X1465301Y-6029722D02*
X1465301Y-6134484D01*
X1465301Y-6029722D02*
X1474824Y-6010674D01*
X1474824Y-6010674D02*
X1493872Y-6001150D01*
X1493872Y-6001150D02*
X1522443Y-6001150D01*
X1522443Y-6001150D02*
X1541491Y-6010674D01*
X1541491Y-6010674D02*
X1551015Y-6029722D01*
X1551015Y-6029722D02*
X1551015Y-6134484D01*
X1941491Y-5924960D02*
X1770063Y-6182103D01*
X2198634Y-5934484D02*
X2217682Y-5934484D01*
X2217682Y-5934484D02*
X2236729Y-5944008D01*
X2236729Y-5944008D02*
X2246253Y-5953531D01*
X2246253Y-5953531D02*
X2255777Y-5972579D01*
X2255777Y-5972579D02*
X2265301Y-6010674D01*
X2265301Y-6010674D02*
X2265301Y-6058293D01*
X2265301Y-6058293D02*
X2255777Y-6096388D01*
X2255777Y-6096388D02*
X2246253Y-6115436D01*
X2246253Y-6115436D02*
X2236729Y-6124960D01*
X2236729Y-6124960D02*
X2217682Y-6134484D01*
X2217682Y-6134484D02*
X2198634Y-6134484D01*
X2198634Y-6134484D02*
X2179587Y-6124960D01*
X2179587Y-6124960D02*
X2170063Y-6115436D01*
X2170063Y-6115436D02*
X2160539Y-6096388D01*
X2160539Y-6096388D02*
X2151015Y-6058293D01*
X2151015Y-6058293D02*
X2151015Y-6010674D01*
X2151015Y-6010674D02*
X2160539Y-5972579D01*
X2160539Y-5972579D02*
X2170063Y-5953531D01*
X2170063Y-5953531D02*
X2179587Y-5944008D01*
X2179587Y-5944008D02*
X2198634Y-5934484D01*
X2351015Y-6115436D02*
X2360539Y-6124960D01*
X2360539Y-6124960D02*
X2351015Y-6134484D01*
X2351015Y-6134484D02*
X2341491Y-6124960D01*
X2341491Y-6124960D02*
X2351015Y-6115436D01*
X2351015Y-6115436D02*
X2351015Y-6134484D01*
X2484348Y-5934484D02*
X2503396Y-5934484D01*
X2503396Y-5934484D02*
X2522444Y-5944008D01*
X2522444Y-5944008D02*
X2531968Y-5953531D01*
X2531968Y-5953531D02*
X2541491Y-5972579D01*
X2541491Y-5972579D02*
X2551015Y-6010674D01*
X2551015Y-6010674D02*
X2551015Y-6058293D01*
X2551015Y-6058293D02*
X2541491Y-6096388D01*
X2541491Y-6096388D02*
X2531968Y-6115436D01*
X2531968Y-6115436D02*
X2522444Y-6124960D01*
X2522444Y-6124960D02*
X2503396Y-6134484D01*
X2503396Y-6134484D02*
X2484348Y-6134484D01*
X2484348Y-6134484D02*
X2465301Y-6124960D01*
X2465301Y-6124960D02*
X2455777Y-6115436D01*
X2455777Y-6115436D02*
X2446253Y-6096388D01*
X2446253Y-6096388D02*
X2436729Y-6058293D01*
X2436729Y-6058293D02*
X2436729Y-6010674D01*
X2436729Y-6010674D02*
X2446253Y-5972579D01*
X2446253Y-5972579D02*
X2455777Y-5953531D01*
X2455777Y-5953531D02*
X2465301Y-5944008D01*
X2465301Y-5944008D02*
X2484348Y-5934484D01*
X2741491Y-6134484D02*
X2627206Y-6134484D01*
X2684348Y-6134484D02*
X2684348Y-5934484D01*
X2684348Y-5934484D02*
X2665301Y-5963055D01*
X2665301Y-5963055D02*
X2646253Y-5982103D01*
X2646253Y-5982103D02*
X2627206Y-5991627D01*
X2931967Y-6134484D02*
X2817682Y-6134484D01*
X2874825Y-6134484D02*
X2874825Y-5934484D01*
X2874825Y-5934484D02*
X2855777Y-5963055D01*
X2855777Y-5963055D02*
X2836729Y-5982103D01*
X2836729Y-5982103D02*
X2817682Y-5991627D01*
X3046253Y-6020198D02*
X3027206Y-6010674D01*
X3027206Y-6010674D02*
X3017682Y-6001150D01*
X3017682Y-6001150D02*
X3008158Y-5982103D01*
X3008158Y-5982103D02*
X3008158Y-5972579D01*
X3008158Y-5972579D02*
X3017682Y-5953531D01*
X3017682Y-5953531D02*
X3027206Y-5944008D01*
X3027206Y-5944008D02*
X3046253Y-5934484D01*
X3046253Y-5934484D02*
X3084348Y-5934484D01*
X3084348Y-5934484D02*
X3103396Y-5944008D01*
X3103396Y-5944008D02*
X3112920Y-5953531D01*
X3112920Y-5953531D02*
X3122444Y-5972579D01*
X3122444Y-5972579D02*
X3122444Y-5982103D01*
X3122444Y-5982103D02*
X3112920Y-6001150D01*
X3112920Y-6001150D02*
X3103396Y-6010674D01*
X3103396Y-6010674D02*
X3084348Y-6020198D01*
X3084348Y-6020198D02*
X3046253Y-6020198D01*
X3046253Y-6020198D02*
X3027206Y-6029722D01*
X3027206Y-6029722D02*
X3017682Y-6039246D01*
X3017682Y-6039246D02*
X3008158Y-6058293D01*
X3008158Y-6058293D02*
X3008158Y-6096388D01*
X3008158Y-6096388D02*
X3017682Y-6115436D01*
X3017682Y-6115436D02*
X3027206Y-6124960D01*
X3027206Y-6124960D02*
X3046253Y-6134484D01*
X3046253Y-6134484D02*
X3084348Y-6134484D01*
X3084348Y-6134484D02*
X3103396Y-6124960D01*
X3103396Y-6124960D02*
X3112920Y-6115436D01*
X3112920Y-6115436D02*
X3122444Y-6096388D01*
X3122444Y-6096388D02*
X3122444Y-6058293D01*
X3122444Y-6058293D02*
X3112920Y-6039246D01*
X3112920Y-6039246D02*
X3103396Y-6029722D01*
X3103396Y-6029722D02*
X3084348Y-6020198D01*
X3198634Y-5934484D02*
X3198634Y-5972579D01*
X3274825Y-5934484D02*
X3274825Y-5972579D01*
X3570063Y-6210674D02*
X3560539Y-6201150D01*
X3560539Y-6201150D02*
X3541491Y-6172579D01*
X3541491Y-6172579D02*
X3531968Y-6153531D01*
X3531968Y-6153531D02*
X3522444Y-6124960D01*
X3522444Y-6124960D02*
X3512920Y-6077341D01*
X3512920Y-6077341D02*
X3512920Y-6039246D01*
X3512920Y-6039246D02*
X3522444Y-5991627D01*
X3522444Y-5991627D02*
X3531968Y-5963055D01*
X3531968Y-5963055D02*
X3541491Y-5944008D01*
X3541491Y-5944008D02*
X3560539Y-5915436D01*
X3560539Y-5915436D02*
X3570063Y-5905912D01*
X3751015Y-6134484D02*
X3636729Y-6134484D01*
X3693872Y-6134484D02*
X3693872Y-5934484D01*
X3693872Y-5934484D02*
X3674825Y-5963055D01*
X3674825Y-5963055D02*
X3655777Y-5982103D01*
X3655777Y-5982103D02*
X3636729Y-5991627D01*
X3817682Y-5934484D02*
X3941491Y-5934484D01*
X3941491Y-5934484D02*
X3874825Y-6010674D01*
X3874825Y-6010674D02*
X3903396Y-6010674D01*
X3903396Y-6010674D02*
X3922444Y-6020198D01*
X3922444Y-6020198D02*
X3931968Y-6029722D01*
X3931968Y-6029722D02*
X3941491Y-6048769D01*
X3941491Y-6048769D02*
X3941491Y-6096388D01*
X3941491Y-6096388D02*
X3931968Y-6115436D01*
X3931968Y-6115436D02*
X3922444Y-6124960D01*
X3922444Y-6124960D02*
X3903396Y-6134484D01*
X3903396Y-6134484D02*
X3846253Y-6134484D01*
X3846253Y-6134484D02*
X3827206Y-6124960D01*
X3827206Y-6124960D02*
X3817682Y-6115436D01*
X4036729Y-6134484D02*
X4074825Y-6134484D01*
X4074825Y-6134484D02*
X4093872Y-6124960D01*
X4093872Y-6124960D02*
X4103396Y-6115436D01*
X4103396Y-6115436D02*
X4122444Y-6086865D01*
X4122444Y-6086865D02*
X4131968Y-6048769D01*
X4131968Y-6048769D02*
X4131968Y-5972579D01*
X4131968Y-5972579D02*
X4122444Y-5953531D01*
X4122444Y-5953531D02*
X4112920Y-5944008D01*
X4112920Y-5944008D02*
X4093872Y-5934484D01*
X4093872Y-5934484D02*
X4055777Y-5934484D01*
X4055777Y-5934484D02*
X4036729Y-5944008D01*
X4036729Y-5944008D02*
X4027206Y-5953531D01*
X4027206Y-5953531D02*
X4017682Y-5972579D01*
X4017682Y-5972579D02*
X4017682Y-6020198D01*
X4017682Y-6020198D02*
X4027206Y-6039246D01*
X4027206Y-6039246D02*
X4036729Y-6048769D01*
X4036729Y-6048769D02*
X4055777Y-6058293D01*
X4055777Y-6058293D02*
X4093872Y-6058293D01*
X4093872Y-6058293D02*
X4112920Y-6048769D01*
X4112920Y-6048769D02*
X4122444Y-6039246D01*
X4122444Y-6039246D02*
X4131968Y-6020198D01*
X4370063Y-6134484D02*
X4370063Y-5934484D01*
X4455777Y-6134484D02*
X4455777Y-6029722D01*
X4455777Y-6029722D02*
X4446253Y-6010674D01*
X4446253Y-6010674D02*
X4427206Y-6001150D01*
X4427206Y-6001150D02*
X4398634Y-6001150D01*
X4398634Y-6001150D02*
X4379587Y-6010674D01*
X4379587Y-6010674D02*
X4370063Y-6020198D01*
X4579587Y-6134484D02*
X4560539Y-6124960D01*
X4560539Y-6124960D02*
X4551015Y-6115436D01*
X4551015Y-6115436D02*
X4541492Y-6096388D01*
X4541492Y-6096388D02*
X4541492Y-6039246D01*
X4541492Y-6039246D02*
X4551015Y-6020198D01*
X4551015Y-6020198D02*
X4560539Y-6010674D01*
X4560539Y-6010674D02*
X4579587Y-6001150D01*
X4579587Y-6001150D02*
X4608158Y-6001150D01*
X4608158Y-6001150D02*
X4627206Y-6010674D01*
X4627206Y-6010674D02*
X4636730Y-6020198D01*
X4636730Y-6020198D02*
X4646253Y-6039246D01*
X4646253Y-6039246D02*
X4646253Y-6096388D01*
X4646253Y-6096388D02*
X4636730Y-6115436D01*
X4636730Y-6115436D02*
X4627206Y-6124960D01*
X4627206Y-6124960D02*
X4608158Y-6134484D01*
X4608158Y-6134484D02*
X4579587Y-6134484D01*
X4760539Y-6134484D02*
X4741492Y-6124960D01*
X4741492Y-6124960D02*
X4731968Y-6105912D01*
X4731968Y-6105912D02*
X4731968Y-5934484D01*
X4912920Y-6124960D02*
X4893873Y-6134484D01*
X4893873Y-6134484D02*
X4855777Y-6134484D01*
X4855777Y-6134484D02*
X4836730Y-6124960D01*
X4836730Y-6124960D02*
X4827206Y-6105912D01*
X4827206Y-6105912D02*
X4827206Y-6029722D01*
X4827206Y-6029722D02*
X4836730Y-6010674D01*
X4836730Y-6010674D02*
X4855777Y-6001150D01*
X4855777Y-6001150D02*
X4893873Y-6001150D01*
X4893873Y-6001150D02*
X4912920Y-6010674D01*
X4912920Y-6010674D02*
X4922444Y-6029722D01*
X4922444Y-6029722D02*
X4922444Y-6048769D01*
X4922444Y-6048769D02*
X4827206Y-6067817D01*
X4998634Y-6124960D02*
X5017682Y-6134484D01*
X5017682Y-6134484D02*
X5055777Y-6134484D01*
X5055777Y-6134484D02*
X5074825Y-6124960D01*
X5074825Y-6124960D02*
X5084349Y-6105912D01*
X5084349Y-6105912D02*
X5084349Y-6096388D01*
X5084349Y-6096388D02*
X5074825Y-6077341D01*
X5074825Y-6077341D02*
X5055777Y-6067817D01*
X5055777Y-6067817D02*
X5027206Y-6067817D01*
X5027206Y-6067817D02*
X5008158Y-6058293D01*
X5008158Y-6058293D02*
X4998634Y-6039246D01*
X4998634Y-6039246D02*
X4998634Y-6029722D01*
X4998634Y-6029722D02*
X5008158Y-6010674D01*
X5008158Y-6010674D02*
X5027206Y-6001150D01*
X5027206Y-6001150D02*
X5055777Y-6001150D01*
X5055777Y-6001150D02*
X5074825Y-6010674D01*
X5151015Y-6210674D02*
X5160539Y-6201150D01*
X5160539Y-6201150D02*
X5179587Y-6172579D01*
X5179587Y-6172579D02*
X5189111Y-6153531D01*
X5189111Y-6153531D02*
X5198634Y-6124960D01*
X5198634Y-6124960D02*
X5208158Y-6077341D01*
X5208158Y-6077341D02*
X5208158Y-6039246D01*
X5208158Y-6039246D02*
X5198634Y-5991627D01*
X5198634Y-5991627D02*
X5189111Y-5963055D01*
X5189111Y-5963055D02*
X5179587Y-5944008D01*
X5179587Y-5944008D02*
X5160539Y-5915436D01*
X5160539Y-5915436D02*
X5151015Y-5905912D01*
D10*
X-5000Y-6307000D02*
G75*
G02*
X-35000Y-6307000I-15000J0D01*
G01*
X-35000Y-6307000D02*
G75*
G02*
X-5000Y-6307000I15000J0D01*
G01*
D11*
X293872Y-6198484D02*
X312920Y-6198484D01*
X312920Y-6198484D02*
X331967Y-6208008D01*
X331967Y-6208008D02*
X341491Y-6217531D01*
X341491Y-6217531D02*
X351015Y-6236579D01*
X351015Y-6236579D02*
X360539Y-6274674D01*
X360539Y-6274674D02*
X360539Y-6322293D01*
X360539Y-6322293D02*
X351015Y-6360388D01*
X351015Y-6360388D02*
X341491Y-6379436D01*
X341491Y-6379436D02*
X331967Y-6388960D01*
X331967Y-6388960D02*
X312920Y-6398484D01*
X312920Y-6398484D02*
X293872Y-6398484D01*
X293872Y-6398484D02*
X274824Y-6388960D01*
X274824Y-6388960D02*
X265301Y-6379436D01*
X265301Y-6379436D02*
X255777Y-6360388D01*
X255777Y-6360388D02*
X246253Y-6322293D01*
X246253Y-6322293D02*
X246253Y-6274674D01*
X246253Y-6274674D02*
X255777Y-6236579D01*
X255777Y-6236579D02*
X265301Y-6217531D01*
X265301Y-6217531D02*
X274824Y-6208008D01*
X274824Y-6208008D02*
X293872Y-6198484D01*
X446253Y-6379436D02*
X455777Y-6388960D01*
X455777Y-6388960D02*
X446253Y-6398484D01*
X446253Y-6398484D02*
X436729Y-6388960D01*
X436729Y-6388960D02*
X446253Y-6379436D01*
X446253Y-6379436D02*
X446253Y-6398484D01*
X522443Y-6198484D02*
X646253Y-6198484D01*
X646253Y-6198484D02*
X579586Y-6274674D01*
X579586Y-6274674D02*
X608158Y-6274674D01*
X608158Y-6274674D02*
X627205Y-6284198D01*
X627205Y-6284198D02*
X636729Y-6293722D01*
X636729Y-6293722D02*
X646253Y-6312769D01*
X646253Y-6312769D02*
X646253Y-6360388D01*
X646253Y-6360388D02*
X636729Y-6379436D01*
X636729Y-6379436D02*
X627205Y-6388960D01*
X627205Y-6388960D02*
X608158Y-6398484D01*
X608158Y-6398484D02*
X551015Y-6398484D01*
X551015Y-6398484D02*
X531967Y-6388960D01*
X531967Y-6388960D02*
X522443Y-6379436D01*
X770062Y-6198484D02*
X789110Y-6198484D01*
X789110Y-6198484D02*
X808158Y-6208008D01*
X808158Y-6208008D02*
X817682Y-6217531D01*
X817682Y-6217531D02*
X827205Y-6236579D01*
X827205Y-6236579D02*
X836729Y-6274674D01*
X836729Y-6274674D02*
X836729Y-6322293D01*
X836729Y-6322293D02*
X827205Y-6360388D01*
X827205Y-6360388D02*
X817682Y-6379436D01*
X817682Y-6379436D02*
X808158Y-6388960D01*
X808158Y-6388960D02*
X789110Y-6398484D01*
X789110Y-6398484D02*
X770062Y-6398484D01*
X770062Y-6398484D02*
X751015Y-6388960D01*
X751015Y-6388960D02*
X741491Y-6379436D01*
X741491Y-6379436D02*
X731967Y-6360388D01*
X731967Y-6360388D02*
X722443Y-6322293D01*
X722443Y-6322293D02*
X722443Y-6274674D01*
X722443Y-6274674D02*
X731967Y-6236579D01*
X731967Y-6236579D02*
X741491Y-6217531D01*
X741491Y-6217531D02*
X751015Y-6208008D01*
X751015Y-6208008D02*
X770062Y-6198484D01*
X960539Y-6198484D02*
X979586Y-6198484D01*
X979586Y-6198484D02*
X998634Y-6208008D01*
X998634Y-6208008D02*
X1008158Y-6217531D01*
X1008158Y-6217531D02*
X1017682Y-6236579D01*
X1017682Y-6236579D02*
X1027205Y-6274674D01*
X1027205Y-6274674D02*
X1027205Y-6322293D01*
X1027205Y-6322293D02*
X1017682Y-6360388D01*
X1017682Y-6360388D02*
X1008158Y-6379436D01*
X1008158Y-6379436D02*
X998634Y-6388960D01*
X998634Y-6388960D02*
X979586Y-6398484D01*
X979586Y-6398484D02*
X960539Y-6398484D01*
X960539Y-6398484D02*
X941491Y-6388960D01*
X941491Y-6388960D02*
X931967Y-6379436D01*
X931967Y-6379436D02*
X922443Y-6360388D01*
X922443Y-6360388D02*
X912920Y-6322293D01*
X912920Y-6322293D02*
X912920Y-6274674D01*
X912920Y-6274674D02*
X922443Y-6236579D01*
X922443Y-6236579D02*
X931967Y-6217531D01*
X931967Y-6217531D02*
X941491Y-6208008D01*
X941491Y-6208008D02*
X960539Y-6198484D01*
X1112920Y-6398484D02*
X1112920Y-6265150D01*
X1112920Y-6284198D02*
X1122444Y-6274674D01*
X1122444Y-6274674D02*
X1141491Y-6265150D01*
X1141491Y-6265150D02*
X1170063Y-6265150D01*
X1170063Y-6265150D02*
X1189110Y-6274674D01*
X1189110Y-6274674D02*
X1198634Y-6293722D01*
X1198634Y-6293722D02*
X1198634Y-6398484D01*
X1198634Y-6293722D02*
X1208158Y-6274674D01*
X1208158Y-6274674D02*
X1227205Y-6265150D01*
X1227205Y-6265150D02*
X1255777Y-6265150D01*
X1255777Y-6265150D02*
X1274825Y-6274674D01*
X1274825Y-6274674D02*
X1284348Y-6293722D01*
X1284348Y-6293722D02*
X1284348Y-6398484D01*
X1379586Y-6398484D02*
X1379586Y-6265150D01*
X1379586Y-6284198D02*
X1389110Y-6274674D01*
X1389110Y-6274674D02*
X1408158Y-6265150D01*
X1408158Y-6265150D02*
X1436729Y-6265150D01*
X1436729Y-6265150D02*
X1455777Y-6274674D01*
X1455777Y-6274674D02*
X1465301Y-6293722D01*
X1465301Y-6293722D02*
X1465301Y-6398484D01*
X1465301Y-6293722D02*
X1474824Y-6274674D01*
X1474824Y-6274674D02*
X1493872Y-6265150D01*
X1493872Y-6265150D02*
X1522443Y-6265150D01*
X1522443Y-6265150D02*
X1541491Y-6274674D01*
X1541491Y-6274674D02*
X1551015Y-6293722D01*
X1551015Y-6293722D02*
X1551015Y-6398484D01*
X1941491Y-6188960D02*
X1770063Y-6446103D01*
X2198634Y-6198484D02*
X2217682Y-6198484D01*
X2217682Y-6198484D02*
X2236729Y-6208008D01*
X2236729Y-6208008D02*
X2246253Y-6217531D01*
X2246253Y-6217531D02*
X2255777Y-6236579D01*
X2255777Y-6236579D02*
X2265301Y-6274674D01*
X2265301Y-6274674D02*
X2265301Y-6322293D01*
X2265301Y-6322293D02*
X2255777Y-6360388D01*
X2255777Y-6360388D02*
X2246253Y-6379436D01*
X2246253Y-6379436D02*
X2236729Y-6388960D01*
X2236729Y-6388960D02*
X2217682Y-6398484D01*
X2217682Y-6398484D02*
X2198634Y-6398484D01*
X2198634Y-6398484D02*
X2179587Y-6388960D01*
X2179587Y-6388960D02*
X2170063Y-6379436D01*
X2170063Y-6379436D02*
X2160539Y-6360388D01*
X2160539Y-6360388D02*
X2151015Y-6322293D01*
X2151015Y-6322293D02*
X2151015Y-6274674D01*
X2151015Y-6274674D02*
X2160539Y-6236579D01*
X2160539Y-6236579D02*
X2170063Y-6217531D01*
X2170063Y-6217531D02*
X2179587Y-6208008D01*
X2179587Y-6208008D02*
X2198634Y-6198484D01*
X2351015Y-6379436D02*
X2360539Y-6388960D01*
X2360539Y-6388960D02*
X2351015Y-6398484D01*
X2351015Y-6398484D02*
X2341491Y-6388960D01*
X2341491Y-6388960D02*
X2351015Y-6379436D01*
X2351015Y-6379436D02*
X2351015Y-6398484D01*
X2484348Y-6198484D02*
X2503396Y-6198484D01*
X2503396Y-6198484D02*
X2522444Y-6208008D01*
X2522444Y-6208008D02*
X2531968Y-6217531D01*
X2531968Y-6217531D02*
X2541491Y-6236579D01*
X2541491Y-6236579D02*
X2551015Y-6274674D01*
X2551015Y-6274674D02*
X2551015Y-6322293D01*
X2551015Y-6322293D02*
X2541491Y-6360388D01*
X2541491Y-6360388D02*
X2531968Y-6379436D01*
X2531968Y-6379436D02*
X2522444Y-6388960D01*
X2522444Y-6388960D02*
X2503396Y-6398484D01*
X2503396Y-6398484D02*
X2484348Y-6398484D01*
X2484348Y-6398484D02*
X2465301Y-6388960D01*
X2465301Y-6388960D02*
X2455777Y-6379436D01*
X2455777Y-6379436D02*
X2446253Y-6360388D01*
X2446253Y-6360388D02*
X2436729Y-6322293D01*
X2436729Y-6322293D02*
X2436729Y-6274674D01*
X2436729Y-6274674D02*
X2446253Y-6236579D01*
X2446253Y-6236579D02*
X2455777Y-6217531D01*
X2455777Y-6217531D02*
X2465301Y-6208008D01*
X2465301Y-6208008D02*
X2484348Y-6198484D01*
X2741491Y-6398484D02*
X2627206Y-6398484D01*
X2684348Y-6398484D02*
X2684348Y-6198484D01*
X2684348Y-6198484D02*
X2665301Y-6227055D01*
X2665301Y-6227055D02*
X2646253Y-6246103D01*
X2646253Y-6246103D02*
X2627206Y-6255627D01*
X2931967Y-6398484D02*
X2817682Y-6398484D01*
X2874825Y-6398484D02*
X2874825Y-6198484D01*
X2874825Y-6198484D02*
X2855777Y-6227055D01*
X2855777Y-6227055D02*
X2836729Y-6246103D01*
X2836729Y-6246103D02*
X2817682Y-6255627D01*
X3046253Y-6284198D02*
X3027206Y-6274674D01*
X3027206Y-6274674D02*
X3017682Y-6265150D01*
X3017682Y-6265150D02*
X3008158Y-6246103D01*
X3008158Y-6246103D02*
X3008158Y-6236579D01*
X3008158Y-6236579D02*
X3017682Y-6217531D01*
X3017682Y-6217531D02*
X3027206Y-6208008D01*
X3027206Y-6208008D02*
X3046253Y-6198484D01*
X3046253Y-6198484D02*
X3084348Y-6198484D01*
X3084348Y-6198484D02*
X3103396Y-6208008D01*
X3103396Y-6208008D02*
X3112920Y-6217531D01*
X3112920Y-6217531D02*
X3122444Y-6236579D01*
X3122444Y-6236579D02*
X3122444Y-6246103D01*
X3122444Y-6246103D02*
X3112920Y-6265150D01*
X3112920Y-6265150D02*
X3103396Y-6274674D01*
X3103396Y-6274674D02*
X3084348Y-6284198D01*
X3084348Y-6284198D02*
X3046253Y-6284198D01*
X3046253Y-6284198D02*
X3027206Y-6293722D01*
X3027206Y-6293722D02*
X3017682Y-6303246D01*
X3017682Y-6303246D02*
X3008158Y-6322293D01*
X3008158Y-6322293D02*
X3008158Y-6360388D01*
X3008158Y-6360388D02*
X3017682Y-6379436D01*
X3017682Y-6379436D02*
X3027206Y-6388960D01*
X3027206Y-6388960D02*
X3046253Y-6398484D01*
X3046253Y-6398484D02*
X3084348Y-6398484D01*
X3084348Y-6398484D02*
X3103396Y-6388960D01*
X3103396Y-6388960D02*
X3112920Y-6379436D01*
X3112920Y-6379436D02*
X3122444Y-6360388D01*
X3122444Y-6360388D02*
X3122444Y-6322293D01*
X3122444Y-6322293D02*
X3112920Y-6303246D01*
X3112920Y-6303246D02*
X3103396Y-6293722D01*
X3103396Y-6293722D02*
X3084348Y-6284198D01*
X3198634Y-6198484D02*
X3198634Y-6236579D01*
X3274825Y-6198484D02*
X3274825Y-6236579D01*
X3570063Y-6474674D02*
X3560539Y-6465150D01*
X3560539Y-6465150D02*
X3541491Y-6436579D01*
X3541491Y-6436579D02*
X3531968Y-6417531D01*
X3531968Y-6417531D02*
X3522444Y-6388960D01*
X3522444Y-6388960D02*
X3512920Y-6341341D01*
X3512920Y-6341341D02*
X3512920Y-6303246D01*
X3512920Y-6303246D02*
X3522444Y-6255627D01*
X3522444Y-6255627D02*
X3531968Y-6227055D01*
X3531968Y-6227055D02*
X3541491Y-6208008D01*
X3541491Y-6208008D02*
X3560539Y-6179436D01*
X3560539Y-6179436D02*
X3570063Y-6169912D01*
X3636729Y-6217531D02*
X3646253Y-6208008D01*
X3646253Y-6208008D02*
X3665301Y-6198484D01*
X3665301Y-6198484D02*
X3712920Y-6198484D01*
X3712920Y-6198484D02*
X3731968Y-6208008D01*
X3731968Y-6208008D02*
X3741491Y-6217531D01*
X3741491Y-6217531D02*
X3751015Y-6236579D01*
X3751015Y-6236579D02*
X3751015Y-6255627D01*
X3751015Y-6255627D02*
X3741491Y-6284198D01*
X3741491Y-6284198D02*
X3627206Y-6398484D01*
X3627206Y-6398484D02*
X3751015Y-6398484D01*
X3989110Y-6398484D02*
X3989110Y-6198484D01*
X4074825Y-6398484D02*
X4074825Y-6293722D01*
X4074825Y-6293722D02*
X4065301Y-6274674D01*
X4065301Y-6274674D02*
X4046253Y-6265150D01*
X4046253Y-6265150D02*
X4017682Y-6265150D01*
X4017682Y-6265150D02*
X3998634Y-6274674D01*
X3998634Y-6274674D02*
X3989110Y-6284198D01*
X4198634Y-6398484D02*
X4179587Y-6388960D01*
X4179587Y-6388960D02*
X4170063Y-6379436D01*
X4170063Y-6379436D02*
X4160539Y-6360388D01*
X4160539Y-6360388D02*
X4160539Y-6303246D01*
X4160539Y-6303246D02*
X4170063Y-6284198D01*
X4170063Y-6284198D02*
X4179587Y-6274674D01*
X4179587Y-6274674D02*
X4198634Y-6265150D01*
X4198634Y-6265150D02*
X4227206Y-6265150D01*
X4227206Y-6265150D02*
X4246253Y-6274674D01*
X4246253Y-6274674D02*
X4255777Y-6284198D01*
X4255777Y-6284198D02*
X4265301Y-6303246D01*
X4265301Y-6303246D02*
X4265301Y-6360388D01*
X4265301Y-6360388D02*
X4255777Y-6379436D01*
X4255777Y-6379436D02*
X4246253Y-6388960D01*
X4246253Y-6388960D02*
X4227206Y-6398484D01*
X4227206Y-6398484D02*
X4198634Y-6398484D01*
X4379587Y-6398484D02*
X4360539Y-6388960D01*
X4360539Y-6388960D02*
X4351015Y-6369912D01*
X4351015Y-6369912D02*
X4351015Y-6198484D01*
X4531968Y-6388960D02*
X4512920Y-6398484D01*
X4512920Y-6398484D02*
X4474825Y-6398484D01*
X4474825Y-6398484D02*
X4455777Y-6388960D01*
X4455777Y-6388960D02*
X4446253Y-6369912D01*
X4446253Y-6369912D02*
X4446253Y-6293722D01*
X4446253Y-6293722D02*
X4455777Y-6274674D01*
X4455777Y-6274674D02*
X4474825Y-6265150D01*
X4474825Y-6265150D02*
X4512920Y-6265150D01*
X4512920Y-6265150D02*
X4531968Y-6274674D01*
X4531968Y-6274674D02*
X4541492Y-6293722D01*
X4541492Y-6293722D02*
X4541492Y-6312769D01*
X4541492Y-6312769D02*
X4446253Y-6331817D01*
X4617682Y-6388960D02*
X4636730Y-6398484D01*
X4636730Y-6398484D02*
X4674825Y-6398484D01*
X4674825Y-6398484D02*
X4693873Y-6388960D01*
X4693873Y-6388960D02*
X4703396Y-6369912D01*
X4703396Y-6369912D02*
X4703396Y-6360388D01*
X4703396Y-6360388D02*
X4693873Y-6341341D01*
X4693873Y-6341341D02*
X4674825Y-6331817D01*
X4674825Y-6331817D02*
X4646253Y-6331817D01*
X4646253Y-6331817D02*
X4627206Y-6322293D01*
X4627206Y-6322293D02*
X4617682Y-6303246D01*
X4617682Y-6303246D02*
X4617682Y-6293722D01*
X4617682Y-6293722D02*
X4627206Y-6274674D01*
X4627206Y-6274674D02*
X4646253Y-6265150D01*
X4646253Y-6265150D02*
X4674825Y-6265150D01*
X4674825Y-6265150D02*
X4693873Y-6274674D01*
X4770063Y-6474674D02*
X4779587Y-6465150D01*
X4779587Y-6465150D02*
X4798634Y-6436579D01*
X4798634Y-6436579D02*
X4808158Y-6417531D01*
X4808158Y-6417531D02*
X4817682Y-6388960D01*
X4817682Y-6388960D02*
X4827206Y-6341341D01*
X4827206Y-6341341D02*
X4827206Y-6303246D01*
X4827206Y-6303246D02*
X4817682Y-6255627D01*
X4817682Y-6255627D02*
X4808158Y-6227055D01*
X4808158Y-6227055D02*
X4798634Y-6208008D01*
X4798634Y-6208008D02*
X4779587Y-6179436D01*
X4779587Y-6179436D02*
X4770063Y-6169912D01*
D10*
X-45000Y-6531000D02*
X-45000Y-6611000D01*
X-85000Y-6571000D02*
X-5000Y-6571000D01*
D11*
X293872Y-6462484D02*
X312920Y-6462484D01*
X312920Y-6462484D02*
X331967Y-6472008D01*
X331967Y-6472008D02*
X341491Y-6481531D01*
X341491Y-6481531D02*
X351015Y-6500579D01*
X351015Y-6500579D02*
X360539Y-6538674D01*
X360539Y-6538674D02*
X360539Y-6586293D01*
X360539Y-6586293D02*
X351015Y-6624388D01*
X351015Y-6624388D02*
X341491Y-6643436D01*
X341491Y-6643436D02*
X331967Y-6652960D01*
X331967Y-6652960D02*
X312920Y-6662484D01*
X312920Y-6662484D02*
X293872Y-6662484D01*
X293872Y-6662484D02*
X274824Y-6652960D01*
X274824Y-6652960D02*
X265301Y-6643436D01*
X265301Y-6643436D02*
X255777Y-6624388D01*
X255777Y-6624388D02*
X246253Y-6586293D01*
X246253Y-6586293D02*
X246253Y-6538674D01*
X246253Y-6538674D02*
X255777Y-6500579D01*
X255777Y-6500579D02*
X265301Y-6481531D01*
X265301Y-6481531D02*
X274824Y-6472008D01*
X274824Y-6472008D02*
X293872Y-6462484D01*
X446253Y-6643436D02*
X455777Y-6652960D01*
X455777Y-6652960D02*
X446253Y-6662484D01*
X446253Y-6662484D02*
X436729Y-6652960D01*
X436729Y-6652960D02*
X446253Y-6643436D01*
X446253Y-6643436D02*
X446253Y-6662484D01*
X570063Y-6548198D02*
X551015Y-6538674D01*
X551015Y-6538674D02*
X541491Y-6529150D01*
X541491Y-6529150D02*
X531967Y-6510103D01*
X531967Y-6510103D02*
X531967Y-6500579D01*
X531967Y-6500579D02*
X541491Y-6481531D01*
X541491Y-6481531D02*
X551015Y-6472008D01*
X551015Y-6472008D02*
X570063Y-6462484D01*
X570063Y-6462484D02*
X608158Y-6462484D01*
X608158Y-6462484D02*
X627205Y-6472008D01*
X627205Y-6472008D02*
X636729Y-6481531D01*
X636729Y-6481531D02*
X646253Y-6500579D01*
X646253Y-6500579D02*
X646253Y-6510103D01*
X646253Y-6510103D02*
X636729Y-6529150D01*
X636729Y-6529150D02*
X627205Y-6538674D01*
X627205Y-6538674D02*
X608158Y-6548198D01*
X608158Y-6548198D02*
X570063Y-6548198D01*
X570063Y-6548198D02*
X551015Y-6557722D01*
X551015Y-6557722D02*
X541491Y-6567246D01*
X541491Y-6567246D02*
X531967Y-6586293D01*
X531967Y-6586293D02*
X531967Y-6624388D01*
X531967Y-6624388D02*
X541491Y-6643436D01*
X541491Y-6643436D02*
X551015Y-6652960D01*
X551015Y-6652960D02*
X570063Y-6662484D01*
X570063Y-6662484D02*
X608158Y-6662484D01*
X608158Y-6662484D02*
X627205Y-6652960D01*
X627205Y-6652960D02*
X636729Y-6643436D01*
X636729Y-6643436D02*
X646253Y-6624388D01*
X646253Y-6624388D02*
X646253Y-6586293D01*
X646253Y-6586293D02*
X636729Y-6567246D01*
X636729Y-6567246D02*
X627205Y-6557722D01*
X627205Y-6557722D02*
X608158Y-6548198D01*
X770062Y-6462484D02*
X789110Y-6462484D01*
X789110Y-6462484D02*
X808158Y-6472008D01*
X808158Y-6472008D02*
X817682Y-6481531D01*
X817682Y-6481531D02*
X827205Y-6500579D01*
X827205Y-6500579D02*
X836729Y-6538674D01*
X836729Y-6538674D02*
X836729Y-6586293D01*
X836729Y-6586293D02*
X827205Y-6624388D01*
X827205Y-6624388D02*
X817682Y-6643436D01*
X817682Y-6643436D02*
X808158Y-6652960D01*
X808158Y-6652960D02*
X789110Y-6662484D01*
X789110Y-6662484D02*
X770062Y-6662484D01*
X770062Y-6662484D02*
X751015Y-6652960D01*
X751015Y-6652960D02*
X741491Y-6643436D01*
X741491Y-6643436D02*
X731967Y-6624388D01*
X731967Y-6624388D02*
X722443Y-6586293D01*
X722443Y-6586293D02*
X722443Y-6538674D01*
X722443Y-6538674D02*
X731967Y-6500579D01*
X731967Y-6500579D02*
X741491Y-6481531D01*
X741491Y-6481531D02*
X751015Y-6472008D01*
X751015Y-6472008D02*
X770062Y-6462484D01*
X960539Y-6462484D02*
X979586Y-6462484D01*
X979586Y-6462484D02*
X998634Y-6472008D01*
X998634Y-6472008D02*
X1008158Y-6481531D01*
X1008158Y-6481531D02*
X1017682Y-6500579D01*
X1017682Y-6500579D02*
X1027205Y-6538674D01*
X1027205Y-6538674D02*
X1027205Y-6586293D01*
X1027205Y-6586293D02*
X1017682Y-6624388D01*
X1017682Y-6624388D02*
X1008158Y-6643436D01*
X1008158Y-6643436D02*
X998634Y-6652960D01*
X998634Y-6652960D02*
X979586Y-6662484D01*
X979586Y-6662484D02*
X960539Y-6662484D01*
X960539Y-6662484D02*
X941491Y-6652960D01*
X941491Y-6652960D02*
X931967Y-6643436D01*
X931967Y-6643436D02*
X922443Y-6624388D01*
X922443Y-6624388D02*
X912920Y-6586293D01*
X912920Y-6586293D02*
X912920Y-6538674D01*
X912920Y-6538674D02*
X922443Y-6500579D01*
X922443Y-6500579D02*
X931967Y-6481531D01*
X931967Y-6481531D02*
X941491Y-6472008D01*
X941491Y-6472008D02*
X960539Y-6462484D01*
X1112920Y-6662484D02*
X1112920Y-6529150D01*
X1112920Y-6548198D02*
X1122444Y-6538674D01*
X1122444Y-6538674D02*
X1141491Y-6529150D01*
X1141491Y-6529150D02*
X1170063Y-6529150D01*
X1170063Y-6529150D02*
X1189110Y-6538674D01*
X1189110Y-6538674D02*
X1198634Y-6557722D01*
X1198634Y-6557722D02*
X1198634Y-6662484D01*
X1198634Y-6557722D02*
X1208158Y-6538674D01*
X1208158Y-6538674D02*
X1227205Y-6529150D01*
X1227205Y-6529150D02*
X1255777Y-6529150D01*
X1255777Y-6529150D02*
X1274825Y-6538674D01*
X1274825Y-6538674D02*
X1284348Y-6557722D01*
X1284348Y-6557722D02*
X1284348Y-6662484D01*
X1379586Y-6662484D02*
X1379586Y-6529150D01*
X1379586Y-6548198D02*
X1389110Y-6538674D01*
X1389110Y-6538674D02*
X1408158Y-6529150D01*
X1408158Y-6529150D02*
X1436729Y-6529150D01*
X1436729Y-6529150D02*
X1455777Y-6538674D01*
X1455777Y-6538674D02*
X1465301Y-6557722D01*
X1465301Y-6557722D02*
X1465301Y-6662484D01*
X1465301Y-6557722D02*
X1474824Y-6538674D01*
X1474824Y-6538674D02*
X1493872Y-6529150D01*
X1493872Y-6529150D02*
X1522443Y-6529150D01*
X1522443Y-6529150D02*
X1541491Y-6538674D01*
X1541491Y-6538674D02*
X1551015Y-6557722D01*
X1551015Y-6557722D02*
X1551015Y-6662484D01*
X1941491Y-6452960D02*
X1770063Y-6710103D01*
X2198634Y-6462484D02*
X2217682Y-6462484D01*
X2217682Y-6462484D02*
X2236729Y-6472008D01*
X2236729Y-6472008D02*
X2246253Y-6481531D01*
X2246253Y-6481531D02*
X2255777Y-6500579D01*
X2255777Y-6500579D02*
X2265301Y-6538674D01*
X2265301Y-6538674D02*
X2265301Y-6586293D01*
X2265301Y-6586293D02*
X2255777Y-6624388D01*
X2255777Y-6624388D02*
X2246253Y-6643436D01*
X2246253Y-6643436D02*
X2236729Y-6652960D01*
X2236729Y-6652960D02*
X2217682Y-6662484D01*
X2217682Y-6662484D02*
X2198634Y-6662484D01*
X2198634Y-6662484D02*
X2179587Y-6652960D01*
X2179587Y-6652960D02*
X2170063Y-6643436D01*
X2170063Y-6643436D02*
X2160539Y-6624388D01*
X2160539Y-6624388D02*
X2151015Y-6586293D01*
X2151015Y-6586293D02*
X2151015Y-6538674D01*
X2151015Y-6538674D02*
X2160539Y-6500579D01*
X2160539Y-6500579D02*
X2170063Y-6481531D01*
X2170063Y-6481531D02*
X2179587Y-6472008D01*
X2179587Y-6472008D02*
X2198634Y-6462484D01*
X2351015Y-6643436D02*
X2360539Y-6652960D01*
X2360539Y-6652960D02*
X2351015Y-6662484D01*
X2351015Y-6662484D02*
X2341491Y-6652960D01*
X2341491Y-6652960D02*
X2351015Y-6643436D01*
X2351015Y-6643436D02*
X2351015Y-6662484D01*
X2484348Y-6462484D02*
X2503396Y-6462484D01*
X2503396Y-6462484D02*
X2522444Y-6472008D01*
X2522444Y-6472008D02*
X2531968Y-6481531D01*
X2531968Y-6481531D02*
X2541491Y-6500579D01*
X2541491Y-6500579D02*
X2551015Y-6538674D01*
X2551015Y-6538674D02*
X2551015Y-6586293D01*
X2551015Y-6586293D02*
X2541491Y-6624388D01*
X2541491Y-6624388D02*
X2531968Y-6643436D01*
X2531968Y-6643436D02*
X2522444Y-6652960D01*
X2522444Y-6652960D02*
X2503396Y-6662484D01*
X2503396Y-6662484D02*
X2484348Y-6662484D01*
X2484348Y-6662484D02*
X2465301Y-6652960D01*
X2465301Y-6652960D02*
X2455777Y-6643436D01*
X2455777Y-6643436D02*
X2446253Y-6624388D01*
X2446253Y-6624388D02*
X2436729Y-6586293D01*
X2436729Y-6586293D02*
X2436729Y-6538674D01*
X2436729Y-6538674D02*
X2446253Y-6500579D01*
X2446253Y-6500579D02*
X2455777Y-6481531D01*
X2455777Y-6481531D02*
X2465301Y-6472008D01*
X2465301Y-6472008D02*
X2484348Y-6462484D01*
X2617682Y-6462484D02*
X2741491Y-6462484D01*
X2741491Y-6462484D02*
X2674825Y-6538674D01*
X2674825Y-6538674D02*
X2703396Y-6538674D01*
X2703396Y-6538674D02*
X2722444Y-6548198D01*
X2722444Y-6548198D02*
X2731968Y-6557722D01*
X2731968Y-6557722D02*
X2741491Y-6576769D01*
X2741491Y-6576769D02*
X2741491Y-6624388D01*
X2741491Y-6624388D02*
X2731968Y-6643436D01*
X2731968Y-6643436D02*
X2722444Y-6652960D01*
X2722444Y-6652960D02*
X2703396Y-6662484D01*
X2703396Y-6662484D02*
X2646253Y-6662484D01*
X2646253Y-6662484D02*
X2627206Y-6652960D01*
X2627206Y-6652960D02*
X2617682Y-6643436D01*
X2931967Y-6662484D02*
X2817682Y-6662484D01*
X2874825Y-6662484D02*
X2874825Y-6462484D01*
X2874825Y-6462484D02*
X2855777Y-6491055D01*
X2855777Y-6491055D02*
X2836729Y-6510103D01*
X2836729Y-6510103D02*
X2817682Y-6519627D01*
X3112920Y-6462484D02*
X3017682Y-6462484D01*
X3017682Y-6462484D02*
X3008158Y-6557722D01*
X3008158Y-6557722D02*
X3017682Y-6548198D01*
X3017682Y-6548198D02*
X3036729Y-6538674D01*
X3036729Y-6538674D02*
X3084348Y-6538674D01*
X3084348Y-6538674D02*
X3103396Y-6548198D01*
X3103396Y-6548198D02*
X3112920Y-6557722D01*
X3112920Y-6557722D02*
X3122444Y-6576769D01*
X3122444Y-6576769D02*
X3122444Y-6624388D01*
X3122444Y-6624388D02*
X3112920Y-6643436D01*
X3112920Y-6643436D02*
X3103396Y-6652960D01*
X3103396Y-6652960D02*
X3084348Y-6662484D01*
X3084348Y-6662484D02*
X3036729Y-6662484D01*
X3036729Y-6662484D02*
X3017682Y-6652960D01*
X3017682Y-6652960D02*
X3008158Y-6643436D01*
X3198634Y-6462484D02*
X3198634Y-6500579D01*
X3274825Y-6462484D02*
X3274825Y-6500579D01*
X3570063Y-6738674D02*
X3560539Y-6729150D01*
X3560539Y-6729150D02*
X3541491Y-6700579D01*
X3541491Y-6700579D02*
X3531968Y-6681531D01*
X3531968Y-6681531D02*
X3522444Y-6652960D01*
X3522444Y-6652960D02*
X3512920Y-6605341D01*
X3512920Y-6605341D02*
X3512920Y-6567246D01*
X3512920Y-6567246D02*
X3522444Y-6519627D01*
X3522444Y-6519627D02*
X3531968Y-6491055D01*
X3531968Y-6491055D02*
X3541491Y-6472008D01*
X3541491Y-6472008D02*
X3560539Y-6443436D01*
X3560539Y-6443436D02*
X3570063Y-6433912D01*
X3684348Y-6462484D02*
X3703396Y-6462484D01*
X3703396Y-6462484D02*
X3722444Y-6472008D01*
X3722444Y-6472008D02*
X3731968Y-6481531D01*
X3731968Y-6481531D02*
X3741491Y-6500579D01*
X3741491Y-6500579D02*
X3751015Y-6538674D01*
X3751015Y-6538674D02*
X3751015Y-6586293D01*
X3751015Y-6586293D02*
X3741491Y-6624388D01*
X3741491Y-6624388D02*
X3731968Y-6643436D01*
X3731968Y-6643436D02*
X3722444Y-6652960D01*
X3722444Y-6652960D02*
X3703396Y-6662484D01*
X3703396Y-6662484D02*
X3684348Y-6662484D01*
X3684348Y-6662484D02*
X3665301Y-6652960D01*
X3665301Y-6652960D02*
X3655777Y-6643436D01*
X3655777Y-6643436D02*
X3646253Y-6624388D01*
X3646253Y-6624388D02*
X3636729Y-6586293D01*
X3636729Y-6586293D02*
X3636729Y-6538674D01*
X3636729Y-6538674D02*
X3646253Y-6500579D01*
X3646253Y-6500579D02*
X3655777Y-6481531D01*
X3655777Y-6481531D02*
X3665301Y-6472008D01*
X3665301Y-6472008D02*
X3684348Y-6462484D01*
X3989110Y-6662484D02*
X3989110Y-6462484D01*
X4074825Y-6662484D02*
X4074825Y-6557722D01*
X4074825Y-6557722D02*
X4065301Y-6538674D01*
X4065301Y-6538674D02*
X4046253Y-6529150D01*
X4046253Y-6529150D02*
X4017682Y-6529150D01*
X4017682Y-6529150D02*
X3998634Y-6538674D01*
X3998634Y-6538674D02*
X3989110Y-6548198D01*
X4198634Y-6662484D02*
X4179587Y-6652960D01*
X4179587Y-6652960D02*
X4170063Y-6643436D01*
X4170063Y-6643436D02*
X4160539Y-6624388D01*
X4160539Y-6624388D02*
X4160539Y-6567246D01*
X4160539Y-6567246D02*
X4170063Y-6548198D01*
X4170063Y-6548198D02*
X4179587Y-6538674D01*
X4179587Y-6538674D02*
X4198634Y-6529150D01*
X4198634Y-6529150D02*
X4227206Y-6529150D01*
X4227206Y-6529150D02*
X4246253Y-6538674D01*
X4246253Y-6538674D02*
X4255777Y-6548198D01*
X4255777Y-6548198D02*
X4265301Y-6567246D01*
X4265301Y-6567246D02*
X4265301Y-6624388D01*
X4265301Y-6624388D02*
X4255777Y-6643436D01*
X4255777Y-6643436D02*
X4246253Y-6652960D01*
X4246253Y-6652960D02*
X4227206Y-6662484D01*
X4227206Y-6662484D02*
X4198634Y-6662484D01*
X4379587Y-6662484D02*
X4360539Y-6652960D01*
X4360539Y-6652960D02*
X4351015Y-6633912D01*
X4351015Y-6633912D02*
X4351015Y-6462484D01*
X4531968Y-6652960D02*
X4512920Y-6662484D01*
X4512920Y-6662484D02*
X4474825Y-6662484D01*
X4474825Y-6662484D02*
X4455777Y-6652960D01*
X4455777Y-6652960D02*
X4446253Y-6633912D01*
X4446253Y-6633912D02*
X4446253Y-6557722D01*
X4446253Y-6557722D02*
X4455777Y-6538674D01*
X4455777Y-6538674D02*
X4474825Y-6529150D01*
X4474825Y-6529150D02*
X4512920Y-6529150D01*
X4512920Y-6529150D02*
X4531968Y-6538674D01*
X4531968Y-6538674D02*
X4541492Y-6557722D01*
X4541492Y-6557722D02*
X4541492Y-6576769D01*
X4541492Y-6576769D02*
X4446253Y-6595817D01*
X4617682Y-6652960D02*
X4636730Y-6662484D01*
X4636730Y-6662484D02*
X4674825Y-6662484D01*
X4674825Y-6662484D02*
X4693873Y-6652960D01*
X4693873Y-6652960D02*
X4703396Y-6633912D01*
X4703396Y-6633912D02*
X4703396Y-6624388D01*
X4703396Y-6624388D02*
X4693873Y-6605341D01*
X4693873Y-6605341D02*
X4674825Y-6595817D01*
X4674825Y-6595817D02*
X4646253Y-6595817D01*
X4646253Y-6595817D02*
X4627206Y-6586293D01*
X4627206Y-6586293D02*
X4617682Y-6567246D01*
X4617682Y-6567246D02*
X4617682Y-6557722D01*
X4617682Y-6557722D02*
X4627206Y-6538674D01*
X4627206Y-6538674D02*
X4646253Y-6529150D01*
X4646253Y-6529150D02*
X4674825Y-6529150D01*
X4674825Y-6529150D02*
X4693873Y-6538674D01*
X4941492Y-6586293D02*
X5093873Y-6586293D01*
X5017682Y-6662484D02*
X5017682Y-6510103D01*
X5427206Y-6529150D02*
X5427206Y-6662484D01*
X5379587Y-6452960D02*
X5331968Y-6595817D01*
X5331968Y-6595817D02*
X5455777Y-6595817D01*
X5674825Y-6652960D02*
X5693873Y-6662484D01*
X5693873Y-6662484D02*
X5731968Y-6662484D01*
X5731968Y-6662484D02*
X5751015Y-6652960D01*
X5751015Y-6652960D02*
X5760539Y-6633912D01*
X5760539Y-6633912D02*
X5760539Y-6624388D01*
X5760539Y-6624388D02*
X5751015Y-6605341D01*
X5751015Y-6605341D02*
X5731968Y-6595817D01*
X5731968Y-6595817D02*
X5703396Y-6595817D01*
X5703396Y-6595817D02*
X5684349Y-6586293D01*
X5684349Y-6586293D02*
X5674825Y-6567246D01*
X5674825Y-6567246D02*
X5674825Y-6557722D01*
X5674825Y-6557722D02*
X5684349Y-6538674D01*
X5684349Y-6538674D02*
X5703396Y-6529150D01*
X5703396Y-6529150D02*
X5731968Y-6529150D01*
X5731968Y-6529150D02*
X5751015Y-6538674D01*
X5874825Y-6662484D02*
X5855777Y-6652960D01*
X5855777Y-6652960D02*
X5846254Y-6633912D01*
X5846254Y-6633912D02*
X5846254Y-6462484D01*
X5979587Y-6662484D02*
X5960539Y-6652960D01*
X5960539Y-6652960D02*
X5951015Y-6643436D01*
X5951015Y-6643436D02*
X5941492Y-6624388D01*
X5941492Y-6624388D02*
X5941492Y-6567246D01*
X5941492Y-6567246D02*
X5951015Y-6548198D01*
X5951015Y-6548198D02*
X5960539Y-6538674D01*
X5960539Y-6538674D02*
X5979587Y-6529150D01*
X5979587Y-6529150D02*
X6008158Y-6529150D01*
X6008158Y-6529150D02*
X6027206Y-6538674D01*
X6027206Y-6538674D02*
X6036730Y-6548198D01*
X6036730Y-6548198D02*
X6046254Y-6567246D01*
X6046254Y-6567246D02*
X6046254Y-6624388D01*
X6046254Y-6624388D02*
X6036730Y-6643436D01*
X6036730Y-6643436D02*
X6027206Y-6652960D01*
X6027206Y-6652960D02*
X6008158Y-6662484D01*
X6008158Y-6662484D02*
X5979587Y-6662484D01*
X6103396Y-6529150D02*
X6179587Y-6529150D01*
X6131968Y-6462484D02*
X6131968Y-6633912D01*
X6131968Y-6633912D02*
X6141492Y-6652960D01*
X6141492Y-6652960D02*
X6160539Y-6662484D01*
X6160539Y-6662484D02*
X6179587Y-6662484D01*
X6236730Y-6652960D02*
X6255777Y-6662484D01*
X6255777Y-6662484D02*
X6293873Y-6662484D01*
X6293873Y-6662484D02*
X6312920Y-6652960D01*
X6312920Y-6652960D02*
X6322444Y-6633912D01*
X6322444Y-6633912D02*
X6322444Y-6624388D01*
X6322444Y-6624388D02*
X6312920Y-6605341D01*
X6312920Y-6605341D02*
X6293873Y-6595817D01*
X6293873Y-6595817D02*
X6265301Y-6595817D01*
X6265301Y-6595817D02*
X6246254Y-6586293D01*
X6246254Y-6586293D02*
X6236730Y-6567246D01*
X6236730Y-6567246D02*
X6236730Y-6557722D01*
X6236730Y-6557722D02*
X6246254Y-6538674D01*
X6246254Y-6538674D02*
X6265301Y-6529150D01*
X6265301Y-6529150D02*
X6293873Y-6529150D01*
X6293873Y-6529150D02*
X6312920Y-6538674D01*
X6389111Y-6738674D02*
X6398635Y-6729150D01*
X6398635Y-6729150D02*
X6417682Y-6700579D01*
X6417682Y-6700579D02*
X6427206Y-6681531D01*
X6427206Y-6681531D02*
X6436730Y-6652960D01*
X6436730Y-6652960D02*
X6446254Y-6605341D01*
X6446254Y-6605341D02*
X6446254Y-6567246D01*
X6446254Y-6567246D02*
X6436730Y-6519627D01*
X6436730Y-6519627D02*
X6427206Y-6491055D01*
X6427206Y-6491055D02*
X6417682Y-6472008D01*
X6417682Y-6472008D02*
X6398635Y-6443436D01*
X6398635Y-6443436D02*
X6389111Y-6433912D01*
D10*
X-15983Y-6861517D02*
X-15983Y-6808483D01*
X-69017Y-6808483D01*
X-69017Y-6861517D01*
X-15983Y-6861517D01*
D11*
X293872Y-6726484D02*
X312920Y-6726484D01*
X312920Y-6726484D02*
X331967Y-6736008D01*
X331967Y-6736008D02*
X341491Y-6745531D01*
X341491Y-6745531D02*
X351015Y-6764579D01*
X351015Y-6764579D02*
X360539Y-6802674D01*
X360539Y-6802674D02*
X360539Y-6850293D01*
X360539Y-6850293D02*
X351015Y-6888388D01*
X351015Y-6888388D02*
X341491Y-6907436D01*
X341491Y-6907436D02*
X331967Y-6916960D01*
X331967Y-6916960D02*
X312920Y-6926484D01*
X312920Y-6926484D02*
X293872Y-6926484D01*
X293872Y-6926484D02*
X274824Y-6916960D01*
X274824Y-6916960D02*
X265301Y-6907436D01*
X265301Y-6907436D02*
X255777Y-6888388D01*
X255777Y-6888388D02*
X246253Y-6850293D01*
X246253Y-6850293D02*
X246253Y-6802674D01*
X246253Y-6802674D02*
X255777Y-6764579D01*
X255777Y-6764579D02*
X265301Y-6745531D01*
X265301Y-6745531D02*
X274824Y-6736008D01*
X274824Y-6736008D02*
X293872Y-6726484D01*
X446253Y-6907436D02*
X455777Y-6916960D01*
X455777Y-6916960D02*
X446253Y-6926484D01*
X446253Y-6926484D02*
X436729Y-6916960D01*
X436729Y-6916960D02*
X446253Y-6907436D01*
X446253Y-6907436D02*
X446253Y-6926484D01*
X522443Y-6726484D02*
X655777Y-6726484D01*
X655777Y-6726484D02*
X570063Y-6926484D01*
X827205Y-6726484D02*
X731967Y-6726484D01*
X731967Y-6726484D02*
X722443Y-6821722D01*
X722443Y-6821722D02*
X731967Y-6812198D01*
X731967Y-6812198D02*
X751015Y-6802674D01*
X751015Y-6802674D02*
X798634Y-6802674D01*
X798634Y-6802674D02*
X817682Y-6812198D01*
X817682Y-6812198D02*
X827205Y-6821722D01*
X827205Y-6821722D02*
X836729Y-6840769D01*
X836729Y-6840769D02*
X836729Y-6888388D01*
X836729Y-6888388D02*
X827205Y-6907436D01*
X827205Y-6907436D02*
X817682Y-6916960D01*
X817682Y-6916960D02*
X798634Y-6926484D01*
X798634Y-6926484D02*
X751015Y-6926484D01*
X751015Y-6926484D02*
X731967Y-6916960D01*
X731967Y-6916960D02*
X722443Y-6907436D01*
X960539Y-6726484D02*
X979586Y-6726484D01*
X979586Y-6726484D02*
X998634Y-6736008D01*
X998634Y-6736008D02*
X1008158Y-6745531D01*
X1008158Y-6745531D02*
X1017682Y-6764579D01*
X1017682Y-6764579D02*
X1027205Y-6802674D01*
X1027205Y-6802674D02*
X1027205Y-6850293D01*
X1027205Y-6850293D02*
X1017682Y-6888388D01*
X1017682Y-6888388D02*
X1008158Y-6907436D01*
X1008158Y-6907436D02*
X998634Y-6916960D01*
X998634Y-6916960D02*
X979586Y-6926484D01*
X979586Y-6926484D02*
X960539Y-6926484D01*
X960539Y-6926484D02*
X941491Y-6916960D01*
X941491Y-6916960D02*
X931967Y-6907436D01*
X931967Y-6907436D02*
X922443Y-6888388D01*
X922443Y-6888388D02*
X912920Y-6850293D01*
X912920Y-6850293D02*
X912920Y-6802674D01*
X912920Y-6802674D02*
X922443Y-6764579D01*
X922443Y-6764579D02*
X931967Y-6745531D01*
X931967Y-6745531D02*
X941491Y-6736008D01*
X941491Y-6736008D02*
X960539Y-6726484D01*
X1112920Y-6926484D02*
X1112920Y-6793150D01*
X1112920Y-6812198D02*
X1122444Y-6802674D01*
X1122444Y-6802674D02*
X1141491Y-6793150D01*
X1141491Y-6793150D02*
X1170063Y-6793150D01*
X1170063Y-6793150D02*
X1189110Y-6802674D01*
X1189110Y-6802674D02*
X1198634Y-6821722D01*
X1198634Y-6821722D02*
X1198634Y-6926484D01*
X1198634Y-6821722D02*
X1208158Y-6802674D01*
X1208158Y-6802674D02*
X1227205Y-6793150D01*
X1227205Y-6793150D02*
X1255777Y-6793150D01*
X1255777Y-6793150D02*
X1274825Y-6802674D01*
X1274825Y-6802674D02*
X1284348Y-6821722D01*
X1284348Y-6821722D02*
X1284348Y-6926484D01*
X1379586Y-6926484D02*
X1379586Y-6793150D01*
X1379586Y-6812198D02*
X1389110Y-6802674D01*
X1389110Y-6802674D02*
X1408158Y-6793150D01*
X1408158Y-6793150D02*
X1436729Y-6793150D01*
X1436729Y-6793150D02*
X1455777Y-6802674D01*
X1455777Y-6802674D02*
X1465301Y-6821722D01*
X1465301Y-6821722D02*
X1465301Y-6926484D01*
X1465301Y-6821722D02*
X1474824Y-6802674D01*
X1474824Y-6802674D02*
X1493872Y-6793150D01*
X1493872Y-6793150D02*
X1522443Y-6793150D01*
X1522443Y-6793150D02*
X1541491Y-6802674D01*
X1541491Y-6802674D02*
X1551015Y-6821722D01*
X1551015Y-6821722D02*
X1551015Y-6926484D01*
X1941491Y-6716960D02*
X1770063Y-6974103D01*
X2198634Y-6726484D02*
X2217682Y-6726484D01*
X2217682Y-6726484D02*
X2236729Y-6736008D01*
X2236729Y-6736008D02*
X2246253Y-6745531D01*
X2246253Y-6745531D02*
X2255777Y-6764579D01*
X2255777Y-6764579D02*
X2265301Y-6802674D01*
X2265301Y-6802674D02*
X2265301Y-6850293D01*
X2265301Y-6850293D02*
X2255777Y-6888388D01*
X2255777Y-6888388D02*
X2246253Y-6907436D01*
X2246253Y-6907436D02*
X2236729Y-6916960D01*
X2236729Y-6916960D02*
X2217682Y-6926484D01*
X2217682Y-6926484D02*
X2198634Y-6926484D01*
X2198634Y-6926484D02*
X2179587Y-6916960D01*
X2179587Y-6916960D02*
X2170063Y-6907436D01*
X2170063Y-6907436D02*
X2160539Y-6888388D01*
X2160539Y-6888388D02*
X2151015Y-6850293D01*
X2151015Y-6850293D02*
X2151015Y-6802674D01*
X2151015Y-6802674D02*
X2160539Y-6764579D01*
X2160539Y-6764579D02*
X2170063Y-6745531D01*
X2170063Y-6745531D02*
X2179587Y-6736008D01*
X2179587Y-6736008D02*
X2198634Y-6726484D01*
X2351015Y-6907436D02*
X2360539Y-6916960D01*
X2360539Y-6916960D02*
X2351015Y-6926484D01*
X2351015Y-6926484D02*
X2341491Y-6916960D01*
X2341491Y-6916960D02*
X2351015Y-6907436D01*
X2351015Y-6907436D02*
X2351015Y-6926484D01*
X2484348Y-6726484D02*
X2503396Y-6726484D01*
X2503396Y-6726484D02*
X2522444Y-6736008D01*
X2522444Y-6736008D02*
X2531968Y-6745531D01*
X2531968Y-6745531D02*
X2541491Y-6764579D01*
X2541491Y-6764579D02*
X2551015Y-6802674D01*
X2551015Y-6802674D02*
X2551015Y-6850293D01*
X2551015Y-6850293D02*
X2541491Y-6888388D01*
X2541491Y-6888388D02*
X2531968Y-6907436D01*
X2531968Y-6907436D02*
X2522444Y-6916960D01*
X2522444Y-6916960D02*
X2503396Y-6926484D01*
X2503396Y-6926484D02*
X2484348Y-6926484D01*
X2484348Y-6926484D02*
X2465301Y-6916960D01*
X2465301Y-6916960D02*
X2455777Y-6907436D01*
X2455777Y-6907436D02*
X2446253Y-6888388D01*
X2446253Y-6888388D02*
X2436729Y-6850293D01*
X2436729Y-6850293D02*
X2436729Y-6802674D01*
X2436729Y-6802674D02*
X2446253Y-6764579D01*
X2446253Y-6764579D02*
X2455777Y-6745531D01*
X2455777Y-6745531D02*
X2465301Y-6736008D01*
X2465301Y-6736008D02*
X2484348Y-6726484D01*
X2627206Y-6745531D02*
X2636729Y-6736008D01*
X2636729Y-6736008D02*
X2655777Y-6726484D01*
X2655777Y-6726484D02*
X2703396Y-6726484D01*
X2703396Y-6726484D02*
X2722444Y-6736008D01*
X2722444Y-6736008D02*
X2731968Y-6745531D01*
X2731968Y-6745531D02*
X2741491Y-6764579D01*
X2741491Y-6764579D02*
X2741491Y-6783627D01*
X2741491Y-6783627D02*
X2731968Y-6812198D01*
X2731968Y-6812198D02*
X2617682Y-6926484D01*
X2617682Y-6926484D02*
X2741491Y-6926484D01*
X2836729Y-6926484D02*
X2874825Y-6926484D01*
X2874825Y-6926484D02*
X2893872Y-6916960D01*
X2893872Y-6916960D02*
X2903396Y-6907436D01*
X2903396Y-6907436D02*
X2922444Y-6878865D01*
X2922444Y-6878865D02*
X2931967Y-6840769D01*
X2931967Y-6840769D02*
X2931967Y-6764579D01*
X2931967Y-6764579D02*
X2922444Y-6745531D01*
X2922444Y-6745531D02*
X2912920Y-6736008D01*
X2912920Y-6736008D02*
X2893872Y-6726484D01*
X2893872Y-6726484D02*
X2855777Y-6726484D01*
X2855777Y-6726484D02*
X2836729Y-6736008D01*
X2836729Y-6736008D02*
X2827206Y-6745531D01*
X2827206Y-6745531D02*
X2817682Y-6764579D01*
X2817682Y-6764579D02*
X2817682Y-6812198D01*
X2817682Y-6812198D02*
X2827206Y-6831246D01*
X2827206Y-6831246D02*
X2836729Y-6840769D01*
X2836729Y-6840769D02*
X2855777Y-6850293D01*
X2855777Y-6850293D02*
X2893872Y-6850293D01*
X2893872Y-6850293D02*
X2912920Y-6840769D01*
X2912920Y-6840769D02*
X2922444Y-6831246D01*
X2922444Y-6831246D02*
X2931967Y-6812198D01*
X3112920Y-6726484D02*
X3017682Y-6726484D01*
X3017682Y-6726484D02*
X3008158Y-6821722D01*
X3008158Y-6821722D02*
X3017682Y-6812198D01*
X3017682Y-6812198D02*
X3036729Y-6802674D01*
X3036729Y-6802674D02*
X3084348Y-6802674D01*
X3084348Y-6802674D02*
X3103396Y-6812198D01*
X3103396Y-6812198D02*
X3112920Y-6821722D01*
X3112920Y-6821722D02*
X3122444Y-6840769D01*
X3122444Y-6840769D02*
X3122444Y-6888388D01*
X3122444Y-6888388D02*
X3112920Y-6907436D01*
X3112920Y-6907436D02*
X3103396Y-6916960D01*
X3103396Y-6916960D02*
X3084348Y-6926484D01*
X3084348Y-6926484D02*
X3036729Y-6926484D01*
X3036729Y-6926484D02*
X3017682Y-6916960D01*
X3017682Y-6916960D02*
X3008158Y-6907436D01*
X3198634Y-6726484D02*
X3198634Y-6764579D01*
X3274825Y-6726484D02*
X3274825Y-6764579D01*
X3570063Y-7002674D02*
X3560539Y-6993150D01*
X3560539Y-6993150D02*
X3541491Y-6964579D01*
X3541491Y-6964579D02*
X3531968Y-6945531D01*
X3531968Y-6945531D02*
X3522444Y-6916960D01*
X3522444Y-6916960D02*
X3512920Y-6869341D01*
X3512920Y-6869341D02*
X3512920Y-6831246D01*
X3512920Y-6831246D02*
X3522444Y-6783627D01*
X3522444Y-6783627D02*
X3531968Y-6755055D01*
X3531968Y-6755055D02*
X3541491Y-6736008D01*
X3541491Y-6736008D02*
X3560539Y-6707436D01*
X3560539Y-6707436D02*
X3570063Y-6697912D01*
X3636729Y-6745531D02*
X3646253Y-6736008D01*
X3646253Y-6736008D02*
X3665301Y-6726484D01*
X3665301Y-6726484D02*
X3712920Y-6726484D01*
X3712920Y-6726484D02*
X3731968Y-6736008D01*
X3731968Y-6736008D02*
X3741491Y-6745531D01*
X3741491Y-6745531D02*
X3751015Y-6764579D01*
X3751015Y-6764579D02*
X3751015Y-6783627D01*
X3751015Y-6783627D02*
X3741491Y-6812198D01*
X3741491Y-6812198D02*
X3627206Y-6926484D01*
X3627206Y-6926484D02*
X3751015Y-6926484D01*
X3989110Y-6926484D02*
X3989110Y-6726484D01*
X4074825Y-6926484D02*
X4074825Y-6821722D01*
X4074825Y-6821722D02*
X4065301Y-6802674D01*
X4065301Y-6802674D02*
X4046253Y-6793150D01*
X4046253Y-6793150D02*
X4017682Y-6793150D01*
X4017682Y-6793150D02*
X3998634Y-6802674D01*
X3998634Y-6802674D02*
X3989110Y-6812198D01*
X4198634Y-6926484D02*
X4179587Y-6916960D01*
X4179587Y-6916960D02*
X4170063Y-6907436D01*
X4170063Y-6907436D02*
X4160539Y-6888388D01*
X4160539Y-6888388D02*
X4160539Y-6831246D01*
X4160539Y-6831246D02*
X4170063Y-6812198D01*
X4170063Y-6812198D02*
X4179587Y-6802674D01*
X4179587Y-6802674D02*
X4198634Y-6793150D01*
X4198634Y-6793150D02*
X4227206Y-6793150D01*
X4227206Y-6793150D02*
X4246253Y-6802674D01*
X4246253Y-6802674D02*
X4255777Y-6812198D01*
X4255777Y-6812198D02*
X4265301Y-6831246D01*
X4265301Y-6831246D02*
X4265301Y-6888388D01*
X4265301Y-6888388D02*
X4255777Y-6907436D01*
X4255777Y-6907436D02*
X4246253Y-6916960D01*
X4246253Y-6916960D02*
X4227206Y-6926484D01*
X4227206Y-6926484D02*
X4198634Y-6926484D01*
X4379587Y-6926484D02*
X4360539Y-6916960D01*
X4360539Y-6916960D02*
X4351015Y-6897912D01*
X4351015Y-6897912D02*
X4351015Y-6726484D01*
X4531968Y-6916960D02*
X4512920Y-6926484D01*
X4512920Y-6926484D02*
X4474825Y-6926484D01*
X4474825Y-6926484D02*
X4455777Y-6916960D01*
X4455777Y-6916960D02*
X4446253Y-6897912D01*
X4446253Y-6897912D02*
X4446253Y-6821722D01*
X4446253Y-6821722D02*
X4455777Y-6802674D01*
X4455777Y-6802674D02*
X4474825Y-6793150D01*
X4474825Y-6793150D02*
X4512920Y-6793150D01*
X4512920Y-6793150D02*
X4531968Y-6802674D01*
X4531968Y-6802674D02*
X4541492Y-6821722D01*
X4541492Y-6821722D02*
X4541492Y-6840769D01*
X4541492Y-6840769D02*
X4446253Y-6859817D01*
X4617682Y-6916960D02*
X4636730Y-6926484D01*
X4636730Y-6926484D02*
X4674825Y-6926484D01*
X4674825Y-6926484D02*
X4693873Y-6916960D01*
X4693873Y-6916960D02*
X4703396Y-6897912D01*
X4703396Y-6897912D02*
X4703396Y-6888388D01*
X4703396Y-6888388D02*
X4693873Y-6869341D01*
X4693873Y-6869341D02*
X4674825Y-6859817D01*
X4674825Y-6859817D02*
X4646253Y-6859817D01*
X4646253Y-6859817D02*
X4627206Y-6850293D01*
X4627206Y-6850293D02*
X4617682Y-6831246D01*
X4617682Y-6831246D02*
X4617682Y-6821722D01*
X4617682Y-6821722D02*
X4627206Y-6802674D01*
X4627206Y-6802674D02*
X4646253Y-6793150D01*
X4646253Y-6793150D02*
X4674825Y-6793150D01*
X4674825Y-6793150D02*
X4693873Y-6802674D01*
X4770063Y-7002674D02*
X4779587Y-6993150D01*
X4779587Y-6993150D02*
X4798634Y-6964579D01*
X4798634Y-6964579D02*
X4808158Y-6945531D01*
X4808158Y-6945531D02*
X4817682Y-6916960D01*
X4817682Y-6916960D02*
X4827206Y-6869341D01*
X4827206Y-6869341D02*
X4827206Y-6831246D01*
X4827206Y-6831246D02*
X4817682Y-6783627D01*
X4817682Y-6783627D02*
X4808158Y-6755055D01*
X4808158Y-6755055D02*
X4798634Y-6736008D01*
X4798634Y-6736008D02*
X4779587Y-6707436D01*
X4779587Y-6707436D02*
X4770063Y-6697912D01*
X5131968Y-7002674D02*
X5122444Y-6993150D01*
X5122444Y-6993150D02*
X5103396Y-6964579D01*
X5103396Y-6964579D02*
X5093873Y-6945531D01*
X5093873Y-6945531D02*
X5084349Y-6916960D01*
X5084349Y-6916960D02*
X5074825Y-6869341D01*
X5074825Y-6869341D02*
X5074825Y-6831246D01*
X5074825Y-6831246D02*
X5084349Y-6783627D01*
X5084349Y-6783627D02*
X5093873Y-6755055D01*
X5093873Y-6755055D02*
X5103396Y-6736008D01*
X5103396Y-6736008D02*
X5122444Y-6707436D01*
X5122444Y-6707436D02*
X5131968Y-6697912D01*
X5208158Y-6793150D02*
X5208158Y-6926484D01*
X5208158Y-6812198D02*
X5217682Y-6802674D01*
X5217682Y-6802674D02*
X5236730Y-6793150D01*
X5236730Y-6793150D02*
X5265301Y-6793150D01*
X5265301Y-6793150D02*
X5284349Y-6802674D01*
X5284349Y-6802674D02*
X5293873Y-6821722D01*
X5293873Y-6821722D02*
X5293873Y-6926484D01*
X5417682Y-6926484D02*
X5398634Y-6916960D01*
X5398634Y-6916960D02*
X5389111Y-6907436D01*
X5389111Y-6907436D02*
X5379587Y-6888388D01*
X5379587Y-6888388D02*
X5379587Y-6831246D01*
X5379587Y-6831246D02*
X5389111Y-6812198D01*
X5389111Y-6812198D02*
X5398634Y-6802674D01*
X5398634Y-6802674D02*
X5417682Y-6793150D01*
X5417682Y-6793150D02*
X5446254Y-6793150D01*
X5446254Y-6793150D02*
X5465301Y-6802674D01*
X5465301Y-6802674D02*
X5474825Y-6812198D01*
X5474825Y-6812198D02*
X5484349Y-6831246D01*
X5484349Y-6831246D02*
X5484349Y-6888388D01*
X5484349Y-6888388D02*
X5474825Y-6907436D01*
X5474825Y-6907436D02*
X5465301Y-6916960D01*
X5465301Y-6916960D02*
X5446254Y-6926484D01*
X5446254Y-6926484D02*
X5417682Y-6926484D01*
X5541492Y-6793150D02*
X5617682Y-6793150D01*
X5570063Y-6726484D02*
X5570063Y-6897912D01*
X5570063Y-6897912D02*
X5579587Y-6916960D01*
X5579587Y-6916960D02*
X5598634Y-6926484D01*
X5598634Y-6926484D02*
X5617682Y-6926484D01*
X5836730Y-6793150D02*
X5836730Y-6993150D01*
X5836730Y-6802674D02*
X5855777Y-6793150D01*
X5855777Y-6793150D02*
X5893873Y-6793150D01*
X5893873Y-6793150D02*
X5912920Y-6802674D01*
X5912920Y-6802674D02*
X5922444Y-6812198D01*
X5922444Y-6812198D02*
X5931968Y-6831246D01*
X5931968Y-6831246D02*
X5931968Y-6888388D01*
X5931968Y-6888388D02*
X5922444Y-6907436D01*
X5922444Y-6907436D02*
X5912920Y-6916960D01*
X5912920Y-6916960D02*
X5893873Y-6926484D01*
X5893873Y-6926484D02*
X5855777Y-6926484D01*
X5855777Y-6926484D02*
X5836730Y-6916960D01*
X6046253Y-6926484D02*
X6027206Y-6916960D01*
X6027206Y-6916960D02*
X6017682Y-6897912D01*
X6017682Y-6897912D02*
X6017682Y-6726484D01*
X6208158Y-6926484D02*
X6208158Y-6821722D01*
X6208158Y-6821722D02*
X6198634Y-6802674D01*
X6198634Y-6802674D02*
X6179587Y-6793150D01*
X6179587Y-6793150D02*
X6141492Y-6793150D01*
X6141492Y-6793150D02*
X6122444Y-6802674D01*
X6208158Y-6916960D02*
X6189111Y-6926484D01*
X6189111Y-6926484D02*
X6141492Y-6926484D01*
X6141492Y-6926484D02*
X6122444Y-6916960D01*
X6122444Y-6916960D02*
X6112920Y-6897912D01*
X6112920Y-6897912D02*
X6112920Y-6878865D01*
X6112920Y-6878865D02*
X6122444Y-6859817D01*
X6122444Y-6859817D02*
X6141492Y-6850293D01*
X6141492Y-6850293D02*
X6189111Y-6850293D01*
X6189111Y-6850293D02*
X6208158Y-6840769D01*
X6274825Y-6793150D02*
X6351015Y-6793150D01*
X6303396Y-6726484D02*
X6303396Y-6897912D01*
X6303396Y-6897912D02*
X6312920Y-6916960D01*
X6312920Y-6916960D02*
X6331968Y-6926484D01*
X6331968Y-6926484D02*
X6351015Y-6926484D01*
X6493873Y-6916960D02*
X6474825Y-6926484D01*
X6474825Y-6926484D02*
X6436730Y-6926484D01*
X6436730Y-6926484D02*
X6417682Y-6916960D01*
X6417682Y-6916960D02*
X6408158Y-6897912D01*
X6408158Y-6897912D02*
X6408158Y-6821722D01*
X6408158Y-6821722D02*
X6417682Y-6802674D01*
X6417682Y-6802674D02*
X6436730Y-6793150D01*
X6436730Y-6793150D02*
X6474825Y-6793150D01*
X6474825Y-6793150D02*
X6493873Y-6802674D01*
X6493873Y-6802674D02*
X6503396Y-6821722D01*
X6503396Y-6821722D02*
X6503396Y-6840769D01*
X6503396Y-6840769D02*
X6408158Y-6859817D01*
X6674825Y-6926484D02*
X6674825Y-6726484D01*
X6674825Y-6916960D02*
X6655777Y-6926484D01*
X6655777Y-6926484D02*
X6617682Y-6926484D01*
X6617682Y-6926484D02*
X6598634Y-6916960D01*
X6598634Y-6916960D02*
X6589111Y-6907436D01*
X6589111Y-6907436D02*
X6579587Y-6888388D01*
X6579587Y-6888388D02*
X6579587Y-6831246D01*
X6579587Y-6831246D02*
X6589111Y-6812198D01*
X6589111Y-6812198D02*
X6598634Y-6802674D01*
X6598634Y-6802674D02*
X6617682Y-6793150D01*
X6617682Y-6793150D02*
X6655777Y-6793150D01*
X6655777Y-6793150D02*
X6674825Y-6802674D01*
X6751015Y-7002674D02*
X6760539Y-6993150D01*
X6760539Y-6993150D02*
X6779587Y-6964579D01*
X6779587Y-6964579D02*
X6789111Y-6945531D01*
X6789111Y-6945531D02*
X6798634Y-6916960D01*
X6798634Y-6916960D02*
X6808158Y-6869341D01*
X6808158Y-6869341D02*
X6808158Y-6831246D01*
X6808158Y-6831246D02*
X6798634Y-6783627D01*
X6798634Y-6783627D02*
X6789111Y-6755055D01*
X6789111Y-6755055D02*
X6779587Y-6736008D01*
X6779587Y-6736008D02*
X6760539Y-6707436D01*
X6760539Y-6707436D02*
X6751015Y-6697912D01*
D10*
X-47500Y-7141500D02*
X-5000Y-7099000D01*
X-47500Y-7056500D01*
X-90000Y-7099000D01*
X-47500Y-7141500D01*
D11*
X293872Y-6990484D02*
X312920Y-6990484D01*
X312920Y-6990484D02*
X331967Y-7000008D01*
X331967Y-7000008D02*
X341491Y-7009531D01*
X341491Y-7009531D02*
X351015Y-7028579D01*
X351015Y-7028579D02*
X360539Y-7066674D01*
X360539Y-7066674D02*
X360539Y-7114293D01*
X360539Y-7114293D02*
X351015Y-7152388D01*
X351015Y-7152388D02*
X341491Y-7171436D01*
X341491Y-7171436D02*
X331967Y-7180960D01*
X331967Y-7180960D02*
X312920Y-7190484D01*
X312920Y-7190484D02*
X293872Y-7190484D01*
X293872Y-7190484D02*
X274824Y-7180960D01*
X274824Y-7180960D02*
X265301Y-7171436D01*
X265301Y-7171436D02*
X255777Y-7152388D01*
X255777Y-7152388D02*
X246253Y-7114293D01*
X246253Y-7114293D02*
X246253Y-7066674D01*
X246253Y-7066674D02*
X255777Y-7028579D01*
X255777Y-7028579D02*
X265301Y-7009531D01*
X265301Y-7009531D02*
X274824Y-7000008D01*
X274824Y-7000008D02*
X293872Y-6990484D01*
X446253Y-7171436D02*
X455777Y-7180960D01*
X455777Y-7180960D02*
X446253Y-7190484D01*
X446253Y-7190484D02*
X436729Y-7180960D01*
X436729Y-7180960D02*
X446253Y-7171436D01*
X446253Y-7171436D02*
X446253Y-7190484D01*
X570063Y-7076198D02*
X551015Y-7066674D01*
X551015Y-7066674D02*
X541491Y-7057150D01*
X541491Y-7057150D02*
X531967Y-7038103D01*
X531967Y-7038103D02*
X531967Y-7028579D01*
X531967Y-7028579D02*
X541491Y-7009531D01*
X541491Y-7009531D02*
X551015Y-7000008D01*
X551015Y-7000008D02*
X570063Y-6990484D01*
X570063Y-6990484D02*
X608158Y-6990484D01*
X608158Y-6990484D02*
X627205Y-7000008D01*
X627205Y-7000008D02*
X636729Y-7009531D01*
X636729Y-7009531D02*
X646253Y-7028579D01*
X646253Y-7028579D02*
X646253Y-7038103D01*
X646253Y-7038103D02*
X636729Y-7057150D01*
X636729Y-7057150D02*
X627205Y-7066674D01*
X627205Y-7066674D02*
X608158Y-7076198D01*
X608158Y-7076198D02*
X570063Y-7076198D01*
X570063Y-7076198D02*
X551015Y-7085722D01*
X551015Y-7085722D02*
X541491Y-7095246D01*
X541491Y-7095246D02*
X531967Y-7114293D01*
X531967Y-7114293D02*
X531967Y-7152388D01*
X531967Y-7152388D02*
X541491Y-7171436D01*
X541491Y-7171436D02*
X551015Y-7180960D01*
X551015Y-7180960D02*
X570063Y-7190484D01*
X570063Y-7190484D02*
X608158Y-7190484D01*
X608158Y-7190484D02*
X627205Y-7180960D01*
X627205Y-7180960D02*
X636729Y-7171436D01*
X636729Y-7171436D02*
X646253Y-7152388D01*
X646253Y-7152388D02*
X646253Y-7114293D01*
X646253Y-7114293D02*
X636729Y-7095246D01*
X636729Y-7095246D02*
X627205Y-7085722D01*
X627205Y-7085722D02*
X608158Y-7076198D01*
X827205Y-6990484D02*
X731967Y-6990484D01*
X731967Y-6990484D02*
X722443Y-7085722D01*
X722443Y-7085722D02*
X731967Y-7076198D01*
X731967Y-7076198D02*
X751015Y-7066674D01*
X751015Y-7066674D02*
X798634Y-7066674D01*
X798634Y-7066674D02*
X817682Y-7076198D01*
X817682Y-7076198D02*
X827205Y-7085722D01*
X827205Y-7085722D02*
X836729Y-7104769D01*
X836729Y-7104769D02*
X836729Y-7152388D01*
X836729Y-7152388D02*
X827205Y-7171436D01*
X827205Y-7171436D02*
X817682Y-7180960D01*
X817682Y-7180960D02*
X798634Y-7190484D01*
X798634Y-7190484D02*
X751015Y-7190484D01*
X751015Y-7190484D02*
X731967Y-7180960D01*
X731967Y-7180960D02*
X722443Y-7171436D01*
X960539Y-6990484D02*
X979586Y-6990484D01*
X979586Y-6990484D02*
X998634Y-7000008D01*
X998634Y-7000008D02*
X1008158Y-7009531D01*
X1008158Y-7009531D02*
X1017682Y-7028579D01*
X1017682Y-7028579D02*
X1027205Y-7066674D01*
X1027205Y-7066674D02*
X1027205Y-7114293D01*
X1027205Y-7114293D02*
X1017682Y-7152388D01*
X1017682Y-7152388D02*
X1008158Y-7171436D01*
X1008158Y-7171436D02*
X998634Y-7180960D01*
X998634Y-7180960D02*
X979586Y-7190484D01*
X979586Y-7190484D02*
X960539Y-7190484D01*
X960539Y-7190484D02*
X941491Y-7180960D01*
X941491Y-7180960D02*
X931967Y-7171436D01*
X931967Y-7171436D02*
X922443Y-7152388D01*
X922443Y-7152388D02*
X912920Y-7114293D01*
X912920Y-7114293D02*
X912920Y-7066674D01*
X912920Y-7066674D02*
X922443Y-7028579D01*
X922443Y-7028579D02*
X931967Y-7009531D01*
X931967Y-7009531D02*
X941491Y-7000008D01*
X941491Y-7000008D02*
X960539Y-6990484D01*
X1112920Y-7190484D02*
X1112920Y-7057150D01*
X1112920Y-7076198D02*
X1122444Y-7066674D01*
X1122444Y-7066674D02*
X1141491Y-7057150D01*
X1141491Y-7057150D02*
X1170063Y-7057150D01*
X1170063Y-7057150D02*
X1189110Y-7066674D01*
X1189110Y-7066674D02*
X1198634Y-7085722D01*
X1198634Y-7085722D02*
X1198634Y-7190484D01*
X1198634Y-7085722D02*
X1208158Y-7066674D01*
X1208158Y-7066674D02*
X1227205Y-7057150D01*
X1227205Y-7057150D02*
X1255777Y-7057150D01*
X1255777Y-7057150D02*
X1274825Y-7066674D01*
X1274825Y-7066674D02*
X1284348Y-7085722D01*
X1284348Y-7085722D02*
X1284348Y-7190484D01*
X1379586Y-7190484D02*
X1379586Y-7057150D01*
X1379586Y-7076198D02*
X1389110Y-7066674D01*
X1389110Y-7066674D02*
X1408158Y-7057150D01*
X1408158Y-7057150D02*
X1436729Y-7057150D01*
X1436729Y-7057150D02*
X1455777Y-7066674D01*
X1455777Y-7066674D02*
X1465301Y-7085722D01*
X1465301Y-7085722D02*
X1465301Y-7190484D01*
X1465301Y-7085722D02*
X1474824Y-7066674D01*
X1474824Y-7066674D02*
X1493872Y-7057150D01*
X1493872Y-7057150D02*
X1522443Y-7057150D01*
X1522443Y-7057150D02*
X1541491Y-7066674D01*
X1541491Y-7066674D02*
X1551015Y-7085722D01*
X1551015Y-7085722D02*
X1551015Y-7190484D01*
X1941491Y-6980960D02*
X1770063Y-7238103D01*
X2198634Y-6990484D02*
X2217682Y-6990484D01*
X2217682Y-6990484D02*
X2236729Y-7000008D01*
X2236729Y-7000008D02*
X2246253Y-7009531D01*
X2246253Y-7009531D02*
X2255777Y-7028579D01*
X2255777Y-7028579D02*
X2265301Y-7066674D01*
X2265301Y-7066674D02*
X2265301Y-7114293D01*
X2265301Y-7114293D02*
X2255777Y-7152388D01*
X2255777Y-7152388D02*
X2246253Y-7171436D01*
X2246253Y-7171436D02*
X2236729Y-7180960D01*
X2236729Y-7180960D02*
X2217682Y-7190484D01*
X2217682Y-7190484D02*
X2198634Y-7190484D01*
X2198634Y-7190484D02*
X2179587Y-7180960D01*
X2179587Y-7180960D02*
X2170063Y-7171436D01*
X2170063Y-7171436D02*
X2160539Y-7152388D01*
X2160539Y-7152388D02*
X2151015Y-7114293D01*
X2151015Y-7114293D02*
X2151015Y-7066674D01*
X2151015Y-7066674D02*
X2160539Y-7028579D01*
X2160539Y-7028579D02*
X2170063Y-7009531D01*
X2170063Y-7009531D02*
X2179587Y-7000008D01*
X2179587Y-7000008D02*
X2198634Y-6990484D01*
X2351015Y-7171436D02*
X2360539Y-7180960D01*
X2360539Y-7180960D02*
X2351015Y-7190484D01*
X2351015Y-7190484D02*
X2341491Y-7180960D01*
X2341491Y-7180960D02*
X2351015Y-7171436D01*
X2351015Y-7171436D02*
X2351015Y-7190484D01*
X2484348Y-6990484D02*
X2503396Y-6990484D01*
X2503396Y-6990484D02*
X2522444Y-7000008D01*
X2522444Y-7000008D02*
X2531968Y-7009531D01*
X2531968Y-7009531D02*
X2541491Y-7028579D01*
X2541491Y-7028579D02*
X2551015Y-7066674D01*
X2551015Y-7066674D02*
X2551015Y-7114293D01*
X2551015Y-7114293D02*
X2541491Y-7152388D01*
X2541491Y-7152388D02*
X2531968Y-7171436D01*
X2531968Y-7171436D02*
X2522444Y-7180960D01*
X2522444Y-7180960D02*
X2503396Y-7190484D01*
X2503396Y-7190484D02*
X2484348Y-7190484D01*
X2484348Y-7190484D02*
X2465301Y-7180960D01*
X2465301Y-7180960D02*
X2455777Y-7171436D01*
X2455777Y-7171436D02*
X2446253Y-7152388D01*
X2446253Y-7152388D02*
X2436729Y-7114293D01*
X2436729Y-7114293D02*
X2436729Y-7066674D01*
X2436729Y-7066674D02*
X2446253Y-7028579D01*
X2446253Y-7028579D02*
X2455777Y-7009531D01*
X2455777Y-7009531D02*
X2465301Y-7000008D01*
X2465301Y-7000008D02*
X2484348Y-6990484D01*
X2617682Y-6990484D02*
X2741491Y-6990484D01*
X2741491Y-6990484D02*
X2674825Y-7066674D01*
X2674825Y-7066674D02*
X2703396Y-7066674D01*
X2703396Y-7066674D02*
X2722444Y-7076198D01*
X2722444Y-7076198D02*
X2731968Y-7085722D01*
X2731968Y-7085722D02*
X2741491Y-7104769D01*
X2741491Y-7104769D02*
X2741491Y-7152388D01*
X2741491Y-7152388D02*
X2731968Y-7171436D01*
X2731968Y-7171436D02*
X2722444Y-7180960D01*
X2722444Y-7180960D02*
X2703396Y-7190484D01*
X2703396Y-7190484D02*
X2646253Y-7190484D01*
X2646253Y-7190484D02*
X2627206Y-7180960D01*
X2627206Y-7180960D02*
X2617682Y-7171436D01*
X2808158Y-6990484D02*
X2931967Y-6990484D01*
X2931967Y-6990484D02*
X2865301Y-7066674D01*
X2865301Y-7066674D02*
X2893872Y-7066674D01*
X2893872Y-7066674D02*
X2912920Y-7076198D01*
X2912920Y-7076198D02*
X2922444Y-7085722D01*
X2922444Y-7085722D02*
X2931967Y-7104769D01*
X2931967Y-7104769D02*
X2931967Y-7152388D01*
X2931967Y-7152388D02*
X2922444Y-7171436D01*
X2922444Y-7171436D02*
X2912920Y-7180960D01*
X2912920Y-7180960D02*
X2893872Y-7190484D01*
X2893872Y-7190484D02*
X2836729Y-7190484D01*
X2836729Y-7190484D02*
X2817682Y-7180960D01*
X2817682Y-7180960D02*
X2808158Y-7171436D01*
X3112920Y-6990484D02*
X3017682Y-6990484D01*
X3017682Y-6990484D02*
X3008158Y-7085722D01*
X3008158Y-7085722D02*
X3017682Y-7076198D01*
X3017682Y-7076198D02*
X3036729Y-7066674D01*
X3036729Y-7066674D02*
X3084348Y-7066674D01*
X3084348Y-7066674D02*
X3103396Y-7076198D01*
X3103396Y-7076198D02*
X3112920Y-7085722D01*
X3112920Y-7085722D02*
X3122444Y-7104769D01*
X3122444Y-7104769D02*
X3122444Y-7152388D01*
X3122444Y-7152388D02*
X3112920Y-7171436D01*
X3112920Y-7171436D02*
X3103396Y-7180960D01*
X3103396Y-7180960D02*
X3084348Y-7190484D01*
X3084348Y-7190484D02*
X3036729Y-7190484D01*
X3036729Y-7190484D02*
X3017682Y-7180960D01*
X3017682Y-7180960D02*
X3008158Y-7171436D01*
X3198634Y-6990484D02*
X3198634Y-7028579D01*
X3274825Y-6990484D02*
X3274825Y-7028579D01*
X3570063Y-7266674D02*
X3560539Y-7257150D01*
X3560539Y-7257150D02*
X3541491Y-7228579D01*
X3541491Y-7228579D02*
X3531968Y-7209531D01*
X3531968Y-7209531D02*
X3522444Y-7180960D01*
X3522444Y-7180960D02*
X3512920Y-7133341D01*
X3512920Y-7133341D02*
X3512920Y-7095246D01*
X3512920Y-7095246D02*
X3522444Y-7047627D01*
X3522444Y-7047627D02*
X3531968Y-7019055D01*
X3531968Y-7019055D02*
X3541491Y-7000008D01*
X3541491Y-7000008D02*
X3560539Y-6971436D01*
X3560539Y-6971436D02*
X3570063Y-6961912D01*
X3636729Y-7009531D02*
X3646253Y-7000008D01*
X3646253Y-7000008D02*
X3665301Y-6990484D01*
X3665301Y-6990484D02*
X3712920Y-6990484D01*
X3712920Y-6990484D02*
X3731968Y-7000008D01*
X3731968Y-7000008D02*
X3741491Y-7009531D01*
X3741491Y-7009531D02*
X3751015Y-7028579D01*
X3751015Y-7028579D02*
X3751015Y-7047627D01*
X3751015Y-7047627D02*
X3741491Y-7076198D01*
X3741491Y-7076198D02*
X3627206Y-7190484D01*
X3627206Y-7190484D02*
X3751015Y-7190484D01*
X3989110Y-7190484D02*
X3989110Y-6990484D01*
X4074825Y-7190484D02*
X4074825Y-7085722D01*
X4074825Y-7085722D02*
X4065301Y-7066674D01*
X4065301Y-7066674D02*
X4046253Y-7057150D01*
X4046253Y-7057150D02*
X4017682Y-7057150D01*
X4017682Y-7057150D02*
X3998634Y-7066674D01*
X3998634Y-7066674D02*
X3989110Y-7076198D01*
X4198634Y-7190484D02*
X4179587Y-7180960D01*
X4179587Y-7180960D02*
X4170063Y-7171436D01*
X4170063Y-7171436D02*
X4160539Y-7152388D01*
X4160539Y-7152388D02*
X4160539Y-7095246D01*
X4160539Y-7095246D02*
X4170063Y-7076198D01*
X4170063Y-7076198D02*
X4179587Y-7066674D01*
X4179587Y-7066674D02*
X4198634Y-7057150D01*
X4198634Y-7057150D02*
X4227206Y-7057150D01*
X4227206Y-7057150D02*
X4246253Y-7066674D01*
X4246253Y-7066674D02*
X4255777Y-7076198D01*
X4255777Y-7076198D02*
X4265301Y-7095246D01*
X4265301Y-7095246D02*
X4265301Y-7152388D01*
X4265301Y-7152388D02*
X4255777Y-7171436D01*
X4255777Y-7171436D02*
X4246253Y-7180960D01*
X4246253Y-7180960D02*
X4227206Y-7190484D01*
X4227206Y-7190484D02*
X4198634Y-7190484D01*
X4379587Y-7190484D02*
X4360539Y-7180960D01*
X4360539Y-7180960D02*
X4351015Y-7161912D01*
X4351015Y-7161912D02*
X4351015Y-6990484D01*
X4531968Y-7180960D02*
X4512920Y-7190484D01*
X4512920Y-7190484D02*
X4474825Y-7190484D01*
X4474825Y-7190484D02*
X4455777Y-7180960D01*
X4455777Y-7180960D02*
X4446253Y-7161912D01*
X4446253Y-7161912D02*
X4446253Y-7085722D01*
X4446253Y-7085722D02*
X4455777Y-7066674D01*
X4455777Y-7066674D02*
X4474825Y-7057150D01*
X4474825Y-7057150D02*
X4512920Y-7057150D01*
X4512920Y-7057150D02*
X4531968Y-7066674D01*
X4531968Y-7066674D02*
X4541492Y-7085722D01*
X4541492Y-7085722D02*
X4541492Y-7104769D01*
X4541492Y-7104769D02*
X4446253Y-7123817D01*
X4617682Y-7180960D02*
X4636730Y-7190484D01*
X4636730Y-7190484D02*
X4674825Y-7190484D01*
X4674825Y-7190484D02*
X4693873Y-7180960D01*
X4693873Y-7180960D02*
X4703396Y-7161912D01*
X4703396Y-7161912D02*
X4703396Y-7152388D01*
X4703396Y-7152388D02*
X4693873Y-7133341D01*
X4693873Y-7133341D02*
X4674825Y-7123817D01*
X4674825Y-7123817D02*
X4646253Y-7123817D01*
X4646253Y-7123817D02*
X4627206Y-7114293D01*
X4627206Y-7114293D02*
X4617682Y-7095246D01*
X4617682Y-7095246D02*
X4617682Y-7085722D01*
X4617682Y-7085722D02*
X4627206Y-7066674D01*
X4627206Y-7066674D02*
X4646253Y-7057150D01*
X4646253Y-7057150D02*
X4674825Y-7057150D01*
X4674825Y-7057150D02*
X4693873Y-7066674D01*
X4770063Y-7266674D02*
X4779587Y-7257150D01*
X4779587Y-7257150D02*
X4798634Y-7228579D01*
X4798634Y-7228579D02*
X4808158Y-7209531D01*
X4808158Y-7209531D02*
X4817682Y-7180960D01*
X4817682Y-7180960D02*
X4827206Y-7133341D01*
X4827206Y-7133341D02*
X4827206Y-7095246D01*
X4827206Y-7095246D02*
X4817682Y-7047627D01*
X4817682Y-7047627D02*
X4808158Y-7019055D01*
X4808158Y-7019055D02*
X4798634Y-7000008D01*
X4798634Y-7000008D02*
X4779587Y-6971436D01*
X4779587Y-6971436D02*
X4770063Y-6961912D01*
X5131968Y-7266674D02*
X5122444Y-7257150D01*
X5122444Y-7257150D02*
X5103396Y-7228579D01*
X5103396Y-7228579D02*
X5093873Y-7209531D01*
X5093873Y-7209531D02*
X5084349Y-7180960D01*
X5084349Y-7180960D02*
X5074825Y-7133341D01*
X5074825Y-7133341D02*
X5074825Y-7095246D01*
X5074825Y-7095246D02*
X5084349Y-7047627D01*
X5084349Y-7047627D02*
X5093873Y-7019055D01*
X5093873Y-7019055D02*
X5103396Y-7000008D01*
X5103396Y-7000008D02*
X5122444Y-6971436D01*
X5122444Y-6971436D02*
X5131968Y-6961912D01*
X5208158Y-7057150D02*
X5208158Y-7190484D01*
X5208158Y-7076198D02*
X5217682Y-7066674D01*
X5217682Y-7066674D02*
X5236730Y-7057150D01*
X5236730Y-7057150D02*
X5265301Y-7057150D01*
X5265301Y-7057150D02*
X5284349Y-7066674D01*
X5284349Y-7066674D02*
X5293873Y-7085722D01*
X5293873Y-7085722D02*
X5293873Y-7190484D01*
X5417682Y-7190484D02*
X5398634Y-7180960D01*
X5398634Y-7180960D02*
X5389111Y-7171436D01*
X5389111Y-7171436D02*
X5379587Y-7152388D01*
X5379587Y-7152388D02*
X5379587Y-7095246D01*
X5379587Y-7095246D02*
X5389111Y-7076198D01*
X5389111Y-7076198D02*
X5398634Y-7066674D01*
X5398634Y-7066674D02*
X5417682Y-7057150D01*
X5417682Y-7057150D02*
X5446254Y-7057150D01*
X5446254Y-7057150D02*
X5465301Y-7066674D01*
X5465301Y-7066674D02*
X5474825Y-7076198D01*
X5474825Y-7076198D02*
X5484349Y-7095246D01*
X5484349Y-7095246D02*
X5484349Y-7152388D01*
X5484349Y-7152388D02*
X5474825Y-7171436D01*
X5474825Y-7171436D02*
X5465301Y-7180960D01*
X5465301Y-7180960D02*
X5446254Y-7190484D01*
X5446254Y-7190484D02*
X5417682Y-7190484D01*
X5541492Y-7057150D02*
X5617682Y-7057150D01*
X5570063Y-6990484D02*
X5570063Y-7161912D01*
X5570063Y-7161912D02*
X5579587Y-7180960D01*
X5579587Y-7180960D02*
X5598634Y-7190484D01*
X5598634Y-7190484D02*
X5617682Y-7190484D01*
X5836730Y-7057150D02*
X5836730Y-7257150D01*
X5836730Y-7066674D02*
X5855777Y-7057150D01*
X5855777Y-7057150D02*
X5893873Y-7057150D01*
X5893873Y-7057150D02*
X5912920Y-7066674D01*
X5912920Y-7066674D02*
X5922444Y-7076198D01*
X5922444Y-7076198D02*
X5931968Y-7095246D01*
X5931968Y-7095246D02*
X5931968Y-7152388D01*
X5931968Y-7152388D02*
X5922444Y-7171436D01*
X5922444Y-7171436D02*
X5912920Y-7180960D01*
X5912920Y-7180960D02*
X5893873Y-7190484D01*
X5893873Y-7190484D02*
X5855777Y-7190484D01*
X5855777Y-7190484D02*
X5836730Y-7180960D01*
X6046253Y-7190484D02*
X6027206Y-7180960D01*
X6027206Y-7180960D02*
X6017682Y-7161912D01*
X6017682Y-7161912D02*
X6017682Y-6990484D01*
X6208158Y-7190484D02*
X6208158Y-7085722D01*
X6208158Y-7085722D02*
X6198634Y-7066674D01*
X6198634Y-7066674D02*
X6179587Y-7057150D01*
X6179587Y-7057150D02*
X6141492Y-7057150D01*
X6141492Y-7057150D02*
X6122444Y-7066674D01*
X6208158Y-7180960D02*
X6189111Y-7190484D01*
X6189111Y-7190484D02*
X6141492Y-7190484D01*
X6141492Y-7190484D02*
X6122444Y-7180960D01*
X6122444Y-7180960D02*
X6112920Y-7161912D01*
X6112920Y-7161912D02*
X6112920Y-7142865D01*
X6112920Y-7142865D02*
X6122444Y-7123817D01*
X6122444Y-7123817D02*
X6141492Y-7114293D01*
X6141492Y-7114293D02*
X6189111Y-7114293D01*
X6189111Y-7114293D02*
X6208158Y-7104769D01*
X6274825Y-7057150D02*
X6351015Y-7057150D01*
X6303396Y-6990484D02*
X6303396Y-7161912D01*
X6303396Y-7161912D02*
X6312920Y-7180960D01*
X6312920Y-7180960D02*
X6331968Y-7190484D01*
X6331968Y-7190484D02*
X6351015Y-7190484D01*
X6493873Y-7180960D02*
X6474825Y-7190484D01*
X6474825Y-7190484D02*
X6436730Y-7190484D01*
X6436730Y-7190484D02*
X6417682Y-7180960D01*
X6417682Y-7180960D02*
X6408158Y-7161912D01*
X6408158Y-7161912D02*
X6408158Y-7085722D01*
X6408158Y-7085722D02*
X6417682Y-7066674D01*
X6417682Y-7066674D02*
X6436730Y-7057150D01*
X6436730Y-7057150D02*
X6474825Y-7057150D01*
X6474825Y-7057150D02*
X6493873Y-7066674D01*
X6493873Y-7066674D02*
X6503396Y-7085722D01*
X6503396Y-7085722D02*
X6503396Y-7104769D01*
X6503396Y-7104769D02*
X6408158Y-7123817D01*
X6674825Y-7190484D02*
X6674825Y-6990484D01*
X6674825Y-7180960D02*
X6655777Y-7190484D01*
X6655777Y-7190484D02*
X6617682Y-7190484D01*
X6617682Y-7190484D02*
X6598634Y-7180960D01*
X6598634Y-7180960D02*
X6589111Y-7171436D01*
X6589111Y-7171436D02*
X6579587Y-7152388D01*
X6579587Y-7152388D02*
X6579587Y-7095246D01*
X6579587Y-7095246D02*
X6589111Y-7076198D01*
X6589111Y-7076198D02*
X6598634Y-7066674D01*
X6598634Y-7066674D02*
X6617682Y-7057150D01*
X6617682Y-7057150D02*
X6655777Y-7057150D01*
X6655777Y-7057150D02*
X6674825Y-7066674D01*
X6751015Y-7266674D02*
X6760539Y-7257150D01*
X6760539Y-7257150D02*
X6779587Y-7228579D01*
X6779587Y-7228579D02*
X6789111Y-7209531D01*
X6789111Y-7209531D02*
X6798634Y-7180960D01*
X6798634Y-7180960D02*
X6808158Y-7133341D01*
X6808158Y-7133341D02*
X6808158Y-7095246D01*
X6808158Y-7095246D02*
X6798634Y-7047627D01*
X6798634Y-7047627D02*
X6789111Y-7019055D01*
X6789111Y-7019055D02*
X6779587Y-7000008D01*
X6779587Y-7000008D02*
X6760539Y-6971436D01*
X6760539Y-6971436D02*
X6751015Y-6961912D01*
M02*
